<svg width="179" height="179" viewBox="0 0 179 179" fill="none" xmlns="http://www.w3.org/2000/svg">
<g clipPath="url(#clip0_760_259)">
<path d="M129.532 81.2412C128.843 82.791 127.653 83.2937 125.982 83.2937C117.193 83.2518 108.383 83.2727 99.5942 83.2727C97.5065 83.2727 96.4209 82.1837 96.4209 80.0893C96.4209 77.9321 96.4209 75.7539 96.4209 73.5967C96.4209 71.8583 97.5482 70.6645 99.2601 70.6436C104.145 70.6226 109.051 70.6226 113.937 70.6436C114.813 70.6436 115.377 71.1253 115.398 71.8374C115.419 72.5704 114.813 73.0731 113.895 73.0731C109.156 73.0731 104.417 73.094 99.6777 73.0521C98.9679 73.0521 98.7173 73.2406 98.7382 73.9737C98.78 75.9843 98.78 77.9949 98.7382 80.0055C98.7173 80.7176 98.9887 80.9061 99.6568 80.8851C108.529 80.8642 117.402 80.8642 126.296 80.8851C126.985 80.8851 127.193 80.6548 127.172 79.9636C127.131 77.9321 127.131 75.8796 127.172 73.848C127.172 73.2406 127.005 73.0312 126.379 73.0312C124.25 73.0521 122.099 73.0521 119.97 73.0312C118.989 73.0312 118.342 72.4238 118.488 71.6489C118.613 70.9577 119.093 70.6226 119.761 70.6226C122.099 70.6017 124.438 70.6017 126.797 70.6226C128.154 70.6436 128.926 71.5023 129.511 72.6123C129.532 75.5026 129.532 78.3719 129.532 81.2412Z" fill="white"/>
<path d="M129.531 122.773C128.905 124.344 127.757 124.867 126.108 124.867C117.339 124.825 108.571 124.804 99.8028 124.867C97.4855 124.888 96.2955 123.443 96.3999 121.412C96.5251 119.359 96.4208 117.286 96.4208 115.233C96.4208 113.39 97.5481 112.28 99.3853 112.28C100.784 112.28 102.204 112.28 103.602 112.28C104.437 112.28 104.959 112.762 104.959 113.453C104.939 114.144 104.417 114.605 103.582 114.626C102.245 114.626 100.93 114.647 99.594 114.626C98.9677 114.605 98.7798 114.835 98.7798 115.443C98.8007 117.474 98.8216 119.527 98.7798 121.558C98.759 122.27 98.9677 122.501 99.6984 122.501C107.381 122.48 115.064 122.48 122.726 122.48C123.957 122.48 125.168 122.459 126.4 122.501C127.026 122.522 127.214 122.291 127.193 121.684C127.172 119.652 127.151 117.6 127.193 115.568C127.214 114.856 126.984 114.626 126.254 114.626C120.742 114.647 115.21 114.647 109.698 114.647C109.448 114.647 109.156 114.689 108.926 114.626C108.321 114.458 107.987 114.018 108.028 113.411C108.07 112.825 108.404 112.385 109.051 112.322C109.26 112.301 109.469 112.322 109.678 112.322C115.147 112.322 120.617 112.364 126.066 112.301C127.736 112.28 128.863 112.825 129.511 114.374C129.531 117.139 129.531 119.945 129.531 122.773Z" fill="white"/>
<path d="M112.934 119.778C110.179 119.778 107.423 119.778 104.667 119.778C104.354 119.778 104.041 119.799 103.749 119.652C103.248 119.422 102.976 119.024 103.018 118.479C103.06 117.956 103.352 117.537 103.916 117.432C104.187 117.369 104.479 117.369 104.772 117.369C110.262 117.369 115.753 117.369 121.243 117.369C121.452 117.369 121.661 117.348 121.87 117.39C122.538 117.495 122.976 117.872 122.976 118.584C122.976 119.296 122.517 119.652 121.87 119.778C121.661 119.82 121.452 119.799 121.243 119.799C118.446 119.778 115.69 119.778 112.934 119.778Z" fill="white"/>
<path d="M112.976 78.1414C110.095 78.1414 107.193 78.1414 104.312 78.1414C103.539 78.1414 103.018 77.6597 102.997 77.0104C102.976 76.3193 103.519 75.8166 104.333 75.7957C104.375 75.7957 104.437 75.7957 104.479 75.7957C110.157 75.7957 115.815 75.7957 121.494 75.7957C122.391 75.7957 122.934 76.2355 122.955 76.9476C122.976 77.6806 122.433 78.1623 121.473 78.1623C118.633 78.1414 115.815 78.1414 112.976 78.1414Z" fill="white"/>
<path d="M73.4986 91.9016C73.4986 93.3676 73.4986 94.8128 73.4986 96.2788C73.4986 97.2422 73.0602 97.8077 72.3086 97.8077C71.5779 97.8077 71.1187 97.2213 71.1187 96.2788C71.1187 93.8912 71.1187 91.4827 71.1187 89.0951C71.1187 88.6553 71.0978 88.4039 70.5132 88.4039C69.7617 88.383 69.3441 87.8594 69.365 87.1892C69.3859 86.4562 69.8452 86.142 70.4924 86.0163C70.5341 86.0163 70.5967 85.9954 70.6385 85.9954C73.2063 85.9535 73.5612 85.9326 73.4777 88.6134C73.4777 89.7025 73.4986 90.8125 73.4986 91.9016Z" fill="white"/>
<path d="M126.609 91.4407C117.527 91.4616 108.446 91.4407 99.3645 91.4407C97.59 91.4407 96.4209 92.6135 96.4209 94.3728C96.4209 96.5091 96.4209 98.6454 96.4209 100.803C96.4209 103.044 97.4856 104.091 99.7194 104.091C108.404 104.091 117.11 104.07 125.795 104.112C127.486 104.112 128.78 103.714 129.511 102.101C129.511 99.2318 129.511 96.3625 129.511 93.4722C128.947 92.2365 128.07 91.4407 126.609 91.4407ZM127.193 100.865C127.193 101.494 126.985 101.661 126.379 101.661C121.912 101.64 117.423 101.64 112.955 101.64C108.55 101.64 104.166 101.619 99.7612 101.661C99.0305 101.661 98.7591 101.494 98.78 100.719C98.8217 98.7082 98.8217 96.6976 98.78 94.687C98.78 94.0377 98.9887 93.8283 99.6359 93.8283C108.529 93.8492 117.444 93.8492 126.337 93.8283C126.964 93.8283 127.214 94.0168 127.214 94.687C127.152 96.7395 127.152 98.8129 127.193 100.865Z" fill="white"/>
<path d="M126.651 49.8672C117.548 49.8881 108.425 49.8672 99.3228 49.8881C97.5274 49.8881 96.4209 51.04 96.4209 52.8412C96.4209 55.0403 96.4209 57.2185 96.4209 59.4176C96.4209 61.3654 97.5065 62.4545 99.4689 62.4545C108.342 62.4545 117.214 62.4335 126.087 62.4754C127.736 62.4754 128.884 61.9518 129.532 60.4229C129.532 57.5955 129.532 54.789 129.532 51.9616C128.989 50.684 128.133 49.8672 126.651 49.8672ZM126.317 60.1087C121.87 60.0878 117.423 60.0878 112.976 60.0878C108.55 60.0878 104.124 60.0669 99.6986 60.1087C98.9679 60.1087 98.7382 59.8784 98.7591 59.1663C98.8009 57.1347 98.78 55.1032 98.7591 53.0507C98.7591 52.4642 98.9261 52.2338 99.5524 52.2338C108.509 52.2548 117.444 52.2548 126.4 52.2338C126.985 52.2338 127.172 52.4223 127.172 52.9878C127.152 55.0822 127.152 57.1557 127.172 59.25C127.193 59.9412 126.943 60.1087 126.317 60.1087Z" fill="white"/>
<path d="M80.471 74.2248C80.471 72.6121 79.3645 71.3764 77.8614 71.2508C77.423 71.2089 76.9846 71.2508 76.5253 71.2298C76.0451 71.2089 75.4397 71.4393 75.0848 71.1251C74.7925 70.8738 75.0222 70.2874 74.9804 69.8475C74.8969 69.1564 74.4585 68.8003 73.8322 68.7794C73.2059 68.7584 72.7675 69.1354 72.6422 69.7847C72.6004 69.9522 72.6004 70.1617 72.6422 70.3292C72.7883 71.1251 72.4334 71.2508 71.7236 71.2298C68.7174 71.2089 65.7111 71.2298 62.684 71.2298C61.494 71.2298 61.494 71.2298 61.3687 70.036C61.3687 69.9941 61.3687 69.9313 61.3478 69.8894C61.2435 69.2402 60.7215 68.7375 60.1161 68.8003C59.4689 68.8632 59.0723 69.2402 58.9679 69.8685C58.9261 70.1826 58.9261 70.4968 58.947 70.8109C58.9679 71.1461 58.8635 71.2717 58.5086 71.2508C57.9032 71.2298 57.3186 71.2508 56.7132 71.2508C54.709 71.2508 53.4773 72.4446 53.4773 74.4342C53.4564 78.0575 53.4773 81.7018 53.4773 85.3251C53.4773 86.2675 53.9574 86.854 54.6673 86.854C55.3979 86.854 55.8781 86.2675 55.8781 85.346C55.899 84.3197 55.899 83.3144 55.8781 82.2882C55.8572 81.8274 55.9616 81.6599 56.4627 81.6599C63.4982 81.6808 70.5128 81.6808 77.5483 81.6599C77.9867 81.6599 78.1119 81.7646 78.1119 82.2254C78.0911 89.074 78.0911 95.9017 78.1119 102.75C78.1119 103.295 77.924 103.567 77.3395 103.567C73.9992 103.567 70.6798 103.567 67.3395 103.567C67.0472 103.567 66.8802 103.546 66.9219 103.148C67.089 101.368 66.6923 99.6716 65.7946 98.1218C65.6067 97.8076 65.6067 97.7029 65.9825 97.5144C67.423 96.8651 68.2163 95.7132 68.1746 94.1215C68.1328 92.5507 67.2977 91.3988 65.8155 90.8542C65.3144 90.6657 65.4397 90.5191 65.6693 90.2259C66.2539 89.5348 66.8384 88.8227 67.4021 88.1106C67.7361 87.6917 67.9032 87.2519 67.6735 86.7283C67.4439 86.2047 67.0055 85.9953 66.4835 85.9953C64.9178 85.9743 63.352 85.9743 61.8071 85.9953C60.9929 86.0162 60.4501 86.5398 60.4501 87.21C60.4501 87.9011 61.0138 88.3829 61.828 88.4038C62.5169 88.4247 63.2268 88.4038 64.0618 88.4038C63.2685 89.3672 62.6004 90.205 61.9115 91.0218C61.5984 91.3988 61.5566 91.8595 61.7445 92.2784C61.9533 92.7392 62.3499 92.9905 62.8718 92.9696C63.4773 92.9696 64.0827 92.9277 64.6673 92.9905C65.2309 93.0324 65.6276 93.3675 65.732 93.9539C65.8364 94.5404 65.6485 95.064 65.0848 95.2315C64.4376 95.4409 63.686 95.5666 63.0597 95.1477C60.9721 93.8073 58.7174 93.3256 56.2956 93.8911C55.9407 93.9749 55.8364 93.8701 55.8364 93.5141C55.8572 92.8439 55.8364 92.1528 55.8364 91.4825C55.8364 90.4772 55.3562 89.8908 54.6046 89.8908C53.8531 89.9118 53.4146 90.4982 53.4146 91.5035C53.4146 92.446 53.3938 93.3884 53.4146 94.3309C53.4355 94.8336 53.2894 95.1687 52.8718 95.5038C50.3249 97.5144 49.1766 100.174 49.5107 103.4C49.9073 107.337 52.7883 110.269 56.8176 111.065C60.2831 111.735 64.0827 109.871 65.8364 106.583C66.1078 106.08 66.3792 105.934 66.9011 105.955C70.3457 105.976 73.7696 105.976 77.2142 105.955C79.1558 105.955 80.3875 104.761 80.3875 102.876C80.4919 93.3256 80.4919 83.7752 80.471 74.2248ZM58.2581 108.824C54.7716 108.824 51.8489 105.871 51.8906 102.373C51.9324 98.8757 54.7716 96.0693 58.2998 96.0902C61.828 96.1111 64.6046 98.9176 64.5837 102.457C64.5837 105.997 61.7445 108.824 58.2581 108.824ZM77.2977 79.2513C73.8739 79.2094 70.4293 79.2304 66.9846 79.2304C63.5399 79.2304 60.1161 79.2094 56.6714 79.2513C56.0034 79.2513 55.8572 79.0628 55.8781 78.4345C55.9199 77.1151 55.9199 75.7746 55.8781 74.4342C55.8572 73.8269 56.1078 73.5755 56.7132 73.5755C57.2769 73.5965 57.8614 73.5965 58.4251 73.5755C58.8426 73.5546 58.9888 73.7012 58.947 74.1201C58.9261 74.3714 58.9261 74.6437 58.9679 74.895C59.0723 75.5652 59.4272 76.005 60.137 76.0469C60.7633 76.0888 61.2643 75.5862 61.3687 74.8741C61.4313 74.4552 61.1808 73.9106 61.4731 73.6803C61.8071 73.408 62.3708 73.5755 62.8301 73.5755C65.8572 73.5755 68.8635 73.5965 71.8906 73.5546C72.5796 73.5546 72.7675 73.764 72.6631 74.3714C72.6213 74.5808 72.6422 74.7903 72.6631 74.9997C72.7675 75.649 73.185 76.026 73.8322 76.026C74.4794 76.026 74.8969 75.649 74.9804 74.9788C75.043 74.518 74.7716 73.8897 75.1265 73.6593C75.4814 73.4289 76.0869 73.5755 76.567 73.5755C76.7549 73.5755 76.922 73.5965 77.1098 73.5755C77.8405 73.5127 78.1328 73.8269 78.1119 74.5808C78.0702 75.8375 78.0702 77.0941 78.1119 78.3298C78.1746 79.0209 78.0284 79.2723 77.2977 79.2513Z" fill="white"/>
<path d="M89.0726 101.955C90.9098 101.18 91.8701 99.7764 91.9328 97.7867C91.9745 95.9227 90.9098 94.31 89.1144 93.577C88.6551 93.3885 88.5925 93.1372 88.5925 92.7183C88.6134 89.1369 88.6134 85.5555 88.5925 81.995C88.5925 81.5552 88.6969 81.3248 89.1353 81.1363C90.9307 80.3614 91.8701 78.9582 91.9119 76.9894C91.9536 75.1254 90.8889 73.5128 89.1144 72.7797C88.6551 72.5912 88.5925 72.3399 88.5925 71.921C88.6134 68.4025 88.6134 64.8629 88.5925 61.3444C88.5925 60.7579 88.7386 60.4857 89.2814 60.2553C91.2647 59.3966 92.3086 57.2813 91.8493 55.1659C91.4109 53.0925 89.5319 51.6055 87.4025 51.6055C85.3148 51.6055 83.415 53.1344 82.9975 55.124C82.5591 57.3231 83.6238 59.4385 85.6697 60.2972C86.1499 60.5066 86.2543 60.7161 86.2543 61.1978C86.2334 64.7792 86.2334 68.3606 86.2543 71.921C86.2543 72.3399 86.1708 72.5493 85.7532 72.7169C83.9161 73.4709 82.9557 74.916 82.8931 76.8847C82.8305 78.6859 83.9578 80.3614 85.7324 81.0944C86.1916 81.2829 86.2752 81.5133 86.2752 81.9531C86.2543 85.5345 86.2543 89.1159 86.2752 92.6764C86.2752 93.1372 86.1499 93.3466 85.7115 93.5142C83.8952 94.2891 82.9766 95.7133 82.914 97.661C82.8305 99.4622 83.9787 101.138 85.7324 101.871C86.1708 102.059 86.2752 102.269 86.2752 102.709C86.2543 106.206 86.2543 109.704 86.2752 113.201C86.2752 113.809 86.1499 114.144 85.5236 114.395C83.3733 115.338 82.3712 117.83 83.1645 120.029C83.9578 122.228 86.3378 123.464 88.5716 122.857C90.4296 122.354 91.7658 120.783 91.9119 118.877C92.058 116.867 91.0351 115.086 89.1979 114.311C88.7804 114.144 88.5925 113.997 88.5925 113.495C88.6134 109.871 88.6134 106.227 88.5925 102.604C88.5716 102.269 88.7177 102.122 89.0726 101.955ZM85.2939 56.1293C85.3148 54.9565 86.2752 53.9931 87.4234 53.9931C88.5716 54.014 89.5319 54.9984 89.5319 56.1503C89.5319 57.365 88.5299 58.3494 87.3399 58.3075C86.1916 58.2866 85.2731 57.3231 85.2939 56.1293ZM85.2939 76.9476C85.2939 75.7538 86.2334 74.8322 87.4025 74.8113C88.6134 74.8113 89.5528 75.7956 89.5319 77.0104C89.5111 78.2042 88.5716 79.1048 87.3607 79.0838C86.1916 79.0838 85.2939 78.1623 85.2939 76.9476ZM89.5528 118.521C89.5737 119.736 88.5925 120.741 87.4025 120.72C86.2543 120.72 85.2939 119.736 85.2939 118.563C85.2939 117.369 86.2334 116.406 87.4025 116.406C88.5507 116.385 89.5319 117.348 89.5528 118.521ZM87.3607 99.902C86.1708 99.8811 85.2731 98.9386 85.2939 97.7239C85.2939 96.5301 86.2125 95.6085 87.4234 95.6295C88.6134 95.6295 89.5319 96.551 89.5528 97.7448C89.5528 98.9596 88.5716 99.923 87.3607 99.902Z" fill="white"/>
<path d="M112.997 96.593C115.815 96.593 118.613 96.593 121.431 96.593C122.412 96.593 122.955 97.0119 122.955 97.7449C122.976 98.5199 122.412 98.9597 121.389 98.9597C115.753 98.9597 110.095 98.9597 104.458 98.9597C103.331 98.9597 102.663 98.0591 103.143 97.2004C103.414 96.7187 103.874 96.593 104.396 96.593C107.277 96.593 110.137 96.593 112.997 96.593Z" fill="white"/>
<path d="M113.018 57.365C110.262 57.365 107.506 57.365 104.75 57.365C104.458 57.365 104.187 57.344 103.894 57.2812C103.331 57.1555 103.059 56.7576 103.018 56.2131C102.976 55.6685 103.268 55.2706 103.769 55.0402C104.061 54.9146 104.375 54.9146 104.688 54.9146C110.22 54.9146 115.773 54.9146 121.306 54.9146C121.556 54.9146 121.828 54.9146 122.078 54.9983C122.684 55.1659 122.997 55.5848 122.955 56.2131C122.913 56.7995 122.558 57.1765 121.995 57.2812C121.744 57.3231 121.473 57.3231 121.222 57.3231C118.466 57.365 115.732 57.365 113.018 57.365Z" fill="white"/>
<path d="M59.7197 103.651C59.2813 103.651 58.8429 103.672 58.4045 103.651C57.5277 103.63 57.0684 103.169 57.0684 102.29C57.0475 100.991 57.0475 99.6926 57.0684 98.3732C57.0893 97.5354 57.5486 97.0537 58.2792 97.0746C58.9891 97.0956 59.4066 97.5354 59.4275 98.3522C59.4484 99.0852 59.4901 99.8183 59.4275 100.53C59.3648 101.18 59.6362 101.347 60.2208 101.284C60.5548 101.242 60.8889 101.263 61.2229 101.284C61.9536 101.326 62.4129 101.787 62.392 102.478C62.392 103.127 61.9118 103.609 61.1811 103.651C60.7218 103.672 60.2208 103.651 59.7197 103.651Z" fill="white"/>
</g>
<circle cx="89.5481" cy="89.5435" r="76.4417" stroke="#0E35E3" strokeWidth="26"/>
<defs>
<clipPath id="clip0_760_259">
<rect width="80" height="75" fill="white" transform="translate(49.5312 49.8672)"/>
</clipPath>
</defs>
</svg>
