<svg width="23" height="25" viewBox="0 0 23 25" fill="none" xmlns="http://www.w3.org/2000/svg">
<g clip-path="url(#clip0_1858_3060)">
<path d="M20.0504 13.9975C18.9994 13.9787 19.3089 14.1291 18.6641 13.3208C18.4255 13.0263 18.1999 12.7255 17.9742 12.4247C17.7872 12.1803 17.7937 11.9735 17.9871 11.8294C18.1805 11.6853 18.3998 11.7354 18.5803 11.9672C18.8769 12.3432 19.1735 12.7255 19.4572 13.1077C19.5346 13.2142 19.6248 13.2518 19.7538 13.2518C20.0568 13.2456 20.3663 13.2456 20.6694 13.2518C20.9273 13.2581 21.1014 13.4085 21.1014 13.6216C21.1014 13.8409 20.9273 13.9913 20.6694 13.9975C20.4695 14.0038 20.2567 13.9975 20.0504 13.9975Z" fill="white"/>
<path d="M13.2026 1.30835C13.2026 1.12036 13.1961 0.98877 13.2026 0.857177C13.2219 0.656655 13.3896 0.506263 13.5895 0.518796C13.8022 0.531329 13.9248 0.644122 13.9634 0.850911C13.9699 0.875976 13.9699 0.901041 13.9634 0.91984C13.8667 1.35222 14.0859 1.64047 14.4019 1.89112C14.4857 1.96005 14.5695 2.04151 14.634 2.12297C14.7694 2.29216 14.7565 2.49269 14.6082 2.63055C14.447 2.7684 14.2665 2.7872 14.1053 2.64934C13.8151 2.39243 13.5379 2.12297 13.2735 1.84099C13.1252 1.67807 13.2284 1.45248 13.2026 1.30835Z" fill="white"/>
<path d="M20.7457 4.77344C20.9004 4.78597 21.0229 4.84237 21.0938 4.97396C21.1712 5.11809 21.1712 5.26848 21.0552 5.38754C20.7134 5.73218 20.3652 6.07683 20.0042 6.40895C19.8494 6.55307 19.6173 6.52801 19.4883 6.37762C19.3529 6.22096 19.3271 6.03923 19.4754 5.88884C19.8172 5.53793 20.1718 5.20581 20.5264 4.86117C20.5845 4.7985 20.6747 4.79224 20.7457 4.77344Z" fill="white"/>
<path d="M10.1142 1.48359C10.1142 1.32066 10.1077 1.15774 10.1142 0.994813C10.1271 0.775492 10.2818 0.618834 10.4882 0.618834C10.7074 0.612567 10.875 0.769225 10.8815 1.00108C10.8879 1.32693 10.8879 1.65278 10.8815 1.98489C10.875 2.22301 10.7138 2.37967 10.4946 2.3734C10.2754 2.3734 10.1271 2.21674 10.1142 1.97862C10.1142 1.97236 10.1142 1.96609 10.1142 1.95356C10.1142 1.79064 10.1142 1.63398 10.1142 1.48359Z" fill="white"/>
<path d="M18.7926 14.7436C18.612 14.7749 18.5411 14.7185 18.4637 14.5744C18.1284 13.9728 17.7802 13.3713 17.445 12.7697C17.3353 12.5754 17.187 12.4877 16.9614 12.494C16.5358 12.5002 16.1103 12.494 15.6847 12.5002C15.5429 12.5002 15.5106 12.4626 15.5171 12.3311C15.53 12.0679 15.53 11.7984 15.5171 11.5352C15.5106 11.3974 15.5622 11.366 15.6912 11.3723C15.8975 11.3848 16.1103 11.3848 16.3166 11.3723C16.5294 11.3598 16.6777 11.1969 16.6712 11.0026C16.6712 10.8083 16.5229 10.6517 16.3101 10.6329C16.2457 10.6266 16.1812 10.6329 16.1167 10.6329C15.4848 10.6329 15.4848 10.6329 15.5106 10.025C15.5171 9.91226 15.5493 9.88092 15.6589 9.88092C15.9813 9.88719 16.3037 9.88719 16.6261 9.88092C16.9098 9.87466 17.0516 9.7368 17.0581 9.46108C17.0645 9.27309 17.0645 9.0851 17.0581 8.89711C17.0516 8.77178 17.0903 8.75299 17.2193 8.75299C17.9737 8.75299 18.5282 8.4146 18.8441 7.75037C19.1407 7.13001 19.0053 6.40312 18.5024 5.91434C18.3734 5.78902 18.4057 5.73889 18.5153 5.63236C19.0376 5.13732 19.5534 4.62975 20.0692 4.12844C20.1402 4.05951 20.224 3.98432 20.2498 3.88406C20.2885 3.7086 20.2433 3.55194 20.0757 3.46421C19.8887 3.36395 19.721 3.40782 19.5727 3.55194C19.0118 4.09711 18.4444 4.64228 17.8899 5.19372C17.7351 5.34411 17.6062 5.42557 17.3611 5.40051C16.6261 5.33158 15.9426 5.77022 15.6654 6.43445C15.3752 7.11748 15.5622 7.8569 16.1361 8.35194C16.2005 8.40834 16.2972 8.43967 16.3101 8.55873C16.3811 9.12897 16.3746 9.1415 15.7943 9.13523C15.7621 9.13523 15.7298 9.12897 15.6976 9.13523C15.5815 9.14776 15.5364 9.11643 15.5235 8.99111C15.4719 8.52113 15.272 8.08249 14.8271 7.90703C14.3565 7.71904 14.3307 7.42453 14.3758 7.04228C14.3822 6.97962 14.3822 6.91695 14.3758 6.85429C14.3565 6.7039 14.4145 6.59111 14.5048 6.47205C14.9883 5.87675 15.4719 5.28145 15.9362 4.67361C16.0651 4.49816 16.1812 4.44802 16.3811 4.54829C16.5165 4.61722 16.6777 4.62348 16.826 4.62975C17.6126 4.65481 18.3219 4.15351 18.5475 3.41408C18.7668 2.68719 18.4444 1.8851 17.7674 1.49032C17.0903 1.09554 16.2199 1.20207 15.6589 1.74098C15.0979 2.28614 14.9754 3.12583 15.3881 3.7838C15.4913 3.94672 15.4719 4.04071 15.3559 4.18484C14.9045 4.72374 14.4919 5.29398 14.0276 5.82035C13.6988 6.19006 13.5182 6.57857 13.5956 7.07361C13.6149 7.20521 13.5892 7.3368 13.6021 7.47466C13.6085 7.59372 13.5827 7.63758 13.4473 7.63132C13.1636 7.61878 12.8863 7.62505 12.6026 7.63132C12.4801 7.63758 12.435 7.60625 12.4414 7.48092C12.4479 7.06735 12.4479 6.65377 12.4414 6.24019C12.4414 6.12113 12.4866 6.0898 12.5897 6.0522C13.4538 5.77648 13.9825 5.09346 13.9889 4.2663C13.9889 3.42035 13.4666 2.73732 12.5897 2.4616C12.4801 2.424 12.4414 2.38641 12.4414 2.27361C12.4479 1.83497 12.4479 1.39633 12.4414 0.963952C12.4414 0.688234 12.2931 0.519043 12.061 0.519043C11.8289 0.519043 11.6742 0.6945 11.6742 0.963952C11.6742 1.40259 11.6677 1.84124 11.6742 2.27361C11.6742 2.38641 11.6419 2.43654 11.5259 2.4616C11.2421 2.53053 10.9842 2.66212 10.7715 2.86265C10.2298 3.35769 10.0106 3.95925 10.1718 4.66735C10.333 5.36291 10.7779 5.82035 11.4678 6.0522C11.5516 6.08353 11.6742 6.06474 11.6677 6.22139C11.6548 6.65377 11.6613 7.07988 11.6677 7.51225C11.6677 7.61878 11.6355 7.64385 11.5323 7.64385C11.2615 7.63758 10.9842 7.63131 10.7134 7.64385C10.5393 7.65638 10.4878 7.59998 10.5071 7.43706C10.5716 6.98588 10.4168 6.59111 10.1847 6.19633C9.74625 5.4569 9.34648 4.69241 8.92093 3.93419C8.85645 3.82139 8.85645 3.7462 8.94672 3.6334C9.39807 3.08197 9.48189 2.47413 9.16595 1.83497C8.84355 1.18954 8.29549 0.86369 7.57333 0.876223C6.85762 0.888756 6.34179 1.23967 6.0323 1.8663C5.98072 1.97283 5.91624 2.04802 5.82597 2.11069C4.81366 2.81878 4.14953 3.77126 3.78845 4.93053C3.47896 5.93941 3.40803 6.97335 3.38224 8.00729C3.35645 8.95351 3.08564 9.81199 2.55692 10.6078C2.00885 11.4287 1.4092 12.2057 0.803107 12.9828C0.0680545 13.9227 0.583881 15.2261 1.77673 15.4642C2.15715 15.5394 2.54402 15.4955 2.93089 15.4893C3.12433 15.4893 3.16946 15.5457 3.16301 15.7211C3.15657 16.5859 3.26618 17.4318 3.55633 18.2527C4.03347 19.5875 5.00065 20.5525 6.78669 20.3457C7.47016 20.2642 8.15364 20.2016 8.83711 20.095C8.84355 20.1264 8.85 20.1389 8.85 20.1514C8.60498 21.3922 8.35997 22.6329 8.1085 23.8736C8.05692 24.1368 8.07626 24.3499 8.33417 24.494C11.7773 24.494 15.214 24.494 18.6572 24.494C18.8957 24.3499 18.9538 24.1431 18.8699 23.8924C18.8441 23.8172 18.8377 23.742 18.8248 23.6606C18.4766 21.9749 18.5024 20.2955 18.9022 18.6162C18.9344 18.4846 18.986 18.4407 19.1407 18.4345C20.2756 18.4219 21.1138 17.4945 21.0235 16.3666C20.9332 15.3326 19.8951 14.5681 18.7926 14.7436ZM16.2908 7.06108C16.2908 6.54724 16.7292 6.12113 17.258 6.12113C17.7802 6.12113 18.2187 6.55977 18.2123 7.06735C18.2058 7.58118 17.7609 8.00103 17.2322 7.99476C16.7164 7.98849 16.2908 7.56239 16.2908 7.06108ZM16.8776 1.99789C17.4063 2.00416 17.8383 2.43027 17.8318 2.94411C17.8254 3.45795 17.3869 3.87779 16.8582 3.87152C16.3295 3.86526 15.8975 3.43915 15.9039 2.92531C15.9104 2.40521 16.3488 1.98536 16.8776 1.99789ZM10.8875 4.26004C10.8875 3.6334 11.4033 3.12583 12.0417 3.11957C12.6736 3.11957 13.1958 3.62087 13.2023 4.2287C13.2087 4.84907 12.6865 5.36291 12.0481 5.36917C11.4162 5.37544 10.8875 4.86787 10.8875 4.26004ZM10.1847 8.37074C11.4291 8.37074 12.6736 8.37074 13.918 8.37074C14.4274 8.37074 14.7433 8.68406 14.7433 9.17283C14.7433 9.78066 14.7433 10.3885 14.7433 11.0026C14.7433 11.6042 14.7433 12.2057 14.7433 12.8073C14.7433 13.3149 14.4274 13.6219 13.9051 13.6219C12.6607 13.6219 11.4162 13.6219 10.1718 13.6219C9.66888 13.6219 9.34648 13.3086 9.34648 12.8136C9.34648 11.6042 9.34648 10.3948 9.34648 9.18536C9.34004 8.67779 9.65598 8.37074 10.1847 8.37074ZM7.61202 1.62192C8.13429 1.62192 8.57274 2.05429 8.5663 2.56813C8.55985 3.08197 8.1214 3.50181 7.59267 3.49554C7.06395 3.48928 6.63195 3.06317 6.63839 2.54933C6.65129 2.03549 7.0833 1.62192 7.61202 1.62192ZM18.1671 18.4157C17.7416 20.1138 17.69 21.8308 18.0188 23.5478C18.0511 23.717 18.0059 23.7546 17.8383 23.7546C16.3811 23.7483 14.9303 23.7483 13.4731 23.7483C12.0352 23.7483 10.5974 23.742 9.1595 23.7546C8.93382 23.7546 8.92738 23.6919 8.95961 23.5102C9.21108 22.2694 9.4561 21.0287 9.70112 19.788C9.77849 19.3932 9.57216 19.1927 9.1595 19.2679C8.25035 19.4371 7.33476 19.5436 6.41272 19.6063C5.61964 19.6752 5.02644 19.3619 4.61378 18.7164C4.22046 18.0961 4.07216 17.4068 3.98189 16.6987C3.91741 16.2099 3.92386 15.7149 3.93031 15.2261C3.93675 14.894 3.80135 14.7561 3.45317 14.7561C3.05985 14.7561 2.66653 14.7436 2.27321 14.7561C1.867 14.7687 1.51882 14.6747 1.32538 14.2987C1.11905 13.9039 1.28025 13.5843 1.54461 13.271C2.09912 12.6005 2.60205 11.8987 3.09854 11.1843C3.7949 10.188 4.14953 9.09763 4.16888 7.88823C4.18177 6.92949 4.25915 5.97074 4.56864 5.04332C4.81366 4.31017 5.20053 3.66474 5.76794 3.12583C5.89689 3.00051 5.94203 3.01304 6.00651 3.18223C6.316 3.95925 7.12843 4.3791 7.96665 4.19737C8.13429 4.15977 8.19877 4.19737 8.27614 4.33523C8.72749 5.16865 9.19174 5.99581 9.64953 6.82923C9.79138 7.08614 9.70112 7.36186 9.72046 7.63132C9.72691 7.70024 9.64309 7.70024 9.5915 7.71904C8.99185 7.94463 8.65012 8.37701 8.57274 8.99737C8.55985 9.11643 8.50827 9.12897 8.41155 9.12897C7.99244 9.1227 7.57333 9.12897 7.16067 9.12897C6.81249 9.12897 6.63839 9.26056 6.63839 9.51121C6.64484 9.74933 6.81893 9.88092 7.14777 9.88092C7.56043 9.88092 7.96665 9.88719 8.37931 9.88092C8.51471 9.88092 8.57274 9.89346 8.57274 10.0501C8.57274 10.6329 8.57919 10.6329 7.98599 10.6329C7.43793 10.6329 6.88986 10.6329 6.34824 10.6329C6.04519 10.6329 5.8711 10.777 5.8711 11.0089C5.8711 11.247 6.04519 11.3786 6.35469 11.3786C7.03171 11.3786 7.70229 11.3848 8.37931 11.3723C8.54051 11.3723 8.57919 11.4162 8.57274 11.5666C8.5663 12.1305 8.57274 12.1305 7.98599 12.1305C7.68294 12.1305 7.37345 12.1305 7.0704 12.1305C6.80604 12.1368 6.63839 12.2809 6.63839 12.5065C6.63839 12.7258 6.80604 12.8762 7.0704 12.8825C7.5153 12.8888 7.95375 12.8888 8.39865 12.8825C8.52761 12.8825 8.5663 12.9138 8.57919 13.0454C8.66946 13.7723 9.19818 14.2861 9.94613 14.3739C10.1073 14.3927 10.1138 14.4553 10.1138 14.5744C10.1073 14.8689 10.1073 15.1697 10.1138 15.4642C10.1202 15.7211 10.2685 15.8841 10.4942 15.8841C10.7199 15.8841 10.8811 15.7211 10.8811 15.4705C10.8875 15.1572 10.8875 14.8438 10.8811 14.5305C10.8811 14.424 10.9004 14.3864 11.0229 14.3801C11.6548 14.3551 11.6548 14.3488 11.6548 14.9692C11.6548 15.3702 11.6548 15.765 11.6548 16.166C11.6548 16.4668 11.7967 16.636 12.0352 16.636C12.2802 16.6423 12.4221 16.4668 12.4285 16.1723C12.4285 15.6334 12.435 15.0945 12.4285 14.5556C12.4285 14.4303 12.4479 14.3801 12.5962 14.3801C13.2087 14.3739 13.2087 14.3676 13.2087 14.9629C13.2087 15.1321 13.2023 15.3076 13.2087 15.4767C13.2152 15.7149 13.3699 15.8778 13.5827 15.8778C13.8084 15.8841 13.9696 15.7211 13.976 15.4642C13.9825 15.1572 13.9825 14.8564 13.976 14.5493C13.976 14.4303 13.9889 14.3801 14.1372 14.3613C14.7627 14.2799 15.2011 13.954 15.4268 13.3775C15.4655 13.2773 15.5106 13.2459 15.6138 13.2459C15.9749 13.2522 16.3359 13.2522 16.697 13.2459C16.8131 13.2459 16.8647 13.2898 16.9162 13.3838C17.2128 13.9164 17.5159 14.4491 17.8254 14.9817C17.8834 15.0882 17.877 15.1446 17.7867 15.2324C16.884 16.0908 17.013 17.4632 18.064 18.1399C18.1736 18.2151 18.1994 18.2903 18.1671 18.4157ZM19.1085 17.7013C18.4637 17.7013 17.9414 17.1875 17.9479 16.5671C17.9543 15.953 18.4702 15.4517 19.1021 15.4517C19.7468 15.4517 20.2627 15.953 20.2562 16.5859C20.2498 17.2063 19.7404 17.7013 19.1085 17.7013Z" fill="white"/>
<path d="M16.336 21.4167C16.336 20.8277 16.394 20.3264 16.523 19.8314C16.5874 19.5807 16.768 19.4554 16.9872 19.5055C17.2129 19.5619 17.3225 19.7374 17.2645 19.9943C17.0904 20.7713 17.0581 21.5483 17.2 22.3379C17.258 22.6575 17.1226 22.8517 16.8582 22.8643C16.6326 22.8768 16.4907 22.7515 16.4456 22.4946C16.3747 22.1123 16.3231 21.7301 16.336 21.4167Z" fill="white"/>
<path d="M10.1139 10.9837C10.1139 10.5137 10.1139 10.05 10.1139 9.58C10.1139 9.26042 10.2493 9.12256 10.5781 9.12256C11.0424 9.12256 11.5066 9.12256 11.9773 9.12256C12.261 9.12256 12.4286 9.27295 12.4286 9.49854C12.4286 9.72413 12.2545 9.86825 11.9708 9.86825C11.6678 9.86825 11.3583 9.87452 11.0553 9.86825C10.9198 9.86198 10.8812 9.90585 10.8812 10.0374C10.8876 10.8333 10.8876 11.6291 10.8812 12.4249C10.8812 12.6818 10.7587 12.8385 10.5459 12.8698C10.3073 12.9011 10.1139 12.7257 10.1074 12.4562C10.1074 11.9675 10.1139 11.4724 10.1139 10.9837Z" fill="white"/>
<path d="M13.9697 10.9896C13.9697 11.4659 13.9697 11.9421 13.9697 12.4183C13.9697 12.7379 13.8278 12.8758 13.499 12.8758C13.0347 12.8758 12.5705 12.8758 12.0998 12.8758C11.8161 12.8758 11.6484 12.7254 11.6484 12.4935C11.6549 12.2679 11.8225 12.1238 12.1062 12.1238C12.4093 12.1238 12.7188 12.1176 13.0218 12.1238C13.1637 12.1301 13.1959 12.0862 13.1895 11.9546C13.183 11.1588 13.1895 10.363 13.183 9.56716C13.183 9.35411 13.2539 9.19745 13.4732 9.13479C13.7246 9.05959 13.9568 9.24758 13.9568 9.53583C13.9761 10.0183 13.9697 10.5071 13.9697 10.9896Z" fill="white"/>
<path d="M22.4616 10.714C22.4229 9.93074 21.8039 9.27278 20.9722 9.13492C20.2178 9.00959 19.4311 9.4545 19.1281 10.1626C19.0636 10.313 19.1152 10.5448 18.9411 10.6075C18.7799 10.6639 18.5736 10.6263 18.393 10.62C18.335 10.62 18.2512 10.6639 18.2254 10.5824C18.206 10.5135 18.1931 10.4258 18.2512 10.3569C18.2963 10.3005 18.3479 10.2503 18.393 10.2002C19.4247 9.10359 20.4499 8.00698 21.4751 6.91038C21.5331 6.84771 21.5976 6.77878 21.6298 6.70359C21.6943 6.52186 21.6556 6.36521 21.4751 6.25241C21.3074 6.14589 21.114 6.18348 20.9399 6.36521C19.8889 7.48688 18.8444 8.60855 17.7869 9.71769C17.5355 9.98087 17.3549 10.2378 17.4387 10.5448C17.4387 10.7078 17.4387 10.808 17.4387 10.9146C17.4452 11.2341 17.5806 11.3657 17.9094 11.3657C18.2125 11.3657 18.522 11.3783 18.825 11.3595C19.0056 11.3532 19.1023 11.4033 19.1861 11.5725C19.5407 12.2743 20.3725 12.6315 21.1527 12.4373C21.9522 12.2493 22.5003 11.5224 22.4616 10.714ZM20.7142 11.748C20.1984 11.7417 19.7729 11.3156 19.7729 10.808C19.7729 10.2942 20.2113 9.86808 20.74 9.86808C21.2623 9.86808 21.7008 10.3067 21.6943 10.8143C21.6943 11.3344 21.243 11.7542 20.7142 11.748Z" fill="white"/>
</g>
<defs>
<clipPath id="clip0_1858_3060">
<rect width="22" height="24" fill="white" transform="translate(0.460938 0.5)"/>
</clipPath>
</defs>
</svg>
