<svg width="27" height="27" viewBox="0 0 27 27" fill="none" xmlns="http://www.w3.org/2000/svg">
<g clip-path="url(#clip0_1858_3577)">
<path d="M0.0251401 5.73449C0.0684371 5.08482 -0.104751 4.09734 0.120393 3.11851C0.536045 1.34276 2.08608 0.0607621 3.90455 0.0261134C5.26408 0.000126886 6.63226 0.00878906 8.00044 0.0174512C10.2692 0.0261134 11.9751 1.54199 12.1223 3.80282C12.2176 5.3187 12.2176 6.85191 12.1223 8.36779C11.9924 10.4467 10.5117 11.9539 8.45939 12.1185C6.82277 12.2484 5.16882 12.2658 3.52354 12.1012C1.60115 11.9106 0.103075 10.2561 0.0251401 8.33314C-0.00083811 7.57953 0.0251401 6.82592 0.0251401 5.73449Z" fill="#090EDB"/>
<path d="M26.9906 6.081C26.9906 6.73932 26.9993 7.39765 26.9906 8.05597C26.9473 10.2735 25.4493 11.9713 23.2411 12.1185C21.7084 12.2225 20.167 12.2138 18.6343 12.1185C16.5647 11.9886 15.0493 10.4987 14.8934 8.44577C14.7722 6.80862 14.7462 5.15414 14.9108 3.50833C15.1013 1.58533 16.7639 0.0781085 18.6776 0.0261355C20.167 -0.0171754 21.6564 -0.0171754 23.1459 0.0261355C25.1981 0.0781085 26.8867 1.76723 26.9733 3.82017C27.0079 4.57378 26.982 5.32739 26.982 6.081C26.982 6.081 26.982 6.081 26.9906 6.081Z" fill="#090EDB"/>
<path d="M26.9727 21.3264C26.9294 21.9241 27.0939 22.9116 26.8774 23.8644C26.4618 25.6748 24.9204 26.9482 23.0673 26.9828C21.7078 27.0088 20.3396 27.0001 18.9714 26.9915C16.7373 26.9742 15.0227 25.4583 14.8755 23.2234C14.7716 21.6902 14.7803 20.1484 14.8755 18.6152C15.0054 16.5536 16.5035 15.0377 18.5557 14.8904C20.1924 14.7691 21.8463 14.7432 23.4916 14.9164C25.388 15.107 26.8861 16.7528 26.964 18.6498C26.9987 19.4207 26.9727 20.1917 26.9727 21.3264Z" fill="#090EDB"/>
<path d="M6.03442 26.9825C5.29837 26.9825 4.56233 27.0085 3.82628 26.9739C1.79998 26.8959 0.102737 25.2155 0.0334615 23.1972C-0.00983552 21.7679 -0.00117612 20.3386 0.0161427 18.9181C0.0507803 16.7265 1.55752 15.0547 3.74834 14.8815C5.29838 14.7602 6.85707 14.7602 8.39844 14.8815C10.468 15.0374 11.9575 16.5186 12.1133 18.5802C12.2346 20.2001 12.2519 21.8459 12.096 23.4657C11.9055 25.406 10.2429 26.9046 8.29453 26.9739C7.54116 27.0085 6.78779 26.9912 6.03442 26.9825Z" fill="#090EDB"/>
</g>
<defs>
<clipPath id="clip0_1858_3577">
<rect width="27" height="27" fill="white"/>
</clipPath>
</defs>
</svg>
