<svg width="27" height="27" viewBox="0 0 27 27" fill="none" xmlns="http://www.w3.org/2000/svg">
<g clip-path="url(#clip0_1858_3583)">
<path d="M13.757 0.5C15.3244 1.32968 16.8918 2.16445 18.4593 2.99413C18.561 3.05012 18.6628 3.10611 18.79 3.17228C17.9758 3.57948 17.187 3.97142 16.3982 4.36844C15.5076 4.81128 14.617 5.2592 13.7315 5.70713C13.6297 5.75803 13.5483 5.79366 13.4262 5.73258C11.7621 4.89272 10.0979 4.06304 8.42872 3.23336C8.39819 3.21809 8.37274 3.19264 8.33203 3.16719C9.40582 2.5971 10.4694 2.0372 11.533 1.4722C12.1386 1.15153 12.7442 0.825764 13.3498 0.50509C13.4872 0.5 13.6196 0.5 13.757 0.5Z" fill="white"/>
<path d="M0.556641 18.6309C0.632977 18.6004 0.683867 18.6615 0.739847 18.6869C2.15969 19.3893 3.57954 20.0918 4.99939 20.7942C5.10117 20.8451 5.17751 20.8807 5.17751 21.0283C5.17242 22.8404 5.17242 24.6474 5.17242 26.4696C5.06555 26.49 4.9943 26.4187 4.91796 26.378C3.67623 25.7672 2.43959 25.1513 1.19786 24.5456C0.907786 24.3979 0.673689 24.2198 0.556641 23.9093C0.556641 22.1481 0.556641 20.3921 0.556641 18.6309Z" fill="white"/>
<path d="M8.23617 4.8775C8.31759 4.84696 8.36848 4.90804 8.42446 4.93349C9.81887 5.63083 11.2133 6.32817 12.6128 7.0255C12.7247 7.08149 12.796 7.1273 12.796 7.28001C12.7909 9.07171 12.7909 10.8685 12.7909 12.6602C12.7909 12.6907 12.7858 12.7213 12.7807 12.7824C12.2616 12.5075 11.7629 12.2479 11.2692 11.9781C11.1268 11.8967 11.0657 11.9221 10.9843 12.0647C10.343 13.2506 9.69164 14.4366 9.03515 15.6175C8.95373 15.7651 8.99953 15.8109 9.12675 15.8771C9.8036 16.2232 10.4754 16.5744 11.1726 16.9358C10.3583 17.343 9.56441 17.7401 8.77561 18.132C7.88502 18.5748 6.99444 19.0228 6.10894 19.4707C6.00716 19.5216 5.92574 19.5572 5.8036 19.4961C4.11403 18.6512 2.41938 17.8164 0.729808 16.9766C0.714541 16.9715 0.704362 16.9562 0.673828 16.9307C0.745075 16.89 0.811233 16.8493 0.87739 16.8137C2.39393 16.0349 3.91047 15.2612 5.42192 14.4723C5.77815 14.2839 6.10385 14.2737 6.44991 14.4773C6.77052 14.6606 7.11149 14.8184 7.4321 14.9965C7.54915 15.0627 7.60513 15.0678 7.67637 14.9304C8.32268 13.7342 8.97917 12.5431 9.63566 11.3571C9.712 11.2197 9.67128 11.1688 9.54915 11.1128C9.25907 10.9754 8.97408 10.8329 8.6891 10.6853C8.38375 10.5326 8.21581 10.2831 8.21581 9.93701C8.21581 8.26748 8.21581 6.60303 8.21581 4.93349C8.22599 4.91822 8.23108 4.89786 8.23617 4.8775Z" fill="white"/>
<path d="M26.4592 16.936C25.416 17.4501 24.4134 17.9489 23.4058 18.4478C22.7188 18.7888 22.0317 19.1298 21.3447 19.4709C21.2328 19.5268 21.1412 19.5523 21.019 19.4912C19.3702 18.6615 17.7162 17.8369 16.0674 17.0073C16.0317 16.9869 15.9961 16.9665 15.9401 16.9309C16.617 16.5797 17.2786 16.2285 17.9452 15.8925C18.1183 15.806 18.1335 15.7449 18.0368 15.577C17.3956 14.4266 16.7595 13.2712 16.1386 12.1106C16.0317 11.907 15.9503 11.907 15.762 12.0088C15.2938 12.2735 14.8155 12.5178 14.3371 12.7673C14.2811 12.696 14.3066 12.6247 14.3066 12.5636C14.3066 10.8178 14.3066 9.07696 14.3015 7.33107C14.3015 7.19873 14.3015 7.10711 14.4541 7.03076C15.8842 6.32833 17.3091 5.61063 18.734 4.89803C18.7697 4.87767 18.8053 4.84713 18.8714 4.87767C18.8714 4.93875 18.8714 5.01001 18.8714 5.08636C18.8714 6.65919 18.8613 8.2371 18.8765 9.80993C18.8816 10.268 18.6984 10.5633 18.2862 10.7465C18.0267 10.8636 17.7722 11.0061 17.5127 11.1232C17.3854 11.1792 17.3803 11.2351 17.4465 11.3522C18.1081 12.5484 18.7646 13.7445 19.4211 14.9458C19.4821 15.0527 19.5228 15.0629 19.6297 15.0069C20.0012 14.8084 20.3778 14.6149 20.7493 14.4215C21.0038 14.2892 21.2633 14.2688 21.5279 14.4062C23.1666 15.2461 24.7951 16.0809 26.4592 16.936Z" fill="white"/>
<path d="M6.69925 26.5002C6.69925 25.4313 6.69925 24.398 6.69925 23.3699C6.69925 22.6013 6.69925 21.8276 6.69925 21.059C6.69925 20.9572 6.69416 20.8757 6.8163 20.8146C8.28195 20.0919 9.7476 19.3589 11.2082 18.631C11.2132 18.6259 11.2234 18.631 11.2692 18.6361C11.2692 18.8092 11.2692 18.9924 11.2692 19.1706C11.2743 19.5727 11.2794 19.9799 11.2845 20.382C11.6967 20.438 12.1089 20.4024 12.5211 20.4074C13.544 20.4125 14.5669 20.4024 15.5898 20.4176C15.8087 20.4227 15.8494 20.3565 15.8443 20.1529C15.829 19.649 15.8392 19.1451 15.8392 18.631C15.9817 18.6463 16.0784 18.7226 16.1802 18.7735C17.5237 19.4403 18.8672 20.1122 20.2107 20.7841C20.3227 20.8401 20.4194 20.8808 20.4143 21.0539C20.4041 22.8303 20.4092 24.6067 20.4092 26.3832C20.4092 26.4137 20.4041 26.4442 20.399 26.5053C19.7018 26.1592 19.025 25.8182 18.3481 25.4822C17.7069 25.1616 17.0708 24.8307 16.4244 24.5253C16.0071 24.3268 15.8188 24.0265 15.8392 23.5633C15.8596 23.0899 15.8392 22.6165 15.8443 22.1432C15.8443 22.0006 15.829 21.9396 15.656 21.9396C14.2514 21.9497 12.8468 21.9446 11.4423 21.9396C11.2896 21.9396 11.2641 21.9905 11.2641 22.1279C11.2692 22.6522 11.2692 23.1764 11.2692 23.7007C11.2692 24.0367 11.1318 24.2912 10.8316 24.4439C9.4677 25.1157 8.10383 25.7978 6.69925 26.5002Z" fill="white"/>
<path d="M21.9316 26.4951C21.9316 24.6474 21.9316 22.8353 21.9316 21.0284C21.9316 20.9215 21.9571 20.8604 22.0589 20.8146C23.5347 20.0918 25.0054 19.3588 26.4813 18.6361C26.4965 18.631 26.5118 18.6361 26.5321 18.6361C26.578 18.6971 26.5525 18.7633 26.5525 18.8295C26.5525 20.4176 26.5474 22.0108 26.5576 23.5989C26.5627 24.0315 26.3846 24.3115 25.9978 24.4998C24.7103 25.1259 23.4278 25.7672 22.1403 26.3984C22.0843 26.4289 22.0232 26.4544 21.9316 26.4951Z" fill="white"/>
</g>
<defs>
<clipPath id="clip0_1858_3583">
<rect width="26" height="26" fill="white" transform="translate(0.556641 0.5)"/>
</clipPath>
</defs>
</svg>
