<svg width="26" height="27" viewBox="0 0 26 27" fill="none" xmlns="http://www.w3.org/2000/svg">
<g clip-path="url(#clip0_1858_3600)">
<path d="M7.54621 12.7438C7.36884 12.046 7.19954 11.3713 7.02218 10.7045C6.64327 9.24668 6.2563 7.78888 5.88545 6.32333C5.82902 6.09846 5.7484 6.00541 5.49042 6.02091C5.07926 6.04418 4.6681 6.02867 4.25695 6.02867C3.91834 6.02091 3.7168 5.85032 3.7168 5.57117C3.7168 5.30752 3.91028 5.11367 4.2247 5.10591C4.86965 5.09816 5.5146 5.09816 6.1515 5.10591C6.4256 5.10591 6.5949 5.261 6.6594 5.51689C6.7642 5.92786 6.87707 6.33884 6.97381 6.75757C7.02218 6.96693 7.11086 7.02121 7.3366 7.02121C10.4243 7.0057 13.504 7.01346 16.5917 7.01346C17.4301 7.01346 18.0186 7.46321 18.1637 8.20761C18.2121 8.44024 18.1799 8.67287 18.0993 8.88999C17.6639 10.1539 17.2366 11.4179 16.7932 12.6741C16.5675 13.3022 16.0273 13.6666 15.326 13.6666C12.6897 13.6666 10.0615 13.6666 7.42528 13.6666C7.3366 13.6666 7.23985 13.6589 7.15117 13.6666C6.86901 13.6899 6.67552 13.876 6.66746 14.1319C6.65133 14.4033 6.84482 14.6126 7.12699 14.6436C7.22373 14.6591 7.32854 14.6514 7.42528 14.6514C10.2711 14.6514 13.117 14.6514 15.9628 14.6514C16.2289 14.6514 16.4466 14.7057 16.5514 14.9538C16.6642 15.2252 16.4788 15.5121 16.1805 15.5664C16.116 15.5819 16.0435 15.5742 15.9709 15.5742C13.0686 15.5742 10.1583 15.5742 7.25598 15.5742C6.35304 15.5742 5.70003 14.9616 5.70003 14.1396C5.70003 13.3797 6.32886 12.7594 7.11893 12.7283C7.24792 12.7438 7.38497 12.7438 7.54621 12.7438Z" fill="white"/>
<path d="M8.77948 17.2259C8.77948 18.0633 8.07003 18.7612 7.19934 18.7612C6.32866 18.7612 5.61115 18.0633 5.61921 17.2259C5.62727 16.3962 6.32866 15.7138 7.18322 15.7061C8.05391 15.7061 8.77948 16.3962 8.77948 17.2259Z" fill="white"/>
<path d="M16.5024 17.2336C16.5024 18.0711 15.7849 18.7612 14.9142 18.7612C14.0435 18.7612 13.326 18.0633 13.3341 17.2259C13.3421 16.3962 14.0516 15.7138 14.9061 15.7061C15.7768 15.7061 16.5024 16.4039 16.5024 17.2336Z" fill="white"/>
<path d="M3.57973 12.1083C2.83804 12.1083 2.08828 12.1083 1.34658 12.1083C0.95961 12.1083 0.75 11.9455 0.75 11.6508C0.75 11.3484 0.951548 11.1855 1.33852 11.1855C2.8461 11.1855 4.35368 11.1855 5.86125 11.1855C6.24016 11.1855 6.44977 11.3639 6.44171 11.6586C6.43365 11.9455 6.2321 12.1083 5.86125 12.1083C5.10343 12.1083 4.34561 12.1083 3.57973 12.1083Z" fill="white"/>
<path d="M2.92694 10.247C2.39485 10.247 1.86277 10.247 1.33068 10.247C0.967896 10.247 0.758286 10.0841 0.750224 9.79723C0.742162 9.49481 0.951772 9.32422 1.33068 9.32422C2.38679 9.32422 3.4429 9.32422 4.49901 9.32422C4.85374 9.32422 5.06335 9.50257 5.06335 9.78947C5.06335 10.0764 4.85374 10.247 4.49901 10.247C3.96693 10.2547 3.45097 10.247 2.92694 10.247Z" fill="white"/>
<path d="M2.39463 8.3939C2.02378 8.3939 1.65293 8.40166 1.28209 8.3939C0.951548 8.38615 0.75 8.2078 0.75 7.92865C0.75 7.6495 0.951548 7.47115 1.29015 7.47115C2.03991 7.46339 2.79773 7.46339 3.54748 7.47115C3.87802 7.47115 4.07957 7.665 4.07957 7.9364C4.07957 8.2078 3.86996 8.3939 3.53942 8.3939C3.15245 8.3939 2.77354 8.3939 2.39463 8.3939Z" fill="white"/>
<path d="M25.743 4.27632C25.735 2.12064 24.05 0.507754 21.8169 0.5C18.9549 0.5 16.0849 0.5 13.2229 0.5C11.4412 0.5 9.9175 1.65538 9.4741 3.30704C9.28868 4.01268 9.37736 4.73382 9.36123 5.44721C9.35317 5.82717 9.53053 6.02103 9.83689 6.02878C10.1432 6.02878 10.3206 5.83492 10.3206 5.46272C10.3287 4.98196 10.3125 4.49344 10.3367 4.01268C10.4173 2.61691 11.6428 1.45377 13.0939 1.44602C16.0607 1.42276 19.0275 1.42276 21.9862 1.44602C23.4776 1.45377 24.7111 2.65568 24.7595 4.09797C24.7756 4.7028 24.7676 5.31539 24.7676 5.92798C24.7676 11.1466 24.7676 16.373 24.7676 21.5916C24.7676 21.7544 24.7917 21.8707 24.5338 21.8707C19.8659 21.863 15.2061 21.863 10.5383 21.8707C10.3206 21.8707 10.2964 21.7932 10.3045 21.6226C10.3125 21.0255 10.3125 20.4207 10.3045 19.8236C10.3045 19.4591 10.111 19.2498 9.8127 19.2575C9.52247 19.2653 9.34511 19.4669 9.34511 19.8158C9.34511 20.8239 9.32898 21.8242 9.35317 22.8322C9.40154 24.9259 11.0865 26.5 13.2632 26.5078C16.1171 26.5155 18.971 26.5078 21.825 26.5078C22.1152 26.5078 22.4054 26.4845 22.6956 26.4225C24.5176 26.0192 25.7269 24.5614 25.735 22.7392C25.743 19.6685 25.735 16.5901 25.735 13.5194C25.743 10.4254 25.7511 7.35476 25.743 4.27632ZM18.7211 24.5382C18.3261 24.5459 17.9391 24.5382 17.5441 24.5382C17.1652 24.5382 16.7782 24.5459 16.3993 24.5382C16.0849 24.5304 15.8833 24.3598 15.8753 24.0962C15.8672 23.8248 16.0687 23.6232 16.3993 23.6154C17.1732 23.6077 17.9472 23.6077 18.7211 23.6154C19.0517 23.6154 19.2532 23.817 19.2451 24.0962C19.229 24.3521 19.0355 24.5304 18.7211 24.5382Z" fill="white"/>
</g>
<defs>
<clipPath id="clip0_1858_3600">
<rect width="25" height="26" fill="white" transform="translate(0.75 0.5)"/>
</clipPath>
</defs>
</svg>
