<svg width="25" height="25" viewBox="0 0 25 25" fill="none" xmlns="http://www.w3.org/2000/svg">
<g id="Frame" clipPath="url(#clip0_89_3862)">
<g id="Group">
<path id="Vector" d="M25 12.5C25 5.59259 19.4074 0 12.5 0C5.59259 0 0 5.59259 0 12.5C0 18.7407 4.57407 23.9074 10.5556 24.8518V16.1111H7.37037V12.5H10.5556V9.74074C10.5556 6.61111 12.4074 4.88889 15.2593 4.88889C16.6296 4.88889 18.0556 5.12963 18.0556 5.12963V8.2037H16.4815C14.9259 8.2037 14.4444 9.16667 14.4444 10.1481V12.5H17.9074L17.3519 16.1111H14.4444V24.8518C20.4259 23.9074 25 18.7407 25 12.5Z" fill="white"/>
<path id="Vector_2" d="M17.3704 16.1111L17.9259 12.5H14.4444V10.1482C14.4444 9.16669 14.9259 8.20373 16.4815 8.20373H18.0555V5.12966C18.0555 5.12966 16.6296 4.88892 15.2593 4.88892C12.4074 4.88892 10.5555 6.61114 10.5555 9.74077V12.5H7.37036V16.1111H10.5555V24.8519C11.1852 24.9445 11.8518 25 12.5 25C13.1667 25 13.8148 24.9445 14.4444 24.8519V16.1111H17.3704Z" fill="#171717"/>
</g>
</g>
<defs>
<clipPath id="clip0_89_3862">
<rect width="25" height="25" fill="white"/>
</clipPath>
</defs>
</svg>
