<svg width="21" height="22" viewBox="0 0 21 22" fill="none" xmlns="http://www.w3.org/2000/svg">
<path d="M0.115234 1.36523L16.8604 18.0847C14.5529 20.2363 13.2567 20.9 10.6484 21.0511C7.28322 21.1646 5.67628 20.6549 3.35622 18.624C2.15871 17.5636 1.43885 16.7014 0.915162 15.5997C0.200955 14.0972 0.115234 12.3897 0.115234 10.7267V1.36523Z" fill="#8F8E93"/>
<path d="M20.532 19.9874L3.64844 3.40742C5.93787 1.23674 7.22854 0.562343 9.83544 0.389645C13.1996 0.248165 14.8108 0.74456 17.1476 2.7561C18.3539 3.80658 19.0809 4.66275 19.6137 5.76013C20.3404 7.25656 20.4403 8.96335 20.4542 10.6264L20.532 19.9874Z" fill="#8F8E93"/>
</svg>
