<svg width="31" height="19" viewBox="0 0 31 19" fill="none" xmlns="http://www.w3.org/2000/svg">
<path d="M30.7719 3.65847C30.6526 4.03418 30.5536 4.41581 30.4174 4.78647C29.9937 5.93998 29.4034 6.98558 28.5043 7.8321C27.8012 8.49549 26.9829 8.96395 26.0662 9.25667C25.3121 9.49756 24.5381 9.61226 23.7494 9.64957C22.4621 9.71091 21.2082 9.55567 19.9994 9.08989C19.1838 8.77551 18.454 8.31357 17.7848 7.75182C17.203 7.26261 16.6795 6.71179 16.1486 6.16781C15.6506 5.65875 15.1443 5.15862 14.5311 4.78796C13.9364 4.42855 13.2916 4.25462 12.5996 4.2161C11.2294 4.14203 10.1155 4.69018 9.15282 5.62529C8.84172 5.92611 8.55662 6.2532 8.30057 6.60306C8.27272 6.52871 8.29472 6.47774 8.30732 6.43091C8.58622 5.38559 8.97762 4.38944 9.58552 3.49047C10.4568 2.20247 11.6387 1.34233 13.1146 0.899363C13.7284 0.715067 14.3565 0.595363 14.9996 0.573437C15.0428 0.568048 15.0855 0.559331 15.1273 0.547363H16.4164C16.5869 0.597734 16.7644 0.580252 16.9385 0.599215C18.3986 0.75803 19.7217 1.26499 20.8976 2.1607C21.5586 2.6644 22.1381 3.25699 22.7179 3.84958C23.1772 4.3201 23.6381 4.78855 24.1675 5.18292C25.0932 5.87002 26.1339 6.10145 27.2559 5.95597C28.4469 5.80159 29.3785 5.15773 30.1765 4.28869C30.3816 4.06529 30.5738 3.82944 30.7719 3.59922V3.65847Z" fill="#8F8E93"/>
<path d="M0.771484 15.6288C0.871094 15.3091 0.965137 14.987 1.07148 14.6697C1.39111 13.7165 1.8458 12.8365 2.48242 12.0593C3.01982 11.404 3.68374 10.8664 4.43359 10.4794C5.3875 9.98106 6.40818 9.75086 7.46903 9.66936C8.52988 9.58792 9.58513 9.65666 10.6228 9.91384C11.7018 10.1805 12.6669 10.6842 13.5411 11.3722C14.1903 11.8839 14.7581 12.4824 15.3361 13.0705C15.8145 13.5577 16.2868 14.0551 16.8678 14.419C18.1612 15.2288 19.5165 15.3251 20.9107 14.7153C21.7932 14.3301 22.4682 13.6765 23.0646 12.9319C23.1139 12.8706 23.1619 12.8083 23.2111 12.7473C23.2192 12.7406 23.2283 12.7353 23.2381 12.7316C23.2826 12.7645 23.2498 12.8045 23.2416 12.8359C22.9305 14.0211 22.4755 15.1387 21.7331 16.1177C20.8542 17.2774 19.7058 18.0397 18.3147 18.4309C17.5998 18.636 16.8606 18.7415 16.1175 18.7446C16.0692 18.7405 16.0206 18.7491 15.9766 18.7695H15.625C15.5804 18.7487 15.5311 18.7406 15.4823 18.7458C15.0136 18.755 14.548 18.7014 14.0851 18.6252C12.9094 18.4358 11.7934 17.9723 10.8253 17.2715C10.1831 16.8089 9.61768 16.2584 9.05958 15.6993C8.55743 15.1956 8.07783 14.6697 7.51853 14.2261C6.55173 13.4593 5.45488 13.1864 4.24844 13.3515C3.23681 13.4898 2.40976 13.9992 1.67969 14.6948C1.34775 15.0098 1.06152 15.3654 0.771484 15.7177V15.6288Z" fill="#8F8E93"/>
</svg>
