<svg width="20" height="20" viewBox="0 0 20 20" fill="none" xmlns="http://www.w3.org/2000/svg">
<g id="Frame" clipPath="url(#clip0_89_3850)">
<g id="Group">
<g id="Group_2">
<path id="Vector" d="M10 1.81176C12.6588 1.81176 12.9882 1.81176 14.0471 1.85882C15.0118 1.90588 15.5529 2.07059 15.9059 2.21176C16.3765 2.4 16.7059 2.61176 17.0588 2.96471C17.4118 3.31765 17.6235 3.64706 17.8118 4.11765C17.9529 4.47059 18.1176 4.98824 18.1647 5.97647C18.2118 7.03529 18.2118 7.34118 18.2118 10.0235C18.2118 12.7059 18.2118 13.0118 18.1647 14.0706C18.1176 15.0353 17.9529 15.5765 17.8118 15.9294C17.6235 16.4 17.4118 16.7294 17.0588 17.0824C16.7059 17.4353 16.3765 17.6471 15.9059 17.8353C15.5529 17.9765 15.0353 18.1412 14.0471 18.1882C12.9882 18.2353 12.6824 18.2353 10 18.2353C7.34118 18.2353 7.01176 18.2353 5.95294 18.1882C4.98823 18.1412 4.44706 17.9765 4.09412 17.8353C3.62353 17.6471 3.29412 17.4353 2.94118 17.0824C2.58824 16.7294 2.37647 16.4 2.18824 15.9294C2.04706 15.5765 1.88235 15.0588 1.83529 14.0706C1.78824 13.0118 1.78824 12.7059 1.78824 10.0235C1.78824 7.34118 1.78824 7.03529 1.83529 5.97647C1.88235 5.01176 2.04706 4.47059 2.18824 4.11765C2.37647 3.64706 2.58824 3.31765 2.94118 2.96471C3.29412 2.61176 3.62353 2.4 4.09412 2.21176C4.44706 2.07059 4.96471 1.90588 5.95294 1.85882C7.01176 1.81176 7.34118 1.81176 10 1.81176ZM10 0C7.29412 0 6.94118 0 5.88235 0.0705882C4.82353 0.117647 4.09412 0.282353 3.45882 0.541176C2.8 0.8 2.23529 1.12941 1.69412 1.69412C1.12941 2.25882 0.8 2.8 0.541176 3.45882C0.282353 4.09412 0.117647 4.82353 0.0705882 5.88235C0 6.94118 0 7.29412 0 10C0 12.7059 0 13.0588 0.0705882 14.1176C0.117647 15.1765 0.282353 15.9059 0.541176 16.5412C0.8 17.2 1.12941 17.7647 1.69412 18.3059C2.25882 18.8706 2.8 19.2 3.45882 19.4588C4.09412 19.7176 4.82353 19.8824 5.88235 19.9294C6.94118 20 7.29412 20 10 20C12.7059 20 13.0588 20 14.1176 19.9294C15.1765 19.8824 15.9059 19.7176 16.5412 19.4588C17.2 19.2 17.7647 18.8706 18.3059 18.3059C18.8706 17.7412 19.2 17.2 19.4588 16.5412C19.7176 15.9059 19.8824 15.1765 19.9294 14.1176C20 13.0588 20 12.7059 20 10C20 7.29412 20 6.94118 19.9294 5.88235C19.8824 4.82353 19.7176 4.09412 19.4588 3.45882C19.2 2.8 18.8706 2.23529 18.3059 1.69412C17.7412 1.12941 17.2 0.8 16.5412 0.541176C15.9059 0.282353 15.1765 0.117647 14.1176 0.0705882C13.0588 0 12.7059 0 10 0Z" fill="white"/>
<path id="Vector_2" d="M10 4.87061C7.15296 4.87061 4.87061 7.17649 4.87061 10C4.87061 12.8235 7.17649 15.1294 10 15.1294C12.8471 15.1294 15.1294 12.8235 15.1294 10C15.1294 7.17649 12.8471 4.87061 10 4.87061ZM10 13.3412C8.16472 13.3412 6.65884 11.8588 6.65884 10C6.65884 8.14119 8.14119 6.65884 10 6.65884C11.8588 6.65884 13.3412 8.14119 13.3412 10C13.3412 11.8588 11.8353 13.3412 10 13.3412Z" fill="white"/>
<path id="Vector_3" d="M15.3411 5.85874C16.0039 5.85874 16.5411 5.32148 16.5411 4.65874C16.5411 3.996 16.0039 3.45874 15.3411 3.45874C14.6784 3.45874 14.1411 3.996 14.1411 4.65874C14.1411 5.32148 14.6784 5.85874 15.3411 5.85874Z" fill="white"/>
</g>
</g>
</g>
<defs>
<clipPath id="clip0_89_3850">
<rect width="20" height="20" fill="white"/>
</clipPath>
</defs>
</svg>
