<svg width="22" height="21" viewBox="0 0 22 21" fill="none" xmlns="http://www.w3.org/2000/svg">
<path fill-rule="evenodd" clip-rule="evenodd" d="M2.76857 0.551514H19.1281C20.2246 0.551514 21.1134 1.4404 21.1134 2.53689V18.8964C21.1134 19.9929 20.2246 20.8818 19.1281 20.8818H2.76857C1.67208 20.8818 0.783203 19.9929 0.783203 18.8964V2.53689C0.783203 1.4404 1.67208 0.551514 2.76857 0.551514ZM11.8597 16.401C11.8597 18.4258 10.6637 19.4128 8.93231 19.4128C7.70099 19.4128 6.87643 18.9108 6.35662 18.2201C6.1194 17.9049 6.25665 17.4706 6.59418 17.2663L6.91198 17.0739C7.28402 16.8487 7.73084 17.0058 8.02236 17.3285C8.2091 17.5352 8.4427 17.6675 8.80185 17.6675C9.359 17.6675 9.81677 17.4164 9.81677 16.4391V10.6713C9.81677 10.2458 10.1617 9.9009 10.5871 9.9009H11.0893C11.5147 9.9009 11.8597 10.2458 11.8597 10.6713V16.401ZM16.4724 19.3664C15.0044 19.3664 13.9564 18.8305 13.3065 18.0271C13.0495 17.7094 13.1889 17.2563 13.5426 17.0515L13.8549 16.8708C14.217 16.6612 14.6661 16.7956 14.9683 17.0851C15.3264 17.428 15.7853 17.6341 16.4329 17.6341C17.2427 17.6341 17.713 17.2757 17.713 16.7171C17.713 16.0472 17.2287 15.8099 16.335 15.4171L15.8465 15.2073C14.436 14.6074 13.501 13.8534 13.501 12.2613C13.501 10.7956 14.6175 9.72492 16.3628 9.72492C17.3555 9.72492 18.1248 9.97131 18.722 10.6466C18.993 10.9532 18.8721 11.4155 18.5279 11.6368L18.3064 11.7791C17.9327 12.0193 17.4618 11.8516 17.0981 11.5965C16.8899 11.4505 16.6522 11.3866 16.3605 11.3866C15.7881 11.3866 15.4249 11.7497 15.4249 12.2224C15.4249 12.8088 15.788 13.046 16.6256 13.4091L17.114 13.6185C18.7758 14.3307 19.7113 15.0578 19.7113 16.6902C19.7118 18.4499 18.3296 19.3664 16.4724 19.3664Z" fill="#8F8E93"/>
</svg>
