<svg width="19" height="18" viewBox="0 0 19 18" fill="none" xmlns="http://www.w3.org/2000/svg">
<g id="Group">
<g id="Group_2">
<g id="Group_3">
<path id="Vector" d="M9.95746 7.5921C10.2053 7.32176 10.408 7.0289 10.6784 6.78109C11.4669 6.03766 12.3905 5.65468 13.4944 5.67721C14.1026 5.67721 14.6884 5.72227 15.2516 5.90249C16.5807 6.28547 17.3467 7.1866 17.7072 8.49323C17.9775 9.46194 18.0225 10.4532 18.0451 11.4444C18.0451 13.5395 18.0451 15.6347 18.0451 17.7523C18.0451 17.9551 18 18.0001 17.7973 18.0001C16.7159 18.0001 15.6346 18.0001 14.5532 18.0001C14.373 18.0001 14.3279 17.9325 14.3279 17.7523C14.3279 15.7473 14.3279 13.7648 14.3279 11.7598C14.3279 11.2642 14.3054 10.7686 14.1477 10.273C13.8999 9.37183 13.2466 8.92126 12.3004 8.96632C11.0163 9.03391 10.3404 9.66469 10.1827 10.9713C10.1377 11.2867 10.1152 11.6021 10.1152 11.9175C10.1152 13.8549 10.1152 15.8149 10.1152 17.7523C10.1152 17.9551 10.0701 18.0001 9.86735 18.0001C8.786 18.0001 7.68212 18.0001 6.60077 18.0001C6.42054 18.0001 6.37549 17.9551 6.37549 17.7748C6.37549 13.9225 6.37549 10.0702 6.37549 6.21789C6.37549 6.03766 6.44307 5.9926 6.6233 5.9926C7.65959 5.9926 8.69589 5.9926 9.73218 5.9926C9.91241 5.9926 9.97999 6.06019 9.95746 6.24041C9.95746 6.66845 9.95746 7.11901 9.95746 7.5921Z" fill="#FEFEFE"/>
<path id="Vector_2" d="M4.03264 11.985C4.03264 13.8999 4.03264 15.7922 4.03264 17.7071C4.03264 17.9099 3.98759 17.9775 3.76231 17.9775C2.68095 17.955 1.5996 17.9775 0.51825 17.9775C0.338025 17.9775 0.292969 17.9324 0.292969 17.7522C0.292969 13.8999 0.292969 10.0476 0.292969 6.19525C0.292969 6.03756 0.338025 5.96997 0.495723 5.96997C1.5996 5.96997 2.68095 5.96997 3.78483 5.96997C3.98759 5.96997 4.03264 6.06008 4.03264 6.24031C4.03264 8.1552 4.03264 10.0701 4.03264 11.985Z" fill="#FEFEFE"/>
<path id="Vector_3" d="M4.32541 2.14017C4.32541 3.33417 3.3567 4.30288 2.1627 4.30288C0.991239 4.30288 0 3.33417 0 2.1627C0 0.968711 0.96871 0 2.1627 0C3.3567 0 4.32541 0.968711 4.32541 2.14017Z" fill="#FEFEFE"/>
</g>
</g>
</g>
</svg>
