<svg width="26" height="23" viewBox="0 0 26 23" fill="none" xmlns="http://www.w3.org/2000/svg">
<path d="M19.5639 15.3028C20.3771 15.1585 21.1812 14.9681 21.9722 14.7328C24.4983 13.9611 25.8338 12.916 25.8332 11.7114C25.8314 9.98026 23.1239 8.76721 19.5622 8.1246C20.7721 4.77117 21.0536 1.85981 19.5279 0.995356C18.0023 0.130994 15.5784 1.82849 13.2312 4.53796C10.8811 1.83103 8.45539 0.135731 6.93065 1.00142C5.86905 1.60424 5.61714 3.2632 6.20242 5.79785C6.39086 6.58804 6.62542 7.36671 6.90493 8.13039C6.09173 8.27465 5.28759 8.46508 4.49668 8.70037C1.97153 9.47271 0.636174 10.5178 0.636719 11.7224C0.636719 12.5481 1.25406 13.2565 2.28637 13.8414C3.73634 14.5725 5.2973 15.0681 6.9085 15.3087C5.69677 18.662 5.41523 21.5734 6.94076 22.4377C8.46649 23.3022 10.8905 21.6047 13.2377 18.8952C14.2568 20.1444 15.475 21.2235 16.8451 22.0902C17.8771 22.6749 18.8104 22.8447 19.5382 22.4317C20.5998 21.8289 20.8517 20.17 20.2664 17.6353C20.078 16.8451 19.8434 16.0665 19.5639 15.3028ZM24.9934 11.7118C24.9936 12.4844 23.7709 13.3194 21.7231 13.945C20.9171 14.1841 20.0976 14.3755 19.2682 14.5181C18.9082 13.607 18.4856 12.6665 17.9997 11.7119C18.4739 10.7749 18.9014 9.82926 19.2669 8.90579C22.8054 9.53287 24.9907 10.6624 24.9922 11.7111L24.9934 11.7118ZM13.2359 15.0169C12.5788 15.0166 11.9413 15.0017 11.3232 14.9722C10.988 14.4622 10.6555 13.9274 10.3258 13.3681C10.0011 12.8157 9.69908 12.2633 9.41155 11.7137C9.6924 11.1747 9.99658 10.6259 10.3243 10.0677C10.6519 9.50951 10.9831 8.97604 11.3172 8.4673C11.9455 8.43653 12.5835 8.41664 13.2327 8.41615C13.8896 8.41605 14.5272 8.43109 15.1452 8.46127C15.4804 8.97208 15.814 9.50689 16.1428 10.065C16.4678 10.6174 16.7698 11.1699 17.0573 11.7195C16.7764 12.2585 16.4721 12.8071 16.1444 13.3653C15.8167 13.9236 15.4857 14.4571 15.1516 14.9659C14.5233 14.9966 13.8854 15.0165 13.2359 15.0169ZM14.5754 15.8181C14.1277 16.4602 13.6796 17.0565 13.2362 17.6038C12.7929 17.0559 12.344 16.4597 11.8954 15.8175C12.3422 15.8325 12.7896 15.8417 13.2351 15.8417C13.6806 15.8416 14.1332 15.8329 14.5754 15.8181ZM10.2918 14.907C9.50262 14.8475 8.7513 14.7641 8.04651 14.6615C8.30768 14.011 8.6087 13.3314 8.94905 12.6285C9.15751 13.0117 9.37404 13.3952 9.5983 13.7793C9.82187 14.1601 10.0546 14.5345 10.2918 14.907ZM8.95188 10.8012C8.61687 10.1151 8.31601 9.44099 8.04898 8.77859C8.76463 8.6739 9.50955 8.59158 10.284 8.53201C10.0485 8.90321 9.8183 9.27808 9.59671 9.65551C9.37518 10.0329 9.16023 10.4165 8.95108 10.8026L8.95188 10.8012ZM11.8943 7.61363C12.3418 6.97191 12.7896 6.37595 13.2328 5.82902C13.6757 6.3762 14.1236 6.97231 14.5717 7.61334C14.1257 7.5981 13.6799 7.59033 13.2346 7.59008C12.7822 7.59097 12.3352 7.59929 11.8935 7.61507L11.8943 7.61363ZM16.1779 8.52662C16.967 8.58609 17.7177 8.6696 18.4221 8.77201C18.1609 9.42254 17.8599 10.1022 17.5195 10.805C17.3112 10.42 17.0947 10.0356 16.8701 9.6518C16.6473 9.27328 16.4149 8.89906 16.1779 8.52662ZM17.5167 12.6323C17.852 13.318 18.1528 13.9922 18.4199 14.6546C17.7043 14.7591 16.9594 14.8414 16.1849 14.9012C16.4201 14.5299 16.6503 14.155 16.8719 13.7776C17.0935 13.4001 17.3085 13.0166 17.5178 12.6306L17.5167 12.6323ZM19.1083 1.7101C20.0342 2.23472 19.9381 4.66003 18.7234 7.98533C17.7266 7.83542 16.6785 7.72737 15.6158 7.66405C15.026 6.79108 14.4053 5.95364 13.7762 5.18235C16.0937 2.48232 18.1826 1.18559 19.1083 1.7101ZM7.02103 5.615C6.54644 3.56023 6.66992 2.10241 7.35068 1.71565C7.76135 1.48256 8.40069 1.60714 9.18823 2.05336C10.5201 2.9026 11.7027 3.9587 12.6902 5.18045C12.0605 5.95241 11.4419 6.78925 10.8538 7.66128C9.76949 7.72614 8.72895 7.83839 7.74619 7.988C7.45637 7.21201 7.21412 6.41944 7.02103 5.615ZM1.47668 11.7221C1.47648 10.9495 2.69902 10.1144 4.747 9.48883C5.55273 9.24963 6.37233 9.05827 7.20164 8.91563C7.56171 9.82679 7.98427 10.7673 8.47015 11.7218C7.99621 12.659 7.56855 13.6045 7.20302 14.528C3.66345 13.9003 1.47817 12.7707 1.47668 11.7221ZM7.36034 21.723C6.43461 21.1985 6.53103 18.7734 7.74703 15.4492C8.74342 15.5989 9.79204 15.7072 10.8564 15.7717C11.4463 16.6446 12.0668 17.4819 12.6977 18.2542C10.3745 20.951 8.28623 22.2476 7.36034 21.723ZM19.1182 21.7175C18.1939 22.2417 16.1029 20.9483 13.7788 18.2524C14.4088 17.4801 15.0275 16.6429 15.6166 15.7693C16.7007 15.7046 17.7414 15.5922 18.7241 15.4427C19.0139 16.2192 19.2556 17.0121 19.4484 17.8171C19.9224 19.8729 19.7989 21.3308 19.1182 21.7175Z" fill="#8F8E93"/>
<path d="M14.2797 9.92875C13.2753 9.35966 11.9912 9.69836 11.412 10.6851C10.8327 11.6719 11.1774 12.9334 12.1818 13.5025C13.1864 14.0717 14.4703 13.7329 15.0496 12.7461C15.6276 11.7591 15.283 10.4989 14.2797 9.92875Z" fill="#8F8E93"/>
</svg>
