<svg width="25" height="22" viewBox="0 0 25 22" fill="none" xmlns="http://www.w3.org/2000/svg">
<path d="M5.07443 21.2151C6.28071 21.2151 7.29241 20.8162 8.03174 20.1353L6.59201 19.0263C6.19314 19.2987 5.6776 19.4543 5.07443 19.4543C3.90708 19.4543 2.92453 18.6664 2.56459 17.6157L1.08594 18.7539C1.84475 20.2618 3.38177 21.2151 5.07443 21.2151Z" fill="#8F8E93"/>
<path d="M17.0045 21.215C21.1132 21.215 23.3628 17.924 23.3628 15.0693C23.3628 14.9767 23.3628 14.8824 23.3558 14.7897C23.7932 14.4832 24.1713 14.1059 24.471 13.6714C24.0632 13.8466 23.6311 13.9611 23.1885 14.0116C23.6555 13.7421 24.004 13.3177 24.1713 12.8175C23.7322 13.0685 23.253 13.247 22.7529 13.3413C21.906 12.4722 20.4912 12.4301 19.592 13.247C19.0118 13.7741 18.7661 14.5607 18.9456 15.3101C17.1491 15.2226 15.4745 14.4023 14.3402 13.0533C13.7478 14.0402 14.0492 15.3017 15.0319 15.9367C14.6765 15.9265 14.328 15.8339 14.0179 15.6672C14.0179 15.6756 14.0179 15.6857 14.0179 15.6941C14.0179 16.7215 14.7671 17.6074 15.8108 17.8112C15.4815 17.8971 15.1365 17.9106 14.802 17.8482C15.0947 18.7274 15.9328 19.3303 16.8894 19.3489C16.0983 19.9502 15.1209 20.2769 14.1154 20.2752C13.9377 20.2752 13.76 20.2651 13.584 20.2432C14.6016 20.8781 15.7917 21.215 17.0045 21.2133" fill="#8F8E93"/>
<path d="M14.6789 8.03222L15.0416 5.51806H12.7726V3.88662C12.7726 3.19879 13.0896 2.5283 14.1058 2.5283H15.1375V0.387889C15.1375 0.387889 14.2013 0.218018 13.3061 0.218018C11.4374 0.218018 10.2159 1.42208 10.2159 3.6019V5.51806H8.13867V8.03222H10.2159V14.11C10.6325 14.1794 11.0593 14.2156 11.4943 14.2156C11.9292 14.2156 12.356 14.1794 12.7726 14.11V8.03222H14.6789Z" fill="#8F8E93"/>
<path d="M2.56422 17.6051C2.37942 17.0507 2.37942 16.4475 2.56422 15.893L1.08557 14.7451C0.453248 16.0098 0.453248 17.4981 1.08557 18.7531L2.56422 17.6051Z" fill="#8F8E93"/>
<path d="M5.07443 14.0558C5.70675 14.0461 6.32936 14.2893 6.78659 14.727L8.06095 13.443C7.25349 12.6841 6.18342 12.2756 5.07443 12.2853C3.38177 12.2853 1.84475 13.2387 1.08594 14.7465L2.56459 15.8944C2.92453 14.834 3.90708 14.0558 5.07443 14.0558Z" fill="#8F8E93"/>
<path d="M9.36425 16.8586C9.36425 16.557 9.33509 16.2457 9.28645 15.9539H5.07422V17.6757H7.48677C7.38949 18.2302 7.06847 18.7166 6.5918 19.0279L8.03153 20.1466C8.87786 19.3586 9.36425 18.2108 9.36425 16.8586Z" fill="#8F8E93"/>
</svg>
