<svg width="18" height="18" viewBox="0 0 18 18" fill="none" xmlns="http://www.w3.org/2000/svg">
<g id="Frame" clipPath="url(#clip0_89_3845)">
<g id="Group">
<path id="Vector" d="M16.1175 15.9569L10.2996 7.50336L9.64176 6.54735L5.47858 0.501394L5.1336 0H0.0202637L1.26717 1.81262L6.8015 9.85392L7.45931 10.8085L11.9061 17.2696L12.2511 17.7695H17.3659L16.1175 15.9569ZM12.8577 16.6118L8.23844 9.89924L7.58064 8.94323L2.22026 1.15628H4.5255L8.86116 7.45512L9.51897 8.41113L15.1644 16.6132H12.8577V16.6118Z" fill="white"/>
<path id="Vector_2" d="M7.58059 8.94482L8.2384 9.90083L7.45927 10.8086L1.4747 17.7696H-0.000244141L6.80146 9.85406L7.58059 8.94482Z" fill="white"/>
<path id="Vector_3" d="M16.7491 0L10.2997 7.50336L9.51913 8.41113L8.86133 7.45512L9.64192 6.54735L14.0112 1.46179L15.2742 0H16.7491Z" fill="white"/>
</g>
</g>
<defs>
<clipPath id="clip0_89_3845">
<rect width="17.3646" height="17.7695" fill="white"/>
</clipPath>
</defs>
</svg>
