<svg width="26" height="23" viewBox="0 0 26 23" fill="none" xmlns="http://www.w3.org/2000/svg">
<path d="M18.3965 10.8319C17.0749 10.8319 15.7423 10.8319 14.4207 10.8319C14.3436 10.8319 14.2665 10.8319 14.1894 10.8319C13.9692 10.8104 13.804 10.6273 13.815 10.4227C13.826 10.1966 13.9581 10.0674 14.1894 10.0351C14.2555 10.0243 14.3326 10.0351 14.3987 10.0351C17.0639 10.0351 19.7401 10.0351 22.4053 10.0351C22.4714 10.0351 22.5485 10.0243 22.6145 10.0351C22.8348 10.0781 22.978 10.2074 22.978 10.4335C22.978 10.6596 22.8458 10.7889 22.6255 10.8319C22.5485 10.8427 22.4714 10.8427 22.3943 10.8427C21.0507 10.8319 19.7291 10.8319 18.3965 10.8319Z" fill="white"/>
<path d="M15.8736 13.6856C14.8163 13.6856 13.7591 13.6856 12.7018 13.6856C12.6137 13.6856 12.5256 13.6856 12.4485 13.6641C12.2503 13.5994 12.1401 13.4702 12.1511 13.2656C12.1622 13.0503 12.2833 12.921 12.4926 12.878C12.5586 12.8672 12.6357 12.8672 12.7018 12.8672C14.8274 12.8672 16.9529 12.8672 19.0785 12.8672C19.1115 12.8672 19.1445 12.8672 19.1776 12.8672C19.4419 12.878 19.6181 13.0503 19.6181 13.2764C19.6181 13.5025 19.4419 13.6856 19.1776 13.6856C18.5829 13.6964 17.9992 13.6856 17.4044 13.6856C16.8978 13.6856 16.3912 13.6856 15.8736 13.6856Z" fill="white"/>
<path d="M21.4691 8.38771C21.1387 8.38771 20.8083 8.38771 20.4779 8.38771C20.1806 8.38771 19.9934 8.21542 20.0044 7.96774C20.0154 7.73084 20.1916 7.58008 20.4779 7.58008C21.1497 7.58008 21.8326 7.58008 22.5044 7.58008C22.7907 7.58008 22.9669 7.7416 22.9669 7.98928C22.9669 8.22619 22.7907 8.38771 22.5044 8.39848C22.163 8.38771 21.8215 8.38771 21.4691 8.38771Z" fill="white"/>
<path d="M17.6794 7.56934C17.9657 7.56934 18.2521 7.56934 18.5384 7.56934C18.8137 7.56934 19.001 7.74163 19.001 7.97854C19.001 8.21544 18.8137 8.37697 18.5274 8.38774C17.9437 8.38774 17.349 8.38774 16.7653 8.38774C16.4789 8.38774 16.3027 8.21544 16.3027 7.97854C16.3027 7.74163 16.4789 7.5801 16.7653 7.56934C17.0737 7.56934 17.382 7.56934 17.6794 7.56934Z" fill="white"/>
<path d="M21.8092 13.6748C21.5779 13.6748 21.3357 13.6748 21.1044 13.6748C20.829 13.6641 20.6638 13.5133 20.6528 13.2764C20.6418 13.0287 20.818 12.8672 21.1044 12.8564C21.5779 12.8564 22.0405 12.8564 22.5141 12.8564C22.7784 12.8564 22.9546 13.018 22.9656 13.2549C22.9766 13.4918 22.7894 13.6641 22.5141 13.6748C22.2828 13.6856 22.0515 13.6748 21.8092 13.6748Z" fill="white"/>
<path d="M25.0588 2.02338C25.0588 1.1296 24.5632 0.64502 23.6381 0.64502C19.6293 0.64502 15.6204 0.64502 11.6116 0.64502C9.30988 0.64502 7.00811 0.64502 4.71736 0.64502C3.92441 0.64502 3.40679 1.16191 3.39578 1.93724C3.39578 2.28183 3.39578 2.61565 3.39578 2.96024C3.39578 3.58481 3.39578 4.19862 3.39578 4.82319C3.39578 5.07086 3.56098 5.23239 3.79225 5.24316C4.01252 5.25393 4.21076 5.12471 4.22177 4.8878C4.23278 4.69397 4.34292 4.72627 4.45305 4.72627C10.9729 4.72627 17.4927 4.72627 24.0015 4.72627C24.1777 4.72627 24.2328 4.75858 24.2328 4.94164C24.2218 9.55055 24.2218 14.1595 24.2328 18.7684C24.2328 18.973 24.1667 18.9945 23.9795 18.9945C17.4817 18.9945 10.9839 18.9945 4.47507 18.9945C4.25481 18.9945 4.21076 18.9299 4.21076 18.7253C4.22177 17.8638 4.21076 17.0131 4.21076 16.1516C4.21076 15.5917 4.21076 15.0317 4.21076 14.4717C4.21076 14.1595 3.95745 13.9656 3.68212 14.0518C3.42882 14.1272 3.38477 14.321 3.38477 14.5579C3.38477 16.7977 3.38477 19.0376 3.38477 21.2774C3.38477 22.1712 3.88036 22.6558 4.80547 22.6558C11.083 22.6558 17.3495 22.6558 23.6271 22.6558C24.5632 22.6558 25.0478 22.1712 25.0478 21.2559C25.0478 18.0576 25.0478 14.8594 25.0478 11.6612C25.0588 8.4414 25.0588 5.23239 25.0588 2.02338ZM5.88477 3.08946C5.65349 3.08946 5.47728 2.9064 5.47728 2.68026C5.47728 2.45412 5.67551 2.26029 5.91781 2.27106C6.13807 2.28183 6.32529 2.47566 6.31428 2.69103C6.30327 2.91717 6.10503 3.08946 5.88477 3.08946ZM7.55877 3.08946C7.33851 3.08946 7.15129 2.9064 7.14027 2.69103C7.14027 2.46489 7.33851 2.27106 7.56979 2.28183C7.79005 2.2926 7.97728 2.47566 7.96626 2.69103C7.96626 2.9064 7.77904 3.08946 7.55877 3.08946ZM9.23278 3.08946C9.01252 3.08946 8.81428 2.91717 8.80327 2.7018C8.79225 2.47566 8.99049 2.28183 9.22177 2.28183C9.44203 2.28183 9.62926 2.46489 9.62926 2.68026C9.64027 2.89563 9.46406 3.0787 9.23278 3.08946Z" fill="white"/>
<path d="M9.50793 6.05078C8.16432 6.05078 6.82071 6.05078 5.4771 6.05078C4.12247 6.05078 2.76784 6.05078 1.41322 6.05078C0.576215 6.06155 0.0585938 6.5569 0.0585938 7.36454C0.0585938 8.85059 0.0585938 10.3366 0.0585938 11.8227C0.0585938 12.738 0.543175 13.2118 1.49031 13.2118C2.95507 13.2118 4.41983 13.2118 5.8956 13.2118C6.08282 13.2118 6.21498 13.2657 6.34714 13.3949C6.83172 13.8687 7.32732 14.3317 7.82291 14.7948C8.08723 15.0425 8.40661 15.0855 8.73701 14.9455C9.05639 14.8056 9.22159 14.5471 9.22159 14.2025C9.22159 13.9871 9.24362 13.761 9.22159 13.5456C9.19956 13.2872 9.26564 13.2118 9.55199 13.2118C10.389 13.2226 10.8956 12.7057 10.8956 11.8981C10.8956 10.4012 10.8956 8.9152 10.8956 7.41838C10.8956 6.54613 10.389 6.06155 9.50793 6.05078ZM4.18855 11.3919C4.11146 11.5535 3.9793 11.6289 3.8141 11.6396C3.67093 11.6396 3.5608 11.575 3.47269 11.4889C2.94406 10.972 2.40441 10.4443 1.87577 9.92743C1.65551 9.71206 1.65551 9.49669 1.87577 9.28132C2.40441 8.75367 2.94406 8.23678 3.47269 7.7199C3.67093 7.52606 3.92423 7.51529 4.08943 7.68759C4.26564 7.85989 4.25463 8.09679 4.05639 8.30139C3.65992 8.69983 3.26344 9.08749 2.85595 9.46439C2.74582 9.57207 2.73481 9.62592 2.85595 9.74437C3.26344 10.132 3.67093 10.5305 4.07842 10.9289C4.22159 11.0581 4.26564 11.2089 4.18855 11.3919ZM6.28106 8.9152C5.99472 9.50746 5.69736 10.0782 5.38899 10.6597C5.32291 10.7781 5.19075 10.8212 5.10265 10.832C4.77225 10.832 4.55199 10.552 4.67313 10.3043C4.94846 9.71206 5.25683 9.13057 5.5652 8.55984C5.66432 8.37677 5.90661 8.3337 6.09384 8.44138C6.28106 8.54907 6.36917 8.72136 6.28106 8.9152ZM9.04538 9.94897C8.52776 10.4551 8.02115 10.9612 7.50353 11.4566C7.27225 11.6827 7.01895 11.6935 6.84273 11.5104C6.66652 11.3273 6.68855 11.0904 6.91983 10.8643C7.29428 10.4874 7.67974 10.1105 8.0652 9.75514C8.19736 9.62592 8.18635 9.5613 8.05419 9.44285C7.65771 9.06595 7.26124 8.67829 6.87577 8.29062C6.7326 8.15063 6.67754 7.99988 6.75463 7.80604C6.83172 7.64452 6.96388 7.56914 7.11806 7.55837C7.28326 7.55837 7.38238 7.63375 7.4815 7.73066C7.99912 8.23678 8.52776 8.7429 9.04538 9.25979C9.29868 9.50746 9.28767 9.71206 9.04538 9.94897Z" fill="white"/>
</svg>
