<svg width="167" height="41" viewBox="0 0 167 41" fill="none" xmlns="http://www.w3.org/2000/svg">
<path d="M57.5762 29.1144V12.812H69.2195V14.242V15.7129H60.979V19.431H68.1536V20.8202V22.2094H60.979V29.1144H59.2571H57.5762Z" fill="white"/>
<path d="M71.5156 29.1144V12.812H73.2375H74.9594V26.2134H83.118V27.6435V29.1144H71.5156Z" fill="white"/>
<path d="M85.4141 29.1144V12.812H97.4674V14.242V15.7129H88.8579V19.1859H96.8524V20.575V21.9642H88.8579V26.2134H97.8774V27.6435V29.1144H85.4141Z" fill="white"/>
<path d="M104.518 20.861L99.5985 12.812H101.607H103.616L106.486 18.0827L109.479 12.812H111.447H113.415L108.413 20.6159L113.743 29.1144H111.693H109.643L106.445 23.5168L103.206 29.1144H101.197H99.1885L104.518 20.861Z" fill="white"/>
<path d="M122.188 29.1144V12.812H123.91H125.632V26.2134H133.75V27.6435V29.1144H122.188Z" fill="#1936BA"/>
<path d="M140.638 12.812H142.606H144.574L150.355 29.1144H148.551H146.747L145.64 25.8049H139.449L138.383 29.1144H136.62H134.857L140.638 12.812ZM140.392 22.9857H144.738L142.565 16.4075L140.392 22.9857Z" fill="#1936BA"/>
<path d="M152.568 12.812H154.208H160.481C162.08 12.812 163.31 13.1797 164.171 13.9152C165.073 14.6506 165.524 15.6721 165.524 16.9387C165.524 18.287 165.032 19.3084 164.007 20.0439C163.843 20.1665 163.679 20.289 163.474 20.3707C163.843 20.5342 164.212 20.6976 164.499 20.9019C165.565 21.6373 166.057 22.6588 166.057 24.048C166.057 25.7231 165.524 26.9897 164.499 27.8478C163.474 28.7058 161.957 29.1552 159.948 29.1552H154.167H152.527V12.812H152.568ZM155.848 19.1859H159.743C160.604 19.1859 161.219 19.0224 161.67 18.6956C162.121 18.3687 162.285 17.8784 162.285 17.2655C162.285 16.6935 162.08 16.2849 161.629 15.9989C161.178 15.7129 160.522 15.5904 159.62 15.5904H155.848V19.1859ZM155.848 26.2952H159.989C160.891 26.2952 161.547 26.0909 161.998 25.7231C162.449 25.3554 162.654 24.7426 162.654 23.9662C162.654 23.2717 162.408 22.7814 161.957 22.4545C161.506 22.1276 160.809 21.9642 159.907 21.9642H155.807V26.2952H155.848Z" fill="#1936BA"/>
<path d="M24.4503 18.5557C30.313 18.5557 32.1579 13.7753 32.1579 13.7753H19.3256C12.643 13.6119 10.6341 18.6374 10.6341 18.6374H13.094C11.905 21.048 10.3881 27.1767 9.73213 30.1593C7.27227 27.5444 5.75535 24.1532 5.75535 20.3943C5.75535 16.6353 7.27227 13.2033 9.77313 10.5884C10.5931 7.76916 10.8801 5.11339 10.9621 2.98877C4.48442 6.50256 0.0976562 12.9581 0.0976562 20.4351C0.0976562 28.525 5.22238 35.4709 12.643 38.617C14.1189 25.1338 16.9067 26.8498 16.9067 26.8498C24.0404 27.4219 25.6393 22.3146 25.6393 22.3146H18.5877C16.5788 20.5577 18.5877 18.5557 18.5877 18.5557H24.4503Z" fill="#1936BA"/>
<path d="M21.5809 0.414551C20.474 0.414551 19.4081 0.496267 18.3421 0.659699C17.3172 2.53917 16.9482 4.90893 16.8252 6.37982C18.3421 5.93038 19.941 5.68524 21.5809 5.68524C30.3135 5.68524 37.4061 12.2634 37.4061 20.435C37.4061 28.5657 30.3135 35.1439 21.5809 35.1439C21.253 35.1439 20.925 35.1439 20.597 35.103L18.7931 40.2103C19.695 40.3328 20.638 40.3737 21.5809 40.3737C33.4293 40.3737 43.0638 31.4258 43.0638 20.3533C43.0638 9.28074 33.4293 0.414551 21.5809 0.414551Z" fill="#1936BA"/>
</svg>
