<svg width="188" height="65" viewBox="0 0 188 65" fill="none" xmlns="http://www.w3.org/2000/svg">
<g filter="url(#filter0_b_1881_1287)">
<rect x="0.970703" y="0.885742" width="187" height="64" rx="16" fill="url(#paint0_linear_1881_1287)" fill-opacity="0.16"/>
<rect x="1.4707" y="1.38574" width="186" height="63" rx="15.5" stroke="url(#paint1_linear_1881_1287)"/>
<g filter="url(#filter1_d_1881_1287)">
<rect x="10.9707" y="10.8857" width="44" height="44" rx="12" fill="white" fill-opacity="0.07" shape-rendering="crispEdges"/>
<path opacity="0.4" d="M32.4711 32.6885C33.8671 32.6885 35.1665 33.3526 36.7115 34.405L44.6067 39.7837C44.9326 40.0058 45.0775 40.4132 44.965 40.7912C44.715 41.6314 44.3168 42.3419 43.6872 42.9669C42.8325 43.8155 41.8219 44.2259 40.5796 44.4398C39.3919 44.6442 37.9098 44.6808 36.0665 44.7264L35.9967 44.7281C33.6394 44.7864 31.3029 44.7864 28.9454 44.7281L28.8758 44.7264C27.0325 44.6808 25.5503 44.6442 24.3627 44.4398C23.1203 44.2259 22.1097 43.8155 21.255 42.9669C20.6253 42.3419 20.2272 41.6314 19.9772 40.7912C19.8647 40.4132 20.0096 40.0058 20.3355 39.7837L28.2308 34.405C29.7757 33.3526 31.0752 32.6885 32.4711 32.6885Z" fill="#4770FF"/>
<g opacity="0.4">
<path d="M20.1079 28.627C19.8074 28.771 19.6101 29.0683 19.5942 29.4011L19.5637 30.0393C19.483 31.8728 19.4624 33.6708 19.5019 35.4866L19.5048 35.6222C19.5245 36.5318 19.5424 37.355 19.5849 38.1008L27.0062 33.0449C26.7181 32.8529 26.4142 32.6319 26.0763 32.3858L21.033 28.7118C20.7637 28.5156 20.4084 28.4831 20.1079 28.627Z" fill="#4770FF"/>
<path d="M44.8359 28.627C45.1364 28.771 45.3337 29.0683 45.3497 29.4011L45.3801 30.0393C45.4608 31.8728 45.4814 33.6708 45.442 35.4866L45.439 35.6222C45.4193 36.5318 45.4015 37.3552 45.359 38.1009L37.9375 33.045C38.2256 32.8529 38.5296 32.6319 38.8676 32.3858L43.9108 28.7118C44.1801 28.5156 44.5354 28.4831 44.8359 28.627Z" fill="#4770FF"/>
</g>
<path d="M29.816 20.7355C30.7177 20.2747 31.5497 20.001 32.4713 20.001C33.3928 20.001 34.225 20.2747 35.1266 20.7355C35.9987 21.1812 37.0028 21.8388 38.2598 22.6619L42.9932 25.7612C43.5087 26.0979 43.96 26.3927 44.3234 26.73C43.7988 26.7533 43.2826 26.9282 42.8429 27.2486L37.7996 30.9225C37.4552 31.1733 37.1825 31.3713 36.9313 31.5387C36.7194 31.68 36.5431 31.8619 36.4099 32.0702C35.2042 31.3799 33.9145 30.876 32.4718 30.876C31.0287 30.876 29.7386 31.3802 28.5326 32.0708C28.3993 31.8621 28.2228 31.6801 28.0107 31.5386C27.7596 31.3713 27.4868 31.1733 27.1425 30.9225L22.0993 27.2486C21.6596 26.9283 21.1435 26.7534 20.6191 26.73C20.9826 26.3927 21.4339 26.0979 21.9494 25.7612L26.6827 22.6619C27.9398 21.8388 28.9439 21.1812 29.816 20.7355Z" fill="#4770FF"/>
</g>
<path d="M72.0893 26.3857V16.2039H78.4728V17.5264H73.6255V20.6286H78.1397V21.9461H73.6255V25.0633H78.5325V26.3857H72.0893ZM80.4055 26.3857V18.7494H81.8324V19.9923H81.9268C82.0859 19.5713 82.3461 19.2432 82.7074 19.0079C83.0687 18.7693 83.5012 18.6499 84.005 18.6499C84.5154 18.6499 84.9429 18.7693 85.2876 19.0079C85.6357 19.2465 85.8925 19.5747 86.0582 19.9923H86.1378C86.3201 19.5846 86.6101 19.2598 87.0078 19.0178C87.4055 18.7726 87.8795 18.6499 88.4297 18.6499C89.1224 18.6499 89.6875 18.867 90.125 19.3012C90.5658 19.7354 90.7862 20.39 90.7862 21.265V26.3857H89.2997V21.4042C89.2997 20.8872 89.1589 20.5126 88.8771 20.2806C88.5954 20.0486 88.259 19.9326 87.8679 19.9326C87.384 19.9326 87.0078 20.0818 86.7393 20.3801C86.4709 20.675 86.3366 21.0545 86.3366 21.5186V26.3857H84.8551V21.3097C84.8551 20.8954 84.7259 20.5624 84.4673 20.3105C84.2088 20.0586 83.8724 19.9326 83.4581 19.9326C83.1764 19.9326 82.9162 20.0072 82.6776 20.1563C82.4422 20.3022 82.2517 20.506 82.1058 20.7678C81.9633 21.0297 81.892 21.3329 81.892 21.6776V26.3857H80.4055ZM95.0009 26.5548C94.517 26.5548 94.0795 26.4653 93.6884 26.2863C93.2973 26.104 92.9874 25.8405 92.7587 25.4958C92.5333 25.1511 92.4206 24.7285 92.4206 24.2281C92.4206 23.7972 92.5035 23.4426 92.6692 23.1642C92.8349 22.8857 93.0587 22.6653 93.3404 22.5029C93.6221 22.3405 93.937 22.2179 94.285 22.135C94.633 22.0522 94.9876 21.9892 95.3489 21.9461C95.8063 21.8931 96.1775 21.85 96.4625 21.8169C96.7476 21.7804 96.9547 21.7224 97.084 21.6428C97.2132 21.5633 97.2779 21.434 97.2779 21.2551V21.2203C97.2779 20.7861 97.1552 20.4497 96.91 20.211C96.668 19.9724 96.3068 19.8531 95.8262 19.8531C95.3257 19.8531 94.9313 19.9641 94.6429 20.1862C94.3579 20.4049 94.1607 20.6485 94.0513 20.917L92.6543 20.5988C92.82 20.1348 93.062 19.7603 93.3801 19.4752C93.7016 19.1869 94.0712 18.9781 94.4888 18.8488C94.9064 18.7162 95.3456 18.6499 95.8063 18.6499C96.1112 18.6499 96.4344 18.6864 96.7757 18.7593C97.1204 18.8289 97.4419 18.9582 97.7402 19.1471C98.0418 19.336 98.2888 19.6061 98.481 19.9575C98.6732 20.3055 98.7694 20.7579 98.7694 21.3147V26.3857H97.3176V25.3417H97.258C97.1619 25.5339 97.0177 25.7229 96.8255 25.9085C96.6332 26.0941 96.3863 26.2482 96.0847 26.3708C95.7831 26.4935 95.4218 26.5548 95.0009 26.5548ZM95.324 25.3616C95.735 25.3616 96.0864 25.2804 96.378 25.118C96.673 24.9556 96.8967 24.7435 97.0492 24.4816C97.205 24.2165 97.2828 23.9331 97.2828 23.6315V22.6471C97.2298 22.7001 97.1271 22.7499 96.9746 22.7963C96.8255 22.8393 96.6548 22.8775 96.4625 22.9106C96.2703 22.9404 96.083 22.9686 95.9007 22.9951C95.7185 23.0183 95.566 23.0382 95.4434 23.0548C95.155 23.0912 94.8915 23.1526 94.6529 23.2387C94.4176 23.3249 94.2286 23.4492 94.0861 23.6116C93.9469 23.7707 93.8773 23.9828 93.8773 24.248C93.8773 24.6159 94.0132 24.8943 94.285 25.0832C94.5568 25.2688 94.9031 25.3616 95.324 25.3616ZM100.749 26.3857V18.7494H102.236V26.3857H100.749ZM101.5 17.5711C101.241 17.5711 101.019 17.4849 100.834 17.3126C100.652 17.1369 100.56 16.9281 100.56 16.6862C100.56 16.4409 100.652 16.2321 100.834 16.0597C101.019 15.8841 101.241 15.7963 101.5 15.7963C101.759 15.7963 101.979 15.8841 102.161 16.0597C102.347 16.2321 102.44 16.4409 102.44 16.6862C102.44 16.9281 102.347 17.1369 102.161 17.3126C101.979 17.4849 101.759 17.5711 101.5 17.5711ZM105.722 16.2039V26.3857H104.236V16.2039H105.722ZM113.649 26.5548C113.165 26.5548 112.728 26.4653 112.337 26.2863C111.946 26.104 111.636 25.8405 111.407 25.4958C111.182 25.1511 111.069 24.7285 111.069 24.2281C111.069 23.7972 111.152 23.4426 111.318 23.1642C111.483 22.8857 111.707 22.6653 111.989 22.5029C112.271 22.3405 112.585 22.2179 112.933 22.135C113.281 22.0522 113.636 21.9892 113.997 21.9461C114.455 21.8931 114.826 21.85 115.111 21.8169C115.396 21.7804 115.603 21.7224 115.732 21.6428C115.862 21.5633 115.926 21.434 115.926 21.2551V21.2203C115.926 20.7861 115.804 20.4497 115.558 20.211C115.316 19.9724 114.955 19.8531 114.475 19.8531C113.974 19.8531 113.58 19.9641 113.291 20.1862C113.006 20.4049 112.809 20.6485 112.7 20.917L111.303 20.5988C111.468 20.1348 111.71 19.7603 112.029 19.4752C112.35 19.1869 112.72 18.9781 113.137 18.8488C113.555 18.7162 113.994 18.6499 114.455 18.6499C114.76 18.6499 115.083 18.6864 115.424 18.7593C115.769 18.8289 116.09 18.9582 116.389 19.1471C116.69 19.336 116.937 19.6061 117.129 19.9575C117.322 20.3055 117.418 20.7579 117.418 21.3147V26.3857H115.966V25.3417H115.906C115.81 25.5339 115.666 25.7229 115.474 25.9085C115.282 26.0941 115.035 26.2482 114.733 26.3708C114.432 26.4935 114.07 26.5548 113.649 26.5548ZM113.972 25.3616C114.383 25.3616 114.735 25.2804 115.026 25.118C115.321 24.9556 115.545 24.7435 115.698 24.4816C115.853 24.2165 115.931 23.9331 115.931 23.6315V22.6471C115.878 22.7001 115.776 22.7499 115.623 22.7963C115.474 22.8393 115.303 22.8775 115.111 22.9106C114.919 22.9404 114.731 22.9686 114.549 22.9951C114.367 23.0183 114.214 23.0382 114.092 23.0548C113.803 23.0912 113.54 23.1526 113.301 23.2387C113.066 23.3249 112.877 23.4492 112.735 23.6116C112.595 23.7707 112.526 23.9828 112.526 24.248C112.526 24.6159 112.662 24.8943 112.933 25.0832C113.205 25.2688 113.552 25.3616 113.972 25.3616ZM122.256 26.5349C121.64 26.5349 121.09 26.3775 120.606 26.0626C120.125 25.7444 119.747 25.292 119.472 24.7053C119.201 24.1154 119.065 23.4078 119.065 22.5825C119.065 21.7572 119.202 21.0512 119.477 20.4646C119.756 19.8779 120.137 19.4288 120.621 19.1173C121.105 18.8057 121.653 18.6499 122.266 18.6499C122.74 18.6499 123.121 18.7295 123.41 18.8886C123.701 19.0444 123.927 19.2267 124.086 19.4355C124.248 19.6443 124.374 19.8282 124.464 19.9873H124.553V16.2039H126.04V26.3857H124.588V25.1975H124.464C124.374 25.3599 124.245 25.5455 124.076 25.7544C123.91 25.9632 123.682 26.1454 123.39 26.3012C123.098 26.457 122.72 26.5349 122.256 26.5349ZM122.585 25.2671C123.012 25.2671 123.373 25.1544 123.668 24.9291C123.967 24.7004 124.192 24.3838 124.344 23.9795C124.5 23.5751 124.578 23.1045 124.578 22.5676C124.578 22.0373 124.502 21.5732 124.349 21.1755C124.197 20.7778 123.973 20.4679 123.678 20.2458C123.383 20.0238 123.019 19.9127 122.585 19.9127C122.137 19.9127 121.764 20.0287 121.466 20.2607C121.168 20.4927 120.942 20.8093 120.79 21.2103C120.641 21.6114 120.566 22.0638 120.566 22.5676C120.566 23.078 120.642 23.537 120.795 23.9447C120.947 24.3524 121.173 24.6755 121.471 24.9142C121.772 25.1495 122.144 25.2671 122.585 25.2671ZM131.02 26.5349C130.404 26.5349 129.853 26.3775 129.369 26.0626C128.889 25.7444 128.511 25.292 128.236 24.7053C127.964 24.1154 127.828 23.4078 127.828 22.5825C127.828 21.7572 127.966 21.0512 128.241 20.4646C128.519 19.8779 128.901 19.4288 129.384 19.1173C129.868 18.8057 130.417 18.6499 131.03 18.6499C131.504 18.6499 131.885 18.7295 132.173 18.8886C132.465 19.0444 132.691 19.2267 132.85 19.4355C133.012 19.6443 133.138 19.8282 133.227 19.9873H133.317V16.2039H134.803V26.3857H133.352V25.1975H133.227C133.138 25.3599 133.009 25.5455 132.84 25.7544C132.674 25.9632 132.445 26.1454 132.154 26.3012C131.862 26.457 131.484 26.5349 131.02 26.5349ZM131.348 25.2671C131.776 25.2671 132.137 25.1544 132.432 24.9291C132.73 24.7004 132.956 24.3838 133.108 23.9795C133.264 23.5751 133.342 23.1045 133.342 22.5676C133.342 22.0373 133.266 21.5732 133.113 21.1755C132.961 20.7778 132.737 20.4679 132.442 20.2458C132.147 20.0238 131.782 19.9127 131.348 19.9127C130.901 19.9127 130.528 20.0287 130.23 20.2607C129.931 20.4927 129.706 20.8093 129.553 21.2103C129.404 21.6114 129.33 22.0638 129.33 22.5676C129.33 23.078 129.406 23.537 129.558 23.9447C129.711 24.3524 129.936 24.6755 130.235 24.9142C130.536 25.1495 130.907 25.2671 131.348 25.2671ZM136.925 26.3857V18.7494H138.362V19.9624H138.441C138.581 19.5515 138.826 19.2283 139.177 18.993C139.532 18.7543 139.933 18.635 140.38 18.635C140.473 18.635 140.583 18.6383 140.708 18.645C140.838 18.6516 140.939 18.6599 141.012 18.6698V20.0917C140.952 20.0751 140.846 20.0569 140.694 20.037C140.541 20.0138 140.389 20.0022 140.236 20.0022C139.885 20.0022 139.572 20.0768 139.297 20.2259C139.025 20.3718 138.809 20.5756 138.65 20.8374C138.491 21.096 138.412 21.391 138.412 21.7224V26.3857H136.925ZM145.316 26.5399C144.564 26.5399 143.916 26.3791 143.372 26.0576C142.832 25.7328 142.414 25.2771 142.119 24.6904C141.827 24.1005 141.682 23.4094 141.682 22.6173C141.682 21.8351 141.827 21.1457 142.119 20.5491C142.414 19.9525 142.825 19.4868 143.352 19.1521C143.882 18.8173 144.502 18.6499 145.211 18.6499C145.642 18.6499 146.06 18.7212 146.464 18.8637C146.869 19.0062 147.232 19.23 147.553 19.5349C147.875 19.8398 148.128 20.2359 148.314 20.7231C148.499 21.207 148.592 21.7953 148.592 22.488V23.015H142.522V21.9014H147.135C147.135 21.5103 147.056 21.1639 146.897 20.8623C146.738 20.5574 146.514 20.3171 146.226 20.1414C145.941 19.9658 145.606 19.8779 145.221 19.8779C144.804 19.8779 144.439 19.9807 144.128 20.1862C143.819 20.3883 143.581 20.6535 143.412 20.9816C143.246 21.3064 143.163 21.6594 143.163 22.0406V22.9106C143.163 23.421 143.253 23.8552 143.432 24.2132C143.614 24.5711 143.867 24.8445 144.192 25.0335C144.517 25.2191 144.897 25.3119 145.331 25.3119C145.613 25.3119 145.869 25.2721 146.101 25.1926C146.333 25.1097 146.534 24.9871 146.703 24.8247C146.872 24.6623 147.001 24.4617 147.091 24.2231L148.498 24.4767C148.385 24.891 148.183 25.2539 147.891 25.5654C147.603 25.8737 147.24 26.114 146.802 26.2863C146.368 26.4553 145.873 26.5399 145.316 26.5399ZM155.964 20.6137L154.616 20.8524C154.56 20.68 154.471 20.516 154.348 20.3602C154.229 20.2044 154.066 20.0768 153.861 19.9774C153.655 19.8779 153.398 19.8282 153.09 19.8282C152.669 19.8282 152.318 19.9227 152.036 20.1116C151.754 20.2972 151.614 20.5375 151.614 20.8325C151.614 21.0877 151.708 21.2932 151.897 21.449C152.086 21.6047 152.391 21.7323 152.812 21.8318L154.025 22.1102C154.728 22.2726 155.251 22.5228 155.596 22.8609C155.941 23.199 156.113 23.6381 156.113 24.1784C156.113 24.6357 155.98 25.0434 155.715 25.4014C155.453 25.756 155.087 26.0344 154.616 26.2366C154.149 26.4388 153.607 26.5399 152.991 26.5399C152.136 26.5399 151.438 26.3576 150.898 25.993C150.357 25.6251 150.026 25.1031 149.903 24.4269L151.34 24.2082C151.43 24.5827 151.614 24.8661 151.892 25.0583C152.17 25.2472 152.533 25.3417 152.981 25.3417C153.468 25.3417 153.857 25.2406 154.149 25.0384C154.441 24.8329 154.587 24.5827 154.587 24.2877C154.587 24.0491 154.497 23.8486 154.318 23.6862C154.143 23.5238 153.872 23.4011 153.508 23.3183L152.215 23.0349C151.503 22.8725 150.976 22.614 150.634 22.2593C150.296 21.9047 150.127 21.4556 150.127 20.912C150.127 20.4613 150.253 20.0668 150.505 19.7288C150.757 19.3907 151.105 19.1272 151.549 18.9383C151.993 18.7461 152.502 18.6499 153.075 18.6499C153.901 18.6499 154.55 18.8289 155.024 19.1869C155.498 19.5415 155.811 20.0171 155.964 20.6137ZM163.47 20.6137L162.122 20.8524C162.066 20.68 161.977 20.516 161.854 20.3602C161.735 20.2044 161.572 20.0768 161.367 19.9774C161.161 19.8779 160.904 19.8282 160.596 19.8282C160.175 19.8282 159.824 19.9227 159.542 20.1116C159.26 20.2972 159.119 20.5375 159.119 20.8325C159.119 21.0877 159.214 21.2932 159.403 21.449C159.592 21.6047 159.897 21.7323 160.318 21.8318L161.531 22.1102C162.233 22.2726 162.757 22.5228 163.102 22.8609C163.446 23.199 163.619 23.6381 163.619 24.1784C163.619 24.6357 163.486 25.0434 163.221 25.4014C162.959 25.756 162.593 26.0344 162.122 26.2366C161.655 26.4388 161.113 26.5399 160.497 26.5399C159.642 26.5399 158.944 26.3576 158.404 25.993C157.863 25.6251 157.532 25.1031 157.409 24.4269L158.846 24.2082C158.936 24.5827 159.119 24.8661 159.398 25.0583C159.676 25.2472 160.039 25.3417 160.487 25.3417C160.974 25.3417 161.363 25.2406 161.655 25.0384C161.947 24.8329 162.093 24.5827 162.093 24.2877C162.093 24.0491 162.003 23.8486 161.824 23.6862C161.648 23.5238 161.378 23.4011 161.014 23.3183L159.721 23.0349C159.008 22.8725 158.481 22.614 158.14 22.2593C157.802 21.9047 157.633 21.4556 157.633 20.912C157.633 20.4613 157.759 20.0668 158.011 19.7288C158.263 19.3907 158.611 19.1272 159.055 18.9383C159.499 18.7461 160.008 18.6499 160.581 18.6499C161.406 18.6499 162.056 18.8289 162.53 19.1869C163.004 19.5415 163.317 20.0171 163.47 20.6137Z" fill="#CAC6DD"/>
<path d="M72.1127 49.3857V40.6585H73.8116V49.3857H72.1127ZM72.9707 39.3119C72.6752 39.3119 72.4215 39.2134 72.2093 39.0164C72.001 38.8157 71.8968 38.577 71.8968 38.3005C71.8968 38.0202 72.001 37.7816 72.2093 37.5846C72.4215 37.3838 72.6752 37.2835 72.9707 37.2835C73.2662 37.2835 73.5181 37.3838 73.7264 37.5846C73.9385 37.7816 74.0446 38.0202 74.0446 38.3005C74.0446 38.577 73.9385 38.8157 73.7264 39.0164C73.5181 39.2134 73.2662 39.3119 72.9707 39.3119ZM77.296 44.2039V49.3857H75.5971V40.6585H77.2278V42.0789H77.3358C77.5365 41.6168 77.8509 41.2456 78.2789 40.9653C78.7108 40.685 79.2543 40.5448 79.9096 40.5448C80.5043 40.5448 81.0252 40.6698 81.4721 40.9198C81.9191 41.166 82.2657 41.5335 82.5119 42.0221C82.7581 42.5107 82.8812 43.1149 82.8812 43.8346V49.3857H81.1824V44.0392C81.1824 43.4066 81.0176 42.9123 80.688 42.5562C80.3585 42.1963 79.9058 42.0164 79.3301 42.0164C78.9361 42.0164 78.5858 42.1017 78.2789 42.2721C77.9759 42.4426 77.7354 42.6926 77.5574 43.0221C77.3831 43.3479 77.296 43.7418 77.296 44.2039ZM88.813 40.6585V42.0221H83.8812V40.6585H88.813ZM85.2335 49.3857V39.6471C85.2335 39.1017 85.3528 38.649 85.5914 38.2892C85.8301 37.9255 86.1464 37.6547 86.5403 37.4767C86.9342 37.2948 87.3623 37.2039 87.8244 37.2039C88.1653 37.2039 88.457 37.2323 88.6994 37.2892C88.9418 37.3422 89.1217 37.3914 89.2392 37.4369L88.8414 38.8119C88.7619 38.7892 88.6596 38.7626 88.5346 38.7323C88.4096 38.6982 88.2581 38.6812 88.0801 38.6812C87.6672 38.6812 87.3717 38.7835 87.1937 38.988C87.0195 39.1926 86.9324 39.488 86.9324 39.8744V49.3857H85.2335ZM93.3983 49.5619C92.5801 49.5619 91.8661 49.3744 91.2562 48.9994C90.6464 48.6244 90.1729 48.0998 89.8358 47.4255C89.4986 46.7513 89.3301 45.9634 89.3301 45.0619C89.3301 44.1566 89.4986 43.3649 89.8358 42.6869C90.1729 42.0088 90.6464 41.4823 91.2562 41.1073C91.8661 40.7323 92.5801 40.5448 93.3983 40.5448C94.2164 40.5448 94.9305 40.7323 95.5403 41.1073C96.1502 41.4823 96.6236 42.0088 96.9608 42.6869C97.2979 43.3649 97.4664 44.1566 97.4664 45.0619C97.4664 45.9634 97.2979 46.7513 96.9608 47.4255C96.6236 48.0998 96.1502 48.6244 95.5403 48.9994C94.9305 49.3744 94.2164 49.5619 93.3983 49.5619ZM93.4039 48.1357C93.9342 48.1357 94.3736 47.9956 94.7221 47.7153C95.0706 47.435 95.3282 47.0619 95.4949 46.596C95.6653 46.1301 95.7505 45.6168 95.7505 45.0562C95.7505 44.4994 95.6653 43.988 95.4949 43.5221C95.3282 43.0524 95.0706 42.6755 94.7221 42.3914C94.3736 42.1073 93.9342 41.9653 93.4039 41.9653C92.8699 41.9653 92.4267 42.1073 92.0744 42.3914C91.7259 42.6755 91.4664 43.0524 91.296 43.5221C91.1293 43.988 91.046 44.4994 91.046 45.0562C91.046 45.6168 91.1293 46.1301 91.296 46.596C91.4664 47.0619 91.7259 47.435 92.0744 47.7153C92.4267 47.9956 92.8699 48.1357 93.4039 48.1357ZM105.868 52.5505C104.694 52.5505 103.653 52.3895 102.743 52.0676C101.838 51.7494 101.075 51.2797 100.454 50.6585C99.8324 50.041 99.3609 49.2835 99.0389 48.3857C98.7169 47.488 98.5559 46.4634 98.5559 45.3119C98.5559 44.1907 98.7188 43.1831 99.0446 42.2892C99.3703 41.3952 99.8438 40.6338 100.465 40.0051C101.09 39.3725 101.849 38.8895 102.743 38.5562C103.637 38.2229 104.653 38.0562 105.789 38.0562C106.876 38.0562 107.834 38.2267 108.664 38.5676C109.493 38.9085 110.19 39.3763 110.755 39.971C111.323 40.5657 111.751 41.2475 112.039 42.0164C112.327 42.7854 112.471 43.5979 112.471 44.4539C112.471 45.0524 112.433 45.6376 112.357 46.2096C112.281 46.7778 112.141 47.2929 111.937 47.7551C111.736 48.2134 111.444 48.5808 111.062 48.8573C110.683 49.1301 110.19 49.2721 109.584 49.2835C109.262 49.2948 108.95 49.257 108.647 49.1698C108.344 49.0827 108.086 48.9426 107.874 48.7494C107.662 48.5524 107.533 48.3024 107.488 47.9994H107.42C107.329 48.2229 107.177 48.4312 106.965 48.6244C106.753 48.8138 106.482 48.9653 106.153 49.0789C105.827 49.1888 105.448 49.2342 105.016 49.2153C104.539 49.1963 104.109 49.0884 103.726 48.8914C103.344 48.6945 103.016 48.4217 102.743 48.0732C102.474 47.7248 102.268 47.3119 102.124 46.8346C101.98 46.3573 101.908 45.827 101.908 45.2437C101.908 44.6831 101.99 44.1812 102.153 43.738C102.315 43.291 102.537 42.9066 102.817 42.5846C103.101 42.2588 103.427 42.0013 103.795 41.8119C104.162 41.6225 104.55 41.5032 104.959 41.4539C105.357 41.4085 105.723 41.4198 106.056 41.488C106.389 41.5562 106.666 41.6604 106.885 41.8005C107.109 41.9407 107.249 42.0941 107.306 42.2607H107.38V41.6244H108.778V46.8971C108.778 47.1963 108.855 47.4501 109.01 47.6585C109.17 47.8668 109.395 47.971 109.687 47.971C110.031 47.971 110.3 47.8441 110.493 47.5903C110.69 47.3365 110.829 46.9463 110.908 46.4198C110.992 45.8933 111.033 45.2191 111.033 44.3971C111.033 43.8213 110.956 43.2797 110.8 42.7721C110.649 42.2607 110.423 41.7986 110.124 41.3857C109.829 40.9691 109.465 40.6111 109.033 40.3119C108.601 40.0126 108.109 39.7816 107.556 39.6187C107.007 39.4558 106.399 39.3744 105.732 39.3744C104.827 39.3744 104.022 39.5145 103.317 39.7948C102.613 40.0713 102.018 40.471 101.533 40.9937C101.052 41.5164 100.687 42.1433 100.437 42.8744C100.19 43.6017 100.067 44.4179 100.067 45.3232C100.067 46.2664 100.194 47.1035 100.448 47.8346C100.702 48.5619 101.077 49.1755 101.573 49.6755C102.069 50.1755 102.683 50.5543 103.414 50.8119C104.145 51.0732 104.988 51.2039 105.942 51.2039C106.367 51.2039 106.783 51.166 107.192 51.0903C107.601 51.0183 107.965 50.935 108.283 50.8403C108.605 50.7494 108.846 50.6755 109.005 50.6187L109.403 51.863C109.168 51.9729 108.855 52.0808 108.465 52.1869C108.079 52.2929 107.658 52.3801 107.204 52.4482C106.753 52.5164 106.308 52.5505 105.868 52.5505ZM105.346 47.8232C105.838 47.8232 106.234 47.7248 106.533 47.5278C106.836 47.3308 107.054 47.0373 107.187 46.6471C107.323 46.2532 107.391 45.7607 107.391 45.1698C107.387 44.5941 107.314 44.1357 107.17 43.7948C107.029 43.4501 106.81 43.2039 106.51 43.0562C106.215 42.9047 105.834 42.8289 105.368 42.8289C104.94 42.8289 104.575 42.9331 104.272 43.1414C103.973 43.3498 103.743 43.632 103.584 43.988C103.429 44.3441 103.349 44.7399 103.346 45.1755C103.349 45.6338 103.414 46.0657 103.539 46.471C103.668 46.8725 103.876 47.1982 104.164 47.4482C104.456 47.6982 104.849 47.8232 105.346 47.8232ZM118.001 40.6585V42.0221H113.069V40.6585H118.001ZM114.421 49.3857V39.6471C114.421 39.1017 114.54 38.649 114.779 38.2892C115.018 37.9255 115.334 37.6547 115.728 37.4767C116.122 37.2948 116.55 37.2039 117.012 37.2039C117.353 37.2039 117.644 37.2323 117.887 37.2892C118.129 37.3422 118.309 37.3914 118.427 37.4369L118.029 38.8119C117.949 38.7892 117.847 38.7626 117.722 38.7323C117.597 38.6982 117.446 38.6812 117.268 38.6812C116.855 38.6812 116.559 38.7835 116.381 38.988C116.207 39.1926 116.12 39.488 116.12 39.8744V49.3857H114.421ZM120.952 37.7494V49.3857H119.253V37.7494H120.952ZM126.499 49.5619C125.639 49.5619 124.899 49.3782 124.278 49.0107C123.66 48.6395 123.183 48.1187 122.846 47.4482C122.512 46.774 122.346 45.9842 122.346 45.0789C122.346 44.185 122.512 43.3971 122.846 42.7153C123.183 42.0335 123.653 41.5013 124.255 41.1187C124.861 40.7361 125.569 40.5448 126.38 40.5448C126.872 40.5448 127.349 40.6263 127.812 40.7892C128.274 40.952 128.689 41.2077 129.056 41.5562C129.423 41.9047 129.713 42.3573 129.925 42.9142C130.137 43.4672 130.243 44.1395 130.243 44.9312V45.5335H123.306V44.2607H128.579C128.579 43.8138 128.488 43.4179 128.306 43.0732C128.124 42.7248 127.868 42.4501 127.539 42.2494C127.213 42.0486 126.831 41.9482 126.391 41.9482C125.914 41.9482 125.497 42.0657 125.141 42.3005C124.789 42.5316 124.516 42.8346 124.323 43.2096C124.134 43.5808 124.039 43.9842 124.039 44.4198V45.4142C124.039 45.9975 124.141 46.4937 124.346 46.9028C124.554 47.3119 124.844 47.6244 125.215 47.8403C125.586 48.0524 126.02 48.1585 126.516 48.1585C126.838 48.1585 127.132 48.113 127.397 48.0221C127.662 47.9274 127.891 47.7873 128.084 47.6017C128.278 47.416 128.425 47.1869 128.528 46.9142L130.135 47.2039C130.007 47.6774 129.776 48.0922 129.442 48.4482C129.113 48.8005 128.698 49.0751 128.198 49.2721C127.702 49.4653 127.135 49.5619 126.499 49.5619ZM132.766 40.6585L134.692 44.0562L136.635 40.6585H138.493L135.772 45.0221L138.516 49.3857H136.658L134.692 46.1244L132.732 49.3857H130.868L133.584 45.0221L130.903 40.6585H132.766ZM141.437 37.7494V49.3857H139.738V37.7494H141.437ZM145.762 49.5789C145.209 49.5789 144.709 49.4767 144.262 49.2721C143.815 49.0638 143.461 48.7626 143.199 48.3687C142.942 47.9748 142.813 47.4918 142.813 46.9198C142.813 46.4274 142.908 46.0221 143.097 45.7039C143.287 45.3857 143.542 45.1338 143.864 44.9482C144.186 44.7626 144.546 44.6225 144.944 44.5278C145.341 44.4331 145.747 44.3611 146.16 44.3119C146.682 44.2513 147.107 44.202 147.432 44.1642C147.758 44.1225 147.995 44.0562 148.143 43.9653C148.29 43.8744 148.364 43.7267 148.364 43.5221V43.4823C148.364 42.9861 148.224 42.6017 147.944 42.3289C147.667 42.0562 147.254 41.9198 146.705 41.9198C146.133 41.9198 145.682 42.0467 145.353 42.3005C145.027 42.5505 144.802 42.8289 144.677 43.1357L143.08 42.7721C143.269 42.2418 143.546 41.8138 143.91 41.488C144.277 41.1585 144.699 40.9198 145.177 40.7721C145.654 40.6206 146.156 40.5448 146.682 40.5448C147.031 40.5448 147.4 40.5865 147.79 40.6698C148.184 40.7494 148.552 40.8971 148.893 41.113C149.237 41.3289 149.519 41.6376 149.739 42.0392C149.959 42.4369 150.069 42.9539 150.069 43.5903V49.3857H148.41V48.1926H148.341C148.232 48.4123 148.067 48.6282 147.847 48.8403C147.627 49.0524 147.345 49.2285 147.001 49.3687C146.656 49.5088 146.243 49.5789 145.762 49.5789ZM146.131 48.2153C146.601 48.2153 147.002 48.1225 147.336 47.9369C147.673 47.7513 147.929 47.5088 148.103 47.2096C148.281 46.9066 148.37 46.5827 148.37 46.238V45.113C148.309 45.1736 148.192 45.2304 148.018 45.2835C147.847 45.3327 147.652 45.3763 147.432 45.4142C147.213 45.4482 146.999 45.4804 146.79 45.5107C146.582 45.5373 146.408 45.56 146.268 45.5789C145.938 45.6206 145.637 45.6907 145.364 45.7892C145.095 45.8876 144.879 46.0297 144.716 46.2153C144.557 46.3971 144.478 46.6395 144.478 46.9426C144.478 47.363 144.633 47.6812 144.944 47.8971C145.254 48.1092 145.65 48.2153 146.131 48.2153ZM151.968 49.3857V37.7494H153.667V42.0732H153.769C153.867 41.8914 154.01 41.6812 154.195 41.4426C154.381 41.2039 154.638 40.9956 154.968 40.8176C155.297 40.6357 155.733 40.5448 156.275 40.5448C156.979 40.5448 157.608 40.7229 158.161 41.0789C158.714 41.435 159.148 41.9482 159.462 42.6187C159.78 43.2892 159.939 44.096 159.939 45.0392C159.939 45.9823 159.782 46.791 159.468 47.4653C159.153 48.1357 158.722 48.6528 158.172 49.0164C157.623 49.3763 156.996 49.5562 156.292 49.5562C155.761 49.5562 155.328 49.4672 154.991 49.2892C154.657 49.1111 154.396 48.9028 154.206 48.6642C154.017 48.4255 153.871 48.2134 153.769 48.0278H153.627V49.3857H151.968ZM153.633 45.0221C153.633 45.6357 153.722 46.1736 153.9 46.6357C154.078 47.0979 154.335 47.4596 154.672 47.721C155.01 47.9785 155.422 48.1073 155.911 48.1073C156.419 48.1073 156.843 47.9729 157.184 47.7039C157.525 47.4312 157.782 47.0619 157.956 46.596C158.135 46.1301 158.224 45.6054 158.224 45.0221C158.224 44.4463 158.136 43.9293 157.962 43.471C157.792 43.0126 157.534 42.6509 157.189 42.3857C156.849 42.1206 156.422 41.988 155.911 41.988C155.419 41.988 155.002 42.1149 154.661 42.3687C154.324 42.6225 154.068 42.9767 153.894 43.4312C153.72 43.8857 153.633 44.416 153.633 45.0221ZM162.466 49.4937C162.156 49.4937 161.889 49.3838 161.665 49.1642C161.442 48.9407 161.33 48.6717 161.33 48.3573C161.33 48.0467 161.442 47.7816 161.665 47.5619C161.889 47.3384 162.156 47.2267 162.466 47.2267C162.777 47.2267 163.044 47.3384 163.268 47.5619C163.491 47.7816 163.603 48.0467 163.603 48.3573C163.603 48.5657 163.55 48.757 163.444 48.9312C163.341 49.1017 163.205 49.238 163.035 49.3403C162.864 49.4426 162.675 49.4937 162.466 49.4937ZM165.378 49.3857V40.6585H167.077V49.3857H165.378ZM166.236 39.3119C165.941 39.3119 165.687 39.2134 165.475 39.0164C165.267 38.8157 165.162 38.577 165.162 38.3005C165.162 38.0202 165.267 37.7816 165.475 37.5846C165.687 37.3838 165.941 37.2835 166.236 37.2835C166.532 37.2835 166.784 37.3838 166.992 37.5846C167.204 37.7816 167.31 38.0202 167.31 38.3005C167.31 38.577 167.204 38.8157 166.992 39.0164C166.784 39.2134 166.532 39.3119 166.236 39.3119ZM172.539 49.5619C171.721 49.5619 171.007 49.3744 170.397 48.9994C169.787 48.6244 169.314 48.0998 168.976 47.4255C168.639 46.7513 168.471 45.9634 168.471 45.0619C168.471 44.1566 168.639 43.3649 168.976 42.6869C169.314 42.0088 169.787 41.4823 170.397 41.1073C171.007 40.7323 171.721 40.5448 172.539 40.5448C173.357 40.5448 174.071 40.7323 174.681 41.1073C175.291 41.4823 175.764 42.0088 176.101 42.6869C176.439 43.3649 176.607 44.1566 176.607 45.0619C176.607 45.9634 176.439 46.7513 176.101 47.4255C175.764 48.0998 175.291 48.6244 174.681 48.9994C174.071 49.3744 173.357 49.5619 172.539 49.5619ZM172.545 48.1357C173.075 48.1357 173.514 47.9956 173.863 47.7153C174.211 47.435 174.469 47.0619 174.635 46.596C174.806 46.1301 174.891 45.6168 174.891 45.0562C174.891 44.4994 174.806 43.988 174.635 43.5221C174.469 43.0524 174.211 42.6755 173.863 42.3914C173.514 42.1073 173.075 41.9653 172.545 41.9653C172.01 41.9653 171.567 42.1073 171.215 42.3914C170.867 42.6755 170.607 43.0524 170.437 43.5221C170.27 43.988 170.187 44.4994 170.187 45.0562C170.187 45.6168 170.27 46.1301 170.437 46.596C170.607 47.0619 170.867 47.435 171.215 47.7153C171.567 47.9956 172.01 48.1357 172.545 48.1357Z" fill="#CAC6DD"/>
</g>
<defs>
<filter id="filter0_b_1881_1287" x="-10.7293" y="-10.8143" width="210.4" height="87.4" filterUnits="userSpaceOnUse" color-interpolation-filters="sRGB">
<feFlood flood-opacity="0" result="BackgroundImageFix"/>
<feGaussianBlur in="BackgroundImageFix" stdDeviation="5.85"/>
<feComposite in2="SourceAlpha" operator="in" result="effect1_backgroundBlur_1881_1287"/>
<feBlend mode="normal" in="SourceGraphic" in2="effect1_backgroundBlur_1881_1287" result="shape"/>
</filter>
<filter id="filter1_d_1881_1287" x="9.9707" y="9.88574" width="46" height="46" filterUnits="userSpaceOnUse" color-interpolation-filters="sRGB">
<feFlood flood-opacity="0" result="BackgroundImageFix"/>
<feColorMatrix in="SourceAlpha" type="matrix" values="0 0 0 0 0 0 0 0 0 0 0 0 0 0 0 0 0 0 127 0" result="hardAlpha"/>
<feMorphology radius="1" operator="dilate" in="SourceAlpha" result="effect1_dropShadow_1881_1287"/>
<feOffset/>
<feComposite in2="hardAlpha" operator="out"/>
<feColorMatrix type="matrix" values="0 0 0 0 0.176471 0 0 0 0 0.180392 0 0 0 0 0.282353 0 0 0 1 0"/>
<feBlend mode="normal" in2="BackgroundImageFix" result="effect1_dropShadow_1881_1287"/>
<feBlend mode="normal" in="SourceGraphic" in2="effect1_dropShadow_1881_1287" result="shape"/>
</filter>
<linearGradient id="paint0_linear_1881_1287" x1="94.4707" y1="0.88574" x2="109.201" y2="47.5851" gradientUnits="userSpaceOnUse">
<stop stop-color="#1B1C36"/>
<stop offset="1" stop-color="#70717A"/>
</linearGradient>
<linearGradient id="paint1_linear_1881_1287" x1="187.971" y1="60.9833" x2="13.8049" y2="-15.6066" gradientUnits="userSpaceOnUse">
<stop stop-color="white" stop-opacity="0.07"/>
<stop offset="1" stop-color="white" stop-opacity="0.15"/>
</linearGradient>
</defs>
</svg>
