<svg width="150" height="918" viewBox="0 0 150 918" fill="none" xmlns="http://www.w3.org/2000/svg">
<mask id="path-1-outside-1_1881_1144" maskUnits="userSpaceOnUse" x="-0.334025" y="-0.55274" width="151" height="919" fill="black">
<rect fill="white" x="-0.334025" y="-0.55274" width="151" height="919"/>
<path d="M5.47851 890.26L147.666 890.26L147.666 917.115L5.47851 917.115L5.47851 890.26ZM64.5605 837.916L147.666 837.916L147.666 863.697L42.002 863.697L42.0019 839.479L64.5605 837.916ZM91.0254 842.018L91.0254 849.635C83.3431 849.57 76.3769 848.528 70.1269 846.51C63.8769 844.492 58.5059 841.66 54.0137 838.014C49.5215 834.303 46.071 829.908 43.6621 824.83C41.2533 819.752 40.0488 814.088 40.0488 807.838C40.0488 802.76 40.765 798.17 42.1973 794.068C43.6296 789.967 45.9082 786.451 49.0332 783.521C52.1582 780.527 56.2598 778.248 61.3379 776.686C66.3509 775.058 72.5358 774.244 79.8926 774.244L147.666 774.244L147.666 800.221L79.6973 800.221C74.8796 800.221 71.071 800.937 68.2715 802.369C65.472 803.736 63.4863 805.755 62.3144 808.424C61.1426 811.028 60.5566 814.251 60.5566 818.092C60.5566 822.063 61.3704 825.546 62.998 828.541C64.5605 831.471 66.7415 833.945 69.541 835.963C72.3405 837.916 75.5631 839.413 79.209 840.455C82.8548 841.497 86.7936 842.018 91.0254 842.018ZM64.5605 726.197L147.666 726.197L147.666 751.979L42.0019 751.979L42.0019 727.76L64.5605 726.197ZM91.0254 730.299L91.0254 737.916C83.3431 737.851 76.3769 736.809 70.1269 734.791C63.8769 732.773 58.5059 729.941 54.0137 726.295C49.5215 722.584 46.071 718.189 43.6621 713.111C41.2532 708.033 40.0488 702.369 40.0488 696.119C40.0488 691.041 40.765 686.451 42.1973 682.35C43.6295 678.248 45.9082 674.732 49.0332 671.803C52.1582 668.808 56.2598 666.529 61.3379 664.967C66.3509 663.339 72.5358 662.525 79.8926 662.525L147.666 662.525L147.666 688.502L79.6973 688.502C74.8795 688.502 71.071 689.218 68.2715 690.65C65.472 692.018 63.4863 694.036 62.3144 696.705C61.1426 699.309 60.5566 702.532 60.5566 706.373C60.5566 710.344 61.3704 713.827 62.998 716.822C64.5605 719.752 66.7415 722.226 69.541 724.244C72.3405 726.197 75.5631 727.695 79.209 728.736C82.8548 729.778 86.7936 730.299 91.0254 730.299ZM95.9082 644.361L93.8574 644.361C86.11 644.361 78.9811 643.255 72.4707 641.041C65.8952 638.827 60.1986 635.605 55.3808 631.373C50.5631 627.141 46.8196 621.965 44.1504 615.846C41.416 609.726 40.0488 602.76 40.0488 594.947C40.0488 587.005 41.416 579.973 44.1504 573.854C46.8196 567.669 50.5631 562.46 55.3808 558.229C60.1986 553.997 65.8952 550.774 72.4707 548.561C78.9811 546.347 86.11 545.24 93.8574 545.24L95.9082 545.24C103.59 545.24 110.719 546.347 117.295 548.561C123.805 550.774 129.502 553.997 134.385 558.229C139.202 562.46 142.946 567.636 145.615 573.756C148.284 579.876 149.619 586.874 149.619 594.752C149.619 602.564 148.284 609.563 145.615 615.748C142.946 621.933 139.202 627.141 134.385 631.373C129.502 635.605 123.805 638.827 117.295 641.041C110.719 643.255 103.59 644.361 95.9082 644.361ZM93.8574 618.58L95.9082 618.58C100.531 618.58 104.86 618.124 108.896 617.213C112.933 616.301 116.481 614.902 119.541 613.014C122.601 611.126 125.01 608.684 126.768 605.689C128.46 602.63 129.307 598.984 129.307 594.752C129.307 590.585 128.46 587.005 126.768 584.01C125.01 581.015 122.601 578.574 119.541 576.686C116.481 574.732 112.933 573.3 108.896 572.389C104.86 571.477 100.531 571.021 95.9082 571.021L93.8574 571.021C89.3001 571.021 85.0358 571.477 81.0644 572.389C77.028 573.3 73.4798 574.732 70.4199 576.686C67.2949 578.574 64.8535 581.048 63.0957 584.107C61.2728 587.102 60.3613 590.715 60.3613 594.947C60.3613 599.114 61.2728 602.695 63.0957 605.689C64.8535 608.684 67.2949 611.126 70.4199 613.014C73.4798 614.902 77.028 616.301 81.0644 617.213C85.0358 618.124 89.3001 618.58 93.8574 618.58ZM128.135 492.994L42.0019 468.385L42.0019 441.432L147.666 477.662L147.666 494.068L128.135 492.994ZM42.0019 510.963L128.33 486.061L147.666 485.182L147.666 501.686L42.0019 538.014L42.0019 510.963ZM125.205 371.217L76.4746 371.217C72.8939 371.217 69.8014 371.835 67.1972 373.072C64.5931 374.309 62.5748 376.197 61.1426 378.736C59.7103 381.275 58.9941 384.498 58.9941 388.404C58.9941 391.855 59.5801 394.882 60.7519 397.486C61.9238 400.025 63.584 401.979 65.7324 403.346C67.8157 404.713 70.2246 405.396 72.959 405.396L72.959 431.275C68.597 431.275 64.4629 430.234 60.5566 428.15C56.5853 426.067 53.0696 423.105 50.0097 419.264C46.8847 415.357 44.4433 410.702 42.6855 405.299C40.9277 399.83 40.0488 393.71 40.0488 386.939C40.0488 378.932 41.416 371.803 44.1504 365.553C46.8196 359.238 50.8561 354.29 56.2597 350.709C61.6634 347.063 68.4668 345.24 76.6699 345.24L122.764 345.24C128.037 345.24 132.562 344.915 136.338 344.264C140.049 343.548 143.271 342.506 146.006 341.139L147.666 341.139L147.666 367.408C144.997 368.645 141.611 369.589 137.51 370.24C133.343 370.891 129.242 371.217 125.205 371.217ZM83.3105 367.604L98.6426 367.408L98.6426 383.717C98.6426 387.753 99.0657 391.301 99.9121 394.361C100.693 397.421 101.865 399.928 103.428 401.881C104.925 403.834 106.748 405.299 108.896 406.275C110.98 407.252 113.356 407.74 116.025 407.74C118.63 407.74 120.973 407.154 123.057 405.982C125.14 404.745 126.8 402.988 128.037 400.709C129.209 398.365 129.795 395.631 129.795 392.506C129.795 387.949 128.883 383.977 127.061 380.592C125.173 377.206 122.894 374.57 120.225 372.682C117.555 370.794 115.016 369.785 112.607 369.654L123.74 362.232C126.409 363.144 129.242 364.511 132.236 366.334C135.231 368.157 138.031 370.501 140.635 373.365C143.239 376.23 145.387 379.68 147.08 383.717C148.773 387.753 149.619 392.441 149.619 397.779C149.619 404.615 148.252 410.735 145.518 416.139C142.783 421.542 139.04 425.807 134.287 428.932C129.534 432.057 124.131 433.619 118.076 433.619C112.477 433.619 107.529 432.577 103.232 430.494C98.9355 428.411 95.3222 425.318 92.3926 421.217C89.3978 417.115 87.1517 412.037 85.6543 405.982C84.0918 399.863 83.3105 392.864 83.3105 384.986L83.3105 367.604ZM42.0019 271.998L60.5566 271.998L60.5566 332.545L42.0019 332.545L42.0019 271.998ZM16.0254 316.334L16.0254 290.455L117.197 290.455C120.322 290.455 122.731 290.032 124.424 289.186C126.117 288.339 127.256 287.07 127.842 285.377C128.428 283.684 128.721 281.666 128.721 279.322C128.721 277.63 128.623 276.067 128.428 274.635C128.232 273.202 128.037 271.998 127.842 271.021L147.178 270.924C147.894 273.072 148.48 275.514 148.936 278.248C149.391 280.917 149.619 283.945 149.619 287.33C149.619 293.124 148.643 298.202 146.689 302.564C144.671 306.926 141.449 310.312 137.021 312.721C132.529 315.13 126.605 316.334 119.248 316.334L16.0254 316.334ZM42.0019 227.467L147.666 227.467L147.666 253.346L42.0019 253.346L42.0019 227.467ZM14.3652 255.104C10.5241 255.104 7.33395 253.801 4.79489 251.197C2.25583 248.528 0.986298 244.947 0.986298 240.455C0.986298 235.963 2.25583 232.415 4.79489 229.811C7.33395 227.141 10.5241 225.807 14.3652 225.807C18.1412 225.807 21.2988 227.141 23.8379 229.811C26.3769 232.415 27.6465 235.963 27.6465 240.455C27.6465 244.947 26.3769 248.528 23.8379 251.197C21.2988 253.801 18.1412 255.104 14.3652 255.104ZM95.9082 207.447L93.8574 207.447C86.11 207.447 78.9811 206.34 72.4707 204.127C65.8952 201.913 60.1985 198.691 55.3808 194.459C50.5631 190.227 46.8196 185.051 44.1504 178.932C41.416 172.812 40.0488 165.846 40.0488 158.033C40.0488 150.09 41.416 143.059 44.1504 136.939C46.8196 130.755 50.5631 125.546 55.3808 121.314C60.1985 117.083 65.8951 113.86 72.4707 111.646C78.9811 109.433 86.11 108.326 93.8574 108.326L95.9082 108.326C103.59 108.326 110.719 109.433 117.295 111.646C123.805 113.86 129.502 117.083 134.385 121.314C139.202 125.546 142.946 130.722 145.615 136.842C148.284 142.962 149.619 149.96 149.619 157.838C149.619 165.65 148.284 172.649 145.615 178.834C142.946 185.019 139.202 190.227 134.385 194.459C129.502 198.691 123.805 201.913 117.295 204.127C110.719 206.34 103.59 207.447 95.9082 207.447ZM93.8574 181.666L95.9082 181.666C100.531 181.666 104.86 181.21 108.896 180.299C112.933 179.387 116.481 177.988 119.541 176.1C122.601 174.212 125.01 171.77 126.768 168.775C128.46 165.715 129.307 162.07 129.307 157.838C129.307 153.671 128.46 150.09 126.768 147.096C125.01 144.101 122.601 141.66 119.541 139.771C116.481 137.818 112.933 136.386 108.896 135.475C104.86 134.563 100.531 134.107 95.9082 134.107L93.8574 134.107C89.3001 134.107 85.0358 134.563 81.0644 135.475C77.028 136.386 73.4798 137.818 70.4199 139.771C67.2949 141.66 64.8535 144.133 63.0957 147.193C61.2728 150.188 60.3613 153.801 60.3613 158.033C60.3613 162.2 61.2728 165.781 63.0957 168.775C64.8535 171.77 67.2949 174.212 70.4199 176.1C73.4798 177.988 77.028 179.387 81.0644 180.299C85.0358 181.21 89.3001 181.666 93.8574 181.666ZM64.5605 64.2832L147.666 64.2832L147.666 90.0644L42.0019 90.0645L42.0019 65.8457L64.5605 64.2832ZM91.0254 68.3848L91.0254 76.0019C83.3431 75.9368 76.3769 74.8952 70.1269 72.877C63.8769 70.8587 58.5058 68.0267 54.0136 64.3809C49.5214 60.6699 46.0709 56.2754 43.6621 51.1973C41.2532 46.1191 40.0488 40.4551 40.0488 34.2051C40.0488 29.127 40.7649 24.5371 42.1972 20.4355C43.6295 16.334 45.9082 12.8184 49.0332 9.88867C52.1582 6.89388 56.2597 4.61523 61.3378 3.05273C66.3509 1.42513 72.5358 0.611326 79.8925 0.611325L147.666 0.611322L147.666 26.5879L79.6972 26.5879C74.8795 26.5879 71.0709 27.304 68.2714 28.7363C65.472 30.1035 63.4863 32.1217 62.3144 34.791C61.1425 37.3952 60.5566 40.6178 60.5566 44.459C60.5566 48.4303 61.3704 51.9134 62.998 54.9082C64.5605 57.8379 66.7415 60.3118 69.541 62.3301C72.3405 64.2832 75.5631 65.7806 79.2089 66.8223C82.8548 67.8639 86.7936 68.3848 91.0254 68.3848Z"/>
</mask>
<path d="M5.47851 890.26L5.47851 889.26L4.47851 889.26L4.47851 890.26L5.47851 890.26ZM147.666 890.26L148.666 890.26L148.666 889.26L147.666 889.26L147.666 890.26ZM147.666 917.115L147.666 918.115L148.666 918.115L148.666 917.115L147.666 917.115ZM5.47851 917.115L4.47851 917.115L4.47851 918.115L5.47851 918.115L5.47851 917.115ZM5.47851 891.26L147.666 891.26L147.666 889.26L5.47851 889.26L5.47851 891.26ZM146.666 890.26L146.666 917.115L148.666 917.115L148.666 890.26L146.666 890.26ZM147.666 916.115L5.47851 916.115L5.47851 918.115L147.666 918.115L147.666 916.115ZM6.47851 917.115L6.47851 890.26L4.47851 890.26L4.47851 917.115L6.47851 917.115ZM64.5605 837.916L64.5605 836.916L64.526 836.916L64.4914 836.918L64.5605 837.916ZM147.666 837.916L148.666 837.916L148.666 836.916L147.666 836.916L147.666 837.916ZM147.666 863.697L147.666 864.697L148.666 864.697L148.666 863.697L147.666 863.697ZM42.002 863.697L41.002 863.697L41.002 864.697L42.002 864.697L42.002 863.697ZM42.0019 839.479L41.9328 838.481L41.0019 838.545L41.0019 839.479L42.0019 839.479ZM91.0254 842.018L92.0254 842.018L92.0254 841.018L91.0254 841.018L91.0254 842.018ZM91.0254 849.635L91.0169 850.635L92.0254 850.643L92.0254 849.635L91.0254 849.635ZM54.0137 838.014L53.3768 838.785L53.3835 838.79L54.0137 838.014ZM49.0332 783.521L49.7172 784.251L49.7251 784.243L49.0332 783.521ZM61.3379 776.686L61.632 777.641L61.6393 777.639L61.6467 777.637L61.3379 776.686ZM147.666 774.244L148.666 774.244L148.666 773.244L147.666 773.244L147.666 774.244ZM147.666 800.221L147.666 801.221L148.666 801.221L148.666 800.221L147.666 800.221ZM68.2715 802.369L68.7103 803.268L68.7187 803.264L68.727 803.259L68.2715 802.369ZM62.3144 808.424L63.2264 808.834L63.2301 808.826L62.3144 808.424ZM62.998 828.541L63.8804 828.07L63.8767 828.063L62.998 828.541ZM69.541 835.963L68.9562 836.774L68.9625 836.779L68.9688 836.783L69.541 835.963ZM64.5605 838.916L147.666 838.916L147.666 836.916L64.5605 836.916L64.5605 838.916ZM146.666 837.916L146.666 863.697L148.666 863.697L148.666 837.916L146.666 837.916ZM147.666 862.697L42.002 862.697L42.002 864.697L147.666 864.697L147.666 862.697ZM43.002 863.697L43.0019 839.479L41.0019 839.479L41.002 863.697L43.002 863.697ZM42.071 840.476L64.6296 838.914L64.4914 836.918L41.9328 838.481L42.071 840.476ZM90.0254 842.018L90.0254 849.635L92.0254 849.635L92.0254 842.018L90.0254 842.018ZM91.0339 848.635C83.4363 848.57 76.5729 847.54 70.4342 845.558L69.8197 847.461C76.181 849.516 83.2499 850.569 91.0169 850.635L91.0339 848.635ZM70.4342 845.558C64.286 843.573 59.0281 840.795 54.6438 837.237L53.3835 838.79C57.9836 842.524 63.4679 845.41 69.8197 847.461L70.4342 845.558ZM54.6506 837.243C50.267 833.621 46.9094 829.342 44.5656 824.401L42.7586 825.259C45.2325 830.474 48.776 834.984 53.3768 838.785L54.6506 837.243ZM44.5656 824.401C42.2271 819.472 41.0488 813.956 41.0488 807.838L39.0488 807.838C39.0488 814.219 40.2794 820.032 42.7586 825.259L44.5656 824.401ZM41.0488 807.838C41.0488 802.853 41.7517 798.377 43.1414 794.398L41.2532 793.739C39.7782 797.962 39.0488 802.666 39.0488 807.838L41.0488 807.838ZM43.1414 794.398C44.5212 790.447 46.7116 787.069 49.7171 784.251L48.3493 782.792C45.1048 785.834 42.7379 789.487 41.2532 793.739L43.1414 794.398ZM49.7251 784.243C52.7148 781.378 56.6695 779.168 61.632 777.641L61.0438 775.73C55.85 777.328 51.6016 779.675 48.3413 782.799L49.7251 784.243ZM61.6467 777.637C66.5292 776.051 72.6025 775.244 79.8926 775.244L79.8926 773.244C72.4691 773.244 66.1726 774.064 61.0291 775.734L61.6467 777.637ZM79.8926 775.244L147.666 775.244L147.666 773.244L79.8926 773.244L79.8926 775.244ZM146.666 774.244L146.666 800.221L148.666 800.221L148.666 774.244L146.666 774.244ZM147.666 799.221L79.6973 799.221L79.6973 801.221L147.666 801.221L147.666 799.221ZM79.6973 799.221C74.7978 799.221 70.8117 799.946 67.816 801.479L68.727 803.259C71.3302 801.928 74.9613 801.221 79.6973 801.221L79.6973 799.221ZM67.8326 801.471C64.8363 802.934 62.6727 805.12 61.3988 808.022L63.2301 808.826C64.3 806.389 66.1077 804.539 68.7103 803.268L67.8326 801.471ZM61.4025 808.013C60.1562 810.783 59.5566 814.155 59.5566 818.092L61.5566 818.092C61.5566 814.346 62.1289 811.273 63.2264 808.834L61.4025 808.013ZM59.5566 818.092C59.5566 822.202 60.3999 825.855 62.1194 829.019L63.8767 828.063C62.341 825.238 61.5566 821.924 61.5566 818.092L59.5566 818.092ZM62.1157 829.012C63.7529 832.081 66.0379 834.67 68.9562 836.774L70.1258 835.152C67.4452 833.219 65.3682 830.86 63.8804 828.07L62.1157 829.012ZM68.9688 836.783C71.8684 838.806 75.1938 840.348 78.9343 841.417L79.4837 839.494C75.9325 838.479 72.8126 837.026 70.1132 835.143L68.9688 836.783ZM78.9343 841.417C82.6791 842.487 86.7113 843.018 91.0254 843.018L91.0254 841.018C86.8759 841.018 83.0305 840.507 79.4837 839.494L78.9343 841.417ZM64.5605 726.197L64.5605 725.197L64.5259 725.197L64.4914 725.2L64.5605 726.197ZM147.666 726.197L148.666 726.197L148.666 725.197L147.666 725.197L147.666 726.197ZM147.666 751.979L147.666 752.979L148.666 752.979L148.666 751.979L147.666 751.979ZM42.0019 751.979L41.0019 751.979L41.0019 752.979L42.0019 752.979L42.0019 751.979ZM42.0019 727.76L41.9328 726.762L41.0019 726.827L41.0019 727.76L42.0019 727.76ZM91.0254 730.299L92.0254 730.299L92.0254 729.299L91.0254 729.299L91.0254 730.299ZM91.0254 737.916L91.0169 738.916L92.0254 738.925L92.0254 737.916L91.0254 737.916ZM54.0137 726.295L53.3768 727.066L53.3835 727.071L54.0137 726.295ZM49.0332 671.803L49.7172 672.532L49.7251 672.525L49.0332 671.803ZM61.3379 664.967L61.632 665.923L61.6393 665.92L61.6467 665.918L61.3379 664.967ZM147.666 662.525L148.666 662.525L148.666 661.525L147.666 661.525L147.666 662.525ZM147.666 688.502L147.666 689.502L148.666 689.502L148.666 688.502L147.666 688.502ZM68.2715 690.65L68.7103 691.549L68.7187 691.545L68.7269 691.541L68.2715 690.65ZM62.3144 696.705L63.2264 697.115L63.2301 697.107L62.3144 696.705ZM62.998 716.822L63.8804 716.352L63.8767 716.345L62.998 716.822ZM69.541 724.244L68.9562 725.055L68.9625 725.06L68.9688 725.064L69.541 724.244ZM64.5605 727.197L147.666 727.197L147.666 725.197L64.5605 725.197L64.5605 727.197ZM146.666 726.197L146.666 751.979L148.666 751.979L148.666 726.197L146.666 726.197ZM147.666 750.979L42.0019 750.979L42.0019 752.979L147.666 752.979L147.666 750.979ZM43.0019 751.979L43.0019 727.76L41.0019 727.76L41.0019 751.979L43.0019 751.979ZM42.071 728.757L64.6296 727.195L64.4914 725.2L41.9328 726.762L42.071 728.757ZM90.0254 730.299L90.0254 737.916L92.0254 737.916L92.0254 730.299L90.0254 730.299ZM91.0339 736.916C83.4363 736.852 76.5729 735.822 70.4342 733.839L69.8197 735.743C76.181 737.797 83.2499 738.85 91.0169 738.916L91.0339 736.916ZM70.4342 733.839C64.286 731.854 59.0281 729.077 54.6438 725.518L53.3835 727.071C57.9836 730.805 63.4679 733.692 69.8197 735.743L70.4342 733.839ZM54.6505 725.524C50.267 721.903 46.9094 717.624 44.5656 712.683L42.7586 713.54C45.2325 718.755 48.776 723.265 53.3768 727.066L54.6505 725.524ZM44.5656 712.683C42.2271 707.753 41.0488 702.238 41.0488 696.119L39.0488 696.119C39.0488 702.501 40.2794 708.313 42.7586 713.54L44.5656 712.683ZM41.0488 696.119C41.0488 691.135 41.7517 686.659 43.1413 682.679L41.2532 682.02C39.7782 686.244 39.0488 690.947 39.0488 696.119L41.0488 696.119ZM43.1413 682.679C44.5212 678.728 46.7116 675.35 49.7171 672.532L48.3493 671.073C45.1048 674.115 42.7379 677.768 41.2532 682.02L43.1413 682.679ZM49.7251 672.525C52.7148 669.66 56.6695 667.449 61.632 665.923L61.0438 664.011C55.85 665.609 51.6016 667.956 48.3413 671.081L49.7251 672.525ZM61.6467 665.918C66.5292 664.333 72.6025 663.525 79.8926 663.525L79.8926 661.525C72.4691 661.525 66.1726 662.346 61.0291 664.016L61.6467 665.918ZM79.8926 663.525L147.666 663.525L147.666 661.525L79.8926 661.525L79.8926 663.525ZM146.666 662.525L146.666 688.502L148.666 688.502L148.666 662.525L146.666 662.525ZM147.666 687.502L79.6973 687.502L79.6973 689.502L147.666 689.502L147.666 687.502ZM79.6973 687.502C74.7978 687.502 70.8117 688.227 67.816 689.76L68.7269 691.541C71.3302 690.209 74.9613 689.502 79.6973 689.502L79.6973 687.502ZM67.8326 689.752C64.8363 691.215 62.6727 693.402 61.3988 696.303L63.2301 697.107C64.3 694.67 66.1077 692.82 68.7103 691.549L67.8326 689.752ZM61.4025 696.295C60.1562 699.064 59.5566 702.437 59.5566 706.373L61.5566 706.373C61.5566 702.627 62.1289 699.554 63.2264 697.115L61.4025 696.295ZM59.5566 706.373C59.5566 710.484 60.3999 714.136 62.1194 717.3L63.8767 716.345C62.341 713.519 61.5566 710.205 61.5566 706.373L59.5566 706.373ZM62.1157 717.293C63.7529 720.363 66.0379 722.951 68.9562 725.055L70.1258 723.433C67.4452 721.5 65.3682 719.141 63.8804 716.352L62.1157 717.293ZM68.9688 725.064C71.8684 727.087 75.1938 728.629 78.9343 729.698L79.4837 727.775C75.9325 726.76 72.8125 725.307 70.1132 723.424L68.9688 725.064ZM78.9343 729.698C82.6791 730.768 86.7113 731.299 91.0254 731.299L91.0254 729.299C86.8759 729.299 83.0305 728.788 79.4837 727.775L78.9343 729.698ZM72.4707 641.041L72.7926 640.094L72.7897 640.093L72.4707 641.041ZM55.3808 631.373L54.7209 632.124L55.3808 631.373ZM44.1504 615.846L45.067 615.446L45.0634 615.438L44.1504 615.846ZM44.1504 573.854L45.0635 574.261L45.0685 574.25L44.1504 573.854ZM72.4707 548.561L72.7897 549.508L72.7926 549.507L72.4707 548.561ZM117.295 548.561L117.617 547.614L117.614 547.613L117.295 548.561ZM134.385 558.229L135.045 557.477L135.04 557.473L134.385 558.229ZM134.385 631.373L135.04 632.129L135.045 632.124L134.385 631.373ZM117.295 641.041L117.614 641.989L117.617 641.988L117.295 641.041ZM126.768 605.689L127.63 606.196L127.636 606.185L127.643 606.174L126.768 605.689ZM126.768 584.01L127.638 583.518L127.634 583.511L127.63 583.504L126.768 584.01ZM119.541 576.686L119.003 577.528L119.009 577.533L119.016 577.537L119.541 576.686ZM81.0644 572.389L81.2847 573.364L81.2881 573.363L81.0644 572.389ZM70.4199 576.686L70.937 577.541L70.9476 577.535L70.9579 577.528L70.4199 576.686ZM63.0957 584.107L63.9499 584.627L63.9565 584.617L63.9628 584.606L63.0957 584.107ZM63.0957 605.689L63.9581 605.183L63.9541 605.176L63.9499 605.169L63.0957 605.689ZM70.4199 613.014L70.945 612.163L70.937 612.158L70.4199 613.014ZM81.0644 617.213L81.2881 616.238L81.2847 616.237L81.0644 617.213ZM95.9082 643.361L93.8574 643.361L93.8574 645.361L95.9082 645.361L95.9082 643.361ZM93.8574 643.361C86.2058 643.361 79.1871 642.268 72.7926 640.094L72.1488 641.988C78.7751 644.241 86.0142 645.361 93.8574 645.361L93.8574 643.361ZM72.7897 640.093C66.3293 637.918 60.7511 634.759 56.0408 630.622L54.7209 632.124C59.646 636.45 65.461 639.736 72.1516 641.989L72.7897 640.093ZM56.0408 630.622C51.338 626.491 47.68 621.437 45.067 615.446L43.2338 616.245C45.9593 622.494 49.7883 627.792 54.7209 632.124L56.0408 630.622ZM45.0634 615.438C42.3951 609.466 41.0488 602.642 41.0488 594.947L39.0488 594.947C39.0488 602.877 40.4369 609.986 43.2374 616.254L45.0634 615.438ZM41.0488 594.947C41.0488 587.12 42.396 580.231 45.0634 574.261L43.2374 573.446C40.436 579.715 39.0488 586.89 39.0488 594.947L41.0488 594.947ZM45.0685 574.25C47.6821 568.194 51.34 563.109 56.0408 558.98L54.7209 557.477C49.7863 561.812 45.9572 567.143 43.2322 573.457L45.0685 574.25ZM56.0408 558.98C60.7511 554.842 66.3293 551.683 72.7897 549.508L72.1516 547.613C65.461 549.865 59.646 553.151 54.7209 557.477L56.0408 558.98ZM72.7926 549.507C79.1871 547.333 86.2058 546.24 93.8574 546.24L93.8574 544.24C86.0142 544.24 78.7751 545.361 72.1488 547.614L72.7926 549.507ZM93.8574 546.24L95.9082 546.24L95.9082 544.24L93.8574 544.24L93.8574 546.24ZM95.9082 546.24C103.494 546.24 110.514 547.333 116.976 549.508L117.614 547.613C110.925 545.361 103.687 544.24 95.9082 544.24L95.9082 546.24ZM116.973 549.507C123.369 551.682 128.951 554.842 133.73 558.984L135.04 557.473C130.053 553.151 124.242 549.866 117.617 547.614L116.973 549.507ZM133.725 558.98C138.428 563.111 142.086 568.165 144.699 574.156L146.532 573.356C143.806 567.107 139.977 561.81 135.045 557.477L133.725 558.98ZM144.699 574.156C147.304 580.129 148.619 586.988 148.619 594.752L150.619 594.752C150.619 586.761 149.265 579.623 146.532 573.356L144.699 574.156ZM148.619 594.752C148.619 602.45 147.304 609.31 144.697 615.352L146.533 616.144C149.265 609.816 150.619 602.679 150.619 594.752L148.619 594.752ZM144.697 615.352C142.083 621.408 138.426 626.493 133.725 630.622L135.045 632.124C139.979 627.79 143.808 622.458 146.533 616.144L144.697 615.352ZM133.73 630.617C128.951 634.759 123.369 637.92 116.973 640.094L117.617 641.988C124.242 639.735 130.053 636.45 135.04 632.129L133.73 630.617ZM116.976 640.093C110.514 642.269 103.494 643.361 95.9082 643.361L95.9082 645.361C103.687 645.361 110.925 644.24 117.614 641.989L116.976 640.093ZM93.8574 619.58L95.9082 619.58L95.9082 617.58L93.8574 617.58L93.8574 619.58ZM95.9082 619.58C100.596 619.58 105 619.118 109.117 618.188L108.676 616.237C104.72 617.131 100.465 617.58 95.9082 617.58L95.9082 619.58ZM109.117 618.188C113.245 617.256 116.899 615.819 120.066 613.865L119.016 612.163C116.063 613.985 112.621 615.347 108.676 616.237L109.117 618.188ZM120.066 613.865C123.26 611.894 125.787 609.336 127.63 606.196L125.905 605.183C124.233 608.032 121.942 610.357 119.016 612.163L120.066 613.865ZM127.643 606.174C129.433 602.937 130.307 599.118 130.307 594.752L128.307 594.752C128.307 598.85 127.488 602.322 125.893 605.205L127.643 606.174ZM130.307 594.752C130.307 590.449 129.432 586.691 127.638 583.518L125.897 584.502C127.489 587.318 128.307 590.721 128.307 594.752L130.307 594.752ZM127.63 583.504C125.787 580.363 123.26 577.805 120.066 575.834L119.016 577.537C121.942 579.342 124.233 581.667 125.905 584.516L127.63 583.504ZM120.079 575.843C116.909 573.819 113.25 572.347 109.117 571.413L108.676 573.364C112.615 574.254 116.053 575.646 119.003 577.528L120.079 575.843ZM109.117 571.413C105 570.484 100.596 570.021 95.9082 570.021L95.9082 572.021C100.465 572.021 104.72 572.471 108.676 573.364L109.117 571.413ZM95.9082 570.021L93.8574 570.021L93.8574 572.021L95.9082 572.021L95.9082 570.021ZM93.8574 570.021C89.2336 570.021 84.8935 570.484 80.8407 571.414L81.2881 573.363C85.1781 572.471 89.3667 572.021 93.8574 572.021L93.8574 570.021ZM80.8442 571.413C76.7105 572.347 73.0518 573.819 69.8819 575.843L70.9579 577.528C73.9078 575.646 77.3455 574.254 81.2847 573.364L80.8442 571.413ZM69.9028 575.83C66.6379 577.802 64.0738 580.397 62.2286 583.609L63.9628 584.606C65.6332 581.698 67.9519 579.345 70.937 577.541L69.9028 575.83ZM62.2415 583.587C60.3052 586.769 59.3613 590.57 59.3613 594.947L61.3613 594.947C61.3613 590.861 62.2404 587.436 63.9499 584.627L62.2415 583.587ZM59.3613 594.947C59.3613 599.262 60.3066 603.031 62.2415 606.209L63.9499 605.169C62.239 602.359 61.3613 598.965 61.3613 594.947L59.3613 594.947ZM62.2333 606.196C64.0797 609.341 66.643 611.9 69.9028 613.87L70.937 612.158C67.9469 610.351 65.6273 608.027 63.9581 605.183L62.2333 606.196ZM69.8948 613.865C73.0617 615.819 76.7159 617.256 80.8442 618.188L81.2847 616.237C77.3401 615.347 73.8979 613.985 70.945 612.163L69.8948 613.865ZM80.8407 618.188C84.8935 619.118 89.2336 619.58 93.8574 619.58L93.8574 617.58C89.3667 617.58 85.1781 617.131 81.2881 616.238L80.8407 618.188ZM128.135 492.994L127.86 493.956L127.968 493.986L128.08 493.993L128.135 492.994ZM42.0019 468.385L41.0019 468.385L41.0019 469.139L41.7272 469.346L42.0019 468.385ZM42.0019 441.432L42.3263 440.486L41.0019 440.032L41.0019 441.432L42.0019 441.432ZM147.666 477.662L148.666 477.662L148.666 476.948L147.99 476.716L147.666 477.662ZM147.666 494.068L147.611 495.067L148.666 495.125L148.666 494.068L147.666 494.068ZM42.0019 510.963L41.7248 510.002L41.0019 510.211L41.0019 510.963L42.0019 510.963ZM128.33 486.061L128.285 485.062L128.167 485.067L128.053 485.1L128.33 486.061ZM147.666 485.182L148.666 485.182L148.666 484.135L147.621 484.183L147.666 485.182ZM147.666 501.686L147.991 502.631L148.666 502.399L148.666 501.686L147.666 501.686ZM42.0019 538.014L41.0019 538.014L41.0019 539.415L42.3271 538.959L42.0019 538.014ZM128.409 492.033L42.2767 467.423L41.7272 469.346L127.86 493.956L128.409 492.033ZM43.0019 468.385L43.0019 441.432L41.0019 441.432L41.0019 468.385L43.0019 468.385ZM41.6776 442.378L147.342 478.608L147.99 476.716L42.3263 440.486L41.6776 442.378ZM146.666 477.662L146.666 494.068L148.666 494.068L148.666 477.662L146.666 477.662ZM147.721 493.07L128.19 491.996L128.08 493.993L147.611 495.067L147.721 493.07ZM42.2791 511.924L128.607 487.021L128.053 485.1L41.7248 510.002L42.2791 511.924ZM128.375 487.06L147.711 486.181L147.621 484.183L128.285 485.062L128.375 487.06ZM146.666 485.182L146.666 501.686L148.666 501.686L148.666 485.182L146.666 485.182ZM147.341 500.74L41.6768 537.068L42.3271 538.959L147.991 502.631L147.341 500.74ZM43.0019 538.014L43.0019 510.963L41.0019 510.963L41.0019 538.014L43.0019 538.014ZM60.7519 397.486L59.84 397.897L59.844 397.905L60.7519 397.486ZM65.7324 403.346L66.2811 402.51L66.2693 402.502L65.7324 403.346ZM72.959 405.396L73.959 405.396L73.959 404.396L72.959 404.396L72.959 405.396ZM72.959 431.275L72.959 432.275L73.959 432.275L73.959 431.275L72.959 431.275ZM60.5566 428.15L61.0272 427.268L61.0212 427.265L60.5566 428.15ZM50.0097 419.264L50.7919 418.641L50.7906 418.639L50.0097 419.264ZM42.6855 405.299L41.7335 405.605L41.7346 405.608L42.6855 405.299ZM44.1504 365.553L45.0666 365.954L45.0715 365.942L44.1504 365.553ZM56.2597 350.709L56.8121 351.543L56.819 351.538L56.2597 350.709ZM136.338 344.264L136.508 345.249L136.518 345.247L136.527 345.246L136.338 344.264ZM146.006 341.139L146.006 340.139L145.77 340.139L145.559 340.244L146.006 341.139ZM147.666 341.139L148.666 341.139L148.666 340.139L147.666 340.139L147.666 341.139ZM147.666 367.408L148.086 368.315L148.666 368.047L148.666 367.408L147.666 367.408ZM137.51 370.24L137.664 371.228L137.667 371.228L137.51 370.24ZM83.3105 367.604L83.2978 366.604L82.3105 366.616L82.3105 367.604L83.3105 367.604ZM98.6426 367.408L99.6426 367.408L99.6426 366.395L98.6298 366.408L98.6426 367.408ZM99.9121 394.361L100.881 394.114L100.879 394.104L100.876 394.095L99.9121 394.361ZM103.428 401.881L104.221 401.272L104.215 401.264L104.209 401.256L103.428 401.881ZM108.896 406.275L109.321 405.37L109.31 405.365L108.896 406.275ZM123.057 405.982L123.547 406.854L123.557 406.848L123.567 406.842L123.057 405.982ZM128.037 400.709L128.916 401.186L128.924 401.171L128.932 401.156L128.037 400.709ZM127.061 380.592L127.941 380.118L127.937 380.111L127.934 380.105L127.061 380.592ZM120.225 372.682L119.647 373.498L120.225 372.682ZM112.607 369.654L112.053 368.822L109.55 370.49L112.553 370.653L112.607 369.654ZM123.74 362.232L124.063 361.286L123.596 361.127L123.186 361.4L123.74 362.232ZM132.236 366.334L131.716 367.188L132.236 366.334ZM103.232 430.494L102.796 431.394L103.232 430.494ZM92.3926 421.217L93.2063 420.636L93.2002 420.627L92.3926 421.217ZM85.6543 405.982L86.6251 405.742L86.6232 405.735L85.6543 405.982ZM125.205 370.217L76.4746 370.217L76.4746 372.217L125.205 372.217L125.205 370.217ZM76.4746 370.217C72.7805 370.217 69.5348 370.855 66.7682 372.169L67.6263 373.976C70.068 372.816 73.0072 372.217 76.4746 372.217L76.4746 370.217ZM66.7682 372.169C63.9755 373.495 61.804 375.529 60.2716 378.245L62.0135 379.228C63.3457 376.866 65.2106 375.123 67.6263 373.976L66.7682 372.169ZM60.2716 378.245C58.7308 380.976 57.9941 384.382 57.9941 388.404L59.9941 388.404C59.9941 384.614 60.6898 381.574 62.0135 379.228L60.2716 378.245ZM57.9941 388.404C57.9941 391.967 58.5993 395.14 59.84 397.897L61.6639 397.076C60.5608 394.625 59.9941 391.742 59.9941 388.404L57.9941 388.404ZM59.844 397.905C61.0881 400.601 62.8695 402.709 65.1955 404.189L66.2693 402.502C64.2984 401.248 62.7596 399.45 61.6599 397.067L59.844 397.905ZM65.1837 404.182C67.4458 405.666 70.0494 406.396 72.959 406.396L72.959 404.396C70.3998 404.396 68.1856 403.76 66.2811 402.51L65.1837 404.182ZM71.959 405.396L71.959 431.275L73.959 431.275L73.959 405.396L71.959 405.396ZM72.959 430.275C68.7637 430.275 64.7909 429.275 61.0272 427.268L60.086 429.033C64.1349 431.192 68.4303 432.275 72.959 432.275L72.959 430.275ZM61.0212 427.265C57.184 425.252 53.7736 422.384 50.7919 418.641L49.2276 419.887C52.3657 423.826 55.9865 426.882 60.0921 429.036L61.0212 427.265ZM50.7906 418.639C47.7503 414.839 45.3621 410.294 43.6365 404.99L41.7346 405.608C43.5246 411.111 46.0192 415.876 49.2289 419.888L50.7906 418.639ZM43.6376 404.993C41.9166 399.639 41.0488 393.624 41.0488 386.939L39.0488 386.939C39.0488 393.796 39.9388 400.021 41.7335 405.605L43.6376 404.993ZM41.0488 386.939C41.0488 379.046 42.3962 372.057 45.0665 365.954L43.2342 365.152C40.4358 371.548 39.0488 378.817 39.0488 386.939L41.0488 386.939ZM45.0715 365.942C47.6688 359.797 51.5821 355.008 56.8121 351.543L55.7074 349.875C50.1301 353.571 45.9704 358.678 43.2293 365.163L45.0715 365.942ZM56.819 351.538C62.0194 348.029 68.6145 346.24 76.6699 346.24L76.6699 344.24C68.319 344.24 61.3074 346.097 55.7004 349.88L56.819 351.538ZM76.6699 346.24L122.764 346.24L122.764 344.24L76.6699 344.24L76.6699 346.24ZM122.764 346.24C128.074 346.24 132.659 345.913 136.508 345.249L136.168 343.278C132.464 343.917 128 344.24 122.764 344.24L122.764 346.24ZM136.527 345.246C140.308 344.516 143.621 343.449 146.453 342.033L145.559 340.244C142.922 341.562 139.79 342.579 136.148 343.282L136.527 345.246ZM146.006 342.139L147.666 342.139L147.666 340.139L146.006 340.139L146.006 342.139ZM146.666 341.139L146.666 367.408L148.666 367.408L148.666 341.139L146.666 341.139ZM147.246 366.501C144.687 367.687 141.398 368.611 137.353 369.253L137.667 371.228C141.825 370.568 145.307 369.604 148.086 368.315L147.246 366.501ZM137.355 369.252C133.237 369.896 129.188 370.217 125.205 370.217L125.205 372.217C129.295 372.217 133.449 371.887 137.664 371.228L137.355 369.252ZM83.3233 368.603L98.6553 368.408L98.6298 366.408L83.2978 366.604L83.3233 368.603ZM97.6426 367.408L97.6426 383.717L99.6426 383.717L99.6426 367.408L97.6426 367.408ZM97.6426 383.717C97.6426 387.82 98.0724 391.461 98.9483 394.628L100.876 394.095C100.059 391.141 99.6426 387.686 99.6426 383.717L97.6426 383.717ZM98.9432 394.609C99.7506 397.771 100.975 400.416 102.647 402.506L104.209 401.256C102.755 399.439 101.636 397.071 100.881 394.114L98.9432 394.609ZM102.634 402.489C104.227 404.567 106.178 406.138 108.483 407.186L109.31 405.365C107.318 404.459 105.623 403.101 104.221 401.272L102.634 402.489ZM108.472 407.181C110.708 408.229 113.233 408.74 116.025 408.74L116.025 406.74C113.479 406.74 111.252 406.275 109.321 405.37L108.472 407.181ZM116.025 408.74C118.785 408.74 121.301 408.117 123.547 406.854L122.566 405.111C120.646 406.191 118.474 406.74 116.025 406.74L116.025 408.74ZM123.567 406.842C125.816 405.507 127.599 403.612 128.916 401.186L127.158 400.232C126.001 402.364 124.463 403.984 122.546 405.123L123.567 406.842ZM128.932 401.156C130.185 398.649 130.795 395.756 130.795 392.506L128.795 392.506C128.795 395.505 128.233 398.081 127.143 400.262L128.932 401.156ZM130.795 392.506C130.795 387.814 129.856 383.674 127.941 380.118L126.18 381.066C127.911 384.281 128.795 388.083 128.795 392.506L130.795 392.506ZM127.934 380.105C125.986 376.613 123.614 373.854 120.802 371.865L119.647 373.498C122.174 375.285 124.359 377.8 126.187 381.079L127.934 380.105ZM120.802 371.865C118.032 369.906 115.314 368.799 112.661 368.656L112.553 370.653C114.718 370.77 117.079 371.681 119.647 373.498L120.802 371.865ZM113.162 370.486L124.295 363.064L123.186 361.4L112.053 368.822L113.162 370.486ZM123.417 363.179C126.003 364.062 128.769 365.394 131.716 367.188L132.756 365.48C129.714 363.628 126.816 362.226 124.063 361.286L123.417 363.179ZM131.716 367.188C134.622 368.957 137.348 371.237 139.895 374.038L141.375 372.693C138.713 369.765 135.841 367.357 132.756 365.48L131.716 367.188ZM139.895 374.038C142.413 376.808 144.503 380.159 146.158 384.104L148.002 383.33C146.271 379.202 144.065 375.652 141.375 372.693L139.895 374.038ZM146.158 384.104C147.789 387.994 148.619 392.545 148.619 397.779L150.619 397.779C150.619 392.336 149.756 387.513 148.002 383.33L146.158 384.104ZM148.619 397.779C148.619 404.479 147.28 410.441 144.625 415.687L146.41 416.59C149.224 411.029 150.619 404.752 150.619 397.779L148.619 397.779ZM144.625 415.687C141.964 420.945 138.335 425.073 133.738 428.096L134.836 429.767C139.744 426.54 143.602 422.139 146.41 416.59L144.625 415.687ZM133.738 428.096C129.159 431.107 123.949 432.619 118.076 432.619L118.076 434.619C124.313 434.619 129.91 433.006 134.836 429.767L133.738 428.096ZM118.076 432.619C112.602 432.619 107.808 431.601 103.669 429.594L102.796 431.394C107.251 433.554 112.352 434.619 118.076 434.619L118.076 432.619ZM103.669 429.594C99.5307 427.588 96.0444 424.609 93.2063 420.636L91.5788 421.798C94.6001 426.028 98.3404 429.234 102.796 431.394L103.669 429.594ZM93.2002 420.627C90.2972 416.651 88.0982 411.699 86.625 405.742L84.6835 406.222C86.2052 412.375 88.4983 417.579 91.5849 421.806L93.2002 420.627ZM86.6232 405.735C85.0857 399.713 84.3105 392.8 84.3105 384.986L82.3105 384.986C82.3105 392.928 83.0979 400.012 84.6854 406.23L86.6232 405.735ZM84.3105 384.986L84.3105 367.604L82.3105 367.604L82.3105 384.986L84.3105 384.986ZM42.0019 271.998L42.0019 270.998L41.0019 270.998L41.0019 271.998L42.0019 271.998ZM60.5566 271.998L61.5566 271.998L61.5566 270.998L60.5566 270.998L60.5566 271.998ZM60.5566 332.545L60.5566 333.545L61.5566 333.545L61.5566 332.545L60.5566 332.545ZM42.0019 332.545L41.0019 332.545L41.0019 333.545L42.0019 333.545L42.0019 332.545ZM16.0254 316.334L15.0254 316.334L15.0254 317.334L16.0254 317.334L16.0254 316.334ZM16.0254 290.455L16.0254 289.455L15.0254 289.455L15.0254 290.455L16.0254 290.455ZM127.842 271.021L127.837 270.021L126.623 270.028L126.861 271.218L127.842 271.021ZM147.178 270.924L148.126 270.608L147.897 269.92L147.173 269.924L147.178 270.924ZM148.936 278.248L147.949 278.412L147.95 278.416L148.936 278.248ZM146.689 302.564L147.597 302.984L147.602 302.973L146.689 302.564ZM137.021 312.721L137.494 313.602L137.499 313.599L137.021 312.721ZM42.0019 272.998L60.5566 272.998L60.5566 270.998L42.0019 270.998L42.0019 272.998ZM59.5566 271.998L59.5566 332.545L61.5566 332.545L61.5566 271.998L59.5566 271.998ZM60.5566 331.545L42.0019 331.545L42.0019 333.545L60.5566 333.545L60.5566 331.545ZM43.0019 332.545L43.0019 271.998L41.0019 271.998L41.0019 332.545L43.0019 332.545ZM17.0254 316.334L17.0254 290.455L15.0254 290.455L15.0254 316.334L17.0254 316.334ZM16.0254 291.455L117.197 291.455L117.197 289.455L16.0254 289.455L16.0254 291.455ZM117.197 291.455C120.388 291.455 122.977 291.027 124.871 290.08L123.977 288.291C122.485 289.037 120.256 289.455 117.197 289.455L117.197 291.455ZM124.871 290.08C126.783 289.124 128.11 287.659 128.787 285.704L126.897 285.05C126.401 286.481 125.45 287.554 123.977 288.291L124.871 290.08ZM128.787 285.704C129.418 283.879 129.721 281.745 129.721 279.322L127.721 279.322C127.721 281.587 127.437 283.489 126.897 285.05L128.787 285.704ZM129.721 279.322C129.721 277.592 129.621 275.984 129.419 274.5L127.437 274.77C127.625 276.151 127.721 277.667 127.721 279.322L129.721 279.322ZM129.419 274.5C129.222 273.055 129.023 271.829 128.822 270.825L126.861 271.218C127.051 272.167 127.243 273.35 127.437 274.77L129.419 274.5ZM127.847 272.021L147.183 271.924L147.173 269.924L127.837 270.021L127.847 272.021ZM146.229 271.24C146.925 273.329 147.5 275.719 147.949 278.412L149.922 278.084C149.459 275.309 148.862 272.815 148.126 270.608L146.229 271.24ZM147.95 278.416C148.394 281.018 148.619 283.988 148.619 287.33L150.619 287.33C150.619 283.902 150.388 280.816 149.921 278.08L147.95 278.416ZM148.619 287.33C148.619 293.013 147.661 297.947 145.777 302.156L147.602 302.973C149.624 298.458 150.619 293.236 150.619 287.33L148.619 287.33ZM145.782 302.145C143.858 306.302 140.792 309.531 136.544 311.842L137.499 313.599C142.105 311.093 145.484 307.551 147.597 302.984L145.782 302.145ZM136.549 311.839C132.252 314.143 126.508 315.334 119.248 315.334L119.248 317.334C126.701 317.334 132.806 316.116 137.494 313.602L136.549 311.839ZM119.248 315.334L16.0254 315.334L16.0254 317.334L119.248 317.334L119.248 315.334ZM42.0019 227.467L42.0019 226.467L41.0019 226.467L41.0019 227.467L42.0019 227.467ZM147.666 227.467L148.666 227.467L148.666 226.467L147.666 226.467L147.666 227.467ZM147.666 253.346L147.666 254.346L148.666 254.346L148.666 253.346L147.666 253.346ZM42.0019 253.346L41.0019 253.346L41.0019 254.346L42.0019 254.346L42.0019 253.346ZM4.79489 251.197L4.07028 251.887L4.07889 251.895L4.79489 251.197ZM4.79489 229.811L5.51095 230.509L5.51945 230.5L4.79489 229.811ZM23.8379 229.811L23.1132 230.5L23.1219 230.509L23.8379 229.811ZM23.8379 251.197L24.5539 251.895L24.5624 251.886L23.8379 251.197ZM42.0019 228.467L147.666 228.467L147.666 226.467L42.0019 226.467L42.0019 228.467ZM146.666 227.467L146.666 253.346L148.666 253.346L148.666 227.467L146.666 227.467ZM147.666 252.346L42.0019 252.346L42.0019 254.346L147.666 254.346L147.666 252.346ZM43.0019 253.346L43.0019 227.467L41.0019 227.467L41.0019 253.346L43.0019 253.346ZM14.3652 254.104C10.7768 254.104 7.85028 252.899 5.51089 250.499L4.07889 251.895C6.81763 254.704 10.2713 256.104 14.3652 256.104L14.3652 254.104ZM5.51945 250.508C3.19435 248.064 1.9863 244.75 1.9863 240.455L-0.0137021 240.455C-0.0137019 245.144 1.31731 248.992 4.07033 251.886L5.51945 250.508ZM1.9863 240.455C1.9863 236.159 3.19462 232.884 5.51089 230.509L4.07889 229.112C1.31704 231.945 -0.0137023 235.767 -0.0137021 240.455L1.9863 240.455ZM5.51945 230.5C7.86088 228.038 10.7848 226.807 14.3652 226.807L14.3652 224.807C10.2633 224.807 6.80703 226.244 4.07033 229.121L5.51945 230.5ZM14.3652 226.807C17.8751 226.807 20.7683 228.034 23.1133 230.5L24.5624 229.121C21.8293 226.248 18.4074 224.807 14.3652 224.807L14.3652 226.807ZM23.1219 230.509C25.4381 232.884 26.6465 236.159 26.6465 240.455L28.6465 240.455C28.6465 235.767 27.3157 231.945 24.5539 229.112L23.1219 230.509ZM26.6465 240.455C26.6465 244.75 25.4384 248.064 23.1133 250.508L24.5624 251.886C27.3154 248.992 28.6465 245.144 28.6465 240.455L26.6465 240.455ZM23.1219 250.499C20.7789 252.902 17.8832 254.104 14.3652 254.104L14.3652 256.104C18.3993 256.104 21.8187 254.701 24.5539 251.895L23.1219 250.499ZM72.4707 204.127L72.7926 203.18L72.7897 203.179L72.4707 204.127ZM55.3808 194.459L54.7209 195.21L55.3808 194.459ZM44.1504 178.932L45.067 178.532L45.0634 178.524L44.1504 178.932ZM44.1504 136.939L45.0634 137.347L45.0685 137.336L44.1504 136.939ZM72.4707 111.646L72.7897 112.594L72.7926 112.593L72.4707 111.646ZM117.295 111.646L117.617 110.7L117.614 110.699L117.295 111.646ZM134.385 121.314L135.045 120.563L135.04 120.559L134.385 121.314ZM134.385 194.459L135.04 195.215L135.045 195.21L134.385 194.459ZM117.295 204.127L117.614 205.075L117.617 205.074L117.295 204.127ZM126.768 168.775L127.63 169.282L127.636 169.271L127.643 169.259L126.768 168.775ZM126.768 147.096L127.638 146.604L127.634 146.597L127.63 146.589L126.768 147.096ZM119.541 139.771L119.003 140.614L119.009 140.619L119.016 140.622L119.541 139.771ZM81.0644 135.475L81.2847 136.45L81.2881 136.449L81.0644 135.475ZM70.4199 139.771L70.937 140.627L70.9475 140.621L70.9579 140.614L70.4199 139.771ZM63.0957 147.193L63.9499 147.713L63.9565 147.702L63.9628 147.691L63.0957 147.193ZM63.0957 168.775L63.9581 168.269L63.954 168.262L63.9499 168.255L63.0957 168.775ZM70.4199 176.1L70.945 175.249L70.937 175.244L70.4199 176.1ZM81.0644 180.299L81.2881 179.324L81.2847 179.323L81.0644 180.299ZM95.9082 206.447L93.8574 206.447L93.8574 208.447L95.9082 208.447L95.9082 206.447ZM93.8574 206.447C86.2058 206.447 79.1871 205.354 72.7926 203.18L72.1488 205.074C78.7751 207.327 86.0142 208.447 93.8574 208.447L93.8574 206.447ZM72.7897 203.179C66.3293 201.004 60.7511 197.845 56.0408 193.708L54.7209 195.21C59.646 199.536 65.461 202.822 72.1516 205.075L72.7897 203.179ZM56.0408 193.708C51.338 189.577 47.68 184.523 45.067 178.532L43.2338 179.331C45.9592 185.58 49.7883 190.878 54.7209 195.21L56.0408 193.708ZM45.0634 178.524C42.3951 172.552 41.0488 165.728 41.0488 158.033L39.0488 158.033C39.0488 165.963 40.4369 173.072 43.2373 179.34L45.0634 178.524ZM41.0488 158.033C41.0488 150.205 42.396 143.317 45.0634 137.347L43.2373 136.531C40.436 142.801 39.0488 149.976 39.0488 158.033L41.0488 158.033ZM45.0685 137.336C47.6821 131.28 51.34 126.195 56.0408 122.066L54.7209 120.563C49.7862 124.898 45.9571 130.229 43.2322 136.543L45.0685 137.336ZM56.0408 122.066C60.7511 117.928 66.3293 114.769 72.7897 112.594L72.1516 110.699C65.461 112.951 59.646 116.237 54.7209 120.563L56.0408 122.066ZM72.7926 112.593C79.1871 110.419 86.2058 109.326 93.8574 109.326L93.8574 107.326C86.0142 107.326 78.7751 108.447 72.1488 110.7L72.7926 112.593ZM93.8574 109.326L95.9082 109.326L95.9082 107.326L93.8574 107.326L93.8574 109.326ZM95.9082 109.326C103.494 109.326 110.514 110.419 116.976 112.594L117.614 110.699C110.925 108.447 103.687 107.326 95.9082 107.326L95.9082 109.326ZM116.973 112.593C123.369 114.768 128.951 117.928 133.73 122.07L135.04 120.559C130.053 116.237 124.242 112.952 117.617 110.7L116.973 112.593ZM133.725 122.066C138.428 126.197 142.086 131.251 144.699 137.242L146.532 136.442C143.806 130.193 139.977 124.896 135.045 120.563L133.725 122.066ZM144.699 137.242C147.304 143.215 148.619 150.073 148.619 157.838L150.619 157.838C150.619 149.847 149.265 142.708 146.532 136.442L144.699 137.242ZM148.619 157.838C148.619 165.536 147.304 172.396 144.697 178.438L146.533 179.23C149.265 172.902 150.619 165.765 150.619 157.838L148.619 157.838ZM144.697 178.438C142.083 184.494 138.426 189.579 133.725 193.708L135.045 195.21C139.979 190.876 143.808 185.544 146.533 179.23L144.697 178.438ZM133.73 193.703C128.951 197.845 123.369 201.005 116.973 203.18L117.617 205.074C124.242 202.821 130.053 199.536 135.04 195.215L133.73 193.703ZM116.976 203.179C110.514 205.355 103.494 206.447 95.9082 206.447L95.9082 208.447C103.687 208.447 110.925 207.326 117.614 205.075L116.976 203.179ZM93.8574 182.666L95.9082 182.666L95.9082 180.666L93.8574 180.666L93.8574 182.666ZM95.9082 182.666C100.596 182.666 105 182.204 109.117 181.274L108.676 179.323C104.72 180.217 100.465 180.666 95.9082 180.666L95.9082 182.666ZM109.117 181.274C113.245 180.342 116.899 178.905 120.066 176.951L119.016 175.249C116.063 177.071 112.621 178.433 108.676 179.323L109.117 181.274ZM120.066 176.951C123.26 174.98 125.787 172.422 127.63 169.282L125.905 168.269C124.233 171.118 121.942 173.443 119.016 175.249L120.066 176.951ZM127.643 169.259C129.433 166.023 130.307 162.204 130.307 157.838L128.307 157.838C128.307 161.936 127.488 165.408 125.893 168.291L127.643 169.259ZM130.307 157.838C130.307 153.535 129.432 149.777 127.638 146.604L125.897 147.588C127.489 150.404 128.307 153.807 128.307 157.838L130.307 157.838ZM127.63 146.589C125.787 143.449 123.26 140.891 120.066 138.92L119.016 140.622C121.942 142.428 124.233 144.753 125.905 147.602L127.63 146.589ZM120.079 138.929C116.909 136.905 113.25 135.433 109.117 134.499L108.676 136.45C112.615 137.34 116.053 138.732 119.003 140.614L120.079 138.929ZM109.117 134.499C105 133.57 100.596 133.107 95.9082 133.107L95.9082 135.107C100.465 135.107 104.72 135.557 108.676 136.45L109.117 134.499ZM95.9082 133.107L93.8574 133.107L93.8574 135.107L95.9082 135.107L95.9082 133.107ZM93.8574 133.107C89.2336 133.107 84.8935 133.57 80.8407 134.5L81.2881 136.449C85.178 135.557 89.3666 135.107 93.8574 135.107L93.8574 133.107ZM80.8442 134.499C76.7105 135.433 73.0518 136.905 69.8819 138.929L70.9579 140.614C73.9077 138.732 77.3454 137.34 81.2847 136.45L80.8442 134.499ZM69.9028 138.916C66.6379 140.888 64.0738 143.483 62.2286 146.695L63.9628 147.691C65.6331 144.784 67.9519 142.431 70.937 140.627L69.9028 138.916ZM62.2415 146.673C60.3051 149.854 59.3613 153.656 59.3613 158.033L61.3613 158.033C61.3613 153.947 62.2404 150.522 63.9499 147.713L62.2415 146.673ZM59.3613 158.033C59.3613 162.348 60.3066 166.117 62.2415 169.295L63.9499 168.255C62.2389 165.445 61.3613 162.051 61.3613 158.033L59.3613 158.033ZM62.2333 169.282C64.0797 172.427 66.6429 174.986 69.9028 176.956L70.937 175.244C67.9468 173.437 65.6273 171.113 63.9581 168.269L62.2333 169.282ZM69.8948 176.951C73.0617 178.905 76.7159 180.342 80.8442 181.274L81.2847 179.323C77.34 178.433 73.8979 177.071 70.945 175.249L69.8948 176.951ZM80.8407 181.273C84.8935 182.204 89.2336 182.666 93.8574 182.666L93.8574 180.666C89.3666 180.666 85.178 180.217 81.2881 179.324L80.8407 181.273ZM64.5605 64.2832L64.5605 63.2832L64.5259 63.2832L64.4914 63.2856L64.5605 64.2832ZM147.666 64.2832L148.666 64.2832L148.666 63.2832L147.666 63.2832L147.666 64.2832ZM147.666 90.0644L147.666 91.0644L148.666 91.0644L148.666 90.0644L147.666 90.0644ZM42.0019 90.0645L41.0019 90.0645L41.0019 91.0645L42.0019 91.0645L42.0019 90.0645ZM42.0019 65.8457L41.9328 64.8481L41.0019 64.9126L41.0019 65.8457L42.0019 65.8457ZM91.0254 68.3848L92.0254 68.3848L92.0254 67.3848L91.0254 67.3848L91.0254 68.3848ZM91.0254 76.0019L91.0169 77.0019L92.0254 77.0104L92.0254 76.0019L91.0254 76.0019ZM54.0136 64.3809L53.3767 65.1519L53.3835 65.1573L54.0136 64.3809ZM49.0332 9.88867L49.7171 10.6182L49.7251 10.6107L49.0332 9.88867ZM61.3378 3.05273L61.6319 4.00848L61.6393 4.00622L61.6467 4.00384L61.3378 3.05273ZM147.666 0.611322L148.666 0.611322L148.666 -0.388678L147.666 -0.388678L147.666 0.611322ZM147.666 26.5879L147.666 27.5879L148.666 27.5879L148.666 26.5879L147.666 26.5879ZM68.2714 28.7363L68.7103 29.6349L68.7186 29.6308L68.7269 29.6266L68.2714 28.7363ZM62.3144 34.791L63.2264 35.2014L63.2301 35.193L62.3144 34.791ZM62.998 54.9082L63.8804 54.4376L63.8766 54.4307L62.998 54.9082ZM69.541 62.3301L68.9562 63.1412L68.9625 63.1457L68.9688 63.1502L69.541 62.3301ZM64.5605 65.2832L147.666 65.2832L147.666 63.2832L64.5605 63.2832L64.5605 65.2832ZM146.666 64.2832L146.666 90.0644L148.666 90.0644L148.666 64.2832L146.666 64.2832ZM147.666 89.0644L42.0019 89.0645L42.0019 91.0645L147.666 91.0644L147.666 89.0644ZM43.0019 90.0645L43.0019 65.8457L41.0019 65.8457L41.0019 90.0645L43.0019 90.0645ZM42.071 66.8433L64.6296 65.2808L64.4914 63.2856L41.9328 64.8481L42.071 66.8433ZM90.0254 68.3848L90.0254 76.0019L92.0254 76.0019L92.0254 68.3848L90.0254 68.3848ZM91.0338 75.002C83.4362 74.9376 76.5729 73.9076 70.4342 71.9254L69.8196 73.8285C76.181 75.8827 83.2499 76.9361 91.0169 77.0019L91.0338 75.002ZM70.4342 71.9254C64.286 69.9399 59.028 67.1626 54.6438 63.6044L53.3835 65.1573C57.9836 68.8907 63.4679 71.7775 69.8196 73.8285L70.4342 71.9254ZM54.6505 63.6099C50.2669 59.9887 46.9094 55.7097 44.5656 50.7687L42.7586 51.6259C45.2325 56.8411 48.776 61.3511 53.3768 65.1518L54.6505 63.6099ZM44.5656 50.7687C42.2271 45.8389 41.0488 40.3236 41.0488 34.2051L39.0488 34.2051C39.0488 40.5865 40.2794 46.3994 42.7586 51.6259L44.5656 50.7687ZM41.0488 34.2051C41.0488 29.2206 41.7517 24.7446 43.1413 20.7653L41.2531 20.1058C39.7782 24.3296 39.0488 29.0333 39.0488 34.2051L41.0488 34.2051ZM43.1413 20.7653C44.5212 16.8137 46.7115 13.4359 49.7171 10.6182L48.3492 9.15912C45.1048 12.2008 42.7378 15.8542 41.2531 20.1058L43.1413 20.7653ZM49.7251 10.6107C52.7148 7.74554 56.6695 5.5354 61.6319 4.00848L61.0438 2.09698C55.85 3.69507 51.6016 6.04223 48.3413 9.16669L49.7251 10.6107ZM61.6467 4.00384C66.5292 2.41864 72.6024 1.61133 79.8925 1.61133L79.8925 -0.388675C72.4691 -0.388674 66.1726 0.431638 61.029 2.10162L61.6467 4.00384ZM79.8925 1.61133L147.666 1.61132L147.666 -0.388678L79.8925 -0.388675L79.8925 1.61133ZM146.666 0.611322L146.666 26.5879L148.666 26.5879L148.666 0.611322L146.666 0.611322ZM147.666 25.5879L79.6972 25.5879L79.6972 27.5879L147.666 27.5879L147.666 25.5879ZM79.6972 25.5879C74.7978 25.5879 70.8117 26.3134 67.816 27.8461L68.7269 29.6266C71.3301 28.2947 74.9613 27.5879 79.6972 27.5879L79.6972 25.5879ZM67.8326 27.8378C64.8362 29.3011 62.6726 31.4874 61.3988 34.389L63.2301 35.193C64.2999 32.756 66.1077 30.9059 68.7103 29.6349L67.8326 27.8378ZM61.4025 34.3807C60.1562 37.1502 59.5566 40.5226 59.5566 44.459L61.5566 44.459C61.5566 40.7131 62.1289 37.6401 63.2263 35.2014L61.4025 34.3807ZM59.5566 44.459C59.5566 48.5695 60.3999 52.2219 62.1194 55.3857L63.8766 54.4307C62.3409 51.605 61.5566 48.2912 61.5566 44.459L59.5566 44.459ZM62.1157 55.3788C63.7529 58.4486 66.0378 61.0374 68.9562 63.1412L70.1258 61.5189C67.4452 59.5864 65.3681 57.2272 63.8804 54.4376L62.1157 55.3788ZM68.9688 63.1502C71.8684 65.1732 75.1938 66.7151 78.9342 67.7838L79.4837 65.8607C75.9324 64.8461 72.8125 63.3932 70.1132 61.5099L68.9688 63.1502ZM78.9342 67.7838C82.6791 68.8538 86.7113 69.3848 91.0254 69.3848L91.0254 67.3848C86.8759 67.3848 83.0305 66.8741 79.4837 65.8607L78.9342 67.7838Z" fill="#0E35E3" fill-opacity="0.5" mask="url(#path-1-outside-1_1881_1144)"/>
</svg>
