<svg width="221" height="65" viewBox="0 0 221 65" fill="none" xmlns="http://www.w3.org/2000/svg">
<g filter="url(#filter0_b_1881_1299)">
<rect y="0.136719" width="221" height="64" rx="16" fill="url(#paint0_linear_1881_1299)" fill-opacity="0.16"/>
<rect x="0.5" y="0.636719" width="220" height="63" rx="15.5" stroke="url(#paint1_linear_1881_1299)"/>
<g filter="url(#filter1_d_1881_1299)">
<g clip-path="url(#clip0_1881_1299)">
<rect x="10" y="10.1367" width="44" height="44" rx="12" fill="white" fill-opacity="0.07" shape-rendering="crispEdges"/>
<path opacity="0.8" d="M23.1368 18.8049C23.8066 18.9434 24.3399 19.3933 24.6713 19.9878L25.7269 21.8816C26.1157 22.5791 26.4429 23.1661 26.6566 23.6764C26.8833 24.2177 27.0179 24.7515 26.9564 25.3416C26.8948 25.9318 26.653 26.4263 26.3195 26.9092C26.0051 27.3644 25.5638 27.8712 25.0395 28.4735L23.4877 30.256C23.2097 30.5753 23.0706 30.735 23.0579 30.9346C23.0452 31.1342 23.1592 31.3047 23.3871 31.6457C25.3295 34.5519 27.9474 37.1707 30.8559 39.1148C31.197 39.3427 31.3674 39.4567 31.567 39.4439C31.7666 39.4312 31.9264 39.2921 32.2457 39.0141L34.0283 37.4623C34.6305 36.938 35.1374 36.4967 35.5927 36.1823C36.0754 35.8488 36.57 35.6069 37.1601 35.5454C37.7503 35.4839 38.2841 35.6185 38.8254 35.8451C39.3356 36.0588 39.9226 36.3861 40.62 36.7748L42.514 37.8305C43.1084 38.1619 43.5585 38.6952 43.6969 39.3649C43.8367 40.0417 43.6304 40.7218 43.1747 41.2809C41.5215 43.3093 38.8727 44.6009 36.094 44.0403C34.386 43.6957 32.7007 43.1217 30.6625 41.9528C26.567 39.604 22.895 35.93 20.549 31.8394C19.38 29.8011 18.806 28.1158 18.4615 26.4078C17.9009 23.6291 19.1925 20.9803 21.2209 19.327C21.7799 18.8714 22.4601 18.6651 23.1368 18.8049Z" fill="#EC009D"/>
<g filter="url(#filter2_f_1881_1299)">
<circle cx="33.9668" cy="33.1035" r="6" fill="#980884"/>
</g>
</g>
</g>
<path d="M71.1186 25.6367V15.4549H74.7479C75.54 15.4549 76.1963 15.5991 76.7166 15.8874C77.237 16.1758 77.6264 16.5702 77.8849 17.0707C78.1435 17.5678 78.2727 18.128 78.2727 18.7511C78.2727 19.3775 78.1418 19.9409 77.88 20.4414C77.6214 20.9386 77.2304 21.333 76.7067 21.6246C76.1863 21.913 75.5317 22.0572 74.7429 22.0572H72.2472V20.7546H74.6037C75.1042 20.7546 75.5102 20.6684 75.8217 20.4961C76.1333 20.3204 76.362 20.0818 76.5078 19.7802C76.6536 19.4786 76.7266 19.1355 76.7266 18.7511C76.7266 18.3666 76.6536 18.0252 76.5078 17.7269C76.362 17.4286 76.1316 17.195 75.8168 17.0259C75.5052 16.8569 75.0942 16.7724 74.5838 16.7724H72.6548V25.6367H71.1186ZM81.4409 21.1026V25.6367H79.9544V15.4549H81.421V19.2433H81.5154C81.6944 18.8323 81.9679 18.5058 82.3358 18.2638C82.7037 18.0219 83.1842 17.9009 83.7775 17.9009C84.3012 17.9009 84.7586 18.0086 85.1497 18.2241C85.5441 18.4395 85.849 18.761 86.0645 19.1886C86.2832 19.6128 86.3926 20.1431 86.3926 20.7795V25.6367H84.9061V20.9585C84.9061 20.3983 84.7619 19.9641 84.4735 19.6559C84.1852 19.3443 83.7842 19.1886 83.2704 19.1886C82.9191 19.1886 82.6042 19.2631 82.3258 19.4123C82.0507 19.5614 81.8336 19.7802 81.6745 20.0685C81.5188 20.3536 81.4409 20.6983 81.4409 21.1026ZM91.5929 25.7908C90.877 25.7908 90.2522 25.6268 89.7186 25.2987C89.185 24.9705 88.7707 24.5115 88.4757 23.9215C88.1807 23.3316 88.0332 22.6422 88.0332 21.8533C88.0332 21.0612 88.1807 20.3685 88.4757 19.7752C88.7707 19.1819 89.185 18.7212 89.7186 18.3931C90.2522 18.065 90.877 17.9009 91.5929 17.9009C92.3088 17.9009 92.9335 18.065 93.4672 18.3931C94.0008 18.7212 94.4151 19.1819 94.71 19.7752C95.005 20.3685 95.1525 21.0612 95.1525 21.8533C95.1525 22.6422 95.005 23.3316 94.71 23.9215C94.4151 24.5115 94.0008 24.9705 93.4672 25.2987C92.9335 25.6268 92.3088 25.7908 91.5929 25.7908ZM91.5978 24.543C92.0618 24.543 92.4463 24.4203 92.7512 24.1751C93.0562 23.9298 93.2815 23.6033 93.4274 23.1957C93.5765 22.788 93.6511 22.3389 93.6511 21.8484C93.6511 21.3612 93.5765 20.9137 93.4274 20.506C93.2815 20.0951 93.0562 19.7653 92.7512 19.5167C92.4463 19.2681 92.0618 19.1438 91.5978 19.1438C91.1305 19.1438 90.7427 19.2681 90.4345 19.5167C90.1296 19.7653 89.9025 20.0951 89.7534 20.506C89.6075 20.9137 89.5346 21.3612 89.5346 21.8484C89.5346 22.3389 89.6075 22.788 89.7534 23.1957C89.9025 23.6033 90.1296 23.9298 90.4345 24.1751C90.7427 24.4203 91.1305 24.543 91.5978 24.543ZM98.2983 21.1026V25.6367H96.8118V18.0004H98.2386V19.2433H98.3331C98.5088 18.8389 98.7839 18.5141 99.1584 18.2688C99.5362 18.0236 100.012 17.9009 100.585 17.9009C101.106 17.9009 101.561 18.0103 101.952 18.229C102.344 18.4445 102.647 18.766 102.862 19.1935C103.078 19.6211 103.185 20.1497 103.185 20.7795V25.6367H101.699V20.9585C101.699 20.4049 101.555 19.9724 101.266 19.6609C100.978 19.346 100.582 19.1886 100.078 19.1886C99.7334 19.1886 99.4268 19.2631 99.1584 19.4123C98.8932 19.5614 98.6828 19.7802 98.527 20.0685C98.3745 20.3536 98.2983 20.6983 98.2983 21.1026ZM108.47 25.7908C107.718 25.7908 107.07 25.6301 106.526 25.3086C105.986 24.9838 105.568 24.5281 105.273 23.9414C104.982 23.3514 104.836 22.6604 104.836 21.8683C104.836 21.0861 104.982 20.3967 105.273 19.8001C105.568 19.2035 105.979 18.7378 106.506 18.4031C107.037 18.0683 107.656 17.9009 108.366 17.9009C108.797 17.9009 109.214 17.9722 109.619 18.1147C110.023 18.2572 110.386 18.4809 110.707 18.7859C111.029 19.0908 111.282 19.4869 111.468 19.9741C111.654 20.458 111.746 21.0463 111.746 21.739V22.266H105.676V21.1523H110.29C110.29 20.7612 110.21 20.4149 110.051 20.1133C109.892 19.8084 109.668 19.5681 109.38 19.3924C109.095 19.2167 108.76 19.1289 108.376 19.1289C107.958 19.1289 107.594 19.2317 107.282 19.4371C106.974 19.6393 106.735 19.9045 106.566 20.2326C106.4 20.5574 106.317 20.9104 106.317 21.2915V22.1616C106.317 22.672 106.407 23.1062 106.586 23.4641C106.768 23.8221 107.022 24.0955 107.347 24.2844C107.671 24.4701 108.051 24.5629 108.485 24.5629C108.767 24.5629 109.024 24.5231 109.256 24.4435C109.488 24.3607 109.688 24.238 109.857 24.0756C110.026 23.9132 110.156 23.7127 110.245 23.4741L111.652 23.7276C111.539 24.1419 111.337 24.5049 111.045 24.8164C110.757 25.1246 110.394 25.3649 109.957 25.5373C109.522 25.7063 109.027 25.7908 108.47 25.7908ZM118.587 21.1026V25.6367H117.101V18.0004H118.528V19.2433H118.622C118.798 18.8389 119.073 18.5141 119.447 18.2688C119.825 18.0236 120.301 17.9009 120.874 17.9009C121.395 17.9009 121.85 18.0103 122.241 18.229C122.633 18.4445 122.936 18.766 123.151 19.1935C123.367 19.6211 123.474 20.1497 123.474 20.7795V25.6367H121.988V20.9585C121.988 20.4049 121.844 19.9724 121.555 19.6609C121.267 19.346 120.871 19.1886 120.367 19.1886C120.022 19.1886 119.716 19.2631 119.447 19.4123C119.182 19.5614 118.972 19.7802 118.816 20.0685C118.664 20.3536 118.587 20.6983 118.587 21.1026ZM130.305 22.4698V18.0004H131.797V25.6367H130.335V24.3143H130.256C130.08 24.7219 129.798 25.0617 129.411 25.3335C129.026 25.6019 128.547 25.7362 127.974 25.7362C127.483 25.7362 127.049 25.6284 126.671 25.413C126.297 25.1942 126.002 24.8711 125.786 24.4435C125.574 24.016 125.468 23.4873 125.468 22.8576V18.0004H126.955V22.6786C126.955 23.199 127.099 23.6133 127.387 23.9215C127.675 24.2298 128.05 24.3839 128.511 24.3839C128.789 24.3839 129.066 24.3143 129.341 24.1751C129.619 24.0359 129.85 23.8254 130.032 23.5437C130.218 23.262 130.309 22.904 130.305 22.4698ZM133.794 25.6367V18.0004H135.221V19.2433H135.316C135.475 18.8223 135.735 18.4942 136.096 18.2589C136.457 18.0202 136.89 17.9009 137.394 17.9009C137.904 17.9009 138.332 18.0202 138.676 18.2589C139.024 18.4975 139.281 18.8256 139.447 19.2433H139.526C139.709 18.8356 139.999 18.5108 140.396 18.2688C140.794 18.0236 141.268 17.9009 141.818 17.9009C142.511 17.9009 143.076 18.118 143.514 18.5522C143.954 18.9864 144.175 19.641 144.175 20.516V25.6367H142.688V20.6552C142.688 20.1381 142.548 19.7636 142.266 19.5316C141.984 19.2996 141.648 19.1836 141.257 19.1836C140.773 19.1836 140.396 19.3327 140.128 19.631C139.86 19.926 139.725 20.3055 139.725 20.7695V25.6367H138.244V20.5607C138.244 20.1464 138.115 19.8133 137.856 19.5614C137.597 19.3095 137.261 19.1836 136.847 19.1836C136.565 19.1836 136.305 19.2582 136.066 19.4073C135.831 19.5531 135.64 19.757 135.494 20.0188C135.352 20.2807 135.281 20.5839 135.281 20.9286V25.6367H133.794ZM146.287 25.6367V15.4549H147.773V19.2383H147.863C147.949 19.0792 148.073 18.8952 148.235 18.6864C148.398 18.4776 148.623 18.2953 148.912 18.1396C149.2 17.9805 149.581 17.9009 150.055 17.9009C150.672 17.9009 151.222 18.0567 151.706 18.3683C152.19 18.6798 152.569 19.1289 152.844 19.7156C153.123 20.3022 153.262 21.0082 153.262 21.8335C153.262 22.6587 153.124 23.3664 152.849 23.9563C152.574 24.543 152.196 24.9954 151.716 25.3136C151.235 25.6284 150.686 25.7859 150.07 25.7859C149.606 25.7859 149.226 25.708 148.931 25.5522C148.64 25.3964 148.411 25.2141 148.245 25.0053C148.08 24.7965 147.952 24.6109 147.863 24.4485H147.738V25.6367H146.287ZM147.743 21.8185C147.743 22.3555 147.821 22.8261 147.977 23.2305C148.133 23.6348 148.358 23.9513 148.653 24.18C148.948 24.4054 149.309 24.5181 149.737 24.5181C150.181 24.5181 150.552 24.4004 150.85 24.1651C151.149 23.9265 151.374 23.6033 151.527 23.1957C151.682 22.788 151.76 22.329 151.76 21.8185C151.76 21.3147 151.684 20.8623 151.532 20.4613C151.382 20.0603 151.157 19.7437 150.855 19.5117C150.557 19.2797 150.184 19.1637 149.737 19.1637C149.306 19.1637 148.941 19.2747 148.643 19.4968C148.348 19.7189 148.124 20.0288 147.972 20.4265C147.819 20.8242 147.743 21.2882 147.743 21.8185ZM158.222 25.7908C157.47 25.7908 156.822 25.6301 156.278 25.3086C155.738 24.9838 155.32 24.5281 155.025 23.9414C154.734 23.3514 154.588 22.6604 154.588 21.8683C154.588 21.0861 154.734 20.3967 155.025 19.8001C155.32 19.2035 155.731 18.7378 156.258 18.4031C156.789 18.0683 157.408 17.9009 158.118 17.9009C158.549 17.9009 158.966 17.9722 159.371 18.1147C159.775 18.2572 160.138 18.4809 160.459 18.7859C160.781 19.0908 161.034 19.4869 161.22 19.9741C161.406 20.458 161.498 21.0463 161.498 21.739V22.266H155.428V21.1523H160.042C160.042 20.7612 159.962 20.4149 159.803 20.1133C159.644 19.8084 159.42 19.5681 159.132 19.3924C158.847 19.2167 158.512 19.1289 158.128 19.1289C157.71 19.1289 157.345 19.2317 157.034 19.4371C156.726 19.6393 156.487 19.9045 156.318 20.2326C156.152 20.5574 156.069 20.9104 156.069 21.2915V22.1616C156.069 22.672 156.159 23.1062 156.338 23.4641C156.52 23.8221 156.774 24.0955 157.099 24.2844C157.423 24.4701 157.803 24.5629 158.237 24.5629C158.519 24.5629 158.776 24.5231 159.008 24.4435C159.24 24.3607 159.44 24.238 159.609 24.0756C159.778 23.9132 159.907 23.7127 159.997 23.4741L161.404 23.7276C161.291 24.1419 161.089 24.5049 160.797 24.8164C160.509 25.1246 160.146 25.3649 159.709 25.5373C159.274 25.7063 158.779 25.7908 158.222 25.7908ZM163.148 25.6367V18.0004H164.585V19.2134H164.664C164.803 18.8024 165.049 18.4793 165.4 18.244C165.754 18.0053 166.156 17.886 166.603 17.886C166.696 17.886 166.805 17.8893 166.931 17.896C167.06 17.9026 167.161 17.9109 167.234 17.9208V19.3427C167.175 19.3261 167.069 19.3079 166.916 19.288C166.764 19.2648 166.611 19.2532 166.459 19.2532C166.107 19.2532 165.794 19.3278 165.519 19.4769C165.247 19.6228 165.032 19.8266 164.873 20.0884C164.714 20.3469 164.634 20.6419 164.634 20.9734V25.6367H163.148ZM174.243 19.8647L172.896 20.1033C172.839 19.931 172.75 19.7669 172.627 19.6112C172.508 19.4554 172.346 19.3278 172.14 19.2283C171.935 19.1289 171.678 19.0792 171.369 19.0792C170.949 19.0792 170.597 19.1737 170.316 19.3626C170.034 19.5482 169.893 19.7885 169.893 20.0835C169.893 20.3387 169.987 20.5442 170.176 20.6999C170.365 20.8557 170.67 20.9833 171.091 21.0827L172.304 21.3612C173.007 21.5236 173.53 21.7738 173.875 22.1119C174.22 22.4499 174.392 22.8891 174.392 23.4293C174.392 23.8867 174.26 24.2944 173.994 24.6523C173.733 25.007 173.366 25.2854 172.896 25.4876C172.428 25.6897 171.887 25.7908 171.27 25.7908C170.415 25.7908 169.717 25.6085 169.177 25.244C168.637 24.8761 168.305 24.354 168.183 23.6779L169.619 23.4592C169.709 23.8337 169.893 24.1171 170.171 24.3093C170.45 24.4982 170.813 24.5927 171.26 24.5927C171.747 24.5927 172.137 24.4916 172.428 24.2894C172.72 24.0839 172.866 23.8337 172.866 23.5387C172.866 23.3001 172.776 23.0996 172.597 22.9371C172.422 22.7747 172.152 22.6521 171.787 22.5692L170.494 22.2859C169.782 22.1235 169.255 21.8649 168.914 21.5103C168.575 21.1557 168.406 20.7066 168.406 20.163C168.406 19.7122 168.532 19.3178 168.784 18.9798C169.036 18.6417 169.384 18.3782 169.828 18.1893C170.272 17.997 170.781 17.9009 171.355 17.9009C172.18 17.9009 172.829 18.0799 173.303 18.4379C173.777 18.7925 174.091 19.2681 174.243 19.8647Z" fill="#CAC6DD"/>
<path d="M74.5625 46.6822V39.0004H76.0909V46.6822H74.5625ZM71.4886 43.6026V42.0799H79.1705V43.6026H71.4886ZM85.6903 37.0004V48.6367H83.929V38.7617H83.8608L81.0767 40.5799V38.8981L83.9801 37.0004H85.6903ZM92.5895 42.8185C92.5895 41.3943 92.777 40.0837 93.152 38.8867C93.527 37.6897 94.0743 36.5856 94.794 35.5742H96.3509C96.0705 35.9492 95.8092 36.4094 95.5668 36.9549C95.3243 37.5004 95.1122 38.0988 94.9304 38.7504C94.7486 39.3981 94.6065 40.0704 94.5043 40.7674C94.402 41.4606 94.3509 42.1443 94.3509 42.8185C94.3509 43.7201 94.4399 44.6329 94.6179 45.5572C94.7959 46.4814 95.0365 47.3394 95.3395 48.131C95.6425 48.9227 95.9796 49.5685 96.3509 50.0685H94.794C94.0743 49.0572 93.527 47.953 93.152 46.756C92.777 45.5591 92.5895 44.2466 92.5895 42.8185ZM97.375 46.364V44.9435L102.403 37.0004H103.523V39.0913H102.812L99.2159 44.7844V44.8754H106.108V46.364H97.375ZM102.892 48.6367V45.9322L102.903 45.2844V37.0004H104.568V48.6367H102.892ZM111.429 48.7958C110.717 48.7958 110.077 48.6594 109.509 48.3867C108.944 48.1102 108.493 47.7314 108.156 47.2504C107.819 46.7693 107.639 46.2201 107.616 45.6026H109.321C109.363 46.1026 109.584 46.5136 109.986 46.8356C110.387 47.1576 110.868 47.3185 111.429 47.3185C111.876 47.3185 112.272 47.2163 112.616 47.0117C112.965 46.8034 113.238 46.5174 113.435 46.1538C113.635 45.7901 113.736 45.3754 113.736 44.9094C113.736 44.436 113.634 44.0136 113.429 43.6424C113.224 43.2712 112.942 42.9795 112.582 42.7674C112.226 42.5553 111.817 42.4473 111.355 42.4435C111.003 42.4435 110.649 42.5041 110.293 42.6254C109.937 42.7466 109.649 42.9057 109.429 43.1026L107.821 42.864L108.474 37.0004H114.872V38.506H109.935L109.565 41.7617H109.634C109.861 41.542 110.162 41.3583 110.537 41.2106C110.916 41.0629 111.321 40.989 111.753 40.989C112.461 40.989 113.092 41.1576 113.645 41.4947C114.202 41.8318 114.639 42.292 114.957 42.8754C115.279 43.4549 115.438 44.1216 115.435 44.8754C115.438 45.6291 115.268 46.3015 114.923 46.8924C114.582 47.4833 114.109 47.9492 113.503 48.2901C112.901 48.6272 112.209 48.7958 111.429 48.7958ZM121.072 48.7958C120.554 48.7882 120.042 48.6935 119.538 48.5117C119.038 48.3299 118.584 48.0269 118.175 47.6026C117.766 47.1784 117.438 46.6083 117.192 45.8924C116.949 45.1765 116.828 44.2826 116.828 43.2106C116.828 42.1954 116.929 41.2939 117.129 40.506C117.334 39.7182 117.627 39.0534 118.01 38.5117C118.393 37.9663 118.855 37.5515 119.396 37.2674C119.938 36.9833 120.546 36.8413 121.22 36.8413C121.913 36.8413 122.529 36.9776 123.067 37.2504C123.605 37.5231 124.04 37.9 124.374 38.381C124.711 38.8621 124.925 39.4094 125.016 40.0231H123.283C123.165 39.5382 122.932 39.1424 122.584 38.8356C122.235 38.5288 121.781 38.3754 121.22 38.3754C120.368 38.3754 119.703 38.7466 119.226 39.489C118.752 40.2314 118.514 41.2636 118.51 42.5856H118.595C118.796 42.256 119.042 41.9757 119.334 41.7447C119.629 41.5098 119.959 41.3299 120.322 41.2049C120.69 41.0761 121.076 41.0117 121.482 41.0117C122.156 41.0117 122.766 41.1765 123.311 41.506C123.86 41.8318 124.298 42.2826 124.624 42.8583C124.949 43.4341 125.112 44.0932 125.112 44.8356C125.112 45.578 124.944 46.2504 124.607 46.8526C124.273 47.4549 123.804 47.9322 123.197 48.2844C122.591 48.6329 121.883 48.8034 121.072 48.7958ZM121.067 47.3185C121.514 47.3185 121.913 47.2087 122.266 46.989C122.618 46.7693 122.896 46.4738 123.101 46.1026C123.305 45.7314 123.408 45.3166 123.408 44.8583C123.408 44.4113 123.307 44.0041 123.107 43.6367C122.91 43.2693 122.637 42.9776 122.288 42.7617C121.944 42.5458 121.55 42.4379 121.107 42.4379C120.769 42.4379 120.457 42.5022 120.169 42.631C119.885 42.7598 119.635 42.9379 119.419 43.1651C119.203 43.3924 119.033 43.6538 118.908 43.9492C118.786 44.2409 118.726 44.5496 118.726 44.8754C118.726 45.311 118.826 45.7144 119.027 46.0856C119.232 46.4568 119.51 46.756 119.862 46.9833C120.218 47.2068 120.62 47.3185 121.067 47.3185ZM129.972 42.8185C129.972 44.2466 129.784 45.5591 129.409 46.756C129.034 47.953 128.487 49.0572 127.767 50.0685H126.21C126.491 49.6935 126.752 49.2333 126.994 48.6879C127.237 48.1424 127.449 47.5458 127.631 46.8981C127.813 46.2466 127.955 45.5723 128.057 44.8754C128.159 44.1784 128.21 43.4928 128.21 42.8185C128.21 41.9208 128.121 41.0098 127.943 40.0856C127.765 39.1613 127.525 38.3034 127.222 37.5117C126.919 36.7201 126.581 36.0742 126.21 35.5742H127.767C128.487 36.5856 129.034 37.6897 129.409 38.8867C129.784 40.0837 129.972 41.3943 129.972 42.8185ZM135.719 46.364V44.9435L140.747 37.0004H141.866V39.0913H141.156L137.56 44.7844V44.8754H144.452V46.364H135.719ZM141.236 48.6367V45.9322L141.247 45.2844V37.0004H142.912V48.6367H141.236ZM149.773 48.7958C149.061 48.7958 148.42 48.6594 147.852 48.3867C147.288 48.1102 146.837 47.7314 146.5 47.2504C146.163 46.7693 145.983 46.2201 145.96 45.6026H147.665C147.706 46.1026 147.928 46.5136 148.33 46.8356C148.731 47.1576 149.212 47.3185 149.773 47.3185C150.22 47.3185 150.616 47.2163 150.96 47.0117C151.309 46.8034 151.581 46.5174 151.778 46.1538C151.979 45.7901 152.08 45.3754 152.08 44.9094C152.08 44.436 151.977 44.0136 151.773 43.6424C151.568 43.2712 151.286 42.9795 150.926 42.7674C150.57 42.5553 150.161 42.4473 149.699 42.4435C149.347 42.4435 148.992 42.5041 148.636 42.6254C148.28 42.7466 147.992 42.9057 147.773 43.1026L146.165 42.864L146.818 37.0004H153.216V38.506H148.278L147.909 41.7617H147.977C148.205 41.542 148.506 41.3583 148.881 41.2106C149.259 41.0629 149.665 40.989 150.097 40.989C150.805 40.989 151.436 41.1576 151.989 41.4947C152.545 41.8318 152.983 42.292 153.301 42.8754C153.623 43.4549 153.782 44.1216 153.778 44.8754C153.782 45.6291 153.612 46.3015 153.267 46.8924C152.926 47.4833 152.453 47.9492 151.847 48.2901C151.244 48.6272 150.553 48.7958 149.773 48.7958ZM159.405 48.7958C158.625 48.7958 157.928 48.6613 157.314 48.3924C156.704 48.1235 156.221 47.7504 155.865 47.2731C155.513 46.792 155.323 46.2352 155.297 45.6026H157.081C157.104 45.9473 157.219 46.2466 157.428 46.5004C157.64 46.7504 157.916 46.9435 158.257 47.0799C158.598 47.2163 158.977 47.2844 159.393 47.2844C159.852 47.2844 160.257 47.2049 160.609 47.0458C160.965 46.8867 161.244 46.6651 161.445 46.381C161.645 46.0932 161.746 45.7617 161.746 45.3867C161.746 44.9966 161.645 44.6538 161.445 44.3583C161.248 44.0591 160.958 43.8242 160.575 43.6538C160.196 43.4833 159.738 43.3981 159.2 43.3981H158.217V41.9663H159.2C159.632 41.9663 160.011 41.8886 160.337 41.7333C160.666 41.578 160.924 41.3621 161.109 41.0856C161.295 40.8053 161.388 40.4776 161.388 40.1026C161.388 39.7428 161.306 39.4303 161.143 39.1651C160.984 38.8962 160.757 38.686 160.462 38.5344C160.17 38.3829 159.825 38.3072 159.428 38.3072C159.049 38.3072 158.695 38.3772 158.365 38.5174C158.039 38.6538 157.774 38.8507 157.57 39.1083C157.365 39.3621 157.255 39.667 157.24 40.0231H155.541C155.56 39.3943 155.746 38.8413 156.098 38.364C156.454 37.8867 156.924 37.5136 157.507 37.2447C158.09 36.9757 158.738 36.8413 159.45 36.8413C160.196 36.8413 160.84 36.9871 161.382 37.2788C161.928 37.5666 162.348 37.9511 162.643 38.4322C162.943 38.9132 163.09 39.4397 163.087 40.0117C163.09 40.6632 162.909 41.2163 162.541 41.6708C162.178 42.1254 161.693 42.4303 161.087 42.5856V42.6765C161.859 42.7939 162.458 43.1007 162.882 43.5969C163.31 44.0932 163.522 44.7087 163.518 45.4435C163.522 46.0837 163.344 46.6576 162.984 47.1651C162.628 47.6727 162.142 48.0723 161.524 48.364C160.907 48.6519 160.2 48.7958 159.405 48.7958ZM170.331 42.0799V43.5572H165.172V42.0799H170.331ZM175.967 48.7958C175.187 48.7958 174.49 48.6613 173.876 48.3924C173.267 48.1235 172.784 47.7504 172.428 47.2731C172.075 46.792 171.886 46.2352 171.859 45.6026H173.643C173.666 45.9473 173.782 46.2466 173.99 46.5004C174.202 46.7504 174.479 46.9435 174.82 47.0799C175.161 47.2163 175.539 47.2844 175.956 47.2844C176.414 47.2844 176.82 47.2049 177.172 47.0458C177.528 46.8867 177.806 46.6651 178.007 46.381C178.208 46.0932 178.308 45.7617 178.308 45.3867C178.308 44.9966 178.208 44.6538 178.007 44.3583C177.81 44.0591 177.52 43.8242 177.138 43.6538C176.759 43.4833 176.301 43.3981 175.763 43.3981H174.78V41.9663H175.763C176.195 41.9663 176.573 41.8886 176.899 41.7333C177.229 41.578 177.486 41.3621 177.672 41.0856C177.857 40.8053 177.95 40.4776 177.95 40.1026C177.95 39.7428 177.869 39.4303 177.706 39.1651C177.547 38.8962 177.32 38.686 177.024 38.5344C176.732 38.3829 176.388 38.3072 175.99 38.3072C175.611 38.3072 175.257 38.3772 174.928 38.5174C174.602 38.6538 174.337 38.8507 174.132 39.1083C173.928 39.3621 173.818 39.667 173.803 40.0231H172.104C172.123 39.3943 172.308 38.8413 172.661 38.364C173.017 37.8867 173.486 37.5136 174.07 37.2447C174.653 36.9757 175.301 36.8413 176.013 36.8413C176.759 36.8413 177.403 36.9871 177.945 37.2788C178.49 37.5666 178.911 37.9511 179.206 38.4322C179.505 38.9132 179.653 39.4397 179.649 40.0117C179.653 40.6632 179.471 41.2163 179.104 41.6708C178.74 42.1254 178.255 42.4303 177.649 42.5856V42.6765C178.422 42.7939 179.02 43.1007 179.445 43.5969C179.873 44.0932 180.085 44.7087 180.081 45.4435C180.085 46.0837 179.907 46.6576 179.547 47.1651C179.191 47.6727 178.704 48.0723 178.087 48.364C177.469 48.6519 176.763 48.7958 175.967 48.7958ZM181.484 46.364V44.9435L186.513 37.0004H187.632V39.0913H186.922L183.325 44.7844V44.8754H190.217V46.364H181.484ZM187.001 48.6367V45.9322L187.013 45.2844V37.0004H188.678V48.6367H187.001ZM195.538 48.7958C194.826 48.7958 194.186 48.6594 193.618 48.3867C193.054 48.1102 192.603 47.7314 192.266 47.2504C191.929 46.7693 191.749 46.2201 191.726 45.6026H193.43C193.472 46.1026 193.694 46.5136 194.095 46.8356C194.497 47.1576 194.978 47.3185 195.538 47.3185C195.985 47.3185 196.381 47.2163 196.726 47.0117C197.074 46.8034 197.347 46.5174 197.544 46.1538C197.745 45.7901 197.845 45.3754 197.845 44.9094C197.845 44.436 197.743 44.0136 197.538 43.6424C197.334 43.2712 197.052 42.9795 196.692 42.7674C196.336 42.5553 195.927 42.4473 195.464 42.4435C195.112 42.4435 194.758 42.5041 194.402 42.6254C194.046 42.7466 193.758 42.9057 193.538 43.1026L191.93 42.864L192.584 37.0004H198.982V38.506H194.044L193.675 41.7617H193.743C193.97 41.542 194.271 41.3583 194.646 41.2106C195.025 41.0629 195.43 40.989 195.862 40.989C196.571 40.989 197.201 41.1576 197.754 41.4947C198.311 41.8318 198.749 42.292 199.067 42.8754C199.389 43.4549 199.548 44.1216 199.544 44.8754C199.548 45.6291 199.377 46.3015 199.033 46.8924C198.692 47.4833 198.218 47.9492 197.612 48.2901C197.01 48.6272 196.319 48.7958 195.538 48.7958ZM205.182 48.7958C204.663 48.7882 204.152 48.6935 203.648 48.5117C203.148 48.3299 202.693 48.0269 202.284 47.6026C201.875 47.1784 201.547 46.6083 201.301 45.8924C201.059 45.1765 200.938 44.2826 200.938 43.2106C200.938 42.1954 201.038 41.2939 201.239 40.506C201.443 39.7182 201.737 39.0534 202.119 38.5117C202.502 37.9663 202.964 37.5515 203.506 37.2674C204.047 36.9833 204.655 36.8413 205.33 36.8413C206.023 36.8413 206.638 36.9776 207.176 37.2504C207.714 37.5231 208.15 37.9 208.483 38.381C208.82 38.8621 209.034 39.4094 209.125 40.0231H207.392C207.275 39.5382 207.042 39.1424 206.693 38.8356C206.345 38.5288 205.89 38.3754 205.33 38.3754C204.477 38.3754 203.813 38.7466 203.335 39.489C202.862 40.2314 202.623 41.2636 202.619 42.5856H202.705C202.905 42.256 203.152 41.9757 203.443 41.7447C203.739 41.5098 204.068 41.3299 204.432 41.2049C204.799 41.0761 205.186 41.0117 205.591 41.0117C206.265 41.0117 206.875 41.1765 207.42 41.506C207.97 41.8318 208.407 42.2826 208.733 42.8583C209.059 43.4341 209.222 44.0932 209.222 44.8356C209.222 45.578 209.053 46.2504 208.716 46.8526C208.383 47.4549 207.913 47.9322 207.307 48.2844C206.701 48.6329 205.992 48.8034 205.182 48.7958ZM205.176 47.3185C205.623 47.3185 206.023 47.2087 206.375 46.989C206.727 46.7693 207.006 46.4738 207.21 46.1026C207.415 45.7314 207.517 45.3166 207.517 44.8583C207.517 44.4113 207.417 44.0041 207.216 43.6367C207.019 43.2693 206.746 42.9776 206.398 42.7617C206.053 42.5458 205.659 42.4379 205.216 42.4379C204.879 42.4379 204.566 42.5022 204.278 42.631C203.994 42.7598 203.744 42.9379 203.528 43.1651C203.313 43.3924 203.142 43.6538 203.017 43.9492C202.896 44.2409 202.835 44.5496 202.835 44.8754C202.835 45.311 202.936 45.7144 203.136 46.0856C203.341 46.4568 203.619 46.756 203.972 46.9833C204.328 47.2068 204.729 47.3185 205.176 47.3185Z" fill="#CAC6DD"/>
</g>
<defs>
<filter id="filter0_b_1881_1299" x="-11.7" y="-11.5633" width="244.4" height="87.4" filterUnits="userSpaceOnUse" color-interpolation-filters="sRGB">
<feFlood flood-opacity="0" result="BackgroundImageFix"/>
<feGaussianBlur in="BackgroundImageFix" stdDeviation="5.85"/>
<feComposite in2="SourceAlpha" operator="in" result="effect1_backgroundBlur_1881_1299"/>
<feBlend mode="normal" in="SourceGraphic" in2="effect1_backgroundBlur_1881_1299" result="shape"/>
</filter>
<filter id="filter1_d_1881_1299" x="9" y="9.13672" width="46" height="46" filterUnits="userSpaceOnUse" color-interpolation-filters="sRGB">
<feFlood flood-opacity="0" result="BackgroundImageFix"/>
<feColorMatrix in="SourceAlpha" type="matrix" values="0 0 0 0 0 0 0 0 0 0 0 0 0 0 0 0 0 0 127 0" result="hardAlpha"/>
<feMorphology radius="1" operator="dilate" in="SourceAlpha" result="effect1_dropShadow_1881_1299"/>
<feOffset/>
<feComposite in2="hardAlpha" operator="out"/>
<feColorMatrix type="matrix" values="0 0 0 0 0.176471 0 0 0 0 0.180392 0 0 0 0 0.282353 0 0 0 1 0"/>
<feBlend mode="normal" in2="BackgroundImageFix" result="effect1_dropShadow_1881_1299"/>
<feBlend mode="normal" in="SourceGraphic" in2="effect1_dropShadow_1881_1299" result="shape"/>
</filter>
<filter id="filter2_f_1881_1299" x="10.3668" y="9.50352" width="47.2" height="47.2" filterUnits="userSpaceOnUse" color-interpolation-filters="sRGB">
<feFlood flood-opacity="0" result="BackgroundImageFix"/>
<feBlend mode="normal" in="SourceGraphic" in2="BackgroundImageFix" result="shape"/>
<feGaussianBlur stdDeviation="8.8" result="effect1_foregroundBlur_1881_1299"/>
</filter>
<linearGradient id="paint0_linear_1881_1299" x1="110.5" y1="0.136716" x2="123.293" y2="48.0679" gradientUnits="userSpaceOnUse">
<stop stop-color="#1B1C36"/>
<stop offset="1" stop-color="#70717A"/>
</linearGradient>
<linearGradient id="paint1_linear_1881_1299" x1="221" y1="60.2343" x2="27.6" y2="-40.2773" gradientUnits="userSpaceOnUse">
<stop stop-color="white" stop-opacity="0.07"/>
<stop offset="1" stop-color="white" stop-opacity="0.15"/>
</linearGradient>
<clipPath id="clip0_1881_1299">
<rect x="10" y="10.1367" width="44" height="44" rx="12" fill="white"/>
</clipPath>
</defs>
</svg>
