<svg width="1271" height="1309" viewBox="0 0 1271 1309" fill="none" xmlns="http://www.w3.org/2000/svg">
<circle opacity="0.05" cx="635" cy="684.5" r="623.5" stroke="#CAC6DD"/>
<circle opacity="0.1" cx="635" cy="684.5" r="526.5" stroke="#CAC6DD"/>
<circle opacity="0.1" cx="635" cy="684.5" r="410.5" stroke="#CAC6DD"/>
<circle opacity="0.1" cx="635" cy="684.5" r="288.5" stroke="#CAC6DD"/>
<g opacity="0.6" filter="url(#filter0_f_1359_339)">
<g clip-path="url(#clip0_1359_339)">
<path d="M1015 256H256V1015H1015V256Z" fill="black"/>
<path d="M1015 256H256V1015H1015V256Z" fill="#907CFF" fill-opacity="0.387813"/>
<mask id="mask0_1359_339" style="mask-type:luminance" maskUnits="userSpaceOnUse" x="256" y="256" width="759" height="759">
<path d="M1015 256H256V1015H1015V256Z" fill="white"/>
</mask>
<g mask="url(#mask0_1359_339)">
<g opacity="0.6">
<g filter="url(#filter1_f_1359_339)">
<path d="M897.355 383.607H304.386V854.661H897.355V383.607Z" fill="#0E35E3"/>
<path d="M981.319 282.091H452.866V687.681H981.319V282.091Z" fill="#DA24BB"/>
<path d="M1192.42 326.208H607.037V770.697H1192.42V326.208Z" fill="#DA24BB"/>
<path d="M934.356 621.269H518.33V1016.9H934.356V621.269Z" fill="#0E35E3"/>
</g>
</g>
</g>
</g>
</g>
<defs>
<filter id="filter0_f_1359_339" x="0" y="0" width="1271" height="1271" filterUnits="userSpaceOnUse" color-interpolation-filters="sRGB">
<feFlood flood-opacity="0" result="BackgroundImageFix"/>
<feBlend mode="normal" in="SourceGraphic" in2="BackgroundImageFix" result="shape"/>
<feGaussianBlur stdDeviation="128" result="effect1_foregroundBlur_1359_339"/>
</filter>
<filter id="filter1_f_1359_339" x="21.5737" y="-0.721863" width="1453.65" height="1300.43" filterUnits="userSpaceOnUse" color-interpolation-filters="sRGB">
<feFlood flood-opacity="0" result="BackgroundImageFix"/>
<feBlend mode="normal" in="SourceGraphic" in2="BackgroundImageFix" result="shape"/>
<feGaussianBlur stdDeviation="141.406" result="effect1_foregroundBlur_1359_339"/>
</filter>
<clipPath id="clip0_1359_339">
<rect x="256" y="256" width="759" height="759" rx="104" fill="white"/>
</clipPath>
</defs>
</svg>
