<svg width="1443" height="1443" viewBox="0 0 1443 1443" fill="none" xmlns="http://www.w3.org/2000/svg">
<g opacity="0.6" filter="url(#filter0_f_1359_322)">
<g clip-path="url(#clip0_1359_322)">
<path d="M1187 256H256V1187H1187V256Z" fill="black"/>
<path d="M1187 256H256V1187H1187V256Z" fill="#907CFF" fill-opacity="0.387813"/>
<mask id="mask0_1359_322" style="mask-type:luminance" maskUnits="userSpaceOnUse" x="256" y="256" width="931" height="931">
<path d="M1187 256H256V1187H1187V256Z" fill="white"/>
</mask>
<g mask="url(#mask0_1359_322)">
<g opacity="0.6">
<g filter="url(#filter1_f_1359_322)">
<path d="M1042.69 412.524H315.351V990.326H1042.69V412.524Z" fill="#0E35E3"/>
<path d="M1145.69 288.003H497.478V785.506H1145.69V288.003Z" fill="#DA24BB"/>
<path d="M1404.62 342.117H686.587V887.334H1404.62V342.117Z" fill="#DA24BB"/>
<path d="M1088.08 704.043H577.777V1189.33H1088.08V704.043Z" fill="#0E35E3"/>
</g>
</g>
</g>
</g>
</g>
<defs>
<filter id="filter0_f_1359_322" x="0" y="0" width="1443" height="1443" filterUnits="userSpaceOnUse" color-interpolation-filters="sRGB">
<feFlood flood-opacity="0" result="BackgroundImageFix"/>
<feBlend mode="normal" in="SourceGraphic" in2="BackgroundImageFix" result="shape"/>
<feGaussianBlur stdDeviation="128" result="effect1_foregroundBlur_1359_322"/>
</filter>
<filter id="filter1_f_1359_322" x="32.5386" y="5.19043" width="1654.9" height="1466.95" filterUnits="userSpaceOnUse" color-interpolation-filters="sRGB">
<feFlood flood-opacity="0" result="BackgroundImageFix"/>
<feBlend mode="normal" in="SourceGraphic" in2="BackgroundImageFix" result="shape"/>
<feGaussianBlur stdDeviation="141.406" result="effect1_foregroundBlur_1359_322"/>
</filter>
<clipPath id="clip0_1359_322">
<rect x="256" y="256" width="931" height="931" rx="104" fill="white"/>
</clipPath>
</defs>
</svg>
