<svg width="430" height="348" viewBox="0 0 430 348" fill="none" xmlns="http://www.w3.org/2000/svg">
<g clip-path="url(#clip0_821_617)">
<path opacity="0.15" d="M437.277 339.687C437.277 345.849 329.808 347.082 200.144 347.082C70.4801 347.082 -32.2549 345.849 -32.2549 339.687C-32.2549 333.551 72.8062 333.716 202.47 333.716C332.134 333.743 437.277 333.551 437.277 339.687Z" fill="#231F20"/>
<path d="M341.275 171.245H83.2063C79.8128 171.245 77.0762 168.506 77.0762 165.11V6.19908C77.0762 2.80286 79.8128 0.0639648 83.2063 0.0639648H341.275C344.669 0.0639648 347.405 2.80286 347.405 6.19908V165.137C347.405 168.506 344.641 171.245 341.275 171.245Z" fill="#213267"/>
<path d="M342.534 4.55566H81.9473V162.097H342.534V4.55566Z" fill="#224192"/>
<path d="M134.711 155.168H91.827C90.6229 155.168 89.6377 154.182 89.6377 152.976V11.6496C89.6377 10.4445 90.6229 9.4585 91.827 9.4585H134.711C135.915 9.4585 136.9 10.4445 136.9 11.6496V152.976C136.9 154.182 135.942 155.168 134.711 155.168Z" fill="#2D4C9D"/>
<path d="M115.116 22.304H96.3698C95.9593 22.304 95.6035 21.9479 95.6035 21.5371V19.9485C95.6035 19.5377 95.9593 19.1816 96.3698 19.1816H115.116C115.554 19.1816 115.882 19.5377 115.882 19.9485V21.5371C115.882 21.9479 115.554 22.304 115.116 22.304Z" fill="white"/>
<path d="M125.187 29.4251H96.3971C95.9866 29.4251 95.6309 29.069 95.6309 28.6582V27.0696C95.6309 26.6314 95.9866 26.3027 96.3971 26.3027H125.214C125.625 26.3027 125.981 26.6588 125.981 27.0696V28.6582C125.953 29.069 125.625 29.4251 125.187 29.4251Z" fill="white"/>
<path d="M119.96 36.5462H96.3698C95.9593 36.5462 95.6035 36.1901 95.6035 35.7793V34.1907C95.6035 33.7525 95.9593 33.4238 96.3698 33.4238H119.96C120.37 33.4238 120.726 33.7799 120.726 34.1907V35.7793C120.726 36.1901 120.398 36.5462 119.96 36.5462Z" fill="white"/>
<path d="M107.481 43.6399H96.315C95.9319 43.6399 95.6309 43.3386 95.6309 42.9552V41.2023C95.6309 40.8189 95.9319 40.5176 96.315 40.5176H107.481C107.864 40.5176 108.165 40.8189 108.165 41.2023V42.9552C108.165 43.3386 107.864 43.6399 107.481 43.6399Z" fill="white"/>
<path d="M111.558 50.761H96.3971C95.9866 50.761 95.6309 50.405 95.6309 49.9941V48.4056C95.6309 47.9947 95.9866 47.6387 96.3971 47.6387H111.558C111.969 47.6387 112.325 47.9947 112.325 48.4056V49.9941C112.325 50.4323 111.969 50.761 111.558 50.761Z" fill="white"/>
<path d="M118.427 57.8821H96.3698C95.9319 57.8821 95.6035 57.526 95.6035 57.1152V55.5267C95.6035 55.0884 95.9593 54.7598 96.3698 54.7598H118.427C118.865 54.7598 119.194 55.1158 119.194 55.5267V57.1152C119.194 57.5534 118.865 57.8821 118.427 57.8821Z" fill="white"/>
<path d="M111.558 65.0032H96.3971C95.9866 65.0032 95.6309 64.6471 95.6309 64.2363V62.6477C95.6309 62.2095 95.9866 61.8809 96.3971 61.8809H111.558C111.969 61.8809 112.325 62.2369 112.325 62.6477V64.2363C112.325 64.6471 111.969 65.0032 111.558 65.0032Z" fill="white"/>
<path d="M126.09 72.1243H96.3971C95.9866 72.1243 95.6309 71.7682 95.6309 71.3574V69.7688C95.6309 69.3306 95.9866 69.002 96.3971 69.002H126.09C126.501 69.002 126.856 69.358 126.856 69.7688V71.3574C126.856 71.7682 126.501 72.1243 126.09 72.1243Z" fill="white"/>
<path d="M115.253 79.2454H96.3971C95.9866 79.2454 95.6309 78.8893 95.6309 78.4785V76.8899C95.6309 76.4517 95.9866 76.123 96.3971 76.123H115.253C115.663 76.123 116.019 76.4791 116.019 76.8899V78.4785C116.019 78.8893 115.663 79.2454 115.253 79.2454Z" fill="white"/>
<path d="M126.856 86.3665H96.3971C95.9866 86.3665 95.6309 86.0104 95.6309 85.5996V84.011C95.6309 83.6002 95.9866 83.2441 96.3971 83.2441H126.856C127.267 83.2441 127.623 83.6002 127.623 84.011V85.5996C127.623 86.0104 127.267 86.3665 126.856 86.3665Z" fill="white"/>
<path d="M117.169 93.4602H96.3971C95.9866 93.4602 95.6309 93.1042 95.6309 92.6933V91.1048C95.6309 90.6939 95.9866 90.3379 96.3971 90.3379H117.169C117.579 90.3379 117.935 90.6939 117.935 91.1048V92.6933C117.935 93.1316 117.579 93.4602 117.169 93.4602Z" fill="white"/>
<path d="M108.165 100.581H96.3424C95.9593 100.581 95.6309 100.253 95.6309 99.8692V98.1711C95.6309 97.7877 95.9593 97.459 96.3424 97.459H108.165C108.548 97.459 108.876 97.7877 108.876 98.1711V99.8692C108.876 100.28 108.548 100.581 108.165 100.581Z" fill="white"/>
<path d="M181.891 22.304H149.27C148.86 22.304 148.504 21.9479 148.504 21.5371V19.9485C148.504 19.5377 148.86 19.1816 149.27 19.1816H181.919C182.329 19.1816 182.685 19.5377 182.685 19.9485V21.5371C182.658 21.9479 182.329 22.304 181.891 22.304Z" fill="white"/>
<path d="M169.275 28.4666H148.613C148.175 28.4666 147.847 28.1106 147.847 27.6997V26.0838C147.847 25.673 148.202 25.3169 148.613 25.3169H169.275C169.685 25.3169 170.041 25.673 170.041 26.0838V27.6723C170.041 28.1106 169.685 28.4666 169.275 28.4666Z" fill="white"/>
<path d="M179.345 35.3411H158.683C158.273 35.3411 157.917 34.985 157.917 34.5742V32.9856C157.917 32.5748 158.273 32.2188 158.683 32.2188H179.345C179.756 32.2188 180.111 32.5748 180.111 32.9856V34.5742C180.111 34.985 179.783 35.3411 179.345 35.3411Z" fill="white"/>
<path d="M196.313 41.6131H168.891C168.481 41.6131 168.125 41.257 168.125 40.8462V39.2303C168.125 38.8194 168.481 38.4634 168.891 38.4634H196.313C196.723 38.4634 197.079 38.8194 197.079 39.2303V40.8188C197.079 41.257 196.723 41.6131 196.313 41.6131Z" fill="white"/>
<path d="M190.183 47.8855H168.508C168.071 47.8855 167.742 47.5295 167.742 47.1186V45.5301C167.742 45.1192 168.098 44.7632 168.508 44.7632H190.183C190.593 44.7632 190.949 45.1192 190.949 45.5301V47.1186C190.949 47.5295 190.621 47.8855 190.183 47.8855Z" fill="white"/>
<path d="M181.836 67.0574H158.191C157.781 67.0574 157.425 66.7013 157.425 66.2905V64.7019C157.425 64.2911 157.781 63.9351 158.191 63.9351H181.836C182.246 63.9351 182.602 64.2911 182.602 64.7019V66.2905C182.602 66.7013 182.246 67.0574 181.836 67.0574Z" fill="white"/>
<path d="M198.667 80.0945H179.099C178.689 80.0945 178.333 79.7384 178.333 79.3276V77.7391C178.333 77.3008 178.689 76.9722 179.099 76.9722H198.667C199.077 76.9722 199.433 77.3282 199.433 77.7391V79.3276C199.433 79.7384 199.077 80.0945 198.667 80.0945Z" fill="white"/>
<path d="M210.544 86.5857H188.706C188.295 86.5857 187.939 86.2297 187.939 85.8188V84.2303C187.939 83.8194 188.295 83.4634 188.706 83.4634H210.544C210.955 83.4634 211.311 83.8194 211.311 84.2303V85.8188C211.311 86.257 210.982 86.5857 210.544 86.5857Z" fill="#9D79B5"/>
<path d="M200.61 99.6228H178.771C178.361 99.6228 178.005 99.2668 178.005 98.8559V97.2674C178.005 96.8565 178.361 96.5005 178.771 96.5005H200.61C201.02 96.5005 201.376 96.8565 201.376 97.2674V98.8559C201.376 99.2942 201.02 99.6228 200.61 99.6228Z" fill="white"/>
<path d="M195.027 112.66H169.193C168.783 112.66 168.427 112.304 168.427 111.893V110.304C168.427 109.894 168.783 109.538 169.193 109.538H195.027C195.438 109.538 195.794 109.894 195.794 110.304V111.893C195.794 112.304 195.465 112.66 195.027 112.66Z" fill="white"/>
<path d="M226.39 112.66H200.555C200.145 112.66 199.789 112.304 199.789 111.893V110.304C199.789 109.894 200.145 109.538 200.555 109.538H226.39C226.8 109.538 227.156 109.894 227.156 110.304V111.893C227.156 112.304 226.827 112.66 226.39 112.66Z" fill="#F48E8E"/>
<path d="M264.539 112.66H231.945C231.534 112.66 231.179 112.304 231.179 111.893V110.304C231.179 109.894 231.534 109.538 231.945 109.538H264.539C264.949 109.538 265.305 109.894 265.305 110.304V111.893C265.305 112.304 264.949 112.66 264.539 112.66Z" fill="#9D79B5"/>
<path d="M217.03 93.1043H188.513C188.103 93.1043 187.747 92.7482 187.747 92.3374V90.7488C187.747 90.3106 188.103 89.9819 188.513 89.9819H217.03C217.44 89.9819 217.796 90.338 217.796 90.7488V92.3374C217.796 92.7756 217.44 93.1043 217.03 93.1043Z" fill="white"/>
<path d="M296.668 93.1043H235.174C234.764 93.1043 234.408 92.7482 234.408 92.3374V90.7488C234.408 90.3106 234.764 89.9819 235.174 89.9819H296.64C297.051 89.9819 297.407 90.338 297.407 90.7488V92.3374C297.434 92.7756 297.078 93.1043 296.668 93.1043Z" fill="white"/>
<path d="M272.776 86.5857H250.937C250.499 86.5857 250.171 86.2297 250.171 85.8188V84.2303C250.171 83.8194 250.527 83.4634 250.937 83.4634H272.776C273.186 83.4634 273.542 83.8194 273.542 84.2303V85.8188C273.542 86.257 273.186 86.5857 272.776 86.5857Z" fill="#9D79B5"/>
<path d="M247.599 86.5857H215.716C215.306 86.5857 214.95 86.2297 214.95 85.8188V84.2303C214.95 83.792 215.306 83.4634 215.716 83.4634H247.599C248.009 83.4634 248.365 83.8194 248.365 84.2303V85.8188C248.365 86.257 248.037 86.5857 247.599 86.5857Z" fill="#F48E8E"/>
<path d="M253.756 80.0945H234.189C233.779 80.0945 233.423 79.7384 233.423 79.3276V77.7391C233.423 77.3282 233.779 76.9722 234.189 76.9722H253.756C254.167 76.9722 254.523 77.3282 254.523 77.7391V79.3276C254.523 79.7384 254.167 80.0945 253.756 80.0945Z" fill="white"/>
<path d="M227.155 80.0945H204.715C204.304 80.0945 203.948 79.7384 203.948 79.3276V77.7391C203.948 77.3282 204.304 76.9722 204.715 76.9722H227.155C227.566 76.9722 227.922 77.3282 227.922 77.7391V79.3276C227.922 79.7384 227.593 80.0945 227.155 80.0945Z" fill="#F48E8E"/>
<path d="M206.247 73.5759H168.645C168.235 73.5759 167.879 73.2199 167.879 72.8091V71.2205C167.879 70.8097 168.235 70.4536 168.645 70.4536H206.247C206.685 70.4536 207.013 70.8097 207.013 71.2205V72.8091C207.013 73.2199 206.685 73.5759 206.247 73.5759Z" fill="white"/>
<path d="M222.312 73.576H212.514C212.158 73.576 211.857 73.2747 211.857 72.9187V71.0836C211.857 70.7275 212.158 70.4263 212.514 70.4263H222.312C222.667 70.4263 222.968 70.7275 222.968 71.0836V72.9187C222.968 73.2747 222.667 73.576 222.312 73.576Z" fill="#1D9BC2"/>
<path d="M183.041 106.141H169.275C168.865 106.141 168.509 105.785 168.509 105.374V103.786C168.509 103.375 168.865 103.019 169.275 103.019H183.041C183.451 103.019 183.807 103.375 183.807 103.786V105.374C183.807 105.785 183.478 106.141 183.041 106.141Z" fill="white"/>
<path d="M195.027 118.329H178.744C178.333 118.329 177.978 117.973 177.978 117.562V115.974C177.978 115.563 178.333 115.207 178.744 115.207H195.027C195.438 115.207 195.793 115.563 195.793 115.974V117.562C195.793 117.973 195.465 118.329 195.027 118.329Z" fill="white"/>
<path d="M184.573 124.848H169.193C168.783 124.848 168.427 124.492 168.427 124.081V122.492C168.427 122.054 168.783 121.726 169.193 121.726H184.573C184.984 121.726 185.339 122.082 185.339 122.492V124.081C185.339 124.492 185.011 124.848 184.573 124.848Z" fill="white"/>
<path d="M183.861 131.339H168.481C168.071 131.339 167.715 130.983 167.715 130.572V128.984C167.715 128.573 168.071 128.217 168.481 128.217H183.861C184.272 128.217 184.628 128.573 184.628 128.984V130.572C184.628 131.01 184.272 131.339 183.861 131.339Z" fill="white"/>
<path d="M201.404 137.748H178.744C178.333 137.748 177.978 137.392 177.978 136.981V135.366C177.978 134.955 178.333 134.599 178.744 134.599H201.404C201.814 134.599 202.17 134.955 202.17 135.366V136.954C202.17 137.392 201.841 137.748 201.404 137.748Z" fill="white"/>
<path d="M239.909 144.13H178.771C178.361 144.13 178.005 143.774 178.005 143.363V141.774C178.005 141.363 178.361 141.007 178.771 141.007H239.936C240.346 141.007 240.702 141.363 240.702 141.774V143.363C240.675 143.801 240.346 144.13 239.909 144.13Z" fill="white"/>
<path d="M207.917 137.748H237.746C238.157 137.748 238.513 137.392 238.513 136.981V135.366C238.513 134.955 238.157 134.599 237.746 134.599H207.917C207.506 134.599 207.15 134.955 207.15 135.366V136.954C207.15 137.392 207.506 137.748 207.917 137.748Z" fill="#F48E8E"/>
<path d="M254.331 144.13H296.64C297.05 144.13 297.406 143.774 297.406 143.363V141.774C297.406 141.363 297.05 141.007 296.64 141.007H254.331C253.92 141.007 253.564 141.363 253.564 141.774V143.363C253.564 143.801 253.92 144.13 254.331 144.13Z" fill="white"/>
<path d="M243.248 137.748H259.695C260.106 137.748 260.461 137.392 260.461 136.981V135.366C260.461 134.955 260.106 134.599 259.695 134.599H243.248C242.81 134.599 242.481 134.955 242.481 135.366V136.954C242.481 137.392 242.81 137.748 243.248 137.748Z" fill="#FBF393"/>
<path d="M217.085 131.339H190.429C190.019 131.339 189.663 130.983 189.663 130.572V128.984C189.663 128.573 190.019 128.217 190.429 128.217H217.085C217.522 128.217 217.851 128.573 217.851 128.984V130.572C217.851 131.01 217.522 131.339 217.085 131.339Z" fill="#F48E8E"/>
<path d="M241.714 131.339H222.092C221.682 131.339 221.326 130.983 221.326 130.572V128.984C221.326 128.573 221.682 128.217 222.092 128.217H241.714C242.125 128.217 242.481 128.573 242.481 128.984V130.572C242.481 131.01 242.125 131.339 241.714 131.339Z" fill="#2BB99B"/>
<path d="M257.916 131.339H249.241C248.912 131.339 248.611 131.065 248.611 130.709V128.819C248.611 128.491 248.885 128.189 249.241 128.189H257.916C258.244 128.189 258.545 128.463 258.545 128.819V130.709C258.545 131.065 258.272 131.339 257.916 131.339Z" fill="#1D9BC2"/>
<path d="M295.764 118.329H201.458C200.555 118.329 199.789 117.617 199.789 116.768C199.789 115.892 200.528 115.207 201.458 115.207H295.764C296.667 115.207 297.434 115.919 297.434 116.768C297.434 117.617 296.695 118.329 295.764 118.329Z" fill="white"/>
<path d="M267.467 80.0945H259.065C258.655 80.0945 258.299 79.7384 258.299 79.3276V77.7391C258.299 77.3282 258.655 76.9722 259.065 76.9722H267.467C267.877 76.9722 268.233 77.3282 268.233 77.7391V79.3276C268.233 79.7384 267.877 80.0945 267.467 80.0945Z" fill="#1D9BC2"/>
<path d="M230.357 93.1043H221.956C221.518 93.1043 221.189 92.7482 221.189 92.3374V90.7488C221.189 90.3106 221.545 89.9819 221.956 89.9819H230.357C230.768 89.9819 231.124 90.338 231.124 90.7488V92.3374C231.124 92.7756 230.768 93.1043 230.357 93.1043Z" fill="white"/>
<path d="M286.623 86.5857H278.769C278.331 86.5857 278.003 86.2297 278.003 85.8188V84.2303C278.003 83.8194 278.359 83.4634 278.769 83.4634H286.623C287.034 83.4634 287.39 83.8194 287.39 84.2303V85.8188C287.39 86.257 287.061 86.5857 286.623 86.5857Z" fill="#1D9BC2"/>
<path d="M245.793 67.0574H189.8C189.39 67.0574 189.034 66.7013 189.034 66.2905V64.7019C189.034 64.2911 189.39 63.9351 189.8 63.9351H245.793C246.203 63.9351 246.559 64.2911 246.559 64.7019V66.2905C246.559 66.7013 246.203 67.0574 245.793 67.0574Z" fill="white"/>
<path d="M173.352 61.032H158.191C157.781 61.032 157.425 60.676 157.425 60.2651V58.6766C157.425 58.2657 157.781 57.9097 158.191 57.9097H173.352C173.763 57.9097 174.119 58.2657 174.119 58.6766V60.2651C174.119 60.676 173.79 61.032 173.352 61.032Z" fill="white"/>
<path d="M268.589 47.8851H259.038C258.682 47.8851 258.381 47.5838 258.381 47.2277V45.3927C258.381 45.0366 258.682 44.7354 259.038 44.7354H268.589C268.944 44.7354 269.245 45.0366 269.245 45.3927V47.2277C269.245 47.5838 268.972 47.8851 268.589 47.8851Z" fill="#F7F081"/>
<path d="M296.53 28.4666H286.979C286.623 28.4666 286.322 28.1653 286.322 27.8093V25.9742C286.322 25.6182 286.623 25.3169 286.979 25.3169H296.53C296.886 25.3169 297.187 25.6182 297.187 25.9742V27.8093C297.187 28.1653 296.886 28.4666 296.53 28.4666Z" fill="#2BB99B"/>
<path d="M297.16 47.8855H272.174C271.737 47.8855 271.408 47.5295 271.408 47.1186V45.5301C271.408 45.1192 271.764 44.7632 272.174 44.7632H297.16C297.571 44.7632 297.927 45.1192 297.927 45.5301V47.1186C297.927 47.5295 297.598 47.8855 297.16 47.8855Z" fill="#F48E8E"/>
<path d="M253.181 47.885H197.845C197.435 47.885 197.079 47.529 197.079 47.1181V45.5296C197.079 45.1188 197.435 44.7627 197.845 44.7627H253.181C253.592 44.7627 253.947 45.1188 253.947 45.5296V47.1181C253.947 47.529 253.592 47.885 253.181 47.885Z" fill="#F48E8E"/>
<path d="M227.155 54.1575H168.645C168.235 54.1575 167.879 53.8014 167.879 53.3906V51.802C167.879 51.3912 168.235 51.0352 168.645 51.0352H227.155C227.566 51.0352 227.922 51.3912 227.922 51.802V53.3906C227.922 53.8014 227.593 54.1575 227.155 54.1575Z" fill="white"/>
<path d="M221.682 41.6131H202.443C202.005 41.6131 201.677 41.257 201.677 40.8462V39.2303C201.677 38.792 202.033 38.4634 202.443 38.4634H221.682C222.092 38.4634 222.448 38.8194 222.448 39.2303V40.8188C222.448 41.257 222.12 41.6131 221.682 41.6131Z" fill="#F48E8E"/>
<path d="M243.876 28.4661H179.099C178.689 28.4661 178.333 28.1101 178.333 27.6992V26.0833C178.333 25.6725 178.689 25.3164 179.099 25.3164H243.876C244.287 25.3164 244.643 25.6725 244.643 26.0833V27.6719C244.643 28.1101 244.287 28.4661 243.876 28.4661Z" fill="#F48E8E"/>
<path d="M271.791 28.4666H251.649C251.211 28.4666 250.883 28.1106 250.883 27.6997V26.0838C250.883 25.673 251.239 25.3169 251.649 25.3169H271.791C272.202 25.3169 272.557 25.673 272.557 26.0838V27.6723C272.557 28.1106 272.229 28.4666 271.791 28.4666Z" fill="white"/>
<path d="M88.8987 166.616C88.8987 167.301 88.324 167.848 87.5851 167.848C86.8736 167.848 86.2715 167.301 86.2715 166.616C86.2715 165.931 86.8462 165.383 87.5851 165.383C88.324 165.383 88.8987 165.931 88.8987 166.616Z" fill="white"/>
<path d="M93.3049 166.616C93.3049 167.301 92.7302 167.848 91.9913 167.848C91.2798 167.848 90.6777 167.301 90.6777 166.616C90.6777 165.931 91.2524 165.383 91.9913 165.383C92.7029 165.383 93.3049 165.931 93.3049 166.616Z" fill="white"/>
<path d="M97.6838 166.616C97.6838 167.301 97.1091 167.848 96.3702 167.848C95.6587 167.848 95.0566 167.301 95.0566 166.616C95.0566 165.931 95.6313 165.383 96.3702 165.383C97.1091 165.383 97.6838 165.931 97.6838 166.616Z" fill="white"/>
<path d="M367.793 106.799H326.989C325.319 106.799 323.979 105.457 323.979 103.786V67.523C323.979 65.8523 325.319 64.5103 326.989 64.5103H367.793C369.462 64.5103 370.803 65.8523 370.803 67.523V103.786C370.803 105.457 369.462 106.799 367.793 106.799Z" fill="#1375B7"/>
<path d="M366.069 104.745H326.879C325.292 104.745 324.006 103.457 324.006 101.869V67.3861C324.006 65.7975 325.292 64.5103 326.879 64.5103H366.069C367.656 64.5103 368.942 65.7975 368.942 67.3861V101.841C368.942 103.43 367.656 104.745 366.069 104.745Z" fill="white"/>
<path d="M355.122 83.1348L350.935 90.5298L342.259 75.1099L324.006 102.389C324.143 103.841 325.347 105.019 326.852 105.019H366.041C367.629 105.019 368.942 103.731 368.942 102.115V98.0618L355.122 83.1348Z" fill="#3885C6"/>
<path d="M362.347 74.0961C362.347 76.0407 360.787 77.6019 358.844 77.6019C356.901 77.6019 355.341 76.0407 355.341 74.0961C355.341 72.1515 356.901 70.5903 358.844 70.5903C360.787 70.6177 362.347 72.1789 362.347 74.0961Z" fill="#3885C6"/>
<path d="M92.9481 135.283H54.1968C52.6095 135.283 51.3232 133.996 51.3232 132.407V97.9794C51.3232 96.3908 52.6095 95.1035 54.1968 95.1035H92.9481C94.5354 95.1035 95.8216 96.3908 95.8216 97.9794V132.407C95.7943 133.996 94.508 135.283 92.9481 135.283Z" fill="#1375B7"/>
<path d="M91.2788 133.311H54.0599C52.5547 133.311 51.3232 132.079 51.3232 130.572V97.8424C51.3232 96.336 52.5547 95.1035 54.0599 95.1035H91.2788C92.7839 95.1035 94.0154 96.336 94.0154 97.8424V130.572C94.0154 132.079 92.8113 133.311 91.2788 133.311Z" fill="white"/>
<path d="M80.9067 112.797L76.9385 119.836L68.7011 105.183L51.3779 131.065C51.5148 132.462 52.6368 133.558 54.0599 133.558H91.2787C92.7839 133.558 94.0154 132.325 94.0154 130.819V126.984L80.9067 112.797Z" fill="#3885C6"/>
<path d="M87.7761 104.224C87.7761 106.059 86.2983 107.538 84.4647 107.538C82.6311 107.538 81.1533 106.059 81.1533 104.224C81.1533 102.389 82.6311 100.91 84.4647 100.91C86.2983 100.91 87.7761 102.389 87.7761 104.224Z" fill="#3885C6"/>
<path d="M385.855 313.064C385.855 313.064 387.032 306.409 385.882 302.164C384.76 297.918 391.411 294.988 386.703 289.921C386.703 289.921 386.758 293.399 382.899 292.167C382.899 292.167 385.664 284.032 378.028 280.554C378.028 280.554 380.929 289.4 376.934 288.524C372.938 287.647 377.371 281.731 372.582 279.075C367.766 276.418 362.785 278.582 366.507 285.018C370.229 291.455 369.572 292.851 363.195 290.14C363.195 290.14 362.155 295.125 366.096 298.74C370.01 302.328 381.285 313.393 385.855 313.064Z" fill="#82B146"/>
<path d="M384.268 314.68C384.268 314.68 384.788 304.136 388.127 298.658C391.466 293.18 387.771 288.524 385.5 287.1C383.228 285.676 389.495 269.544 385.527 269.215C381.559 268.886 375.1 268.503 377.755 279.157C380.409 289.811 382.325 288.551 381.148 298.877C379.999 309.203 380.683 313.914 384.268 314.68Z" fill="#7E9E3E"/>
<path d="M381.559 314.023C381.559 314.023 388.619 306.464 391.164 293.837C393.709 281.211 403.644 289.647 400.305 296.686C396.939 303.725 393.272 314.27 381.559 314.023Z" fill="#82B146"/>
<path d="M368.477 317.72H400.359C400.66 317.72 400.879 317.474 400.879 317.2V310.106C400.879 309.805 400.633 309.586 400.359 309.586H368.477C368.176 309.586 367.957 309.832 367.957 310.106V317.2C367.957 317.474 368.176 317.72 368.477 317.72Z" fill="#D0D1E9"/>
<path d="M393.162 337.166L397.568 317.72H371.269L376.222 337.166H393.162Z" fill="#D0D1E9"/>
<path d="M378.22 335.906C380.655 336.372 392.806 337.276 392.806 337.276H376.222L371.269 317.802H391.903C391.903 317.802 373.348 318.925 373.896 320.432C374.443 321.938 375.784 335.413 378.22 335.906Z" fill="#A7A7D3"/>
<path d="M234.899 164.726C235.967 161.85 230.138 159.741 230.138 159.741C230.138 159.741 231.889 157.112 233.339 155.112C234.79 153.086 233.203 153.579 233.203 153.579C228.468 156.482 223.515 161.823 223.57 164.808C223.624 167.794 221.024 170.149 221.024 170.149L225.95 173.682C225.95 173.682 229.891 169.766 230.685 168.862C231.479 167.985 233.832 167.602 234.899 164.726Z" fill="#FCC596"/>
<path d="M220.997 168.122L222.639 165.521C222.639 165.521 227.729 168.369 229.125 172.313L226.58 174.038L220.997 168.122Z" fill="#F8E8D8"/>
<path d="M192.563 156.619C193.548 158.783 203.072 181.844 203.072 181.844C203.072 181.844 205.754 178.886 205.535 181.844L220.587 166.397C220.587 166.397 227.51 168.752 228.085 174.86C228.085 174.86 209.394 200.578 202.607 201.29C195.82 201.975 189.662 182.885 189.662 182.885L192.563 156.619Z" fill="#3E3533"/>
<path d="M192.563 156.619C193.548 158.783 203.072 181.844 203.072 181.844C203.072 181.844 205.754 178.886 205.535 181.844L220.587 166.397C220.587 166.397 227.51 168.752 228.085 174.86C228.085 174.86 209.394 200.578 202.607 201.29C195.82 201.975 189.662 182.885 189.662 182.885L192.563 156.619Z" fill="#4484E0"/>
<path d="M159.038 330.265L160.215 323.746L167.44 324.842L167.056 330.949C167.056 330.949 165.688 333.688 161.911 333.743C158.107 333.825 159.038 330.265 159.038 330.265Z" fill="#3F4752"/>
<path d="M191.222 326.129L191.003 331.415L192.371 334.866L198.337 332.922L199.623 328.978L200.061 322.87L191.222 326.129Z" fill="#3F4752"/>
<path d="M213.389 335.113C211.556 334.154 205.672 332.347 201.567 328.978C201.102 328.622 200.527 328.485 199.952 328.567C199.952 328.567 199.651 328.622 199.624 328.622C199.624 328.622 199.077 331.47 196.066 332.456C194.014 333.141 190.976 331.361 190.976 331.361L190.429 338.865H213.937C214.429 338.619 214.566 338.098 214.566 338.098C214.566 338.098 215.743 336.346 213.389 335.113Z" fill="#2D313D"/>
<path d="M192.371 206.659C192.371 206.659 196.011 254.315 196.367 258.67C196.722 262.998 201.156 327.526 201.156 327.526C195.6 329.772 189.607 328.046 189.607 328.046L179.892 262.998L173.488 228.296L171.326 227.693C171.326 227.693 170.587 269.927 170.587 269.708C170.56 269.489 169.657 326.403 169.657 326.403C164.265 329.197 156.794 326.184 156.794 326.184C156.794 326.184 154.468 270.968 153.811 267.736C153.154 264.504 152.99 202.578 152.99 202.578L192.371 206.659Z" fill="#3F4752"/>
<path d="M193.466 219.121C185.529 221.86 167.577 225.968 152.963 219.97C152.935 216.218 152.99 211.233 152.99 208.576L192.809 212.055C193 214.383 193.219 215.916 193.466 219.121Z" fill="#2D4F9F"/>
<path d="M191.085 202.358C190.784 201.236 190.538 200.523 190.538 200.523L155.371 201.975C155.371 201.975 155.235 202.687 155.043 203.92C155.207 204.166 155.371 204.33 155.371 204.33C171.053 210.739 182.41 210.739 191.085 202.358Z" fill="#330E00"/>
<path d="M147.6 172.423L153.757 195.073L150.637 216.245C150.637 216.245 176.472 228.022 193.932 216.628L192.372 168.123L147.6 172.423Z" fill="#346ED8"/>
<path d="M186.734 152.538C188.13 153.113 197.626 155.715 192.372 168.123L190.757 201.592C190.757 201.592 192.536 206.741 191.414 207.836C182.739 216.245 171.382 216.245 155.673 209.836C155.673 209.836 154.852 208.768 154.743 208.357C154.168 206.084 156.084 199.729 156.084 199.729L147.299 172.423C147.299 172.423 138.651 160.645 144.371 156.373C153.374 149.635 171.956 146.321 186.734 152.538Z" fill="#4484E0"/>
<path d="M193.931 216.628L193.028 188.363C188.978 193.129 186.597 198.196 184.408 204.057C175.13 199.236 167.03 192.197 160.927 183.707C163.226 189.842 165.497 195.95 167.796 202.085C161.858 195.101 152.498 176.284 146.56 169.328L153.757 195.101L150.637 216.272C150.637 216.272 176.471 228.049 193.931 216.628Z" fill="#346ED8"/>
<path d="M177.73 148.485C177.73 148.485 181.205 148.348 181.835 148.731C182.464 149.115 184.051 153.661 184.353 154.401C184.681 155.113 180.138 159.358 180.138 159.358C180.138 159.358 183.887 165.493 183.723 165.986C183.559 166.479 176.936 193.32 176.936 193.32C176.936 193.32 160.872 169.355 160.543 168.15C160.215 166.972 162.076 160.782 162.076 160.782C162.076 160.782 157.314 157.277 157.04 156.51C156.739 155.743 156.137 150.868 157.04 150.238C157.588 149.854 160.79 149.142 160.79 149.142L177.73 148.485Z" fill="#5E9EEA"/>
<path d="M160.79 150.265C160.79 150.265 165.716 162.974 170.04 174.176C173.461 182.995 177.21 173.765 177.21 173.765L178.277 148.512C178.031 148.485 177.539 148.43 177.32 148.43L160.79 150.265Z" fill="#F8E8D8"/>
<path d="M177.073 156.592C178.058 156.346 178.113 153.278 178.113 153.278L178.305 148.595C178.305 148.567 178.277 148.54 178.277 148.512C178.031 148.485 177.566 148.43 177.347 148.43L162.104 150.128C162.158 150.32 161.556 151.58 161.666 151.936C162.541 154.538 165.388 158.29 165.962 158.372C166.619 158.482 168.343 156.537 168.562 155.88C168.918 156.209 169.52 157.14 169.876 157.469C170.067 162.015 169.903 167.986 169.821 173.518C172.448 180.338 174.911 186.692 175.979 189.431C176.17 189.678 176.362 189.924 176.553 190.171L177.128 176.668C175.404 170.177 173.68 163.658 171.983 157.167C172.53 156.428 173.242 155.853 173.789 155.113C174.665 155.99 175.787 156.592 177.073 156.592Z" fill="url(#paint0_linear_821_617)"/>
<path d="M173.98 151.497C172.338 152.292 168.425 152.593 166.619 152.566C163.964 152.511 165.114 151.087 164.238 150.813L160.215 139.583L171.764 138.871L172.366 139.556L173.98 151.497Z" fill="#D38753"/>
<path d="M177.238 173.792L172.093 156.4L174.337 153.88L170.505 151.525L167.577 154.236L170.314 156.647C170.314 156.647 169.657 164.699 170.068 174.203C173.488 183.022 176.526 190.883 176.526 190.883L177.238 173.792Z" fill="url(#paint1_linear_821_617)"/>
<path d="M162.268 146.567C162.268 146.567 168.836 151.662 170.314 151.415C171.819 151.169 173.872 147.909 173.872 147.909C173.872 147.909 177.621 147.8 178.278 148.539C178.934 149.279 177.621 155.852 176.909 156.208C175.432 156.948 170.998 151.99 170.204 152.62C169.383 153.25 167.112 157.496 166.373 157.386C165.607 157.304 159.614 151.388 159.969 149.197C160.325 147.006 162.268 146.567 162.268 146.567Z" fill="#F8E8D8"/>
<path d="M165.469 331.333C162.623 328.567 160.105 330.895 160.105 330.895L159.038 330.265C157.478 332.675 154.468 335.578 154.085 336.975C153.373 339.659 154.632 342.781 158.847 342.781C162.952 342.781 166.892 340.207 167.33 338.098C167.604 336.838 167.166 333.442 167.029 330.922L165.469 331.333Z" fill="#2D313D"/>
<path d="M179.892 262.998L179.7 261.957C181.807 269.599 184.79 279.897 185.31 279.924C186.159 279.979 194.56 278.582 194.944 277.432C195.108 276.912 195.819 269.16 196.531 260.697C197.407 272.611 201.183 327.526 201.183 327.526C195.628 329.772 189.634 328.047 189.634 328.047L179.892 262.998Z" fill="#2F3740"/>
<path d="M156.794 326.184C156.794 326.184 156.794 326.129 156.794 326.075C156.794 326.047 156.794 326.047 156.794 326.02C156.794 325.965 156.794 325.883 156.794 325.801C156.794 325.554 156.767 325.198 156.739 324.76C156.739 324.65 156.739 324.541 156.712 324.431C156.712 324.24 156.685 323.993 156.685 323.774C156.685 323.692 156.685 323.582 156.685 323.5C156.657 322.98 156.63 322.377 156.602 321.72C156.602 321.61 156.603 321.501 156.575 321.391C156.548 321.008 156.548 320.624 156.52 320.213V320.186C156.493 319.748 156.493 319.31 156.466 318.844C156.466 318.762 156.466 318.707 156.466 318.625C156.411 317.474 156.356 316.215 156.301 314.873C156.301 314.736 156.301 314.599 156.274 314.489C156.165 312.188 156.055 309.696 155.946 307.039C155.946 306.985 155.946 306.957 155.946 306.902C155.891 305.916 155.864 304.903 155.809 303.89C155.809 303.862 155.809 303.835 155.809 303.78C155.426 295.317 154.988 286.059 154.605 279.02V278.993C154.495 277.24 154.413 275.624 154.331 274.173C156.055 275.46 158.956 277.459 160.133 277.432C161.857 277.377 167.659 272.502 168.014 270.338C168.288 268.613 170.259 252.344 171.052 245.907C170.861 257.301 170.642 269.818 170.614 269.708C170.614 269.708 170.614 269.79 170.614 269.927C170.614 269.955 170.614 269.982 170.614 270.037C170.614 270.694 170.587 272.255 170.532 274.446C170.532 274.583 170.532 274.72 170.532 274.83C170.532 275.624 170.505 276.528 170.477 277.459C170.477 277.788 170.477 278.089 170.45 278.445C170.423 279.76 170.395 281.212 170.368 282.745C170.368 282.937 170.368 283.129 170.368 283.32C170.094 300.11 169.684 326.403 169.684 326.403C168.671 326.924 167.577 327.252 166.482 327.417C166.126 327.471 165.743 327.526 165.387 327.554C165.031 327.581 164.648 327.581 164.293 327.608C163.937 327.608 163.581 327.608 163.225 327.581C162.869 327.554 162.541 327.526 162.185 327.499C161.857 327.471 161.529 327.417 161.2 327.362C160.735 327.28 160.27 327.198 159.859 327.115C159.585 327.061 159.312 326.978 159.066 326.924C157.67 326.54 156.794 326.184 156.794 326.184Z" fill="#2F3740"/>
<path d="M175.842 207.097L131.836 210.521L133.998 239.115L178.277 235.006L175.842 207.097Z" fill="#E79355"/>
<path d="M151.458 208.987C152.444 212.821 152.115 216.957 152.252 220.956C152.416 225.667 153.648 230.871 157.589 233.445C161.256 235.828 166.154 235.116 170.259 233.555C172.914 232.541 175.459 231.227 177.813 229.611L178.278 234.979L146.012 237.964C146.204 235.718 145.629 233.418 145.027 231.199C143.194 224.215 141.333 217.203 139.499 210.219C139.472 210.11 139.444 210 139.417 209.891L151.458 208.987Z" fill="#B07347"/>
<path d="M145.902 226.406C145.902 226.406 146.45 229.337 146.504 230.542C146.559 231.747 146.532 233.144 147.024 235.006C147.49 236.869 145.738 236.485 147.982 238.512C150.226 240.539 150.281 239.251 150.582 241.059C150.883 242.867 153.784 242.045 153.784 242.045C153.784 242.045 154.222 243.113 155.809 243.743C157.396 244.373 157.506 243.661 158.601 239.169C158.601 239.169 161.693 238.046 161.31 236.951C160.954 235.855 153.1 231.555 153.1 231.555L150.828 225.639L145.902 226.406Z" fill="#FFBD9B"/>
<path d="M144.562 228.981L145.355 232.925C145.355 232.925 153.346 231.829 155.59 230.405L154.578 225.502L144.562 228.981Z" fill="#F8E8D8"/>
<path d="M137.556 190.856C137.556 190.856 137.829 163.494 143.357 157.359L152.936 169.766L151.184 195.019C151.376 199.976 156.275 227.475 156.275 227.475C156.275 227.475 149.98 230.268 143.33 230.706C143.357 230.706 137.227 199.017 137.556 190.856Z" fill="#4484E0"/>
<path d="M160.79 137.119C160.79 137.119 156.384 136.68 156.493 132.654C156.603 128.738 161.611 129.614 162.623 133.695C162.651 133.777 162.76 133.777 162.788 133.695C163.034 132.517 163.828 128.957 164.922 128.053C164.922 128.053 163.198 122.219 167.276 120.439C171.353 118.686 181.096 118.549 181.288 124.903C181.479 131.285 180.74 133.229 180.603 136.187C180.439 139.145 175.814 147.882 173.871 148.512C171.928 149.142 162.377 143.199 160.899 141.72C159.394 140.213 160.79 137.119 160.79 137.119Z" fill="#F4BE84"/>
<path d="M188.047 117.289C188.047 117.289 186.296 117.672 185.229 117.015C185.229 117.015 187.391 111.729 185.968 109.51C185.968 109.51 182.766 113.345 173.215 111.51C163.664 109.675 155.016 112.715 152.607 120.849C150.199 128.984 156.22 140.131 160.38 140.843C159.832 139.255 160.79 137.091 160.79 137.091C160.79 137.091 156.384 136.653 156.494 132.626C156.603 128.71 161.611 129.586 162.624 133.667C162.651 133.749 162.761 133.749 162.788 133.667C163.034 132.517 163.828 128.929 164.923 128.025C164.923 128.025 163.198 122.191 167.276 120.411C171.354 118.658 181.096 118.521 181.288 124.875C181.315 125.533 181.315 126.135 181.315 126.683C181.315 126.738 188.622 124.273 188.047 117.289Z" fill="#3E3533"/>
<path d="M311.144 335.267V280.407H307.613V335.267H311.144Z" fill="#A5C0D7"/>
<path d="M308.904 335.289V280.429H307.618V335.289H308.904Z" fill="#8394B4"/>
<path d="M311.308 294.439L314.1 281.238H304.658L307.45 294.439H311.308Z" fill="#8394B4"/>
<path d="M289.606 338.371H329.151V337.276L313.279 334.619H305.507L289.606 337.276V338.371Z" fill="#A5C0D7"/>
<path d="M304.576 334.948H314.209L312.403 323.691H306.355L304.576 334.948Z" fill="#A5C0D7"/>
<path d="M312.403 323.691H306.355L304.576 334.948L289.606 337.276H315.988L311.308 335.276L310.049 324.677L312.403 323.691Z" fill="#8394B4"/>
<path d="M317.85 273.561H324.691V263.29H317.85V273.561Z" fill="#8394B4"/>
<path d="M283.941 278.088H334.816C334.816 275.349 332.6 273.104 329.836 273.104H288.922C286.185 273.104 283.941 275.322 283.941 278.088Z" fill="#3D4359"/>
<path d="M288.922 273.104H310.323C307.586 273.104 305.342 275.322 305.342 278.088H283.941C283.941 275.322 286.185 273.104 288.922 273.104Z" fill="#323749"/>
<path d="M334.734 277.212C334.789 277.486 334.816 277.787 334.816 278.088H283.941C283.941 277.787 283.969 277.513 284.023 277.212H334.734Z" fill="#323749"/>
<path d="M281.952 284.605H336.795V277.895H281.952V284.605Z" fill="#3D4359"/>
<path d="M281.956 284.605H317.396V277.895H281.956V284.605Z" fill="#323749"/>
<path d="M281.952 278.694H336.795V277.872H281.952V278.694Z" fill="#323749"/>
<path d="M317.055 291.892C319.545 291.892 324.471 290.194 325.101 289.975C325.265 289.92 325.347 289.756 325.292 289.592C325.237 289.427 325.073 289.345 324.909 289.4C322.993 290.085 317.711 291.701 316.316 291.18C315.166 290.769 315.03 286.743 315.194 284.306C315.194 284.141 315.084 284.004 314.92 284.004H314.893C314.729 284.004 314.619 284.114 314.592 284.278C314.537 284.963 314.126 291.043 316.097 291.755C316.371 291.838 316.672 291.892 317.055 291.892Z" fill="#323749"/>
<path d="M326.579 287.401C325.293 287.729 323.404 289.099 323.678 290.112C323.952 291.126 326.251 291.372 327.537 291.016C328.823 290.687 329.644 289.592 329.37 288.606C329.124 287.593 327.865 287.045 326.579 287.401Z" fill="#323749"/>
<path d="M299.595 235.937C299.595 258.368 309.83 267.215 322.419 267.215C335.035 267.215 345.243 258.368 345.243 235.937C345.243 213.505 335.007 186.007 322.419 186.007C309.803 185.979 299.595 213.505 299.595 235.937Z" fill="#323749"/>
<path d="M297.296 235.608C297.296 257.3 307.175 265.845 319.381 265.845C331.559 265.845 341.466 257.3 341.466 235.608C341.466 213.916 331.587 187.321 319.381 187.321C307.175 187.349 297.296 213.943 297.296 235.608Z" fill="#3D4359"/>
<path d="M274.718 325.8L275.484 330.621L281.751 330.894L281.587 325.362L274.718 325.8Z" fill="#FBCEBF"/>
<path d="M283.476 338.125L263.361 338.371C263.361 338.371 262.65 334.208 265.523 334.427C268.397 334.647 271.927 332.538 273.897 330.456C275.868 328.375 281.998 329.224 282.764 330.347C283.558 331.497 283.476 338.125 283.476 338.125Z" fill="#19232D"/>
<path d="M239.881 325.28L239.279 330.21L245.546 330.484L246.313 324.951L239.881 325.28Z" fill="#FBCEBF"/>
<path d="M247.27 337.714L227.155 337.961C227.155 337.961 226.444 333.798 229.317 334.017C232.191 334.236 235.721 332.127 237.691 330.045C239.662 327.964 245.792 328.813 246.558 329.936C247.352 331.086 247.27 337.714 247.27 337.714Z" fill="#19232D"/>
<path d="M262.677 228.241L286.295 224.543C287.417 224.543 288.183 221.202 288.949 216.765L298.391 220.544C296.53 229.172 292.781 236.512 287.061 235.718C278.933 234.622 262.021 233.554 262.021 233.554L262.677 228.241Z" fill="#E0BC9B"/>
<path d="M281.588 251.96C294.997 247.632 303.043 252.014 303.153 270.776L249.541 270.94C249.541 270.94 249.952 261.409 254.248 258.232C256.437 256.616 271.982 253.521 281.588 251.96Z" fill="#1C3033"/>
<path d="M286.733 261.107C286.733 261.107 281.259 263.162 272.94 264.476C264.62 265.791 260.898 265.9 260.023 267.352C259.147 268.804 260.242 282.772 258.928 289.044C257.806 294.467 246.23 321.445 243.548 329.251H246.257C246.257 329.251 262.677 296.987 264.046 286.99C264.73 280.417 265.058 274.774 265.058 274.774H282.682C286.103 273.925 286.733 261.107 286.733 261.107Z" fill="#121E21"/>
<path d="M325.456 251.521C325.456 251.521 324.909 265.134 320.612 270.913L270.093 270.94C270.093 270.94 268.04 261.847 271.981 258.232C276.661 253.932 310.048 251.878 325.456 251.521Z" fill="#223A3F"/>
<path d="M288.073 285.182C287.936 279.732 287.744 278.39 286.622 274.775H317.273C321.515 271.351 323.567 265.983 324.388 263.08L312.046 257.465C312.046 257.465 310.814 263.299 308.488 264.586C306.162 265.901 280.218 265.928 279.178 266.969C278.139 268.01 282.545 278.363 283.338 285.812C284.104 293.262 279.562 329.251 279.562 329.251H282.435C282.435 329.251 288.346 295.179 288.073 285.182Z" fill="#121E21"/>
<path d="M298.609 253.083C298.609 253.083 311.992 255.356 324.389 263.052L323.759 265.106C323.759 265.134 311.581 257.027 298.609 253.083Z" fill="#121E21"/>
<path d="M249.705 270.091C249.705 270.091 242.726 306.272 238.512 329.251H246.339C246.339 329.251 262.759 296.987 264.127 286.99C265.495 276.993 264.1 265.983 264.1 265.983L249.705 270.091Z" fill="#1C3033"/>
<path d="M270.093 270.94C270.093 270.94 272.501 306.272 274.116 329.251H282.435C282.435 329.251 288.346 295.179 288.073 285.183C287.799 275.186 283.776 265.983 283.776 265.983L270.093 270.94Z" fill="#223A3F"/>
<path d="M288.073 285.182C287.827 276.226 284.597 267.955 283.913 266.312C283.475 266.339 283.038 266.366 282.627 266.394L279.015 267.708C279.097 270.392 282.627 279.212 283.311 285.812C284.077 293.262 279.535 329.251 279.535 329.251H282.408C282.408 329.251 282.764 327.115 283.339 323.773C285.008 313.722 288.292 292.687 288.073 285.182Z" fill="#121E21"/>
<path d="M264.127 265.983C262.594 266.092 261.198 266.312 260.35 267.106C259.474 268.557 260.323 282.772 259.036 289.072C257.914 294.495 246.338 321.473 243.656 329.279H246.366C249.841 321.117 262.977 295.7 264.154 287.018C265.03 280.663 265.495 271.022 264.127 265.983Z" fill="#121E21"/>
<path d="M294.942 226.214C293.711 225.831 292.342 225.365 290.919 224.653C288.785 223.585 289.633 224.242 287.143 222.653C287.143 222.653 287.58 211.232 290.974 204.714C294.367 198.14 313.086 189.732 313.086 189.732C313.086 189.732 313.935 189.787 315.248 189.951L315.221 190.061C315.221 190.061 315.714 190.061 316.507 190.115C317.273 190.225 318.149 190.389 319.08 190.581C324.252 191.868 332.927 196.387 334.241 211.944C333.31 227.967 328.685 254.233 324.334 262.778C324.334 262.778 293.081 253.082 289.989 250.398C291.138 247.166 293.163 242.319 293.93 237.717C294.668 233.417 294.915 229.501 294.942 226.214Z" fill="#FB9F0D"/>
<path d="M284.023 236.978L312.184 233.226C314.017 233.226 315.03 227.091 316.316 220.408L327.865 222.325C326.551 233.472 321.652 245.359 313.059 244.4C303.371 243.305 283.229 242.291 283.229 242.291L284.023 236.978Z" fill="#E0BC9B"/>
<path d="M314.565 218.518C314.565 218.518 327.318 219.696 329.371 214.218C331.423 208.767 330.575 198.141 319.874 190.8C319.902 190.8 319.929 190.828 319.956 190.828C320.038 190.855 320.121 190.882 320.175 190.91C325.375 192.553 332.901 197.428 334.214 211.725C333.886 212.958 333.53 214.218 333.12 215.505C332.052 218.901 330.903 221.996 329.726 224.763C324.417 223.913 319.108 223.037 313.826 222.188L314.565 218.518Z" fill="#FF7200"/>
<path d="M296.967 216.71C296.83 217.504 296.666 218.299 296.502 219.093C296.338 219.887 296.146 220.681 295.982 221.476C295.626 223.009 295.243 224.571 294.86 226.104C293.875 225.83 292.917 225.474 291.987 225.091C291.001 224.68 290.043 224.242 289.14 223.722C288.456 223.338 287.772 222.927 287.143 222.489V222.736C287.772 223.146 288.401 223.557 289.058 223.913C289.989 224.434 290.947 224.872 291.932 225.283C292.917 225.694 293.902 226.05 294.942 226.323L295.079 226.351L295.052 226.241C295.407 224.653 295.79 223.092 296.119 221.503C296.283 220.709 296.447 219.914 296.611 219.12C296.721 218.299 296.885 217.504 296.967 216.71Z" fill="#FF7200"/>
<path d="M315.221 190.061L312.594 186.117L301.511 190.307L303.016 196.935C303.016 196.963 311.034 202.221 315.221 190.061Z" fill="#EFCEAB"/>
<path d="M289.907 178.639C289.907 178.639 292.042 184.199 293.328 187.103C294.614 190.006 297.488 196.716 303.7 195.073C309.912 193.429 311.938 189.075 313.497 186.884C313.497 186.884 317.712 177.681 315.906 176.174C314.072 174.668 310.542 169.3 304.767 171.902C298.966 174.476 289.907 178.639 289.907 178.639Z" fill="#F9DCB8"/>
<path d="M313.306 187.212C313.306 187.212 318.424 177.927 318.615 173.189C318.807 168.451 317.521 165.548 314.729 164.479C314.729 164.479 315.797 161.686 316.754 161.248C316.754 161.248 313.881 162.562 313.333 163.959C313.333 163.959 313.005 160.618 311.609 160.07C311.609 160.07 312.485 162.014 311.938 163.411C311.938 163.411 305.178 155.989 299.814 159.577C294.478 163.165 287.007 172.34 284.653 172.23C284.653 172.23 286.049 172.778 287.964 171.902C287.964 171.902 285.501 174.175 282.628 175.49C282.628 175.49 285.748 179.899 294.314 178.366C302.879 176.832 308.216 173.244 308.216 173.244C308.216 173.244 309.311 180.885 311.582 183.378C311.582 183.378 311.774 178.639 313.717 177.763C315.632 176.887 315.003 180.666 314.483 182.063C313.936 183.433 312.348 187.65 313.306 187.212Z" fill="#221E52"/>
<path d="M329.725 224.79C327.044 224.406 324.389 224.023 321.707 223.612C320.366 223.42 319.025 223.201 317.711 222.982C316.37 222.763 315.057 222.544 313.716 222.27L313.606 222.242L313.634 222.133C314.209 219.284 314.838 216.409 315.495 213.588C315.823 212.163 316.179 210.767 316.589 209.342C316.973 207.945 317.383 206.549 317.876 205.179H317.903C317.41 206.549 317.027 207.945 316.644 209.37C316.261 210.767 315.933 212.191 315.604 213.615C314.947 216.463 314.373 219.312 313.825 222.188L313.743 222.078C315.057 222.352 316.398 222.599 317.711 222.845C319.052 223.092 320.366 223.311 321.707 223.53C324.362 223.968 327.044 224.379 329.725 224.79Z" fill="#FF7200"/>
<path d="M75.7158 335.246L75.7158 280.112H72.1855L72.1855 335.246H75.7158Z" fill="#A5C0D7"/>
<path d="M75.7168 335.245L75.7168 280.111H74.4306L74.4306 335.245H75.7168Z" fill="#8394B4"/>
<path d="M72.0131 294.193L69.1943 280.937H78.6906L75.8718 294.193H72.0131Z" fill="#8394B4"/>
<path d="M93.8245 338.372H54.0605V337.276L70.0428 334.62H77.8697L93.8245 337.276V338.372Z" fill="#A5C0D7"/>
<path d="M78.8001 334.921H69.1123L70.9185 323.609H76.9939L78.8001 334.921Z" fill="#A5C0D7"/>
<path d="M70.9181 323.609H76.9935L78.7997 334.921L93.8241 337.276H67.333L72.0127 335.25L73.2716 324.623L70.9181 323.609Z" fill="#8394B4"/>
<path d="M65.4452 262.888H58.5762V273.214H65.4452V262.888Z" fill="#8394B4"/>
<path d="M99.5167 277.76H48.3955C48.3955 274.994 50.6396 272.748 53.4036 272.748H94.5359C97.2726 272.775 99.5167 274.994 99.5167 277.76Z" fill="#3D4359"/>
<path d="M94.5084 272.775H72.998C75.7621 272.775 78.0062 275.021 78.0062 277.788H99.5165C99.5165 274.994 97.2724 272.775 94.5084 272.775Z" fill="#323749"/>
<path d="M48.4776 276.884C48.4229 277.158 48.3955 277.459 48.3955 277.76H99.5167C99.5167 277.459 99.4893 277.158 99.4346 276.884H48.4776Z" fill="#323749"/>
<path d="M101.514 277.568H46.3975V284.333H101.514V277.568Z" fill="#3D4359"/>
<path d="M101.514 277.568H65.8828V284.333H101.514V277.568Z" fill="#323749"/>
<path d="M101.514 277.568H46.3975V278.39H101.514V277.568Z" fill="#323749"/>
<path d="M82.7135 236.951C82.7135 258.369 72.9435 266.832 60.9022 266.832C48.8608 266.832 39.0908 258.369 39.0908 236.951C39.0908 215.533 48.8608 189.239 60.9022 189.239C72.9435 189.239 82.7135 215.533 82.7135 236.951Z" fill="#323749"/>
<path d="M84.9027 236.649C84.9027 257.355 75.4611 265.545 63.8302 265.545C52.1994 265.545 42.7578 257.383 42.7578 236.649C42.7578 215.916 52.1994 190.526 63.8302 190.526C75.4611 190.526 84.9027 215.943 84.9027 236.649Z" fill="#3D4359"/>
<path d="M66.2387 291.646C63.7483 291.646 58.7676 289.948 58.1381 289.729C57.9739 289.674 57.8918 289.51 57.9466 289.346C58.0013 289.181 58.1655 289.127 58.3297 289.154C60.2728 289.839 65.5819 291.455 66.9776 290.962C68.127 290.551 68.2639 286.497 68.0997 284.06C68.0997 283.895 68.2091 283.758 68.3733 283.731C68.5375 283.731 68.6744 283.841 68.7017 284.005C68.7565 284.69 69.167 290.797 67.1965 291.509C66.9229 291.619 66.6218 291.646 66.2387 291.646Z" fill="#323749"/>
<path d="M56.6602 287.127C57.9465 287.456 59.8621 288.853 59.5885 289.839C59.3148 290.852 56.9886 291.099 55.7024 290.743C54.4162 290.414 53.5952 289.318 53.8415 288.305C54.1151 287.319 55.374 286.799 56.6602 287.127Z" fill="#323749"/>
<path d="M73.1079 159.276C73.1079 159.276 68.866 157.085 65.6641 165.63C62.4348 174.175 62.2706 187.486 63.4474 192.033C63.4474 192.033 54.088 202.112 61.7233 208.713C61.7233 208.713 72.2595 219.805 72.9437 222.654C73.2174 221.996 77.7329 213.835 85.0672 213.396C92.4015 212.931 110.464 193.95 100.83 191.02C100.83 191.02 101.542 194.087 98.258 193.348C94.974 192.608 97.0538 181.297 96.9991 177.27C96.9717 173.272 94.5634 163.384 87.5576 159.221C80.5517 155.031 72.4785 155.304 73.1079 159.276Z" fill="#1C1715"/>
<path d="M129.866 225.585C129.866 225.585 136.708 227.749 137.611 228.077C141.168 229.392 140.895 230.515 140.867 230.844C140.867 230.844 142.099 232.651 141.907 232.925C141.552 233.418 141.196 232.843 139.417 231.035C139.034 230.625 137.912 229.666 137.72 229.803C137.529 229.94 138.596 230.707 139.253 231.282C139.8 231.775 141.032 234.514 140.457 234.678C139.91 234.842 138.815 232.651 138.213 232.021C137.775 231.556 136.461 230.679 136.188 230.844C135.941 231.008 137.255 232.268 137.447 232.569C137.666 232.87 138.705 234.514 138.295 234.842C137.912 235.116 137.091 233.856 136.078 232.761C135.312 231.939 132.74 230.542 132.384 230.542C131.973 230.542 132.384 231.528 132.904 232.295C133.451 233.062 133.807 234.295 133.232 234.404C132.657 234.541 131.645 232.24 130.386 230.734C129.127 229.228 128.963 227.228 128.963 227.228C128.963 227.228 129.483 225.612 129.866 225.585Z" fill="#E2A36A"/>
<path d="M129.866 225.585C129.182 225.366 125.597 225.284 122.942 225.612L123.134 229.501L129.593 227.995L129.866 225.585Z" fill="#E2A36A"/>
<path d="M93.8795 195.648C86.983 197.867 91.1154 233.664 96.9446 236.841C102.445 240.21 118.4 231.938 127.294 229.063C127.294 229.063 128.663 226.789 128.444 224.845C123.025 224.653 106.03 228.57 104.087 228.323C102.117 228.077 100.749 193.43 93.8795 195.648Z" fill="#E55DAA"/>
<path d="M104.689 331.498C104.689 331.498 104.142 333.607 104.224 335.852L101.269 335.195L101.405 331.498H104.689Z" fill="#E2A36A"/>
<path d="M110.601 337.277C110.573 337.879 101.104 337.523 101.104 337.523L101.296 335.195H104.279C104.252 335.195 110.628 336.674 110.601 337.277Z" fill="#E2A36A"/>
<path d="M101.077 337.523L101.214 336.236C101.214 336.236 101.761 336.948 104.662 336.948C107.207 336.948 107.508 336.044 107.508 336.044C109.889 336.729 111.23 336.838 110.902 337.331C110.409 337.961 101.077 337.523 101.077 337.523Z" fill="#2D313D"/>
<path d="M101.406 331.498L101.297 334.593C101.297 334.593 102.665 333.743 104.225 334.593C104.225 334.593 104.444 332.292 104.69 331.498H101.406Z" fill="#D38753"/>
<path d="M118.509 331.498C118.509 331.498 117.961 333.607 118.044 335.852L115.088 335.195L115.225 331.498H118.509Z" fill="#E2A36A"/>
<path d="M124.393 337.277C124.365 337.879 114.896 337.523 114.896 337.523L115.088 335.195H118.071C118.044 335.195 124.42 336.674 124.393 337.277Z" fill="#E2A36A"/>
<path d="M114.869 337.523L115.006 336.236C115.006 336.236 115.553 336.948 118.454 336.948C120.999 336.948 121.3 336.044 121.3 336.044C123.681 336.729 125.022 336.838 124.694 337.331C124.229 337.961 114.869 337.523 114.869 337.523Z" fill="#2D313D"/>
<path d="M115.197 331.498L115.088 334.593C115.088 334.593 116.456 333.743 118.016 334.593C118.016 334.593 118.235 332.292 118.481 331.498H115.197Z" fill="#D38753"/>
<path d="M99.7908 250.18C99.7908 250.18 81.3456 255.685 84.0549 272.721H131.755C131.755 272.721 133.151 265.381 130.113 262.066C127.103 258.807 99.7908 250.18 99.7908 250.18Z" fill="#476291"/>
<path d="M131.645 272.721C131.645 272.721 125.351 291.51 118.892 333.168H114.103C114.103 333.168 110.71 302.082 111.421 293.701C112.16 285.32 118.29 272.063 118.29 272.063C118.29 272.063 127.376 269.982 131.645 272.721Z" fill="#476291"/>
<path d="M100.091 272.721L118.099 272.611C118.099 272.611 111.75 285.868 111.421 293.701C111.093 301.507 114.103 333.168 114.103 333.168H116.101C116.101 333.168 114.514 299.589 115.061 294.194C115.608 288.771 122.642 270.995 122.286 269.79C121.93 268.585 99.3799 262.258 99.3799 262.258L100.091 272.721Z" fill="#3E5C87"/>
<path d="M99.7905 250.18H62.1064L89.0354 263.792L99.7905 250.18Z" fill="#3E5C87"/>
<path d="M62.1067 250.18C62.1067 250.18 56.7154 259.191 60.9025 272.721H116.758C116.758 272.721 117.88 265.244 114.733 262.066C110.3 257.657 77.8699 253.932 62.1067 250.18Z" fill="#5775AA"/>
<path d="M116.758 272.721C116.758 272.721 110.847 286.223 105.428 333.168H100.612C100.612 333.168 96.6708 302.082 97.2182 293.701C97.7929 285.32 103.075 272.721 103.075 272.721C103.075 272.721 112.461 269.982 116.758 272.721Z" fill="#5775AA"/>
<path d="M60.9024 272.721H103.075C103.075 272.721 97.6013 286.552 97.2182 293.701C96.7529 302.739 100.612 333.168 100.612 333.168H102.391C102.391 333.168 99.818 301.945 100.639 294.084C101.433 286.251 108.165 271.05 107.015 269.462C105.866 267.846 76.3921 266.257 59.3973 260.533C59.3973 260.505 58.8499 267.627 60.9024 272.721Z" fill="#476291"/>
<path d="M91.4987 227.666C91.4987 235.883 94.1806 240.95 100.42 250.207C88.1326 254.398 75.1881 254.041 61.7236 250.207C64.5971 242.237 68.9758 235.718 73.8745 230.049C73.9019 230.021 73.9566 229.967 73.984 229.912C74.0387 229.857 74.0934 229.775 74.1208 229.747C74.1755 229.693 74.2303 229.638 74.2303 229.638C76.7754 225.009 68.8664 219.696 65.7466 210.712C62.572 201.564 63.9677 196.771 63.9677 196.771C75.5165 191.595 82.2761 190.39 95.4122 195.785L95.9048 203.755C95.9048 203.755 99.4624 209.973 99.0519 212.766C98.6414 215.56 91.4987 223.284 91.4987 227.666Z" fill="#FF77C4"/>
<path d="M100.42 250.207C99.2709 246.318 91.4987 240.347 91.4987 227.666C91.4987 222.571 98.6414 216.573 99.0519 212.684C96.3426 213.834 85.1222 217.34 67.2791 214.136C70.7273 223.201 74.9692 225.612 74.2303 229.638C74.2303 229.638 74.1755 229.72 74.1208 229.747C74.0934 229.802 74.0387 229.857 73.984 229.912C73.9566 229.939 73.9019 229.994 73.8745 230.049C68.9758 235.718 64.5971 242.237 61.7236 250.207C68.319 252.069 74.7776 253.11 81.1267 253.192C87.3663 253.192 94.4817 252.234 100.42 250.207Z" fill="#ED65B2"/>
<path d="M73.4092 174.175C73.4092 174.175 76.529 185.953 73.8471 194.114L84.0001 194.142L87.2568 195.593C87.2568 195.593 85.2316 189.705 85.6421 182.858C85.9432 177.845 73.4092 174.175 73.4092 174.175Z" fill="#F4BE84"/>
<path d="M85.9158 189.458C85.6421 187.514 85.5053 185.24 85.6421 182.858C85.9432 177.845 73.4092 174.175 73.4092 174.175C73.4092 174.175 76.4195 185.514 73.9839 193.649C79.6762 192.882 83.7265 190.855 85.9158 189.458Z" fill="#D17A4A"/>
<path d="M86.1346 232.761C86.1072 231.638 86.6819 228.926 87.284 226.05C88.1324 221.969 89.1176 217.313 88.926 215.04C88.5976 211.178 84.7115 200.168 84.5473 199.702L84.0273 199.894C84.0547 200.003 88.0503 211.288 88.3787 215.095C88.5702 217.286 87.6124 221.887 86.764 225.941C86.1346 228.981 85.5873 231.583 85.5873 232.761C85.6967 239.663 87.2019 246.017 90.2943 252.59C90.4859 252.563 90.6775 252.563 90.869 252.535C87.7492 245.989 86.2441 239.635 86.1346 232.761Z" fill="#DB52A3"/>
<path d="M106.058 227.995C108.466 228.597 111.531 228.899 111.75 229.885C112.215 232.048 108.794 233.418 107.043 232.952C105.346 232.377 103.868 230.049 103.868 230.049C103.868 230.049 103.65 227.392 106.058 227.995Z" fill="#F4BE84"/>
<path d="M116.348 232.842C116.649 232.651 115.144 230.597 114.679 230.268C114.295 230.021 113.885 229.665 110.19 228.898L111.504 230.816C111.504 230.816 113.803 230.98 114.131 231.09C114.432 231.226 115.116 232.87 116.348 232.842Z" fill="#F4BE84"/>
<path d="M113.638 236.896C114.158 236.841 113.502 234.541 113.228 234.048C112.9 233.418 112.982 233.116 110.738 230.049L110.382 232.267C110.382 232.267 112.133 234.267 112.298 234.568C112.434 234.869 112.817 236.54 113.638 236.896Z" fill="#F4BE84"/>
<path d="M111.86 237.279C112.353 237.225 111.723 235.006 111.477 234.541C111.149 233.938 111.231 233.637 109.096 230.706L108.74 232.842C108.74 232.842 110.437 234.76 110.574 235.034C110.711 235.335 111.094 236.951 111.86 237.279Z" fill="#F4BE84"/>
<path d="M109.561 236.403C109.971 236.348 109.451 234.486 109.232 234.075C108.959 233.555 109.041 233.308 107.207 230.843L106.906 232.651C106.906 232.651 108.329 234.267 108.466 234.513C108.603 234.787 108.904 236.129 109.561 236.403Z" fill="#F4BE84"/>
<path d="M104.224 230.186L100.502 230.597L100.42 227.118C100.42 227.118 102.691 227.282 106.057 228.022L104.224 230.186Z" fill="#F4BE84"/>
<path d="M63.9399 196.771C57.0435 198.99 59.3149 235.938 65.1441 239.087C72.9162 243.908 91.0604 234.267 101.788 231.309C101.788 231.309 103.157 229.036 102.938 227.091C94.1802 225.393 74.2298 230.816 72.2868 230.569C70.3437 230.35 70.8363 194.553 63.9399 196.771Z" fill="#FF77C4"/>
<path d="M65.636 237.334C61.0658 234.842 58.7122 211.616 61.23 200.633C57.946 210.63 60.2995 236.485 65.1434 239.115C72.9156 243.935 91.0598 234.294 101.788 231.336C101.788 231.336 102.253 230.515 102.581 229.501C91.7987 232.541 73.3261 242.1 65.636 237.334Z" fill="#E55DAA"/>
<path d="M71.0283 193.978L79.6215 202.523L82.1119 198.908L84.4928 200.935L86.0801 198.552L88.9262 201.51L89.063 193.567L84.0002 194.142L71.0283 193.978Z" fill="#DB52A3"/>
<path d="M71.0283 193.978L74.887 188.007L84.0002 194.142L79.9225 200.441L71.0283 193.978Z" fill="#ED65B2"/>
<path d="M85.9157 189.431L84 194.142L88.4882 199.565L89.0629 193.567L85.9157 189.431Z" fill="#ED65B2"/>
<path d="M72.9435 186.117C72.9435 186.117 77.9242 189.979 82.0019 188.5C86.0795 187.021 89.692 183.077 90.7866 179.133C91.9087 175.189 90.1025 167.273 87.3384 164.452C84.6017 161.631 74.4213 159.796 71.5751 163.466C68.7016 167.109 67.607 181.899 72.9435 186.117Z" fill="#FDC596"/>
<path d="M67.2787 198.771C67.2787 198.771 63.201 200.359 60.8749 197.209C58.5487 194.06 62.4348 192.17 62.4348 192.17C62.4348 192.17 59.8897 195.374 63.5842 195.758C67.2787 196.169 67.3061 189.951 65.9925 186.528C62.2432 176.64 64.4052 170.149 66.1567 166.616C67.8808 163.083 70.9732 160.481 70.9732 160.481L73.0804 159.303L74.5309 162.891C74.5309 162.891 71.8763 166.945 70.5353 170.697C69.1944 174.449 68.6197 179.27 71.7668 185.46C74.9414 191.677 75.735 197.757 67.2787 198.771Z" fill="#442B19"/>
<path d="M74.5589 162.864L73.1085 159.276C73.1085 159.276 68.8666 157.085 65.6647 165.63C64.57 168.561 63.968 172.094 63.749 175.627C65.1995 180.94 69.3045 187.048 71.5212 192.252C74.34 198.825 65.7194 197.072 65.7194 197.072C65.7194 197.072 68.5929 201.948 72.9169 198.195C77.6787 194.087 73.519 187.267 71.7128 183.707C69.9066 180.146 70.2076 173.408 71.9317 169.574C73.6558 165.739 74.5589 162.864 74.5589 162.864Z" fill="#513826"/>
<path d="M74.5583 162.864C74.5583 162.864 84.2188 160.317 89.0627 171.984C93.9066 183.679 86.9555 189.075 88.187 192.663C89.4185 196.278 92.7025 196.799 95.5213 193.074C95.5213 193.074 92.0457 195.32 91.5257 192.773C91.0057 190.253 96.7801 186.555 96.2602 176.887C96.0686 173.491 95.5213 170.588 94.8918 168.232C93.414 164.754 91.0605 161.248 87.5575 159.166C80.5516 154.976 72.4784 155.277 73.1079 159.248L74.5583 162.864Z" fill="#442B19"/>
<path d="M145.519 235.883L102.663 235.91L111.639 202.633H154.496L145.519 235.883Z" fill="#8394B4"/>
<path d="M145.272 236.338L82.1914 236.414L82.1945 238.989L145.275 238.912L145.272 236.338Z" fill="#A5C0D7"/>
<path d="M145.547 235.856L103.676 235.91L112.488 203.29L154.359 203.235L145.547 235.856Z" fill="#A5C0D7"/>
<path d="M131.191 221.376C132.861 220.34 133.614 218.53 132.873 217.335C132.132 216.139 130.177 216.01 128.508 217.047C126.838 218.084 126.085 219.893 126.826 221.089C127.567 222.284 129.522 222.413 131.191 221.376Z" fill="#8394B4"/>
<path opacity="0.2" d="M103.676 235.91L112.488 203.29L154.359 203.235L103.676 235.91Z" fill="#A5C0D7"/>
<path d="M102.525 236.393L82.1914 236.415L82.1942 238.989L102.528 238.967L102.525 236.393Z" fill="#8394B4"/>
<path d="M115.771 235.878L107.917 235.888L107.918 237.011L115.773 237.001L115.771 235.878Z" fill="#8394B4"/>
<path d="M142.673 235.851L135.94 235.86L135.942 236.983L142.674 236.974L142.673 235.851Z" fill="#8394B4"/>
<path d="M112.762 203.701L154.25 203.646L154.359 203.235L112.488 203.29L103.676 235.91H104.059L112.762 203.701Z" fill="#BAD6F2"/>
<path d="M256.601 227.638H299.54L290.536 194.306H247.598L256.601 227.638Z" fill="#8394B4"/>
<path d="M256.851 228.11L256.848 230.685L320.038 230.761L320.041 228.186L256.851 228.11Z" fill="#A5C0D7"/>
<path d="M256.574 227.584L298.527 227.638L289.688 194.963L247.734 194.909L256.574 227.584Z" fill="#A5C0D7"/>
<path d="M269.108 210.931C269.628 212.52 271.489 213.807 273.241 213.807C274.992 213.807 276.005 212.52 275.457 210.931C274.937 209.342 273.077 208.055 271.325 208.055C269.601 208.055 268.588 209.342 269.108 210.931Z" fill="#8394B4"/>
<path opacity="0.2" d="M298.527 227.638L289.688 194.963L247.734 194.909L298.527 227.638Z" fill="#A5C0D7"/>
<path d="M299.667 228.152L299.664 230.726L320.025 230.748L320.028 228.173L299.667 228.152Z" fill="#8394B4"/>
<path d="M286.401 227.653L286.399 228.776L294.281 228.786L294.282 227.663L286.401 227.653Z" fill="#8394B4"/>
<path d="M259.474 227.614L259.473 228.737L266.205 228.745L266.206 227.622L259.474 227.614Z" fill="#8394B4"/>
<path d="M289.414 195.374L247.844 195.347L247.734 194.909L289.688 194.963L298.527 227.638H298.144L289.414 195.374Z" fill="#BAD6F2"/>
<path d="M42.8395 234.047H37.4756V339.741H42.8395V234.047Z" fill="#C48C58"/>
<path d="M109.588 234.376H37.7773V244.921H109.588V234.376Z" fill="#C48C58"/>
<path d="M357.531 234.047H352.167V339.741H357.531V234.047Z" fill="#A8693F"/>
<path d="M356.737 234.376H106.878V244.921H356.737V234.376Z" fill="#A8693F"/>
<path d="M111.64 230.733H27.8975V237.635H111.64V230.733Z" fill="#D39B67"/>
<path d="M367.3 230.733H105.646V237.635H367.3V230.733Z" fill="#B7784E"/>
<path d="M367.273 230.733H27.8975V232.158H367.273V230.733Z" fill="#E8AB73"/>
<path d="M213.937 222.846C213.937 220.271 216.044 218.189 218.616 218.189H220.477C221.052 218.189 221.517 218.655 221.517 219.23V226.461C221.517 227.036 221.052 227.502 220.477 227.502H218.616C216.044 227.502 213.937 225.393 213.937 222.846ZM220.204 219.504H218.616C216.755 219.504 215.25 221.011 215.25 222.846C215.25 224.681 216.755 226.187 218.616 226.187H220.204V219.504Z" fill="#6D97BE"/>
<path d="M222.611 231.09H228.906C230.876 231.09 232.491 229.474 232.491 227.502V215.012H219.026V227.502C219.026 229.501 220.641 231.09 222.611 231.09Z" fill="#95BAE2"/>
<path d="M222.201 215.012V228.268C222.201 229.474 222.967 230.514 224.117 231.117H222.995C220.805 231.117 219.026 229.665 219.026 227.858V215.012H222.201Z" fill="#6D97BE"/>
<path d="M230.247 224.763H230.548C230.74 224.763 230.904 224.599 230.904 224.407V216.382C230.904 216.19 230.74 216.026 230.548 216.026H230.247C230.056 216.026 229.892 216.19 229.892 216.382V224.407C229.892 224.626 230.056 224.763 230.247 224.763Z" fill="#CCDDED"/>
<path d="M226.798 214.3C226.99 214.3 227.127 214.163 227.127 213.971V211.78C227.154 211.671 227.291 211.315 227.729 211.342H232.874C232.929 211.342 233.312 211.342 233.668 210.986C233.941 210.712 234.078 210.329 234.078 209.808C234.078 209.343 233.941 208.987 233.668 208.74C233.257 208.384 232.737 208.411 232.6 208.439H218.725C218.561 208.384 217.877 208.028 217.932 206.905C217.959 205.755 218.753 205.453 218.944 205.399H227.401C227.592 205.399 227.729 205.262 227.729 205.07C227.729 204.878 227.592 204.741 227.401 204.741H218.835C218.315 204.851 217.33 205.453 217.275 206.878C217.22 208.329 218.123 208.959 218.588 209.096H218.671H232.628H232.655C232.655 209.096 233.011 209.041 233.202 209.233C233.339 209.343 233.394 209.534 233.394 209.781C233.394 210.575 232.956 210.63 232.874 210.63H227.756C226.908 210.575 226.525 211.26 226.47 211.643V211.698V213.916C226.47 214.163 226.607 214.3 226.798 214.3Z" fill="#CCDDED"/>
<path d="M87.6119 49.1997H48.6963V78.0676H87.6119V49.1997Z" fill="#B0DFE2"/>
<path d="M86.7088 49.1997H48.6963V76.8351H86.7088V49.1997Z" fill="white"/>
<path d="M54.8535 63.3868L63.5288 59.1689V60.8123L56.6597 64.0168V64.0442L63.5288 67.2761V68.892L54.8535 64.7015V63.3868Z" fill="#2D4C9D"/>
<path d="M64.7881 69.6591L69.2489 56.4028H70.8088L66.348 69.6591H64.7881Z" fill="#2D4C9D"/>
<path d="M80.5786 64.7562L71.9033 68.9194V67.3034L78.8819 64.0715V64.0441L71.9033 60.8122V59.1963L80.5786 63.3594V64.7562Z" fill="#2D4C9D"/>
</g>
<defs>
<linearGradient id="paint0_linear_821_617" x1="172.017" y1="155.873" x2="184.745" y2="190.612" gradientUnits="userSpaceOnUse">
<stop stop-color="#CFD4D8"/>
<stop offset="1" stop-color="#CFD4D8"/>
</linearGradient>
<linearGradient id="paint1_linear_821_617" x1="167.58" y1="171.185" x2="177.233" y2="171.185" gradientUnits="userSpaceOnUse">
<stop stop-color="#F5A0AA"/>
<stop offset="0.2151" stop-color="#F38E99"/>
<stop offset="0.7306" stop-color="#F06774"/>
<stop offset="1" stop-color="#EF5866"/>
</linearGradient>
<clipPath id="clip0_821_617">
<rect width="469.532" height="347.018" fill="white" transform="translate(-32.2549 0.0639648)"/>
</clipPath>
</defs>
</svg>
