<svg width="148" height="1283" viewBox="0 0 148 1283" fill="none" xmlns="http://www.w3.org/2000/svg">
<mask id="path-1-outside-1_394_450" maskUnits="userSpaceOnUse" x="-0.785213" y="-1.13599" width="149" height="1285" fill="black">
<rect fill="white" x="-0.785213" y="-1.13599" width="149" height="1285"/>
<path d="M3.02734 1212.21L145.215 1212.21L145.215 1238.97L3.02734 1238.97L3.02734 1212.21ZM3.02734 1168.07L24.2187 1168.07L24.2187 1282.62L3.02734 1282.62L3.02734 1168.07ZM124.121 1055.96L145.215 1055.96L145.215 1131.55L124.121 1131.55L124.121 1055.96ZM3.02734 1123.34L145.215 1123.34L145.215 1150.2L3.02734 1150.2L3.02734 1123.34ZM61.7187 1065.82L82.3242 1065.82L82.3242 1131.55L61.7187 1131.55L61.7187 1065.82ZM3.02733 1056.25L24.2187 1056.25L24.2187 1131.55L3.02734 1131.55L3.02733 1056.25ZM98.4375 954.106L98.4375 927.251C107.943 927.967 116.374 930.604 123.73 935.161C131.022 939.718 136.751 946.066 140.918 954.204C145.085 962.342 147.168 972.205 147.168 983.794C147.168 992.713 145.605 1000.75 142.48 1007.91C139.29 1015.01 134.766 1021.1 128.906 1026.18C122.982 1031.19 115.885 1035.03 107.617 1037.7C99.2838 1040.37 89.9414 1041.7 79.5898 1041.7L68.75 1041.7C58.3984 1041.7 49.056 1040.34 40.7226 1037.6C32.3893 1034.87 25.293 1030.96 19.4336 1025.88C13.5091 1020.74 8.95181 1014.59 5.76171 1007.43C2.5716 1000.2 0.97655 992.127 0.976549 983.208C0.976549 971.619 3.12499 961.821 7.42186 953.813C11.6536 945.805 17.4805 939.588 24.9023 935.161C32.3242 930.734 40.8528 928.065 50.4883 927.153L50.4883 954.009C44.4987 954.529 39.4206 955.831 35.2539 957.915C31.0872 959.933 27.9297 962.993 25.7812 967.094C23.5677 971.131 22.4609 976.502 22.4609 983.208C22.4609 988.416 23.4375 993.006 25.3906 996.977C27.3437 1000.88 30.2734 1004.14 34.1797 1006.74C38.0208 1009.35 42.8385 1011.3 48.6328 1012.6C54.362 1013.9 61.0026 1014.56 68.5547 1014.56L79.5898 1014.56C86.8164 1014.56 93.2943 1013.97 99.0234 1012.8C104.753 1011.63 109.603 1009.8 113.574 1007.33C117.546 1004.85 120.573 1001.66 122.656 997.759C124.74 993.852 125.781 989.197 125.781 983.794C125.781 977.218 124.74 971.88 122.656 967.778C120.573 963.611 117.513 960.454 113.477 958.305C109.44 956.092 104.427 954.692 98.4375 954.106ZM61.7187 812.114L82.8125 812.114L82.8125 886.919L61.7187 886.919L61.7187 812.114ZM3.02733 879.594L145.215 879.594L145.215 906.45L3.02733 906.45L3.02733 879.594ZM3.02732 792.192L145.215 792.192L145.215 819.048L3.02732 819.048L3.02732 792.192ZM3.02732 650.591L145.215 650.591L145.215 677.544L46.582 737.993L145.215 737.993L145.215 764.848L3.02732 764.848L3.02732 737.993L101.758 677.348L3.02732 677.348L3.02732 650.591ZM70.5078 508.11L77.832 508.11C88.5742 508.11 98.2422 509.542 106.836 512.407C115.365 515.272 122.624 519.341 128.613 524.614C134.603 529.887 139.193 536.17 142.383 543.462C145.573 550.753 147.168 558.859 147.168 567.778C147.168 576.567 145.573 584.64 142.383 591.997C139.193 599.288 134.603 605.604 128.613 610.942C122.624 616.281 115.365 620.415 106.836 623.344C98.2422 626.274 88.5742 627.739 77.832 627.739L70.5078 627.739C59.7005 627.739 50.0325 626.274 41.5039 623.344C32.9752 620.415 25.7161 616.313 19.7265 611.04C13.6718 605.766 9.04945 599.484 5.85934 592.192C2.66924 584.835 1.07419 576.762 1.07419 567.973C1.07419 559.054 2.66924 550.949 5.85934 543.657C9.04945 536.365 13.6718 530.083 19.7265 524.809C25.7161 519.471 32.9752 515.369 41.5039 512.505C50.0325 509.575 59.7005 508.11 70.5078 508.11ZM77.832 535.259L70.3125 535.259C62.5651 535.259 55.7617 535.975 49.9023 537.407C43.9778 538.839 38.9974 540.955 34.9609 543.755C30.9244 546.554 27.8971 550.005 25.8789 554.106C23.7955 558.208 22.7539 562.83 22.7539 567.973C22.7539 573.182 23.7955 577.804 25.8789 581.841C27.8971 585.812 30.9244 589.197 34.9609 591.997C38.9974 594.796 43.9778 596.945 49.9023 598.442C55.7617 599.874 62.5651 600.591 70.3125 600.591L77.832 600.591C85.5143 600.591 92.3177 599.874 98.2422 598.442C104.167 596.945 109.18 594.796 113.281 591.997C117.318 589.132 120.378 585.682 122.461 581.645C124.544 577.609 125.586 572.986 125.586 567.778C125.586 562.57 124.544 557.947 122.461 553.911C120.378 549.874 117.318 546.489 113.281 543.755C109.18 540.955 104.167 538.839 98.2422 537.407C92.3177 535.975 85.5143 535.259 77.832 535.259ZM124.121 395.122L145.215 395.122L145.215 466.606L124.121 466.606L124.121 395.122ZM3.02731 458.501L145.215 458.501L145.215 485.356L3.02731 485.356L3.02731 458.501ZM70.5078 268.462L77.832 268.462C88.5742 268.462 98.2421 269.894 106.836 272.759C115.365 275.623 122.624 279.692 128.613 284.966C134.603 290.239 139.193 296.522 142.383 303.813C145.573 311.105 147.168 319.21 147.168 328.13C147.168 336.919 145.573 344.992 142.383 352.348C139.193 359.64 134.603 365.955 128.613 371.294C122.624 376.632 115.365 380.766 106.836 383.696C98.2421 386.626 88.5742 388.091 77.832 388.091L70.5078 388.091C59.7005 388.091 50.0325 386.626 41.5039 383.696C32.9752 380.766 25.7161 376.665 19.7265 371.391C13.6718 366.118 9.04944 359.835 5.85933 352.544C2.66923 345.187 1.07418 337.114 1.07418 328.325C1.07418 319.406 2.66923 311.3 5.85933 304.009C9.04944 296.717 13.6718 290.434 19.7265 285.161C25.7161 279.822 32.9752 275.721 41.5039 272.856C50.0325 269.927 59.7005 268.462 70.5078 268.462ZM77.832 295.61L70.3125 295.61C62.5651 295.61 55.7617 296.326 49.9023 297.759C43.9778 299.191 38.9974 301.307 34.9609 304.106C30.9244 306.906 27.8971 310.356 25.8789 314.458C23.7955 318.559 22.7539 323.182 22.7539 328.325C22.7539 333.533 23.7955 338.156 25.8789 342.192C27.8971 346.163 30.9244 349.549 34.9609 352.348C38.9974 355.148 43.9778 357.296 49.9023 358.794C55.7617 360.226 62.5651 360.942 70.3125 360.942L77.832 360.942C85.5143 360.942 92.3177 360.226 98.2421 358.794C104.167 357.296 109.18 355.148 113.281 352.348C117.318 349.484 120.378 346.033 122.461 341.997C124.544 337.96 125.586 333.338 125.586 328.13C125.586 322.921 124.544 318.299 122.461 314.262C120.378 310.226 117.318 306.841 113.281 304.106C109.18 301.307 104.167 299.191 98.2421 297.759C92.3177 296.326 85.5143 295.61 77.832 295.61ZM71.6796 134.77L127.051 134.77C129.72 136.854 132.617 140.141 135.742 144.634C138.867 149.061 141.569 154.855 143.848 162.016C146.061 169.178 147.168 177.967 147.168 188.384C147.168 197.433 145.671 205.701 142.676 213.188C139.616 220.675 135.156 227.121 129.297 232.524C123.437 237.928 116.276 242.094 107.812 245.024C99.3489 247.954 89.6809 249.419 78.8085 249.419L69.4335 249.419C58.5612 249.419 48.8932 248.052 40.4296 245.317C31.9661 242.518 24.8046 238.546 18.9453 233.403C13.0859 228.195 8.62626 221.977 5.56636 214.751C2.50646 207.459 0.976515 199.321 0.976515 190.337C0.976514 178.292 2.96219 168.397 6.93354 160.649C10.9049 152.837 16.3736 146.847 23.3398 142.68C30.2408 138.514 38.1835 135.91 47.1679 134.868L47.1679 161.04C42.22 161.756 37.8906 163.188 34.1796 165.337C30.4036 167.485 27.4739 170.545 25.3906 174.516C23.2421 178.423 22.1679 183.501 22.1679 189.751C22.1679 195.024 23.2096 199.679 25.2929 203.716C27.3763 207.752 30.4036 211.137 34.375 213.872C38.3463 216.606 43.2617 218.69 49.121 220.122C54.9804 221.489 61.6862 222.173 69.2382 222.173L78.8085 222.173C86.4257 222.173 93.1966 221.391 99.121 219.829C104.98 218.266 109.928 216.02 113.965 213.091C117.936 210.096 120.963 206.417 123.047 202.055C125.065 197.628 126.074 192.615 126.074 187.016C126.074 181.938 125.651 177.739 124.805 174.419C123.893 171.033 122.819 168.331 121.582 166.313C120.345 164.295 119.141 162.732 117.969 161.626L91.3085 161.626L91.3085 189.848L71.6796 189.848L71.6796 134.77ZM3.02729 92.7781L69.3359 61.5281L3.02729 30.0828L3.02729 0.590577L93.164 47.8562L145.215 47.8562L145.215 75.1023L93.164 75.1023L3.02729 122.466L3.02729 92.7781Z"/>
</mask>
<path d="M3.02734 1212.21L3.02734 1211.21L2.02734 1211.21L2.02734 1212.21L3.02734 1212.21ZM145.215 1212.21L146.215 1212.21L146.215 1211.21L145.215 1211.21L145.215 1212.21ZM145.215 1238.97L145.215 1239.97L146.215 1239.97L146.215 1238.97L145.215 1238.97ZM3.02734 1238.97L2.02734 1238.97L2.02734 1239.97L3.02734 1239.97L3.02734 1238.97ZM3.02734 1168.07L3.02734 1167.07L2.02734 1167.07L2.02734 1168.07L3.02734 1168.07ZM24.2187 1168.07L25.2187 1168.07L25.2187 1167.07L24.2187 1167.07L24.2187 1168.07ZM24.2187 1282.62L24.2187 1283.62L25.2187 1283.62L25.2187 1282.62L24.2187 1282.62ZM3.02734 1282.62L2.02734 1282.62L2.02734 1283.62L3.02734 1283.62L3.02734 1282.62ZM3.02734 1213.21L145.215 1213.21L145.215 1211.21L3.02734 1211.21L3.02734 1213.21ZM144.215 1212.21L144.215 1238.97L146.215 1238.97L146.215 1212.21L144.215 1212.21ZM145.215 1237.97L3.02734 1237.97L3.02734 1239.97L145.215 1239.97L145.215 1237.97ZM4.02734 1238.97L4.02734 1212.21L2.02734 1212.21L2.02734 1238.97L4.02734 1238.97ZM3.02734 1169.07L24.2187 1169.07L24.2187 1167.07L3.02734 1167.07L3.02734 1169.07ZM23.2187 1168.07L23.2187 1282.62L25.2187 1282.62L25.2187 1168.07L23.2187 1168.07ZM24.2187 1281.62L3.02734 1281.62L3.02734 1283.62L24.2187 1283.62L24.2187 1281.62ZM4.02734 1282.62L4.02734 1168.07L2.02734 1168.07L2.02734 1282.62L4.02734 1282.62ZM124.121 1055.96L124.121 1054.96L123.121 1054.96L123.121 1055.96L124.121 1055.96ZM145.215 1055.96L146.215 1055.96L146.215 1054.96L145.215 1054.96L145.215 1055.96ZM145.215 1131.55L145.215 1132.55L146.215 1132.55L146.215 1131.55L145.215 1131.55ZM124.121 1131.55L123.121 1131.55L123.121 1132.55L124.121 1132.55L124.121 1131.55ZM3.02734 1123.34L3.02734 1122.34L2.02734 1122.34L2.02734 1123.34L3.02734 1123.34ZM145.215 1123.34L146.215 1123.34L146.215 1122.34L145.215 1122.34L145.215 1123.34ZM145.215 1150.2L145.215 1151.2L146.215 1151.2L146.215 1150.2L145.215 1150.2ZM3.02734 1150.2L2.02734 1150.2L2.02734 1151.2L3.02734 1151.2L3.02734 1150.2ZM61.7187 1065.82L61.7187 1064.82L60.7187 1064.82L60.7187 1065.82L61.7187 1065.82ZM82.3242 1065.82L83.3242 1065.82L83.3242 1064.82L82.3242 1064.82L82.3242 1065.82ZM82.3242 1131.55L82.3242 1132.55L83.3242 1132.55L83.3242 1131.55L82.3242 1131.55ZM61.7187 1131.55L60.7187 1131.55L60.7187 1132.55L61.7187 1132.55L61.7187 1131.55ZM3.02733 1056.25L3.02733 1055.25L2.02733 1055.25L2.02733 1056.25L3.02733 1056.25ZM24.2187 1056.25L25.2187 1056.25L25.2187 1055.25L24.2187 1055.25L24.2187 1056.25ZM24.2187 1131.55L24.2187 1132.55L25.2187 1132.55L25.2187 1131.55L24.2187 1131.55ZM3.02734 1131.55L2.02734 1131.55L2.02734 1132.55L3.02734 1132.55L3.02734 1131.55ZM124.121 1056.96L145.215 1056.96L145.215 1054.96L124.121 1054.96L124.121 1056.96ZM144.215 1055.96L144.215 1131.55L146.215 1131.55L146.215 1055.96L144.215 1055.96ZM145.215 1130.55L124.121 1130.55L124.121 1132.55L145.215 1132.55L145.215 1130.55ZM125.121 1131.55L125.121 1055.96L123.121 1055.96L123.121 1131.55L125.121 1131.55ZM3.02734 1124.34L145.215 1124.34L145.215 1122.34L3.02734 1122.34L3.02734 1124.34ZM144.215 1123.34L144.215 1150.2L146.215 1150.2L146.215 1123.34L144.215 1123.34ZM145.215 1149.2L3.02734 1149.2L3.02734 1151.2L145.215 1151.2L145.215 1149.2ZM4.02734 1150.2L4.02734 1123.34L2.02734 1123.34L2.02734 1150.2L4.02734 1150.2ZM61.7187 1066.82L82.3242 1066.82L82.3242 1064.82L61.7187 1064.82L61.7187 1066.82ZM81.3242 1065.82L81.3242 1131.55L83.3242 1131.55L83.3242 1065.82L81.3242 1065.82ZM82.3242 1130.55L61.7187 1130.55L61.7187 1132.55L82.3242 1132.55L82.3242 1130.55ZM62.7187 1131.55L62.7187 1065.82L60.7187 1065.82L60.7187 1131.55L62.7187 1131.55ZM3.02733 1057.25L24.2187 1057.25L24.2187 1055.25L3.02733 1055.25L3.02733 1057.25ZM23.2187 1056.25L23.2187 1131.55L25.2187 1131.55L25.2187 1056.25L23.2187 1056.25ZM24.2187 1130.55L3.02734 1130.55L3.02734 1132.55L24.2187 1132.55L24.2187 1130.55ZM4.02734 1131.55L4.02733 1056.25L2.02733 1056.25L2.02734 1131.55L4.02734 1131.55ZM98.4375 954.106L97.4375 954.106L97.4375 955.013L98.3401 955.101L98.4375 954.106ZM98.4375 927.251L98.5126 926.254L97.4375 926.173L97.4375 927.251L98.4375 927.251ZM123.73 935.161L124.26 934.313L124.257 934.311L123.73 935.161ZM140.918 954.204L141.808 953.748L140.918 954.204ZM142.48 1007.91L143.393 1008.32L143.397 1008.31L142.48 1007.91ZM128.906 1026.18L129.552 1026.94L129.561 1026.93L128.906 1026.18ZM107.617 1037.7L107.922 1038.65L107.924 1038.65L107.617 1037.7ZM40.7226 1037.6L40.4109 1038.55L40.7226 1037.6ZM19.4336 1025.88L18.778 1026.64L18.7787 1026.64L19.4336 1025.88ZM5.76171 1007.43L4.84687 1007.83L4.84824 1007.83L5.76171 1007.43ZM7.42186 953.813L8.30304 954.286L8.306 954.28L7.42186 953.813ZM50.4883 927.153L51.4883 927.153L51.4883 926.054L50.3941 926.158L50.4883 927.153ZM50.4883 954.009L50.5749 955.005L51.4883 954.925L51.4883 954.009L50.4883 954.009ZM35.2539 957.915L35.6899 958.815L35.7011 958.809L35.2539 957.915ZM25.7812 967.094L26.658 967.575L26.6626 967.567L26.6671 967.559L25.7812 967.094ZM25.3906 996.977L24.4932 997.419L24.4962 997.424L25.3906 996.977ZM34.1797 1006.74L34.7408 1005.92L34.7344 1005.91L34.1797 1006.74ZM48.6328 1012.6L48.8544 1011.63L48.8521 1011.63L48.6328 1012.6ZM113.574 1007.33L114.103 1008.18L113.574 1007.33ZM122.656 967.778L121.762 968.225L121.765 968.231L122.656 967.778ZM113.477 958.305L112.996 959.182L113.007 959.188L113.477 958.305ZM99.4375 954.106L99.4375 927.251L97.4375 927.251L97.4375 954.106L99.4375 954.106ZM98.3624 928.248C107.724 928.953 115.997 931.547 123.204 936.011L124.257 934.311C116.75 929.661 108.161 926.981 98.5126 926.254L98.3624 928.248ZM123.2 936.009C130.329 940.464 135.938 946.672 140.028 954.66L141.808 953.748C137.564 945.46 131.715 938.972 124.26 934.313L123.2 936.009ZM140.028 954.66C144.106 962.624 146.168 972.322 146.168 983.794L148.168 983.794C148.168 972.088 146.064 962.06 141.808 953.748L140.028 954.66ZM146.168 983.794C146.168 992.595 144.627 1000.5 141.564 1007.51L143.397 1008.31C146.584 1001.01 148.168 992.831 148.168 983.794L146.168 983.794ZM141.568 1007.5C138.438 1014.47 134 1020.44 128.251 1025.42L129.561 1026.93C135.531 1021.76 140.143 1015.55 143.393 1008.32L141.568 1007.5ZM128.26 1025.41C122.447 1030.33 115.469 1034.11 107.31 1036.75L107.924 1038.65C116.302 1035.95 123.517 1032.05 129.552 1026.94L128.26 1025.41ZM107.312 1036.75C99.0935 1039.38 89.8563 1040.7 79.5898 1040.7L79.5898 1042.7C90.0265 1042.7 99.4742 1041.36 107.922 1038.65L107.312 1036.75ZM79.5898 1040.7L68.75 1040.7L68.75 1042.7L79.5898 1042.7L79.5898 1040.7ZM68.75 1040.7C58.4857 1040.7 49.2509 1039.35 41.0344 1036.65L40.4109 1038.55C48.8611 1041.33 58.3111 1042.7 68.75 1042.7L68.75 1040.7ZM41.0344 1036.65C32.8108 1033.95 25.8352 1030.11 20.0885 1025.13L18.7787 1026.64C24.7507 1031.82 31.9679 1035.78 40.4109 1038.55L41.0344 1036.65ZM20.0891 1025.13C14.275 1020.08 9.80575 1014.05 6.67518 1007.02L4.84824 1007.83C8.09787 1015.13 12.7432 1021.4 18.778 1026.64L20.0891 1025.13ZM6.67653 1007.02C3.54942 999.939 1.97655 992.006 1.97655 983.208L-0.0234508 983.208C-0.0234504 992.248 1.59379 1000.46 4.84688 1007.83L6.67653 1007.02ZM1.97655 983.208C1.97655 971.74 4.10272 962.114 8.30302 954.286L6.5407 953.34C2.14726 961.528 -0.0234513 971.499 -0.0234508 983.208L1.97655 983.208ZM8.306 954.28C12.4564 946.427 18.158 940.348 25.4146 936.02L24.39 934.302C16.8029 938.828 10.8509 945.184 6.53772 953.346L8.306 954.28ZM25.4146 936.02C32.6944 931.677 41.077 929.048 50.5824 928.149L50.3941 926.158C40.6287 927.081 31.954 929.79 24.39 934.302L25.4146 936.02ZM49.4883 927.153L49.4883 954.009L51.4883 954.009L51.4883 927.153L49.4883 927.153ZM50.4016 953.012C44.3213 953.541 39.1136 954.867 34.8067 957.02L35.7011 958.809C39.7276 956.796 44.6761 955.518 50.5749 955.005L50.4016 953.012ZM34.818 957.015C30.4585 959.126 27.1432 962.339 24.8954 966.63L26.6671 967.559C28.7161 963.647 31.716 960.74 35.6898 958.815L34.818 957.015ZM24.9044 966.614C22.5815 970.85 21.4609 976.406 21.4609 983.208L23.4609 983.208C23.4609 976.599 24.5539 971.412 26.658 967.575L24.9044 966.614ZM21.4609 983.208C21.4609 988.542 22.4617 993.288 24.4933 997.419L26.288 996.536C24.4133 992.724 23.4609 988.29 23.4609 983.208L21.4609 983.208ZM24.4962 997.424C26.5329 1001.5 29.5851 1004.88 33.625 1007.57L34.7344 1005.91C30.9617 1003.4 28.1545 1000.27 26.285 996.53L24.4962 997.424ZM33.6185 1007.57C37.5879 1010.26 42.5297 1012.26 48.4136 1013.58L48.8521 1011.63C43.1473 1010.34 38.4538 1008.43 34.7408 1005.92L33.6185 1007.57ZM48.4112 1013.58C54.2302 1014.9 60.948 1015.56 68.5547 1015.56L68.5547 1013.56C61.0572 1013.56 54.4937 1012.91 48.8544 1011.63L48.4112 1013.58ZM68.5547 1015.56L79.5898 1015.56L79.5898 1013.56L68.5547 1013.56L68.5547 1015.56ZM79.5898 1015.56C86.8686 1015.56 93.4154 1014.97 99.2238 1013.78L98.823 1011.82C93.1731 1012.97 86.7641 1013.56 79.5898 1013.56L79.5898 1015.56ZM99.2238 1013.78C105.041 1012.59 110.009 1010.73 114.103 1008.18L113.045 1006.48C109.197 1008.88 104.464 1010.66 98.823 1011.82L99.2238 1013.78ZM114.103 1008.18C118.215 1005.62 121.368 1002.3 123.539 998.229L121.774 997.288C119.778 1001.03 116.877 1004.09 113.045 1006.48L114.103 1008.18ZM123.539 998.229C125.714 994.149 126.781 989.326 126.781 983.794L124.781 983.794C124.781 989.069 123.765 993.555 121.774 997.288L123.539 998.229ZM126.781 983.794C126.781 977.124 125.726 971.614 123.548 967.325L121.765 968.231C123.753 972.145 124.781 977.312 124.781 983.794L126.781 983.794ZM123.551 967.331C121.376 962.982 118.17 959.671 113.946 957.423L113.007 959.188C116.856 961.237 119.769 964.241 121.762 968.225L123.551 967.331ZM113.957 957.429C109.772 955.133 104.62 953.706 98.5348 953.111L98.3401 955.101C104.235 955.678 109.108 957.05 112.996 959.182L113.957 957.429ZM61.7187 812.114L61.7187 811.114L60.7187 811.114L60.7187 812.114L61.7187 812.114ZM82.8125 812.114L83.8125 812.114L83.8125 811.114L82.8125 811.114L82.8125 812.114ZM82.8125 886.919L82.8125 887.919L83.8125 887.919L83.8125 886.919L82.8125 886.919ZM61.7187 886.919L60.7187 886.919L60.7187 887.919L61.7187 887.919L61.7187 886.919ZM3.02733 879.594L3.02733 878.594L2.02733 878.594L2.02733 879.594L3.02733 879.594ZM145.215 879.594L146.215 879.594L146.215 878.594L145.215 878.594L145.215 879.594ZM145.215 906.45L145.215 907.45L146.215 907.45L146.215 906.45L145.215 906.45ZM3.02733 906.45L2.02733 906.45L2.02733 907.45L3.02733 907.45L3.02733 906.45ZM3.02732 792.192L3.02732 791.192L2.02732 791.192L2.02732 792.192L3.02732 792.192ZM145.215 792.192L146.215 792.192L146.215 791.192L145.215 791.192L145.215 792.192ZM145.215 819.048L145.215 820.048L146.215 820.048L146.215 819.048L145.215 819.048ZM3.02732 819.048L2.02732 819.048L2.02732 820.048L3.02732 820.048L3.02732 819.048ZM61.7187 813.114L82.8125 813.114L82.8125 811.114L61.7187 811.114L61.7187 813.114ZM81.8125 812.114L81.8125 886.919L83.8125 886.919L83.8125 812.114L81.8125 812.114ZM82.8125 885.919L61.7187 885.919L61.7187 887.919L82.8125 887.919L82.8125 885.919ZM62.7187 886.919L62.7187 812.114L60.7187 812.114L60.7187 886.919L62.7187 886.919ZM3.02733 880.594L145.215 880.594L145.215 878.594L3.02733 878.594L3.02733 880.594ZM144.215 879.594L144.215 906.45L146.215 906.45L146.215 879.594L144.215 879.594ZM145.215 905.45L3.02733 905.45L3.02733 907.45L145.215 907.45L145.215 905.45ZM4.02733 906.45L4.02733 879.594L2.02733 879.594L2.02733 906.45L4.02733 906.45ZM3.02732 793.192L145.215 793.192L145.215 791.192L3.02732 791.192L3.02732 793.192ZM144.215 792.192L144.215 819.048L146.215 819.048L146.215 792.192L144.215 792.192ZM145.215 818.048L3.02732 818.048L3.02732 820.048L145.215 820.048L145.215 818.048ZM4.02732 819.048L4.02732 792.192L2.02732 792.192L2.02732 819.048L4.02732 819.048ZM3.02732 650.591L3.02732 649.591L2.02732 649.591L2.02732 650.591L3.02732 650.591ZM145.215 650.591L146.215 650.591L146.215 649.591L145.215 649.591L145.215 650.591ZM145.215 677.544L145.737 678.396L146.215 678.104L146.215 677.544L145.215 677.544ZM46.582 737.993L46.0595 737.14L43.0366 738.993L46.582 738.993L46.582 737.993ZM145.215 737.993L146.215 737.993L146.215 736.993L145.215 736.993L145.215 737.993ZM145.215 764.848L145.215 765.848L146.215 765.848L146.215 764.848L145.215 764.848ZM3.02732 764.848L2.02732 764.848L2.02732 765.848L3.02732 765.848L3.02732 764.848ZM3.02732 737.993L2.50393 737.141L2.02732 737.434L2.02732 737.993L3.02732 737.993ZM101.758 677.348L102.281 678.2L105.296 676.348L101.758 676.348L101.758 677.348ZM3.02732 677.348L2.02732 677.348L2.02732 678.348L3.02732 678.348L3.02732 677.348ZM3.02732 651.591L145.215 651.591L145.215 649.591L3.02732 649.591L3.02732 651.591ZM144.215 650.591L144.215 677.544L146.215 677.544L146.215 650.591L144.215 650.591ZM144.692 676.691L46.0595 737.14L47.1045 738.846L145.737 678.396L144.692 676.691ZM46.582 738.993L145.215 738.993L145.215 736.993L46.582 736.993L46.582 738.993ZM144.215 737.993L144.215 764.848L146.215 764.848L146.215 737.993L144.215 737.993ZM145.215 763.848L3.02732 763.848L3.02732 765.848L145.215 765.848L145.215 763.848ZM4.02732 764.848L4.02732 737.993L2.02732 737.993L2.02732 764.848L4.02732 764.848ZM3.55071 738.845L102.281 678.2L101.234 676.496L2.50393 737.141L3.55071 738.845ZM101.758 676.348L3.02732 676.348L3.02732 678.348L101.758 678.348L101.758 676.348ZM4.02732 677.348L4.02732 650.591L2.02732 650.591L2.02732 677.348L4.02732 677.348ZM106.836 512.407L107.154 511.459L107.152 511.458L106.836 512.407ZM142.383 543.462L141.467 543.862L142.383 543.462ZM142.383 591.997L143.299 592.398L143.3 592.395L142.383 591.997ZM128.613 610.942L129.279 611.689L128.613 610.942ZM106.836 623.344L107.159 624.291L107.161 624.29L106.836 623.344ZM41.5039 623.344L41.179 624.29L41.5039 623.344ZM19.7265 611.04L20.3874 610.289L20.3833 610.286L19.7265 611.04ZM5.85934 592.192L4.94188 592.59L4.94319 592.593L5.85934 592.192ZM5.85934 543.657L6.7755 544.058L5.85934 543.657ZM19.7265 524.809L20.3834 525.563L20.3919 525.556L19.7265 524.809ZM41.5039 512.505L41.8223 513.453L41.8288 513.45L41.5039 512.505ZM49.9023 537.407L50.1373 538.379L50.1398 538.378L49.9023 537.407ZM25.8789 554.106L26.7705 554.559L26.7761 554.548L25.8789 554.106ZM25.8789 581.841L26.7704 581.388L26.7675 581.382L25.8789 581.841ZM49.9023 598.442L49.6573 599.412L49.6649 599.414L49.9023 598.442ZM98.2422 598.442L98.4772 599.414L98.4872 599.412L98.2422 598.442ZM113.281 591.997L113.845 592.823L113.853 592.818L113.86 592.812L113.281 591.997ZM113.281 543.755L112.717 544.581L112.72 544.583L113.281 543.755ZM98.2422 537.407L98.0072 538.379L98.2422 537.407ZM70.5078 509.11L77.832 509.11L77.832 507.11L70.5078 507.11L70.5078 509.11ZM77.832 509.11C88.4861 509.11 98.0448 510.531 106.52 513.356L107.152 511.458C98.4395 508.554 88.6622 507.11 77.832 507.11L77.832 509.11ZM106.518 513.355C114.936 516.183 122.075 520.19 127.952 525.365L129.274 523.863C123.173 518.492 115.793 514.361 107.154 511.459L106.518 513.355ZM127.952 525.365C133.833 530.542 138.335 536.705 141.467 543.862L143.299 543.061C140.05 535.635 135.373 529.233 129.274 523.863L127.952 525.365ZM141.467 543.862C144.595 551.013 146.168 558.98 146.168 567.778L148.168 567.778C148.168 558.737 146.551 550.493 143.299 543.061L141.467 543.862ZM146.168 567.778C146.168 576.444 144.596 584.379 141.465 591.599L143.3 592.395C146.55 584.901 148.168 576.691 148.168 567.778L146.168 567.778ZM141.467 591.596C138.335 598.755 133.831 604.952 127.948 610.196L129.279 611.689C135.375 606.255 140.051 599.822 143.299 592.398L141.467 591.596ZM127.948 610.196C122.069 615.435 114.93 619.507 106.511 622.399L107.161 624.29C115.799 621.323 123.178 617.126 129.279 611.689L127.948 610.196ZM106.513 622.398C98.0404 625.286 88.484 626.739 77.832 626.739L77.832 628.739C88.6644 628.739 98.4439 627.262 107.159 624.291L106.513 622.398ZM77.832 626.739L70.5078 626.739L70.5078 628.739L77.832 628.739L77.832 626.739ZM70.5078 626.739C59.7897 626.739 50.2345 625.286 41.8288 622.399L41.179 624.29C49.8306 627.262 59.6112 628.739 70.5078 628.739L70.5078 626.739ZM41.8288 622.399C33.4078 619.506 26.2668 615.466 20.3873 610.289L19.0657 611.79C25.1654 617.161 32.5427 621.324 41.179 624.29L41.8288 622.399ZM20.3833 610.286C14.4391 605.109 9.90579 598.946 6.7755 591.791L4.94319 592.593C8.19311 600.021 12.9046 606.424 19.0698 611.794L20.3833 610.286ZM6.7768 591.794C3.64618 584.575 2.07419 576.639 2.07419 567.973L0.0741873 567.973C0.0741877 576.886 1.6923 585.096 4.94189 592.59L6.7768 591.794ZM2.07419 567.973C2.07419 559.175 3.64701 551.209 6.7755 544.058L4.94318 543.256C1.69147 550.689 0.0741869 558.933 0.0741873 567.973L2.07419 567.973ZM6.7755 544.058C9.90579 536.903 14.4391 530.741 20.3833 525.563L19.0697 524.055C12.9046 529.425 8.1931 535.828 4.94318 543.256L6.7755 544.058ZM20.3919 525.556C26.2691 520.318 33.4062 516.279 41.8223 513.453L41.1855 511.557C32.5443 514.459 25.1632 518.624 19.0612 524.063L20.3919 525.556ZM41.8288 513.45C50.2345 510.563 59.7897 509.11 70.5078 509.11L70.5078 507.11C59.6112 507.11 49.8306 508.587 41.179 511.559L41.8288 513.45ZM77.832 534.259L70.3125 534.259L70.3125 536.259L77.832 536.259L77.832 534.259ZM70.3125 534.259C62.5065 534.259 55.6203 534.98 49.6649 536.436L50.1398 538.378C55.9031 536.97 62.6237 536.259 70.3125 536.259L70.3125 534.259ZM49.6673 536.435C43.6508 537.89 38.55 540.048 34.391 542.933L35.5308 544.576C39.4447 541.862 44.3049 539.789 50.1373 538.379L49.6673 536.435ZM34.391 542.933C30.2256 545.822 27.0804 549.399 24.9816 553.665L26.7761 554.548C28.7138 550.61 31.6233 547.286 35.5308 544.576L34.391 542.933ZM24.9873 553.653C22.8246 557.911 21.7539 562.692 21.7539 567.973L23.7539 567.973C23.7539 562.969 24.7664 558.504 26.7705 554.559L24.9873 553.653ZM21.7539 567.973C21.7539 573.318 22.8237 578.101 24.9903 582.299L26.7675 581.382C24.7674 577.507 23.7539 573.046 23.7539 567.973L21.7539 567.973ZM24.9874 582.294C27.0881 586.427 30.2327 589.935 34.391 592.819L35.5308 591.175C31.6162 588.46 28.7061 585.197 26.7704 581.388L24.9874 582.294ZM34.391 592.819C38.5468 595.701 43.6438 597.892 49.6573 599.412L50.1474 597.473C44.3118 595.998 39.448 593.892 35.5308 591.175L34.391 592.819ZM49.6649 599.414C55.6203 600.869 62.5065 601.591 70.3125 601.591L70.3125 599.591C62.6237 599.591 55.9031 598.88 50.1398 597.471L49.6649 599.414ZM70.3125 601.591L77.832 601.591L77.832 599.591L70.3125 599.591L70.3125 601.591ZM77.832 601.591C85.574 601.591 92.4588 600.869 98.4771 599.414L98.0072 597.47C92.1765 598.88 85.4546 599.591 77.832 599.591L77.832 601.591ZM98.4872 599.412C104.5 597.892 109.627 595.702 113.845 592.823L112.717 591.171C108.732 593.891 103.833 595.998 97.9971 597.473L98.4872 599.412ZM113.86 592.812C118.015 589.864 121.186 586.295 123.35 582.104L121.572 581.187C119.569 585.069 116.621 588.401 112.702 591.181L113.86 592.812ZM123.35 582.104C125.516 577.906 126.586 573.122 126.586 567.778L124.586 567.778C124.586 572.85 123.572 577.312 121.572 581.187L123.35 582.104ZM126.586 567.778C126.586 562.434 125.516 557.65 123.35 553.452L121.572 554.37C123.572 558.245 124.586 562.706 124.586 567.778L126.586 567.778ZM123.35 553.452C121.184 549.256 118.006 545.748 113.842 542.927L112.72 544.583C116.629 547.23 119.571 550.492 121.572 554.37L123.35 553.452ZM113.845 542.929C109.624 540.048 104.493 537.889 98.4771 536.435L98.0072 538.379C103.84 539.789 108.736 541.863 112.717 544.581L113.845 542.929ZM98.4771 536.435C92.4588 534.98 85.574 534.259 77.832 534.259L77.832 536.259C85.4546 536.259 92.1765 536.969 98.0072 538.379L98.4771 536.435ZM124.121 395.122L124.121 394.122L123.121 394.122L123.121 395.122L124.121 395.122ZM145.215 395.122L146.215 395.122L146.215 394.122L145.215 394.122L145.215 395.122ZM145.215 466.606L145.215 467.606L146.215 467.606L146.215 466.606L145.215 466.606ZM124.121 466.606L123.121 466.606L123.121 467.606L124.121 467.606L124.121 466.606ZM3.02731 458.501L3.02731 457.501L2.02731 457.501L2.02731 458.501L3.02731 458.501ZM145.215 458.501L146.215 458.501L146.215 457.501L145.215 457.501L145.215 458.501ZM145.215 485.356L145.215 486.356L146.215 486.356L146.215 485.356L145.215 485.356ZM3.02731 485.356L2.02731 485.356L2.02731 486.356L3.02731 486.356L3.02731 485.356ZM124.121 396.122L145.215 396.122L145.215 394.122L124.121 394.122L124.121 396.122ZM144.215 395.122L144.215 466.606L146.215 466.606L146.215 395.122L144.215 395.122ZM145.215 465.606L124.121 465.606L124.121 467.606L145.215 467.606L145.215 465.606ZM125.121 466.606L125.121 395.122L123.121 395.122L123.121 466.606L125.121 466.606ZM3.02731 459.501L145.215 459.501L145.215 457.501L3.02731 457.501L3.02731 459.501ZM144.215 458.501L144.215 485.356L146.215 485.356L146.215 458.501L144.215 458.501ZM145.215 484.356L3.02731 484.356L3.02731 486.356L145.215 486.356L145.215 484.356ZM4.02731 485.356L4.02731 458.501L2.02731 458.501L2.02731 485.356L4.02731 485.356ZM106.836 272.759L107.154 271.811L107.152 271.81L106.836 272.759ZM142.383 303.813L141.467 304.214L142.383 303.813ZM142.383 352.348L143.299 352.749L143.3 352.746L142.383 352.348ZM128.613 371.294L129.279 372.04L128.613 371.294ZM106.836 383.696L107.159 384.643L107.161 384.642L106.836 383.696ZM41.5039 383.696L41.179 384.642L41.5039 383.696ZM19.7265 371.391L20.3873 370.641L20.3833 370.637L19.7265 371.391ZM5.85933 352.544L4.94187 352.942L4.94318 352.945L5.85933 352.544ZM5.85933 304.009L6.77549 304.409L5.85933 304.009ZM19.7265 285.161L20.3833 285.915L20.3919 285.907L19.7265 285.161ZM41.5039 272.856L41.8223 273.804L41.8287 273.802L41.5039 272.856ZM49.9023 297.759L50.1373 298.731L50.1398 298.73L49.9023 297.759ZM25.8789 314.458L26.7705 314.911L26.7761 314.899L25.8789 314.458ZM25.8789 342.192L26.7704 341.739L26.7675 341.734L25.8789 342.192ZM49.9023 358.794L49.6573 359.763L49.6648 359.765L49.9023 358.794ZM98.2421 358.794L98.4771 359.766L98.4872 359.763L98.2421 358.794ZM113.281 352.348L113.845 353.174L113.853 353.169L113.86 353.164L113.281 352.348ZM113.281 304.106L112.717 304.932L112.72 304.934L113.281 304.106ZM98.2421 297.759L98.0072 298.731L98.2421 297.759ZM70.5078 269.462L77.832 269.462L77.832 267.462L70.5078 267.462L70.5078 269.462ZM77.832 269.462C88.4861 269.462 98.0448 270.882 106.52 273.707L107.152 271.81C98.4395 268.906 88.6622 267.462 77.832 267.462L77.832 269.462ZM106.517 273.706C114.936 276.534 122.075 280.541 127.952 285.716L129.274 284.215C123.173 278.843 115.793 274.712 107.154 271.811L106.517 273.706ZM127.952 285.716C133.833 290.893 138.335 297.057 141.467 304.214L143.299 303.412C140.05 295.987 135.373 289.585 129.274 284.215L127.952 285.716ZM141.467 304.214C144.595 311.365 146.168 319.332 146.168 328.13L148.168 328.13C148.168 319.089 146.551 310.845 143.299 303.412L141.467 304.214ZM146.168 328.13C146.168 336.795 144.596 344.731 141.465 351.951L143.3 352.746C146.55 345.252 148.168 337.042 148.168 328.13L146.168 328.13ZM141.467 351.948C138.335 359.106 133.831 365.304 127.948 370.547L129.279 372.04C135.375 366.607 140.051 360.174 143.299 352.749L141.467 351.948ZM127.948 370.547C122.069 375.787 114.93 379.858 106.511 382.75L107.161 384.642C115.799 381.674 123.178 377.477 129.279 372.04L127.948 370.547ZM106.513 382.75C98.0404 385.638 88.484 387.091 77.832 387.091L77.832 389.091C88.6644 389.091 98.4439 387.613 107.159 384.643L106.513 382.75ZM77.832 387.091L70.5078 387.091L70.5078 389.091L77.832 389.091L77.832 387.091ZM70.5078 387.091C59.7897 387.091 50.2344 385.638 41.8287 382.75L41.179 384.642C49.8306 387.614 59.6112 389.091 70.5078 389.091L70.5078 387.091ZM41.8287 382.75C33.4077 379.858 26.2668 375.817 20.3873 370.641L19.0657 372.142C25.1654 377.512 32.5427 381.675 41.179 384.642L41.8287 382.75ZM20.3833 370.637C14.4391 365.46 9.90578 359.298 6.77549 352.143L4.94318 352.945C8.1931 360.373 12.9046 366.776 19.0697 372.145L20.3833 370.637ZM6.77679 352.146C3.64617 344.926 2.07418 336.99 2.07418 328.325L0.0741769 328.325C0.0741772 337.238 1.69229 345.448 4.94188 352.942L6.77679 352.146ZM2.07418 328.325C2.07418 319.527 3.64699 311.56 6.77549 304.409L4.94317 303.608C1.69146 311.04 0.0741765 319.284 0.0741769 328.325L2.07418 328.325ZM6.77549 304.409C9.90578 297.254 14.4391 291.092 20.3833 285.915L19.0697 284.407C12.9046 289.776 8.19309 296.179 4.94317 303.608L6.77549 304.409ZM20.3919 285.907C26.2691 280.669 33.4062 276.631 41.8223 273.804L41.1855 271.908C32.5443 274.811 25.1632 278.976 19.0611 284.414L20.3919 285.907ZM41.8287 273.802C50.2344 270.914 59.7897 269.462 70.5078 269.462L70.5078 267.462C59.6112 267.462 49.8306 268.939 41.179 271.91L41.8287 273.802ZM77.832 294.61L70.3125 294.61L70.3125 296.61L77.832 296.61L77.832 294.61ZM70.3125 294.61C62.5064 294.61 55.6203 295.331 49.6648 296.787L50.1398 298.73C55.9031 297.321 62.6237 296.61 70.3125 296.61L70.3125 294.61ZM49.6673 296.787C43.6507 298.241 38.55 300.4 34.391 303.284L35.5308 304.928C39.4447 302.213 44.3049 300.141 50.1373 298.731L49.6673 296.787ZM34.391 303.284C30.2256 306.173 27.0804 309.751 24.9816 314.016L26.7761 314.899C28.7137 310.961 31.6233 307.638 35.5308 304.928L34.391 303.284ZM24.9873 314.005C22.8246 318.263 21.7539 323.043 21.7539 328.325L23.7539 328.325C23.7539 323.32 24.7664 318.856 26.7704 314.911L24.9873 314.005ZM21.7539 328.325C21.7539 333.669 22.8236 338.453 24.9902 342.651L26.7675 341.734C24.7674 337.858 23.7539 333.397 23.7539 328.325L21.7539 328.325ZM24.9874 342.645C27.0881 346.779 30.2327 350.286 34.391 353.17L35.5308 351.527C31.6161 348.812 28.7061 345.548 26.7704 341.739L24.9874 342.645ZM34.391 353.17C38.5468 356.052 43.6438 358.243 49.6573 359.763L50.1473 357.824C44.3118 356.349 39.4479 354.243 35.5308 351.527L34.391 353.17ZM49.6648 359.765C55.6203 361.221 62.5064 361.942 70.3125 361.942L70.3125 359.942C62.6237 359.942 55.9031 359.231 50.1398 357.822L49.6648 359.765ZM70.3125 361.942L77.832 361.942L77.832 359.942L70.3125 359.942L70.3125 361.942ZM77.832 361.942C85.5739 361.942 92.4588 361.221 98.4771 359.766L98.0072 357.822C92.1765 359.231 85.4546 359.942 77.832 359.942L77.832 361.942ZM98.4872 359.763C104.5 358.243 109.627 356.053 113.845 353.174L112.717 351.522C108.732 354.242 103.833 356.349 97.9971 357.824L98.4872 359.763ZM113.86 353.164C118.015 350.215 121.186 346.646 123.35 342.455L121.572 341.538C119.569 345.42 116.621 348.752 112.702 351.533L113.86 353.164ZM123.35 342.455C125.516 338.258 126.586 333.474 126.586 328.13L124.586 328.13C124.586 333.202 123.572 337.663 121.572 341.538L123.35 342.455ZM126.586 328.13C126.586 322.785 125.516 318.002 123.35 313.804L121.572 314.721C123.572 318.596 124.586 323.057 124.586 328.13L126.586 328.13ZM123.35 313.804C121.184 309.608 118.006 306.099 113.842 303.278L112.72 304.934C116.629 307.582 119.571 310.844 121.572 314.721L123.35 313.804ZM113.845 303.28C109.624 300.399 104.493 298.241 98.4771 296.787L98.0072 298.731C103.84 300.141 108.736 302.214 112.717 304.932L113.845 303.28ZM98.4771 296.787C92.4588 295.332 85.5739 294.61 77.832 294.61L77.832 296.61C85.4546 296.61 92.1765 297.321 98.0072 298.731L98.4771 296.787ZM71.6796 134.77L71.6796 133.77L70.6796 133.77L70.6796 134.77L71.6796 134.77ZM127.051 134.77L127.666 133.982L127.395 133.77L127.051 133.77L127.051 134.77ZM135.742 144.634L134.921 145.205L134.925 145.21L135.742 144.634ZM143.848 162.016L144.803 161.721L144.801 161.713L143.848 162.016ZM142.676 213.188L143.601 213.567L143.604 213.56L142.676 213.188ZM129.297 232.524L128.619 231.789L129.297 232.524ZM40.4296 245.317L40.1156 246.267L40.1222 246.269L40.4296 245.317ZM18.9453 233.403L18.2809 234.151L18.2856 234.155L18.9453 233.403ZM5.56636 214.751L4.64425 215.138L4.64551 215.141L5.56636 214.751ZM6.93354 160.649L7.82344 161.105L7.82498 161.102L6.93354 160.649ZM23.3398 142.68L23.8531 143.539L23.8567 143.536L23.3398 142.68ZM47.1679 134.868L48.1679 134.868L48.1679 133.745L47.0527 133.875L47.1679 134.868ZM47.1679 161.04L47.3112 162.03L48.1679 161.906L48.1679 161.04L47.1679 161.04ZM34.1796 165.337L34.6742 166.206L34.6807 166.202L34.1796 165.337ZM25.3906 174.516L26.2668 174.998L26.2715 174.99L26.2761 174.981L25.3906 174.516ZM49.121 220.122L48.8836 221.093L48.8938 221.096L49.121 220.122ZM99.121 219.829L99.3761 220.796L99.3787 220.795L99.121 219.829ZM113.965 213.091L114.552 213.9L114.56 213.895L114.567 213.889L113.965 213.091ZM123.047 202.055L123.949 202.486L123.953 202.478L123.957 202.47L123.047 202.055ZM124.805 174.419L125.774 174.172L125.77 174.159L124.805 174.419ZM117.969 161.626L118.655 160.899L118.366 160.626L117.969 160.626L117.969 161.626ZM91.3085 161.626L91.3085 160.626L90.3085 160.626L90.3085 161.626L91.3085 161.626ZM91.3085 189.848L91.3085 190.848L92.3085 190.848L92.3085 189.848L91.3085 189.848ZM71.6796 189.848L70.6796 189.848L70.6796 190.848L71.6796 190.848L71.6796 189.848ZM71.6796 135.77L127.051 135.77L127.051 133.77L71.6796 133.77L71.6796 135.77ZM126.435 135.559C128.992 137.554 131.823 140.751 134.921 145.205L136.563 144.062C133.411 139.532 130.448 136.153 127.666 133.982L126.435 135.559ZM134.925 145.21C137.973 149.528 140.636 155.221 142.895 162.32L144.801 161.713C142.502 154.489 139.761 148.593 136.559 144.057L134.925 145.21ZM142.892 162.312C145.067 169.348 146.168 178.031 146.168 188.384L148.168 188.384C148.168 177.903 147.055 169.007 144.803 161.721L142.892 162.312ZM146.168 188.384C146.168 197.321 144.689 205.462 141.747 212.817L143.604 213.56C146.652 205.941 148.168 197.545 148.168 188.384L146.168 188.384ZM141.75 212.81C138.745 220.163 134.369 226.486 128.619 231.789L129.975 233.259C135.943 227.755 140.487 221.187 143.601 213.567L141.75 212.81ZM128.619 231.789C122.873 237.088 115.835 241.189 107.485 244.079L108.14 245.969C116.717 243 124.002 238.767 129.975 233.259L128.619 231.789ZM107.485 244.079C99.1468 246.966 89.5926 248.419 78.8085 248.419L78.8085 250.419C89.7692 250.419 99.551 248.942 108.14 245.969L107.485 244.079ZM78.8085 248.419L69.4335 248.419L69.4335 250.419L78.8085 250.419L78.8085 248.419ZM69.4335 248.419C58.6432 248.419 49.0821 247.062 40.7371 244.366L40.1222 246.269C48.7043 249.041 58.4791 250.419 69.4335 250.419L69.4335 248.419ZM40.7437 244.368C32.3893 241.604 25.3501 237.694 19.605 232.651L18.2856 234.155C24.2592 239.398 31.5429 243.431 40.1156 246.267L40.7437 244.368ZM19.6096 232.656C13.8614 227.546 9.48928 221.451 6.48721 214.361L4.64551 215.141C7.76324 222.504 12.3104 228.843 18.2809 234.151L19.6096 232.656ZM6.48846 214.364C3.48652 207.21 1.97651 199.206 1.97651 190.337L-0.0234854 190.337C-0.023485 199.436 1.52641 207.708 4.64426 215.138L6.48846 214.364ZM1.97651 190.337C1.97651 178.394 3.94678 168.668 7.82344 161.105L6.04365 160.193C1.97761 168.125 -0.023486 178.191 -0.0234854 190.337L1.97651 190.337ZM7.82498 161.102C11.718 153.444 17.0615 147.601 23.8531 143.539L22.8265 141.822C15.6858 146.093 10.0918 152.229 6.04211 160.196L7.82498 161.102ZM23.8567 143.536C30.621 139.452 38.4235 136.888 47.2831 135.861L47.0527 133.875C37.9436 134.931 29.8607 137.575 22.8229 141.824L23.8567 143.536ZM46.1679 134.868L46.1679 161.04L48.1679 161.04L48.1679 134.868L46.1679 134.868ZM47.0247 160.05C41.9713 160.781 37.5165 162.249 33.6786 164.471L34.6807 166.202C38.2647 164.127 42.4687 162.73 47.3112 162.03L47.0247 160.05ZM33.6851 164.468C29.7371 166.714 26.6743 169.917 24.505 174.052L26.2761 174.981C28.2736 171.173 31.0701 168.256 34.6742 166.206L33.6851 164.468ZM24.5144 174.034C22.2586 178.136 21.1679 183.396 21.1679 189.751L23.1679 189.751C23.1679 183.605 24.2257 178.709 26.2668 174.998L24.5144 174.034ZM21.1679 189.751C21.1679 195.158 22.2368 199.975 24.4043 204.174L26.1815 203.257C24.1824 199.384 23.1679 194.89 23.1679 189.751L21.1679 189.751ZM24.4043 204.174C26.5678 208.366 29.7095 211.874 33.8079 214.695L34.9421 213.048C31.0977 210.401 28.1847 207.138 26.1815 203.257L24.4043 204.174ZM33.8079 214.695C37.9008 217.514 42.9347 219.639 48.8836 221.093L49.3585 219.15C43.5886 217.74 38.7918 215.699 34.9421 213.048L33.8079 214.695ZM48.8938 221.096C54.8437 222.484 61.6281 223.173 69.2382 223.173L69.2382 221.173C61.7442 221.173 55.1171 220.494 49.3483 219.148L48.8938 221.096ZM69.2382 223.173L78.8085 223.173L78.8085 221.173L69.2382 221.173L69.2382 223.173ZM78.8085 223.173C86.4919 223.173 93.3511 222.385 99.3761 220.796L98.866 218.862C93.0421 220.398 86.3596 221.173 78.8085 221.173L78.8085 223.173ZM99.3787 220.795C105.332 219.208 110.398 216.915 114.552 213.9L113.377 212.281C109.459 215.125 104.629 217.325 98.8634 218.863L99.3787 220.795ZM114.567 213.889C118.663 210.801 121.795 206.997 123.949 202.486L122.144 201.624C120.132 205.837 117.21 209.391 113.363 212.292L114.567 213.889ZM123.957 202.47C126.043 197.895 127.074 192.737 127.074 187.016L125.074 187.016C125.074 192.494 124.087 197.362 122.137 201.641L123.957 202.47ZM127.074 187.016C127.074 181.891 126.648 177.601 125.774 174.172L123.836 174.666C124.654 177.877 125.074 181.986 125.074 187.016L127.074 187.016ZM125.77 174.159C124.845 170.721 123.739 167.92 122.435 165.791L120.729 166.836C121.899 168.743 122.942 171.346 123.839 174.679L125.77 174.159ZM122.435 165.791C121.171 163.729 119.914 162.087 118.655 160.899L117.282 162.353C118.368 163.378 119.519 164.861 120.729 166.836L122.435 165.791ZM117.969 160.626L91.3085 160.626L91.3085 162.626L117.969 162.626L117.969 160.626ZM90.3085 161.626L90.3085 189.848L92.3085 189.848L92.3085 161.626L90.3085 161.626ZM91.3085 188.848L71.6796 188.848L71.6796 190.848L91.3085 190.848L91.3085 188.848ZM72.6796 189.848L72.6796 134.77L70.6796 134.77L70.6796 189.848L72.6796 189.848ZM3.02729 92.7781L2.60098 91.8735L2.02729 92.1439L2.02729 92.7781L3.02729 92.7781ZM69.3359 61.5281L69.7622 62.4326L71.6756 61.5309L69.7644 60.6245L69.3359 61.5281ZM3.02729 30.0828L2.02729 30.0828L2.02729 30.7153L2.5988 30.9863L3.02729 30.0828ZM3.02729 0.590577L3.49169 -0.295043L2.02729 -1.06299L2.02729 0.590577L3.02729 0.590577ZM93.164 47.8562L92.6996 48.7418L92.9177 48.8562L93.164 48.8562L93.164 47.8562ZM145.215 47.8562L146.215 47.8562L146.215 46.8562L145.215 46.8562L145.215 47.8562ZM145.215 75.1023L145.215 76.1023L146.215 76.1023L146.215 75.1023L145.215 75.1023ZM93.164 75.1023L93.164 74.1023L92.9173 74.1023L92.6989 74.217L93.164 75.1023ZM3.02729 122.466L2.02729 122.466L2.02729 124.121L3.49245 123.351L3.02729 122.466ZM3.4536 93.6826L69.7622 62.4326L68.9096 60.6235L2.60098 91.8735L3.4536 93.6826ZM69.7644 60.6245L3.45578 29.1792L2.5988 30.9863L68.9074 62.4316L69.7644 60.6245ZM4.02729 30.0828L4.02729 0.590577L2.02729 0.590577L2.02729 30.0828L4.02729 30.0828ZM2.56289 1.4762L92.6996 48.7418L93.6284 46.9706L3.49169 -0.295043L2.56289 1.4762ZM93.164 48.8562L145.215 48.8562L145.215 46.8562L93.164 46.8562L93.164 48.8562ZM144.215 47.8562L144.215 75.1023L146.215 75.1023L146.215 47.8562L144.215 47.8562ZM145.215 74.1023L93.164 74.1023L93.164 76.1023L145.215 76.1023L145.215 74.1023ZM92.6989 74.217L2.56214 121.58L3.49245 123.351L93.6292 75.9875L92.6989 74.217ZM4.02729 122.466L4.02729 92.7781L2.02729 92.7781L2.02729 122.466L4.02729 122.466Z" fill="#0E35E3" fill-opacity="0.5" mask="url(#path-1-outside-1_394_450)"/>
</svg>
