<svg width="230" height="57" viewBox="0 0 230 57" fill="none" xmlns="http://www.w3.org/2000/svg">
<path d="M71.5911 32.0408C71.5911 34.2208 70.8311 35.8508 69.3111 36.9308C67.9911 37.8508 66.2011 38.3108 63.9411 38.3108H57.1311V16.5008H66.0111C67.4311 16.5008 68.6511 17.1408 69.6711 18.4208C70.6511 19.6208 71.1411 20.9408 71.1411 22.3808C71.1411 24.3008 70.3911 25.8008 68.8911 26.8808C70.6911 28.0608 71.5911 29.7808 71.5911 32.0408ZM68.3511 31.8608C68.3511 30.2408 67.5811 29.2208 66.0411 28.8008C65.3811 28.6208 63.9511 28.5308 61.7511 28.5308V25.5908C63.8711 25.5908 65.2211 25.5008 65.8011 25.3208C67.1811 24.9208 67.8711 23.9208 67.8711 22.3208C67.8711 20.3608 66.4311 19.3808 63.5511 19.3808H60.5211V35.3408H63.7911C66.8311 35.3408 68.3511 34.1808 68.3511 31.8608ZM77.9445 38.3108H74.6145V16.5008H77.9445V38.3108ZM97.5973 30.1808C97.5973 32.4808 96.7773 34.4508 95.1373 36.0908C93.4973 37.7308 91.5273 38.5508 89.2273 38.5508C86.9273 38.5508 84.9573 37.7308 83.3173 36.0908C81.6773 34.4508 80.8573 32.4808 80.8573 30.1808C80.8573 27.8808 81.6773 25.9108 83.3173 24.2708C84.9573 22.6308 86.9273 21.8108 89.2273 21.8108C91.5473 21.8108 93.5173 22.6308 95.1373 24.2708C96.7773 25.9108 97.5973 27.8808 97.5973 30.1808ZM94.2973 30.1208C94.2973 28.7008 93.8073 27.4908 92.8273 26.4908C91.8473 25.4708 90.6473 24.9608 89.2273 24.9608C87.7873 24.9608 86.5873 25.4708 85.6273 26.4908C84.6673 27.5108 84.1873 28.7408 84.1873 30.1808C84.1873 31.6208 84.6673 32.8508 85.6273 33.8708C86.5873 34.8908 87.7873 35.4008 89.2273 35.4008C90.6673 35.4008 91.8673 34.8908 92.8273 33.8708C93.8073 32.8308 94.2973 31.5808 94.2973 30.1208ZM113.683 35.8508C112.063 37.7108 109.973 38.6408 107.413 38.6408C105.053 38.6408 103.063 37.8408 101.443 36.2408C99.8429 34.6408 99.0429 32.6608 99.0429 30.3008C99.0429 27.8808 99.8529 25.8608 101.473 24.2408C103.113 22.6008 105.143 21.7808 107.563 21.7808C109.903 21.7808 111.833 22.5908 113.353 24.2108L111.043 26.4608C110.083 25.4608 108.863 24.9608 107.383 24.9608C105.923 24.9608 104.713 25.4708 103.753 26.4908C102.813 27.5108 102.343 28.7508 102.343 30.2108C102.343 31.6908 102.833 32.9408 103.813 33.9608C104.793 34.9608 106.013 35.4608 107.473 35.4608C109.053 35.4608 110.343 34.8508 111.343 33.6308L113.683 35.8508ZM129.385 37.2908L129.355 38.3108H125.905C125.905 36.2508 125.345 34.4308 124.225 32.8508C123.005 31.1308 121.405 30.1808 119.425 30.0008L126.985 21.5408L129.265 23.6108L124.405 29.1008C127.785 30.9208 129.445 33.6508 129.385 37.2908ZM119.215 38.3108H115.945V16.5008H119.215V38.3108ZM145.872 38.3108H142.662C142.662 38.0508 142.702 37.2608 142.782 35.9408C142.862 34.6208 142.902 33.5208 142.902 32.6408C142.902 27.4008 141.452 24.7808 138.552 24.7808C135.652 24.7808 134.202 26.5408 134.202 30.0608V38.3108H130.962V16.5008H134.202V22.2908C134.202 23.1308 134.032 23.9608 133.692 24.7808C134.172 23.8008 134.882 23.0308 135.822 22.4708C136.762 21.9108 137.782 21.6308 138.882 21.6308C141.142 21.6308 142.892 22.4208 144.132 24.0008C145.292 25.4608 145.872 27.3508 145.872 29.6708V38.3108ZM164.629 30.1808C164.629 32.4808 163.809 34.4508 162.169 36.0908C160.529 37.7308 158.559 38.5508 156.259 38.5508C153.959 38.5508 151.989 37.7308 150.349 36.0908C148.709 34.4508 147.889 32.4808 147.889 30.1808C147.889 27.8808 148.709 25.9108 150.349 24.2708C151.989 22.6308 153.959 21.8108 156.259 21.8108C158.579 21.8108 160.549 22.6308 162.169 24.2708C163.809 25.9108 164.629 27.8808 164.629 30.1808ZM161.329 30.1208C161.329 28.7008 160.839 27.4908 159.859 26.4908C158.879 25.4708 157.679 24.9608 156.259 24.9608C154.819 24.9608 153.619 25.4708 152.659 26.4908C151.699 27.5108 151.219 28.7408 151.219 30.1808C151.219 31.6208 151.699 32.8508 152.659 33.8708C153.619 34.8908 154.819 35.4008 156.259 35.4008C157.699 35.4008 158.899 34.8908 159.859 33.8708C160.839 32.8308 161.329 31.5808 161.329 30.1208ZM182.454 38.3108H179.184V37.5308C179.184 36.8508 179.334 36.1808 179.634 35.5208C179.174 36.5208 178.454 37.2908 177.474 37.8308C176.574 38.3308 175.554 38.5808 174.414 38.5808C172.174 38.5808 170.444 37.8108 169.224 36.2708C168.104 34.8508 167.544 32.9908 167.544 30.6908V21.9608H170.754V30.2408C170.754 31.7008 171.074 32.9108 171.714 33.8708C172.454 34.9708 173.524 35.5208 174.924 35.5208C177.764 35.5208 179.184 33.7708 179.184 30.2708V21.9608H182.454V38.3108ZM196.58 33.2408C196.58 34.9008 196.02 36.2308 194.9 37.2308C193.8 38.2108 192.41 38.7008 190.73 38.7008C189.11 38.7008 187.81 38.2108 186.83 37.2308C185.85 36.2308 185.31 34.9108 185.21 33.2708H188.39C188.43 34.0508 188.68 34.6708 189.14 35.1308C189.6 35.5908 190.21 35.8208 190.97 35.8208C191.63 35.8208 192.17 35.6308 192.59 35.2508C193.03 34.8708 193.25 34.3608 193.25 33.7208C193.25 32.8408 192.58 32.1208 191.24 31.5608C188.76 30.5408 187.5 30.0208 187.46 30.0008C186.12 29.1808 185.45 28.0108 185.45 26.4908C185.45 24.9708 185.96 23.7508 186.98 22.8308C188.02 21.9108 189.3 21.4508 190.82 21.4508C192.32 21.4508 193.54 21.9108 194.48 22.8308C195.42 23.7308 195.95 24.9208 196.07 26.4008H192.74C192.44 25.1208 191.85 24.4808 190.97 24.4808C190.45 24.4808 189.98 24.6208 189.56 24.9008C189.1 25.2408 188.87 25.6608 188.87 26.1608C188.87 26.8408 189.54 27.4308 190.88 27.9308C192.92 28.7108 194.15 29.2408 194.57 29.5208C195.91 30.4208 196.58 31.6608 196.58 33.2408ZM215.261 30.3008C215.261 30.7208 215.231 31.1308 215.171 31.5308H203.921V28.7408H211.841C211.561 27.6608 210.951 26.7808 210.011 26.1008C209.091 25.4008 208.071 25.0508 206.951 25.0508C205.471 25.0508 204.241 25.5508 203.261 26.5508C202.301 27.5308 201.821 28.7608 201.821 30.2408C201.821 31.7208 202.311 32.9708 203.291 33.9908C204.271 35.0108 205.491 35.5208 206.951 35.5208C208.431 35.5208 209.681 34.9708 210.701 33.8708L213.071 35.9108C211.611 37.7308 209.541 38.6408 206.861 38.6408C204.501 38.6408 202.521 37.8508 200.921 36.2708C199.321 34.6908 198.521 32.7208 198.521 30.3608C198.521 27.9408 199.331 25.9308 200.951 24.3308C202.591 22.7108 204.611 21.9008 207.011 21.9008C209.311 21.9008 211.261 22.7308 212.861 24.3908C214.461 26.0308 215.261 28.0008 215.261 30.3008Z" fill="white"/>
<g clip-path="url(#clip0_1785_1304)">
<path d="M43.2344 36.3934V19.9763L28.6515 11.6848L14.2344 19.9763V36.5592L28.6515 44.8506L43.2344 36.3934Z" fill="white"/>
</g>
<defs>
<clipPath id="clip0_1785_1304">
<rect width="29" height="33" fill="white" transform="translate(14.2344 11.6848)"/>
</clipPath>
</defs>
</svg>
