<svg width="230" height="57" viewBox="0 0 230 57" fill="none" xmlns="http://www.w3.org/2000/svg">
<path d="M89.3336 18.5824L86.9036 20.6824C86.3636 20.0824 85.6736 19.7824 84.8336 19.7824C84.1136 19.7824 83.5236 20.0424 83.0636 20.5624C82.6236 21.0624 82.4236 21.6724 82.4636 22.3924H87.5636V25.2724H82.4336V38.7424H79.0736V25.3024H77.5436V22.3924H79.1336C79.2736 20.7324 79.8536 19.3724 80.8736 18.3124C81.8936 17.2324 83.2236 16.6924 84.8636 16.6924C86.6236 16.6924 88.1136 17.3224 89.3336 18.5824ZM92.9992 38.7424H89.6692V16.9324H92.9992V38.7424ZM100.472 20.4724H97.112V16.9324H100.472V20.4724ZM100.412 38.7424H97.112V22.3924H100.412V38.7424ZM113.131 25.2424H108.721V38.7424H105.421V25.3024H103.171V22.3924H105.451V16.9324H108.781V22.3924H113.131V25.2424ZM131.643 30.7324C131.643 31.1524 131.613 31.5624 131.553 31.9624H120.303V29.1724H128.223C127.943 28.0924 127.333 27.2124 126.393 26.5324C125.473 25.8324 124.453 25.4824 123.333 25.4824C121.853 25.4824 120.623 25.9824 119.643 26.9824C118.683 27.9624 118.203 29.1924 118.203 30.6724C118.203 32.1524 118.693 33.4024 119.673 34.4224C120.653 35.4424 121.873 35.9524 123.333 35.9524C124.813 35.9524 126.063 35.4024 127.083 34.3024L129.453 36.3424C127.993 38.1624 125.923 39.0724 123.243 39.0724C120.883 39.0724 118.903 38.2824 117.303 36.7024C115.703 35.1224 114.903 33.1524 114.903 30.7924C114.903 28.3724 115.713 26.3624 117.333 24.7624C118.973 23.1424 120.993 22.3324 123.393 22.3324C125.693 22.3324 127.643 23.1624 129.243 24.8224C130.843 26.4624 131.643 28.4324 131.643 30.7324ZM156.277 36.2824C154.657 38.1424 152.567 39.0724 150.007 39.0724C147.647 39.0724 145.657 38.2724 144.037 36.6724C142.437 35.0724 141.637 33.0924 141.637 30.7324C141.637 28.3124 142.447 26.2924 144.067 24.6724C145.707 23.0324 147.737 22.2124 150.157 22.2124C152.497 22.2124 154.427 23.0224 155.947 24.6424L153.637 26.8924C152.677 25.8924 151.457 25.3924 149.977 25.3924C148.517 25.3924 147.307 25.9024 146.347 26.9224C145.407 27.9424 144.937 29.1824 144.937 30.6424C144.937 32.1224 145.427 33.3724 146.407 34.3924C147.387 35.3924 148.607 35.8924 150.067 35.8924C151.647 35.8924 152.937 35.2824 153.937 34.0624L156.277 36.2824ZM162.259 20.4724H158.899V16.9324H162.259V20.4724ZM162.199 38.7424H158.899V22.3924H162.199V38.7424ZM174.918 25.2424H170.508V38.7424H167.208V25.3024H164.958V22.3924H167.238V16.9324H170.568V22.3924H174.918V25.2424ZM193.731 22.3924L182.391 44.2024H178.761L183.081 35.9524L176.121 22.3924H179.811L184.941 32.5024L190.101 22.3924H193.731Z" fill="white"/>
<g clip-path="url(#clip0_1785_1300)">
<path d="M68.0857 26.9677H67.5684H67.0154H58.3997H57.3295H53.2624C53.0305 26.272 52.3705 25.7725 51.5857 25.7725C50.6046 25.7725 49.8197 26.5574 49.8197 27.5385C49.8197 28.5196 50.6046 29.3044 51.5857 29.3044C52.3884 29.3044 53.0662 28.7693 53.2803 28.0379H57.3473C57.1511 31.0347 54.6359 33.4071 51.6035 33.4071C48.4284 33.4071 45.8419 30.8206 45.8419 27.6455C45.8419 24.4704 48.4284 21.8839 51.6035 21.8839C53.1019 21.8839 54.4576 22.4547 55.4743 23.3823H56.937C55.6884 21.8125 53.7619 20.8136 51.6035 20.8136C47.8397 20.8136 44.7716 23.8817 44.7716 27.6455C44.7716 31.4093 47.8397 34.4774 51.6035 34.4774C55.2424 34.4774 58.2214 31.6233 58.4354 28.0379H67.0332C66.8192 36.3682 59.9873 43.0752 51.6035 43.0752C43.0949 43.0752 36.1738 36.1542 36.1738 27.6455C36.1738 19.1369 43.0949 12.2158 51.6035 12.2158C59.0954 12.2158 65.3565 17.585 66.7478 24.6844H67.8359C66.4268 16.9963 59.6841 11.1455 51.6035 11.1455C42.5062 11.1455 35.1035 18.5482 35.1035 27.6455C35.1035 36.7428 42.5062 44.1455 51.6035 44.1455C60.7008 44.1455 68.1035 36.7428 68.1035 27.6455C68.1035 27.4136 68.0857 27.1996 68.0857 26.9677Z" fill="#E02F00"/>
<path d="M61.2361 19.0833C61.0577 19.0833 60.8971 19.0119 60.7901 18.8692C58.8815 16.2114 56.4198 14.8914 53.4588 14.9092C51.229 14.927 49.588 15.7297 49.5701 15.7297C49.3025 15.8546 48.9815 15.7476 48.8566 15.48C48.7317 15.2124 48.8388 14.8914 49.1063 14.7665C49.1777 14.7308 50.908 13.8924 53.2625 13.8389C53.3339 13.8389 53.3874 13.8389 53.4588 13.8389C55.742 13.8211 59.0242 14.5703 61.6642 18.2449C61.8425 18.4768 61.789 18.8157 61.5393 18.9941C61.4501 19.0476 61.3431 19.0833 61.2361 19.0833Z" fill="#E02F00"/>
<path d="M59.2742 20.6353C59.0958 20.6353 58.8996 20.5461 58.8104 20.3856C57.7937 18.7267 56.5093 17.6921 54.9931 17.3175C52.4245 16.711 50.0342 18.1737 49.9985 18.1737C49.7488 18.3342 49.4099 18.245 49.2672 17.9953C49.1066 17.7456 49.1958 17.4067 49.4456 17.264C49.5526 17.1926 52.2639 15.5515 55.2429 16.265C57.0445 16.6931 58.5607 17.8883 59.7202 19.8148C59.8807 20.0645 59.7915 20.4034 59.5418 20.5461C59.4526 20.6175 59.3634 20.6353 59.2742 20.6353Z" fill="#E02F00"/>
<path d="M57.5252 21.9196C57.3469 21.9196 57.1507 21.8304 57.0615 21.6698C54.8139 18.0131 51.282 20.0466 51.1215 20.1358C50.8717 20.2785 50.5328 20.2071 50.3901 19.9574C50.2474 19.7077 50.3188 19.3688 50.5685 19.2261C50.622 19.1904 55.1707 16.5504 57.9712 21.1169C58.1317 21.3666 58.0425 21.7055 57.7928 21.8482C57.7036 21.8839 57.6144 21.9196 57.5252 21.9196Z" fill="#E02F00"/>
<path d="M51.3891 42.1477C51.3177 42.1477 51.2642 42.1477 51.1929 42.1656C48.9096 42.2904 45.6096 41.684 42.8091 38.1164C42.6307 37.8845 42.6664 37.5456 42.8983 37.3672C43.1302 37.1888 43.4691 37.2245 43.6475 37.4564C48.4459 43.5391 54.7248 40.2391 54.9923 40.0964C55.2599 39.9537 55.581 40.0607 55.7237 40.3104C55.8664 40.578 55.7772 40.8991 55.5096 41.0418C55.4383 41.0775 53.7437 41.9872 51.3891 42.1477Z" fill="#E02F00"/>
<path d="M51.0682 39.9001C50.5153 39.9357 49.9266 39.9179 49.3023 39.793C47.4828 39.4363 45.9309 38.3125 44.6823 36.4395C44.5217 36.1898 44.5931 35.8687 44.825 35.6903C45.0747 35.5298 45.3958 35.6012 45.5742 35.833C46.6623 37.4563 47.9823 38.4195 49.4985 38.7228C52.0672 39.2222 54.4396 37.6525 54.4574 37.6525C54.7072 37.492 55.0282 37.5455 55.2066 37.7952C55.3672 38.0449 55.3136 38.366 55.0639 38.5444C54.9747 38.6157 53.2801 39.7395 51.0682 39.9001Z" fill="#E02F00"/>
<path d="M51.0152 37.5811C49.5704 37.6882 47.8044 37.2244 46.3774 35.1017C46.2169 34.852 46.2704 34.5309 46.5201 34.3525C46.7698 34.192 47.0909 34.2455 47.2693 34.4952C49.6596 38.0449 53.1201 35.8509 53.2628 35.7617C53.5125 35.6011 53.8336 35.6725 54.012 35.9222C54.1725 36.172 54.1012 36.493 53.8515 36.6536C53.8336 36.6714 52.6028 37.4563 51.0152 37.5811Z" fill="#E02F00"/>
</g>
<defs>
<clipPath id="clip0_1785_1300">
<rect width="33" height="33" fill="white" transform="translate(35.1035 11.1455)"/>
</clipPath>
</defs>
</svg>
