<svg width="230" height="57" viewBox="0 0 230 57" fill="none" xmlns="http://www.w3.org/2000/svg">
<g clip-path="url(#clip0_1785_1301)">
<path d="M81.8863 41.1488H75.6863V31.1488C75.6863 30.5488 75.4863 30.1488 75.1863 29.7488C74.8863 29.3488 74.3863 29.2488 73.7863 29.2488C72.8863 29.2488 71.9863 29.6488 71.2863 30.5488V41.1488H65.0863V31.1488C65.0863 29.8488 64.4863 29.2488 63.1863 29.2488C62.2863 29.2488 61.3863 29.6488 60.6863 30.5488V41.1488H54.4863V23.9488H60.6863V25.9488C61.0863 25.3488 61.8863 24.8488 62.8863 24.3488C63.8863 23.8488 64.9863 23.5488 66.1863 23.5488C68.6863 23.5488 70.2863 24.5488 70.9863 26.5488C71.4863 25.7488 72.2863 25.0488 73.2863 24.4488C74.2863 23.8488 75.4863 23.5488 76.7863 23.5488C78.3863 23.5488 79.5863 23.9488 80.4863 24.8488C81.3863 25.7488 81.8863 26.9488 81.8863 28.7488V41.1488Z" fill="#E5EFFF"/>
<path d="M91.8863 21.6488C91.1863 22.3488 90.3863 22.6488 89.4863 22.6488C88.4863 22.6488 87.6863 22.3488 86.9863 21.6488C86.2863 20.9488 85.9863 20.0488 85.9863 19.0488C85.9863 18.0488 86.2863 17.2488 86.9863 16.5488C87.6863 15.9488 88.4863 15.5488 89.3863 15.5488C90.3863 15.5488 91.1863 15.9488 91.7863 16.6488C92.4863 17.3488 92.7863 18.1488 92.7863 19.1488C92.8863 20.1488 92.5863 20.9488 91.8863 21.6488ZM92.4863 41.1488H86.2863V23.9488H92.4863V41.1488Z" fill="#E5EFFF"/>
<path d="M105.187 41.5488C102.487 41.5488 100.287 40.7488 98.4867 39.0488C96.6867 37.3488 95.8867 35.2488 95.8867 32.5488C95.8867 29.8488 96.7867 27.7488 98.4867 26.0488C100.287 24.3488 102.487 23.5488 105.187 23.5488C106.887 23.5488 108.387 23.8488 109.587 24.5488C110.787 25.1488 111.687 25.9488 112.187 26.7488L108.187 30.6488C107.587 29.6488 106.687 29.1488 105.387 29.1488C104.487 29.1488 103.687 29.4488 103.087 30.0488C102.487 30.6488 102.187 31.4488 102.187 32.5488C102.187 33.6488 102.487 34.4488 103.087 35.0488C103.687 35.6488 104.487 35.9488 105.387 35.9488C106.587 35.9488 107.487 35.4488 108.187 34.4488L112.187 38.3488C111.687 39.2488 110.787 39.9488 109.587 40.6488C108.387 41.2488 106.887 41.5488 105.187 41.5488Z" fill="#E5EFFF"/>
<path d="M121.486 41.1487H115.286V23.9487H121.486V25.8487C121.986 25.2487 122.786 24.6487 123.686 24.1487C124.686 23.6487 125.586 23.4487 126.586 23.4487V29.5487C126.286 29.4487 125.786 29.3487 125.186 29.3487C123.386 29.3487 122.186 29.7487 121.486 30.5487V41.1487Z" fill="#E5EFFF"/>
<path d="M144.686 38.9488C142.986 40.7488 140.686 41.5488 137.886 41.5488C135.086 41.5488 132.786 40.6488 131.086 38.9488C129.386 37.1488 128.586 35.0488 128.586 32.5488C128.586 30.0488 129.386 27.9488 131.086 26.1488C132.786 24.3488 135.086 23.5488 137.886 23.5488C140.686 23.5488 142.986 24.4488 144.686 26.1488C146.386 27.8488 147.186 29.9488 147.186 32.5488C147.186 35.0488 146.386 37.1488 144.686 38.9488ZM137.886 35.9488C138.786 35.9488 139.586 35.6488 140.086 35.0488C140.586 34.4488 140.886 33.5488 140.886 32.5488C140.886 31.5488 140.586 30.7488 140.086 30.1488C139.586 29.5488 138.786 29.1488 137.886 29.1488C136.986 29.1488 136.286 29.4488 135.686 30.1488C135.186 30.7488 134.886 31.5488 134.886 32.5488C134.886 33.5488 135.186 34.3488 135.686 35.0488C136.186 35.5488 136.886 35.9488 137.886 35.9488Z" fill="#E5EFFF"/>
<path d="M163.587 41.1487H156.687V26.5487L152.787 30.5487L148.887 26.3487L157.687 17.4487H163.687V41.1487H163.587Z" fill="#E5EFFF"/>
<path d="M173.886 40.4487C173.186 41.2487 172.286 41.5487 171.286 41.5487C170.286 41.5487 169.486 41.1487 168.686 40.4487C167.986 39.6487 167.586 38.8487 167.586 37.7487C167.586 36.6487 167.986 35.8487 168.686 35.0487C169.386 34.2487 170.286 33.9487 171.286 33.9487C172.286 33.9487 173.086 34.3487 173.886 35.0487C174.586 35.8487 174.986 36.6487 174.986 37.7487C174.986 38.8487 174.586 39.6487 173.886 40.4487Z" fill="#3444DA"/>
</g>
<defs>
<clipPath id="clip0_1785_1301">
<rect width="120.5" height="26" fill="white" transform="translate(54.4863 15.5488)"/>
</clipPath>
</defs>
</svg>
